<svg width="56" height="56" viewBox="0 0 56 56" fill="none" xmlns="http://www.w3.org/2000/svg">
<g clip-path="url(#clip0_153_636)">
<path d="M17.2595 0.634154C20.5626 -1.6846 27.497 2.5154 32.747 10.0076C37.997 17.4998 39.5611 25.4513 36.247 27.7592C32.9329 30.0779 26.0095 25.8779 20.7595 18.3967C15.5095 10.9154 13.9455 2.9529 17.2595 0.634154Z" fill="url(#paint0_linear_153_636)"/>
<path d="M20.3877 5.10771C21.8314 4.10146 23.3189 3.74053 23.7127 4.30928C24.1064 4.87803 23.2642 6.15771 21.8205 7.16396C20.3767 8.17021 18.8892 8.53115 18.4955 7.9624C18.1017 7.39365 18.9549 6.1249 20.3877 5.10771Z" fill="url(#paint1_linear_153_636)"/>
<path d="M23.2095 9.14379C25.5283 7.52504 27.7267 6.66097 28.1205 7.22972C28.5142 7.79847 26.9611 9.57035 24.6424 11.2C22.3236 12.8188 20.1252 13.6829 19.7314 13.1141C19.3377 12.5454 20.8908 10.7625 23.2095 9.14379Z" fill="url(#paint2_linear_153_636)"/>
<path d="M26.0315 13.1689C28.9519 11.1235 31.6425 9.92042 32.0472 10.4892C32.4409 11.0579 30.3956 13.1798 27.4753 15.2251C24.555 17.2704 21.8644 18.4735 21.4597 17.9048C21.0659 17.336 23.1112 15.2142 26.0315 13.1689Z" fill="url(#paint3_linear_153_636)"/>
<path d="M28.8531 17.2048C31.1718 15.5861 33.3703 14.722 33.764 15.2908C34.1578 15.8595 32.6047 17.6314 30.2859 19.2611C27.9672 20.8908 25.7687 21.7439 25.375 21.1751C24.9812 20.5954 26.5343 18.8236 28.8531 17.2048Z" fill="url(#paint4_linear_153_636)"/>
<path d="M31.675 21.2298C33.1188 20.2235 34.6063 19.8626 35 20.4313C35.3938 21.0001 34.5516 22.2798 33.1079 23.286C31.6641 24.2923 30.1766 24.6532 29.7829 24.0845C29.3891 23.5157 30.2313 22.236 31.675 21.2298Z" fill="url(#paint5_linear_153_636)"/>
<path d="M17.2595 0.634068C18.3861 -0.153432 19.9501 -0.186245 21.7111 0.415317L37.9751 23.6466C37.9314 25.5169 37.3736 26.9606 36.247 27.7591C32.9329 30.0778 26.0095 25.8778 20.7595 18.3966C15.5095 10.9153 13.9455 2.95282 17.2595 0.634068Z" fill="url(#paint6_linear_153_636)"/>
<path d="M32.747 10.0075C37.986 17.4997 39.561 25.4513 36.247 27.7591C32.9329 30.0669 26.0095 25.8778 20.7595 18.3966C19.7095 16.8981 18.8126 15.3888 18.0688 13.9122L29.4438 5.94971C30.5813 7.14189 31.697 8.50908 32.747 10.0075Z" fill="url(#paint7_linear_153_636)"/>
<path d="M32.747 10.0075C37.986 17.4997 39.561 25.4513 36.247 27.7591C32.9329 30.0669 26.0095 25.8778 20.7595 18.3966C19.7095 16.8981 18.8126 15.3888 18.0688 13.9122L29.4438 5.94971C30.5813 7.14189 31.697 8.50908 32.747 10.0075Z" fill="url(#paint8_linear_153_636)"/>
<path d="M50.1373 11.9324C49.9295 11.9324 49.7326 11.9434 49.5357 11.9762C49.0982 10.6309 47.8295 9.64648 46.3311 9.64648C45.1607 9.64648 44.1326 10.2371 43.5201 11.1449C42.9186 10.2371 41.8795 9.64648 40.7092 9.64648C39.2107 9.64648 37.942 10.6199 37.5045 11.9762C37.3076 11.9543 37.1107 11.9324 36.9029 11.9324C34.4639 11.9324 32.4951 13.9012 32.4951 16.3402C32.4951 18.7793 34.4639 20.748 36.9029 20.748C37.9857 20.748 38.9811 20.3543 39.7576 19.698C39.8998 21.6449 41.5295 23.1871 43.5201 23.1871C45.5107 23.1871 47.1404 21.6449 47.2826 19.698C48.0482 20.3543 49.0436 20.748 50.1373 20.748C52.5764 20.748 54.5451 18.7793 54.5451 16.3402C54.5451 13.9012 52.5764 11.9324 50.1373 11.9324Z" fill="url(#paint9_linear_153_636)"/>
<path d="M43.5312 23.1982C45.6153 23.1982 47.3047 21.5088 47.3047 19.4248C47.3047 17.3408 45.6153 15.6514 43.5312 15.6514C41.4472 15.6514 39.7578 17.3408 39.7578 19.4248C39.7578 21.5088 41.4472 23.1982 43.5312 23.1982Z" fill="url(#paint10_linear_153_636)"/>
<path d="M41.3215 16.3403V16.3622C40.3699 17.0512 39.7574 18.1668 39.7574 19.4247C39.7574 19.5231 39.7574 19.6106 39.7684 19.709C39.0027 20.3653 38.0074 20.759 36.9137 20.759C34.4746 20.759 32.5059 18.7903 32.5059 16.3512C32.5059 13.9122 34.4746 11.9434 36.9137 11.9434C39.3527 11.9325 41.3215 13.9012 41.3215 16.3403Z" fill="url(#paint11_linear_153_636)"/>
<path d="M50.1373 20.7482C52.5717 20.7482 54.5451 18.7748 54.5451 16.3404C54.5451 13.9061 52.5717 11.9326 50.1373 11.9326C47.7029 11.9326 45.7295 13.9061 45.7295 16.3404C45.7295 18.7748 47.7029 20.7482 50.1373 20.7482Z" fill="url(#paint12_linear_153_636)"/>
<path d="M49.5465 11.9762C47.3918 12.2715 45.7293 14.109 45.7293 16.3402V16.3512C44.1543 16.0668 42.9512 14.6887 42.9512 13.0262C42.9512 11.1559 44.4605 9.64648 46.3309 9.64648C47.8293 9.64648 49.098 10.6199 49.5465 11.9762Z" fill="url(#paint13_linear_153_636)"/>
<path d="M42.9622 13.0262C42.9622 13.7262 43.17 14.3715 43.531 14.9074C42.9294 15.8152 41.8903 16.4059 40.72 16.4059C38.8497 16.4059 37.3403 14.8965 37.3403 13.0262C37.3403 11.1559 38.8497 9.64648 40.72 9.64648C41.8903 9.64648 42.9185 10.2371 43.531 11.1449C43.17 11.6809 42.9622 12.3262 42.9622 13.0262Z" fill="url(#paint14_linear_153_636)"/>
<path d="M18.8999 22.8047H26.2171V33.7203H18.8999V22.8047Z" fill="url(#paint15_linear_153_636)"/>
<path d="M18.8999 22.8047H26.2171V33.7203H18.8999V22.8047Z" fill="url(#paint16_linear_153_636)"/>
<path d="M18.8999 22.8047H26.2171V33.7203H18.8999V22.8047Z" fill="url(#paint17_linear_153_636)"/>
<path d="M36.7174 31.6419C36.5096 31.6419 36.3127 31.6528 36.1158 31.6856C35.6783 30.3403 34.4096 29.356 32.9111 29.356C31.7408 29.356 30.7127 29.9466 30.1002 30.8544C29.4986 29.9466 28.4596 29.356 27.2893 29.356C25.7908 29.356 24.5221 30.3294 24.0846 31.6856C23.8877 31.6638 23.6908 31.6419 23.483 31.6419C21.0439 31.6419 19.0752 33.6106 19.0752 36.0497C19.0752 38.4888 21.0439 40.4575 23.483 40.4575C24.5658 40.4575 25.5611 40.0638 26.3377 39.4075C26.4799 41.3544 28.1096 42.8966 30.1002 42.8966C32.0908 42.8966 33.7205 41.3544 33.8627 39.4075C34.6283 40.0638 35.6236 40.4575 36.7174 40.4575C39.1564 40.4575 41.1252 38.4888 41.1252 36.0497C41.1252 33.6106 39.1455 31.6419 36.7174 31.6419Z" fill="url(#paint18_linear_153_636)"/>
<path d="M30.1001 42.897C32.1841 42.897 33.8735 41.2075 33.8735 39.1235C33.8735 37.0395 32.1841 35.3501 30.1001 35.3501C28.0161 35.3501 26.3267 37.0395 26.3267 39.1235C26.3267 41.2075 28.0161 42.897 30.1001 42.897Z" fill="url(#paint19_linear_153_636)"/>
<path d="M30.1001 42.897C32.1841 42.897 33.8735 41.2075 33.8735 39.1235C33.8735 37.0395 32.1841 35.3501 30.1001 35.3501C28.0161 35.3501 26.3267 37.0395 26.3267 39.1235C26.3267 41.2075 28.0161 42.897 30.1001 42.897Z" fill="url(#paint20_linear_153_636)"/>
<path d="M27.8908 36.0498V36.0716C26.9393 36.7607 26.3268 37.8763 26.3268 39.1341C26.3268 39.2326 26.3268 39.3201 26.3377 39.4185C25.5721 40.0748 24.5768 40.4685 23.483 40.4685C21.0439 40.4685 19.0752 38.4998 19.0752 36.0607C19.0752 33.6216 21.0439 31.6529 23.483 31.6529C25.9221 31.6419 27.8908 33.6107 27.8908 36.0498Z" fill="url(#paint21_linear_153_636)"/>
<path d="M36.7174 40.4577C39.1518 40.4577 41.1252 38.4843 41.1252 36.0499C41.1252 33.6155 39.1518 31.6421 36.7174 31.6421C34.283 31.6421 32.3096 33.6155 32.3096 36.0499C32.3096 38.4843 34.283 40.4577 36.7174 40.4577Z" fill="url(#paint22_linear_153_636)"/>
<path d="M36.7174 40.4577C39.1518 40.4577 41.1252 38.4843 41.1252 36.0499C41.1252 33.6155 39.1518 31.6421 36.7174 31.6421C34.283 31.6421 32.3096 33.6155 32.3096 36.0499C32.3096 38.4843 34.283 40.4577 36.7174 40.4577Z" fill="url(#paint23_linear_153_636)"/>
<path d="M36.1158 31.6749C33.9611 31.9702 32.2986 33.8077 32.2986 36.039V36.0499C30.7236 35.7655 29.5205 34.3874 29.5205 32.7249C29.5205 30.8546 31.0299 29.3452 32.9002 29.3452C34.3986 29.3562 35.6783 30.3296 36.1158 31.6749Z" fill="url(#paint24_linear_153_636)"/>
<path d="M29.5315 32.7356C29.5315 33.4356 29.7394 34.081 30.1003 34.6169C29.4987 35.5247 28.4597 36.1153 27.2894 36.1153C25.419 36.1153 23.9097 34.606 23.9097 32.7356C23.9097 30.8653 25.419 29.356 27.2894 29.356C28.4597 29.356 29.4878 29.9466 30.1003 30.8544C29.7394 31.3903 29.5315 32.0356 29.5315 32.7356Z" fill="url(#paint25_linear_153_636)"/>
<path d="M36.2578 21.9297H51.2641V30.45H36.2578V21.9297Z" fill="url(#paint26_linear_153_636)"/>
<path d="M36.2578 21.9297H51.2641V30.45H36.2578V21.9297Z" fill="url(#paint27_linear_153_636)"/>
<path d="M36.2578 21.9297H51.2641V30.45H36.2578V21.9297Z" fill="url(#paint28_linear_153_636)"/>
<path d="M42.4814 21.9297H51.2533V30.45H42.4814V21.9297Z" fill="url(#paint29_linear_153_636)"/>
<path d="M43.0279 41.1906C46.61 41.1906 49.5139 38.2868 49.5139 34.7047C49.5139 31.1226 46.61 28.2188 43.0279 28.2188C39.4458 28.2188 36.542 31.1226 36.542 34.7047C36.542 38.2868 39.4458 41.1906 43.0279 41.1906Z" fill="url(#paint30_linear_153_636)"/>
<path d="M43.0279 41.1906C46.61 41.1906 49.5139 38.2868 49.5139 34.7047C49.5139 31.1226 46.61 28.2188 43.0279 28.2188C39.4458 28.2188 36.542 31.1226 36.542 34.7047C36.542 38.2868 39.4458 41.1906 43.0279 41.1906Z" fill="url(#paint31_linear_153_636)"/>
<path d="M49.525 34.7047C49.525 38.2922 46.6156 41.1906 43.0391 41.1906C42.8531 41.1906 42.6781 41.1797 42.4922 41.1687V28.2406C42.6672 28.2297 42.8531 28.2188 43.0391 28.2188C46.6156 28.2188 49.525 31.1281 49.525 34.7047Z" fill="url(#paint32_linear_153_636)"/>
<path d="M16.428 24.2698L13.978 13.7808C13.3218 10.9808 10.8499 9.02295 7.97334 9.02295H6.54053V5.79639H7.98428C12.3702 5.79639 16.1218 8.77139 17.1171 13.0479L19.5671 23.537L16.428 24.2698Z" fill="url(#paint33_linear_153_636)"/>
<path d="M7.98428 5.79639H6.54053V9.01201H7.98428C9.70146 9.01201 11.2655 9.70107 12.3921 10.8604H16.3187C14.7327 7.78701 11.5608 5.79639 7.98428 5.79639Z" fill="url(#paint34_linear_153_636)"/>
<path d="M46.3968 51.4494H18.7468C15.5093 51.4494 12.7968 48.89 12.7312 45.6525C12.6655 42.3385 15.3452 39.626 18.6483 39.626H46.1452V42.8416H18.714C17.2483 42.8416 16.0015 43.9791 15.9468 45.4338C15.8921 46.965 17.1171 48.2338 18.6483 48.2338H46.3968C47.2827 48.2338 48.0046 48.9557 48.0046 49.8416C47.9937 50.7275 47.2827 51.4494 46.3968 51.4494Z" fill="url(#paint35_linear_153_636)"/>
<path d="M18.747 51.4496H46.386C47.272 51.4496 47.9938 50.7277 47.9938 49.8418C47.9938 48.9559 47.272 48.234 46.386 48.234H18.6485C17.3798 48.234 16.3188 47.359 16.0235 46.1777H12.7642C13.0923 49.1527 15.6845 51.4496 18.747 51.4496Z" fill="url(#paint36_linear_153_636)"/>
<path d="M27.333 48.2339H35.5252V51.4495H27.333V48.2339Z" fill="url(#paint37_linear_153_636)"/>
<path d="M24.7297 55.9994C27.2426 55.9994 29.2797 53.9623 29.2797 51.4494C29.2797 48.9365 27.2426 46.8994 24.7297 46.8994C22.2168 46.8994 20.1797 48.9365 20.1797 51.4494C20.1797 53.9623 22.2168 55.9994 24.7297 55.9994Z" fill="url(#paint38_linear_153_636)"/>
<path d="M20.1797 51.4494C20.1797 53.965 22.2141 55.9994 24.7297 55.9994C27.2453 55.9994 29.2797 53.965 29.2797 51.4494C29.2797 50.9463 29.1922 50.465 29.05 50.0166H20.4094C20.2672 50.465 20.1797 50.9463 20.1797 51.4494Z" fill="url(#paint39_linear_153_636)"/>
<path d="M24.7298 46.8887C24.172 46.8887 23.647 46.9871 23.1548 47.173V55.7262C23.647 55.9121 24.172 56.0105 24.7298 56.0105C27.2454 56.0105 29.2798 53.9762 29.2798 51.4605C29.2798 48.9449 27.2454 46.8887 24.7298 46.8887Z" fill="url(#paint40_linear_153_636)"/>
<path d="M24.7299 54.0418C26.1615 54.0418 27.3221 52.8812 27.3221 51.4496C27.3221 50.018 26.1615 48.8574 24.7299 48.8574C23.2983 48.8574 22.1377 50.018 22.1377 51.4496C22.1377 52.8812 23.2983 54.0418 24.7299 54.0418Z" fill="url(#paint41_linear_153_636)"/>
<path d="M46.3205 55.9994C48.8334 55.9994 50.8705 53.9623 50.8705 51.4494C50.8705 48.9365 48.8334 46.8994 46.3205 46.8994C43.8076 46.8994 41.7705 48.9365 41.7705 51.4494C41.7705 53.9623 43.8076 55.9994 46.3205 55.9994Z" fill="url(#paint42_linear_153_636)"/>
<path d="M41.7705 51.4494C41.7705 53.965 43.8049 55.9994 46.3205 55.9994C48.8361 55.9994 50.8705 53.965 50.8705 51.4494C50.8705 50.9463 50.783 50.465 50.6408 50.0166H42.0002C41.8471 50.465 41.7705 50.9463 41.7705 51.4494Z" fill="url(#paint43_linear_153_636)"/>
<path d="M46.3206 46.8887C45.7628 46.8887 45.2378 46.9871 44.7456 47.173V55.7262C45.2378 55.9121 45.7628 56.0105 46.3206 56.0105C48.8362 56.0105 50.8706 53.9762 50.8706 51.4605C50.8706 48.9449 48.8362 46.8887 46.3206 46.8887Z" fill="url(#paint44_linear_153_636)"/>
<path d="M46.3207 54.0418C47.7523 54.0418 48.9129 52.8812 48.9129 51.4496C48.9129 50.018 47.7523 48.8574 46.3207 48.8574C44.8891 48.8574 43.7285 50.018 43.7285 51.4496C43.7285 52.8812 44.8891 54.0418 46.3207 54.0418Z" fill="url(#paint45_linear_153_636)"/>
<path d="M7.66719 4.56055H3.08438C1.37813 4.56055 0 5.93867 0 7.64492C0 8.58555 0.426563 9.42773 1.09375 9.99648C1.3125 10.1824 1.64062 10.2043 1.89219 10.0512C2.15469 9.89805 2.46094 9.81055 2.78906 9.81055C3.12812 9.81055 3.44531 9.90898 3.71875 10.073C3.94844 10.2152 4.22188 10.2152 4.45156 10.073C4.725 9.90898 5.04219 9.81055 5.38125 9.81055C5.72031 9.81055 6.0375 9.90898 6.31094 10.073C6.54063 10.2152 6.81406 10.2152 7.04375 10.073C7.31719 9.90898 7.63438 9.81055 7.97344 9.81055C8.30156 9.81055 8.60781 9.89805 8.87031 10.0512C9.12187 10.2043 9.43906 10.1824 9.66875 9.99648C10.3359 9.42773 10.7625 8.58555 10.7625 7.64492C10.7516 5.93867 9.37344 4.56055 7.66719 4.56055Z" fill="url(#paint46_linear_153_636)"/>
<path d="M10.1828 8.86992C9.82187 8.66211 9.40625 8.55273 8.95781 8.55273C8.4875 8.55273 8.05 8.68398 7.67812 8.90273C7.37187 9.08867 6.97813 9.08867 6.67188 8.90273C6.3 8.68398 5.8625 8.55273 5.39219 8.55273C4.92188 8.55273 4.48438 8.68398 4.1125 8.90273C3.80625 9.08867 3.4125 9.08867 3.10625 8.90273C2.73438 8.68398 2.29688 8.55273 1.82656 8.55273C1.37813 8.55273 0.9625 8.67305 0.601562 8.86992C0.514062 8.92461 0.415625 8.95742 0.328125 8.9793C0.514063 9.37305 0.7875 9.72305 1.11562 10.0074C1.33438 10.1934 1.6625 10.2152 1.91406 10.0621C2.17656 9.90898 2.48281 9.82149 2.81094 9.82149C3.15 9.82149 3.46719 9.91992 3.74063 10.084C3.97031 10.2262 4.24375 10.2262 4.47344 10.084C4.74688 9.91992 5.06406 9.82149 5.40313 9.82149C5.74219 9.82149 6.05938 9.91992 6.33281 10.084C6.5625 10.2262 6.83594 10.2262 7.06562 10.084C7.33906 9.91992 7.65625 9.82149 7.99531 9.82149C8.32344 9.82149 8.62969 9.90898 8.89219 10.0621C9.14375 10.2152 9.46094 10.1934 9.69063 10.0074C10.0188 9.72305 10.2922 9.37305 10.4781 8.9793C10.3578 8.94648 10.2703 8.91367 10.1828 8.86992Z" fill="url(#paint47_linear_153_636)"/>
<path d="M7.66709 4.56055H5.00928V9.8543C5.12959 9.83242 5.2499 9.81055 5.38115 9.81055C5.72022 9.81055 6.0374 9.90898 6.31084 10.073C6.54053 10.2152 6.81397 10.2152 7.04365 10.073C7.31709 9.90898 7.63428 9.81055 7.97334 9.81055C8.30147 9.81055 8.60771 9.89805 8.87021 10.0512C9.12178 10.2043 9.43897 10.1824 9.66865 9.99648C10.3358 9.42773 10.7624 8.58555 10.7624 7.64492C10.7515 5.93867 9.37334 4.56055 7.66709 4.56055Z" fill="url(#paint48_linear_153_636)"/>
<path d="M27.8797 27.1243H32.3531C32.6266 27.1243 32.8781 27.0149 33.075 26.8181C33.2609 26.6212 33.3703 26.3696 33.3594 26.0962L33.3266 24.9696C33.3047 23.9743 32.5062 23.1978 31.5109 23.1978H28.6672C28.175 23.1978 27.7047 23.3946 27.3656 23.7446C27.0156 24.0946 26.8406 24.5649 26.8516 25.0681L26.8844 26.1618C26.8953 26.6978 27.3328 27.1243 27.8797 27.1243ZM28.3062 24.6634C28.4047 24.5649 28.5359 24.5103 28.6672 24.5103H31.5109C31.7844 24.5103 32.0141 24.729 32.0141 25.0024L32.0359 25.8118H28.1859L28.1641 25.0243C28.1641 24.8931 28.2078 24.7618 28.3062 24.6634Z" fill="url(#paint49_linear_153_636)"/>
<path d="M25.3861 24.8714C25.3205 23.9308 24.5221 23.187 23.5705 23.187H20.7268C20.2236 23.187 19.7314 23.3948 19.3924 23.7667C19.0533 24.1386 18.8783 24.6417 18.9111 25.1448L19.9283 38.6855C19.9939 39.6261 20.7924 40.3698 21.7439 40.3698H24.5877C25.0908 40.3698 25.583 40.162 25.9221 39.7901C26.2611 39.4183 26.4361 38.9151 26.4033 38.412L25.3861 24.8714ZM24.9596 38.8933C24.8611 39.0026 24.7299 39.0573 24.5877 39.0573H21.7439C21.4814 39.0573 21.2627 38.8495 21.2408 38.587L20.2236 25.0464C20.2127 24.9042 20.2564 24.7729 20.3549 24.6636C20.4533 24.5542 20.5846 24.4995 20.7268 24.4995H23.5705C23.833 24.4995 24.0518 24.7073 24.0736 24.9698L25.0908 38.5105C25.1018 38.6526 25.058 38.7948 24.9596 38.8933Z" fill="url(#paint50_linear_153_636)"/>
<path d="M32.6484 36.4434H28.175C27.9015 36.4434 27.65 36.5527 27.4531 36.7496C27.2672 36.9465 27.1578 37.198 27.1687 37.4715L27.2015 38.598C27.2234 39.5934 28.0218 40.3699 29.0172 40.3699H31.8609C32.3531 40.3699 32.8234 40.173 33.1625 39.823C33.5125 39.473 33.6875 39.0027 33.6765 38.4996L33.6437 37.4168C33.6328 36.8699 33.1953 36.4434 32.6484 36.4434ZM32.2218 38.9043C32.1234 39.0027 31.9922 39.0574 31.8609 39.0574H29.0172C28.7437 39.0574 28.514 38.8387 28.514 38.5652L28.4922 37.7559H32.3422L32.364 38.5434C32.375 38.6746 32.3203 38.8059 32.2218 38.9043Z" fill="url(#paint51_linear_153_636)"/>
<path d="M40.447 36.4434H35.9736C35.4267 36.4434 34.9892 36.8699 34.9674 37.4168L34.9345 38.5105C34.9236 39.0027 35.1095 39.473 35.4486 39.834C35.7986 40.184 36.258 40.3809 36.7502 40.3809H39.5939C40.5892 40.3809 41.3877 39.6043 41.4095 38.609L41.4424 37.4824C41.4533 37.209 41.3439 36.9465 41.158 36.7605C40.972 36.5418 40.7205 36.4434 40.447 36.4434ZM40.108 38.5652C40.097 38.8387 39.8783 39.0574 39.6049 39.0574H36.7611C36.6189 39.0574 36.4986 39.0027 36.4002 38.9043C36.3017 38.8059 36.258 38.6746 36.258 38.5434L36.2799 37.7559H40.1299L40.108 38.5652Z" fill="url(#paint52_linear_153_636)"/>
<path d="M47.8953 23.1981H45.0516C44.1 23.1981 43.3016 23.9419 43.2359 24.8825L42.2188 38.4122C42.1859 38.9153 42.3609 39.4185 42.7 39.7903C43.0391 40.1622 43.5313 40.37 44.0344 40.37H46.8781C47.8297 40.37 48.6281 39.6263 48.6938 38.6856L49.7109 25.145C49.7438 24.6419 49.5688 24.1388 49.2297 23.7669C48.8906 23.406 48.3984 23.1872 47.8953 23.1981ZM48.3984 25.0466L47.3813 38.5872C47.3594 38.8497 47.1406 39.0575 46.8781 39.0575H44.0344C43.8922 39.0575 43.7609 39.0028 43.6625 38.8935C43.5641 38.7841 43.5203 38.6528 43.5313 38.5106L44.5484 24.97C44.5703 24.7075 44.7891 24.4997 45.0516 24.4997H47.8953C48.0375 24.4997 48.1687 24.5544 48.2672 24.6638C48.3656 24.7731 48.4094 24.9044 48.3984 25.0466Z" fill="url(#paint53_linear_153_636)"/>
<path d="M39.9547 23.1978H37.1109C36.1156 23.1978 35.3172 23.9743 35.2953 24.9696L35.2625 26.0962C35.2515 26.3696 35.3609 26.6321 35.5468 26.8181C35.7328 27.0149 35.9953 27.1243 36.2687 27.1243H40.7422C41.289 27.1243 41.7265 26.6978 41.7484 26.1509L41.7812 25.0571C41.7922 24.5649 41.6062 24.0946 41.2672 23.7337C40.9062 23.3837 40.4468 23.1978 39.9547 23.1978ZM40.4359 25.8118H36.5859L36.6078 25.0024C36.6187 24.729 36.8375 24.5103 37.1109 24.5103H39.9547C40.0968 24.5103 40.2172 24.5649 40.3156 24.6634C40.414 24.7618 40.4578 24.8931 40.4578 25.0243L40.4359 25.8118Z" fill="url(#paint54_linear_153_636)"/>
<path d="M15.3345 19.0308L17.861 41.3542C17.9813 42.4042 18.8673 43.1917 19.9282 43.1917H48.7048C49.7657 43.1917 50.6517 42.3933 50.772 41.3542L53.2876 19.0308H15.3345ZM37.111 23.8542H39.9548C40.611 23.8542 41.136 24.3901 41.1142 25.0464L41.0813 26.1401C41.0813 26.3261 40.9173 26.4792 40.7313 26.4792H36.2579C36.061 26.4792 35.9079 26.3151 35.9079 26.1183L35.9407 24.9917C35.9626 24.3573 36.4876 23.8542 37.111 23.8542ZM28.6673 23.8542H31.511C32.1454 23.8542 32.6595 24.3573 32.6704 24.9917L32.7032 26.1183C32.7032 26.3151 32.5501 26.4792 32.3532 26.4792H27.8798C27.6938 26.4792 27.5407 26.3261 27.5298 26.1401L27.497 25.0464C27.486 24.3901 28.011 23.8542 28.6673 23.8542ZM24.5876 39.7136H21.7438C21.1313 39.7136 20.6282 39.2433 20.5845 38.6417L19.5673 25.1011C19.5126 24.4229 20.0485 23.8542 20.7267 23.8542H23.5704C24.1829 23.8542 24.686 24.3245 24.7298 24.9261L25.747 38.4667C25.8017 39.1448 25.2657 39.7136 24.5876 39.7136ZM31.861 39.7136H29.0173C28.3829 39.7136 27.8688 39.2105 27.8579 38.5761L27.8251 37.4495C27.8251 37.2526 27.9782 37.0886 28.1751 37.0886H32.6485C32.8345 37.0886 32.9876 37.2417 32.9985 37.4276L33.0313 38.5105C33.0423 39.1776 32.5173 39.7136 31.861 39.7136ZM39.5938 39.7136H36.7501C36.0938 39.7136 35.5688 39.1776 35.5907 38.5214L35.6235 37.4386C35.6235 37.2526 35.7876 37.0995 35.9735 37.0995H40.447C40.6438 37.0995 40.797 37.2636 40.797 37.4604L40.7642 38.587C40.7423 39.2104 40.2282 39.7136 39.5938 39.7136ZM49.0548 25.1011L48.0376 38.6417C47.9938 39.2433 47.4907 39.7136 46.8782 39.7136H44.0345C43.3563 39.7136 42.8204 39.1339 42.8751 38.4667L43.8923 24.9261C43.936 24.3245 44.4392 23.8542 45.0517 23.8542H47.8954C48.5735 23.8542 49.1095 24.4229 49.0548 25.1011Z" fill="url(#paint55_linear_153_636)"/>
<path d="M48.5189 32.2217L48.0377 38.642C47.9939 39.2436 47.4908 39.7139 46.8783 39.7139H44.0346C43.3564 39.7139 42.8205 39.1342 42.8752 38.467L43.3455 32.2217H25.2768L25.7471 38.467C25.8018 39.1451 25.2658 39.7139 24.5877 39.7139H21.7439C21.1314 39.7139 20.6283 39.2436 20.5846 38.642L20.1033 32.2217H16.833L17.8611 41.3545C17.9814 42.4045 18.8674 43.192 19.9283 43.192H48.7049C49.7658 43.192 50.6518 42.3936 50.7721 41.3545L51.8002 32.2217H48.5189ZM31.8611 39.7139H29.0174C28.383 39.7139 27.8689 39.2107 27.858 38.5764L27.8252 37.4498C27.8252 37.2529 27.9783 37.0889 28.1752 37.0889H32.6486C32.8346 37.0889 32.9877 37.242 32.9986 37.4279L33.0314 38.5107C33.0424 39.1779 32.5174 39.7139 31.8611 39.7139ZM40.7643 38.5873C40.7424 39.2217 40.2283 39.7248 39.6049 39.7248H36.7611C36.1049 39.7248 35.5799 39.1889 35.6018 38.5326L35.6346 37.4498C35.6346 37.2639 35.7986 37.1107 35.9846 37.1107H40.458C40.6549 37.1107 40.808 37.2748 40.808 37.4717L40.7643 38.5873Z" fill="url(#paint56_linear_153_636)"/>
<path d="M35.9191 37.0995H35.9738H40.4473C40.6441 37.0995 40.7973 37.2636 40.7973 37.4604L40.7645 38.587C40.7426 39.2214 40.2285 39.7245 39.6051 39.7245H36.7613C36.4332 39.7245 36.1379 39.5823 35.9191 39.3636V43.2026H48.6941C49.7551 43.2026 50.641 42.4042 50.7613 41.3651L53.2879 19.0308H35.9191V37.0995ZM42.8754 38.4667L43.8926 24.9261C43.9363 24.3245 44.4395 23.8542 45.052 23.8542H47.8957C48.5738 23.8542 49.1098 24.4339 49.0551 25.1011L48.0379 38.6417C47.9941 39.2433 47.491 39.7136 46.8785 39.7136H44.0348C43.3566 39.7136 42.8207 39.1448 42.8754 38.4667ZM37.1113 23.8542H39.9551C40.6113 23.8542 41.1363 24.3901 41.1145 25.0464L41.0816 26.1401C41.0816 26.3261 40.9176 26.4792 40.7316 26.4792H36.2582C36.0613 26.4792 35.9082 26.3151 35.9082 26.1183L35.941 24.9917C35.9629 24.3573 36.4879 23.8542 37.1113 23.8542Z" fill="url(#paint57_linear_153_636)"/>
<path d="M16.3407 27.8792H19.7751L19.5673 25.1011C19.5126 24.4229 20.0485 23.8542 20.7267 23.8542H23.5704C24.1829 23.8542 24.686 24.3245 24.7298 24.9261L24.9485 27.8792H43.6626L43.8813 24.9261C43.9251 24.3245 44.4282 23.8542 45.0407 23.8542H47.8845C48.5626 23.8542 49.0985 24.4339 49.0438 25.1011L48.836 27.8792H52.2813L53.2767 19.0308H15.3345L16.3407 27.8792ZM35.9517 24.9808C35.9735 24.3464 36.4876 23.8433 37.111 23.8433H39.9548C40.611 23.8433 41.136 24.3792 41.1142 25.0354L41.0814 26.1292C41.0814 26.3151 40.9173 26.4683 40.7313 26.4683H36.2579C36.061 26.4683 35.9079 26.3042 35.9079 26.1073L35.9517 24.9808ZM28.6673 23.8542H31.511C32.1454 23.8542 32.6595 24.3573 32.6704 24.9917L32.7032 26.1183C32.7032 26.3151 32.5501 26.4792 32.3532 26.4792H27.8798C27.6938 26.4792 27.5407 26.3261 27.5298 26.1401L27.497 25.0464C27.486 24.3901 28.011 23.8542 28.6673 23.8542Z" fill="url(#paint58_linear_153_636)"/>
<path d="M27.9344 34.9231L27.6391 28.7106C27.6173 28.2513 27.9782 27.8794 28.4376 27.8794H40.1735C40.6329 27.8794 40.9938 28.2622 40.9719 28.7106L40.6766 34.9231C40.6548 35.3497 40.3048 35.6778 39.8782 35.6778H28.7219C28.3063 35.6888 27.9563 35.3497 27.9344 34.9231Z" fill="url(#paint59_linear_153_636)"/>
<path d="M14.4486 16.0122H54.1846C55.1908 16.0122 56.0111 16.8325 56.0111 17.8388V19.5778C56.0111 20.5841 55.1908 21.4044 54.1846 21.4044H14.4486C13.4424 21.4044 12.6221 20.5841 12.6221 19.5778V17.8388C12.6221 16.8325 13.4314 16.0122 14.4486 16.0122Z" fill="url(#paint60_linear_153_636)"/>
<path d="M54.1737 16.0122H46.1128V21.3935H54.1737C55.18 21.3935 56.0003 20.5731 56.0003 19.5669V17.8278C56.0003 16.8325 55.18 16.0122 54.1737 16.0122Z" fill="url(#paint61_linear_153_636)"/>
</g>
<defs>
<linearGradient id="paint0_linear_153_636" x1="30.8851" y1="11.2997" x2="22.0254" y2="17.509" gradientUnits="userSpaceOnUse">
<stop stop-color="#FFBD86"/>
<stop offset="0.2493" stop-color="#FCB881"/>
<stop offset="0.5076" stop-color="#F4AC75"/>
<stop offset="0.769" stop-color="#E69761"/>
<stop offset="1" stop-color="#D77F4A"/>
</linearGradient>
<linearGradient id="paint1_linear_153_636" x1="21.6755" y1="6.9757" x2="20.6107" y2="5.45646" gradientUnits="userSpaceOnUse">
<stop stop-color="#FFDFCF"/>
<stop offset="0.2453" stop-color="#FFDBCA"/>
<stop offset="0.4994" stop-color="#FFD0BE"/>
<stop offset="0.7566" stop-color="#FFBEA9"/>
<stop offset="1" stop-color="#FFA78F"/>
</linearGradient>
<linearGradient id="paint2_linear_153_636" x1="24.4987" y1="11.0041" x2="23.4339" y2="9.48483" gradientUnits="userSpaceOnUse">
<stop stop-color="#FFDFCF"/>
<stop offset="0.2453" stop-color="#FFDBCA"/>
<stop offset="0.4994" stop-color="#FFD0BE"/>
<stop offset="0.7566" stop-color="#FFBEA9"/>
<stop offset="1" stop-color="#FFA78F"/>
</linearGradient>
<linearGradient id="paint3_linear_153_636" x1="27.3221" y1="15.0323" x2="26.2574" y2="13.5132" gradientUnits="userSpaceOnUse">
<stop stop-color="#FFDFCF"/>
<stop offset="0.2453" stop-color="#FFDBCA"/>
<stop offset="0.4994" stop-color="#FFD0BE"/>
<stop offset="0.7566" stop-color="#FFBEA9"/>
<stop offset="1" stop-color="#FFA78F"/>
</linearGradient>
<linearGradient id="paint4_linear_153_636" x1="30.1451" y1="19.0607" x2="29.0803" y2="17.5414" gradientUnits="userSpaceOnUse">
<stop stop-color="#FFDFCF"/>
<stop offset="0.2453" stop-color="#FFDBCA"/>
<stop offset="0.4994" stop-color="#FFD0BE"/>
<stop offset="0.7566" stop-color="#FFBEA9"/>
<stop offset="1" stop-color="#FFA78F"/>
</linearGradient>
<linearGradient id="paint5_linear_153_636" x1="32.9684" y1="23.0889" x2="31.9036" y2="21.5696" gradientUnits="userSpaceOnUse">
<stop stop-color="#FFDFCF"/>
<stop offset="0.2453" stop-color="#FFDBCA"/>
<stop offset="0.4994" stop-color="#FFD0BE"/>
<stop offset="0.7566" stop-color="#FFBEA9"/>
<stop offset="1" stop-color="#FFA78F"/>
</linearGradient>
<linearGradient id="paint6_linear_153_636" x1="25.5532" y1="14.972" x2="20.0262" y2="18.5281" gradientUnits="userSpaceOnUse">
<stop stop-color="#904D24" stop-opacity="0"/>
<stop offset="0.1865" stop-color="#8E4C24" stop-opacity="0.038"/>
<stop offset="0.3798" stop-color="#8A4924" stop-opacity="0.152"/>
<stop offset="0.5761" stop-color="#844424" stop-opacity="0.343"/>
<stop offset="0.7747" stop-color="#7A3D25" stop-opacity="0.609"/>
<stop offset="0.9732" stop-color="#6E3425" stop-opacity="0.949"/>
<stop offset="1" stop-color="#6D3326"/>
</linearGradient>
<linearGradient id="paint7_linear_153_636" x1="27.7779" y1="19.9776" x2="24.5641" y2="26.0412" gradientUnits="userSpaceOnUse">
<stop stop-color="#904D24" stop-opacity="0"/>
<stop offset="0.1865" stop-color="#8E4C24" stop-opacity="0.038"/>
<stop offset="0.3798" stop-color="#8A4924" stop-opacity="0.152"/>
<stop offset="0.5761" stop-color="#844424" stop-opacity="0.343"/>
<stop offset="0.7747" stop-color="#7A3D25" stop-opacity="0.609"/>
<stop offset="0.9732" stop-color="#6E3425" stop-opacity="0.949"/>
<stop offset="1" stop-color="#6D3326"/>
</linearGradient>
<linearGradient id="paint8_linear_153_636" x1="35.3972" y1="20.3024" x2="40.2675" y2="23.3998" gradientUnits="userSpaceOnUse">
<stop stop-color="#904D24" stop-opacity="0"/>
<stop offset="0.1865" stop-color="#8E4C24" stop-opacity="0.038"/>
<stop offset="0.3798" stop-color="#8A4924" stop-opacity="0.152"/>
<stop offset="0.5761" stop-color="#844424" stop-opacity="0.343"/>
<stop offset="0.7747" stop-color="#7A3D25" stop-opacity="0.609"/>
<stop offset="0.9732" stop-color="#6E3425" stop-opacity="0.949"/>
<stop offset="1" stop-color="#6D3326"/>
</linearGradient>
<linearGradient id="paint9_linear_153_636" x1="40.4473" y1="8.053" x2="45.6262" y2="21.9921" gradientUnits="userSpaceOnUse">
<stop stop-color="#D1F19E"/>
<stop offset="0.1783" stop-color="#CEEF99"/>
<stop offset="0.363" stop-color="#C7EB8D"/>
<stop offset="0.5508" stop-color="#BBE378"/>
<stop offset="0.7406" stop-color="#A9D95B"/>
<stop offset="0.9303" stop-color="#94CC36"/>
<stop offset="1" stop-color="#8BC727"/>
</linearGradient>
<linearGradient id="paint10_linear_153_636" x1="42.2319" y1="17.7602" x2="46.5293" y2="23.2698" gradientUnits="userSpaceOnUse">
<stop stop-color="#017B4E" stop-opacity="0"/>
<stop offset="0.1753" stop-color="#017B4E" stop-opacity="0.034"/>
<stop offset="0.3569" stop-color="#017B4E" stop-opacity="0.135"/>
<stop offset="0.5415" stop-color="#017B4E" stop-opacity="0.304"/>
<stop offset="0.7281" stop-color="#017B4E" stop-opacity="0.54"/>
<stop offset="0.9146" stop-color="#017B4E" stop-opacity="0.841"/>
<stop offset="1" stop-color="#017B4E"/>
</linearGradient>
<linearGradient id="paint11_linear_153_636" x1="38.8155" y1="16.3404" x2="42.9164" y2="16.3404" gradientUnits="userSpaceOnUse">
<stop stop-color="#017B4E" stop-opacity="0"/>
<stop offset="0.1753" stop-color="#017B4E" stop-opacity="0.034"/>
<stop offset="0.3569" stop-color="#017B4E" stop-opacity="0.135"/>
<stop offset="0.5415" stop-color="#017B4E" stop-opacity="0.304"/>
<stop offset="0.7281" stop-color="#017B4E" stop-opacity="0.54"/>
<stop offset="0.9146" stop-color="#017B4E" stop-opacity="0.841"/>
<stop offset="1" stop-color="#017B4E"/>
</linearGradient>
<linearGradient id="paint12_linear_153_636" x1="50.5048" y1="16.3405" x2="55.9786" y2="16.3405" gradientUnits="userSpaceOnUse">
<stop stop-color="#017B4E" stop-opacity="0"/>
<stop offset="0.1753" stop-color="#017B4E" stop-opacity="0.034"/>
<stop offset="0.3569" stop-color="#017B4E" stop-opacity="0.135"/>
<stop offset="0.5415" stop-color="#017B4E" stop-opacity="0.304"/>
<stop offset="0.7281" stop-color="#017B4E" stop-opacity="0.54"/>
<stop offset="0.9146" stop-color="#017B4E" stop-opacity="0.841"/>
<stop offset="1" stop-color="#017B4E"/>
</linearGradient>
<linearGradient id="paint13_linear_153_636" x1="46.3283" y1="12.8305" x2="50.4054" y2="11.5908" gradientUnits="userSpaceOnUse">
<stop stop-color="#017B4E" stop-opacity="0"/>
<stop offset="0.1753" stop-color="#017B4E" stop-opacity="0.034"/>
<stop offset="0.3569" stop-color="#017B4E" stop-opacity="0.135"/>
<stop offset="0.5415" stop-color="#017B4E" stop-opacity="0.304"/>
<stop offset="0.7281" stop-color="#017B4E" stop-opacity="0.54"/>
<stop offset="0.9146" stop-color="#017B4E" stop-opacity="0.841"/>
<stop offset="1" stop-color="#017B4E"/>
</linearGradient>
<linearGradient id="paint14_linear_153_636" x1="41.3373" y1="12.4374" x2="43.9819" y2="9.93053" gradientUnits="userSpaceOnUse">
<stop stop-color="#017B4E" stop-opacity="0"/>
<stop offset="0.1753" stop-color="#017B4E" stop-opacity="0.034"/>
<stop offset="0.3569" stop-color="#017B4E" stop-opacity="0.135"/>
<stop offset="0.5415" stop-color="#017B4E" stop-opacity="0.304"/>
<stop offset="0.7281" stop-color="#017B4E" stop-opacity="0.54"/>
<stop offset="0.9146" stop-color="#017B4E" stop-opacity="0.841"/>
<stop offset="1" stop-color="#017B4E"/>
</linearGradient>
<linearGradient id="paint15_linear_153_636" x1="19.4911" y1="28.2084" x2="24.8969" y2="28.3124" gradientUnits="userSpaceOnUse">
<stop stop-color="#FEF48B"/>
<stop offset="0.1646" stop-color="#FDF286"/>
<stop offset="0.3352" stop-color="#FDEE7A"/>
<stop offset="0.5086" stop-color="#FCE765"/>
<stop offset="0.6839" stop-color="#FCDE48"/>
<stop offset="0.8589" stop-color="#FBD123"/>
<stop offset="1" stop-color="#FAC600"/>
</linearGradient>
<linearGradient id="paint16_linear_153_636" x1="22.3424" y1="28.294" x2="20.3931" y2="28.528" gradientUnits="userSpaceOnUse">
<stop stop-color="#FE9738" stop-opacity="0"/>
<stop offset="0.1207" stop-color="#FE9738" stop-opacity="0.016"/>
<stop offset="0.2459" stop-color="#FE9738" stop-opacity="0.065"/>
<stop offset="0.3731" stop-color="#FE9738" stop-opacity="0.147"/>
<stop offset="0.5018" stop-color="#FE9738" stop-opacity="0.262"/>
<stop offset="0.6317" stop-color="#FE9738" stop-opacity="0.41"/>
<stop offset="0.7625" stop-color="#FE9738" stop-opacity="0.59"/>
<stop offset="0.8916" stop-color="#FE9738" stop-opacity="0.8"/>
<stop offset="1" stop-color="#FE9738"/>
</linearGradient>
<linearGradient id="paint17_linear_153_636" x1="22.5636" y1="27.1239" x2="22.5636" y2="23.8059" gradientUnits="userSpaceOnUse">
<stop stop-color="#FE9738" stop-opacity="0"/>
<stop offset="0.1207" stop-color="#FE9738" stop-opacity="0.016"/>
<stop offset="0.2459" stop-color="#FE9738" stop-opacity="0.065"/>
<stop offset="0.3731" stop-color="#FE9738" stop-opacity="0.147"/>
<stop offset="0.5018" stop-color="#FE9738" stop-opacity="0.262"/>
<stop offset="0.6317" stop-color="#FE9738" stop-opacity="0.41"/>
<stop offset="0.7625" stop-color="#FE9738" stop-opacity="0.59"/>
<stop offset="0.8916" stop-color="#FE9738" stop-opacity="0.8"/>
<stop offset="1" stop-color="#FE9738"/>
</linearGradient>
<linearGradient id="paint18_linear_153_636" x1="27.0193" y1="27.7601" x2="32.1983" y2="41.6991" gradientUnits="userSpaceOnUse">
<stop stop-color="#D1F19E"/>
<stop offset="0.1783" stop-color="#CEEF99"/>
<stop offset="0.363" stop-color="#C7EB8D"/>
<stop offset="0.5508" stop-color="#BBE378"/>
<stop offset="0.7406" stop-color="#A9D95B"/>
<stop offset="0.9303" stop-color="#94CC36"/>
<stop offset="1" stop-color="#8BC727"/>
</linearGradient>
<linearGradient id="paint19_linear_153_636" x1="30.1021" y1="39.1274" x2="27.8356" y2="39.1274" gradientUnits="userSpaceOnUse">
<stop stop-color="#017B4E" stop-opacity="0"/>
<stop offset="0.1753" stop-color="#017B4E" stop-opacity="0.034"/>
<stop offset="0.3569" stop-color="#017B4E" stop-opacity="0.135"/>
<stop offset="0.5415" stop-color="#017B4E" stop-opacity="0.304"/>
<stop offset="0.7281" stop-color="#017B4E" stop-opacity="0.54"/>
<stop offset="0.9146" stop-color="#017B4E" stop-opacity="0.841"/>
<stop offset="1" stop-color="#017B4E"/>
</linearGradient>
<linearGradient id="paint20_linear_153_636" x1="30.0983" y1="38.7416" x2="30.0983" y2="37.4873" gradientUnits="userSpaceOnUse">
<stop stop-color="#017B4E" stop-opacity="0"/>
<stop offset="0.1753" stop-color="#017B4E" stop-opacity="0.034"/>
<stop offset="0.3569" stop-color="#017B4E" stop-opacity="0.135"/>
<stop offset="0.5415" stop-color="#017B4E" stop-opacity="0.304"/>
<stop offset="0.7281" stop-color="#017B4E" stop-opacity="0.54"/>
<stop offset="0.9146" stop-color="#017B4E" stop-opacity="0.841"/>
<stop offset="1" stop-color="#017B4E"/>
</linearGradient>
<linearGradient id="paint21_linear_153_636" x1="22.9994" y1="36.0807" x2="20.3483" y2="36.2627" gradientUnits="userSpaceOnUse">
<stop stop-color="#017B4E" stop-opacity="0"/>
<stop offset="0.1753" stop-color="#017B4E" stop-opacity="0.034"/>
<stop offset="0.3569" stop-color="#017B4E" stop-opacity="0.135"/>
<stop offset="0.5415" stop-color="#017B4E" stop-opacity="0.304"/>
<stop offset="0.7281" stop-color="#017B4E" stop-opacity="0.54"/>
<stop offset="0.9146" stop-color="#017B4E" stop-opacity="0.841"/>
<stop offset="1" stop-color="#017B4E"/>
</linearGradient>
<linearGradient id="paint22_linear_153_636" x1="37.5874" y1="36.0476" x2="35.8151" y2="36.0476" gradientUnits="userSpaceOnUse">
<stop stop-color="#017B4E" stop-opacity="0"/>
<stop offset="0.1753" stop-color="#017B4E" stop-opacity="0.034"/>
<stop offset="0.3569" stop-color="#017B4E" stop-opacity="0.135"/>
<stop offset="0.5415" stop-color="#017B4E" stop-opacity="0.304"/>
<stop offset="0.7281" stop-color="#017B4E" stop-opacity="0.54"/>
<stop offset="0.9146" stop-color="#017B4E" stop-opacity="0.841"/>
<stop offset="1" stop-color="#017B4E"/>
</linearGradient>
<linearGradient id="paint23_linear_153_636" x1="36.712" y1="38.8453" x2="36.712" y2="37.2901" gradientUnits="userSpaceOnUse">
<stop stop-color="#017B4E" stop-opacity="0"/>
<stop offset="0.1753" stop-color="#017B4E" stop-opacity="0.034"/>
<stop offset="0.3569" stop-color="#017B4E" stop-opacity="0.135"/>
<stop offset="0.5415" stop-color="#017B4E" stop-opacity="0.304"/>
<stop offset="0.7281" stop-color="#017B4E" stop-opacity="0.54"/>
<stop offset="0.9146" stop-color="#017B4E" stop-opacity="0.841"/>
<stop offset="1" stop-color="#017B4E"/>
</linearGradient>
<linearGradient id="paint24_linear_153_636" x1="32.9006" y1="32.5378" x2="36.9776" y2="31.2981" gradientUnits="userSpaceOnUse">
<stop stop-color="#017B4E" stop-opacity="0"/>
<stop offset="0.1753" stop-color="#017B4E" stop-opacity="0.034"/>
<stop offset="0.3569" stop-color="#017B4E" stop-opacity="0.135"/>
<stop offset="0.5415" stop-color="#017B4E" stop-opacity="0.304"/>
<stop offset="0.7281" stop-color="#017B4E" stop-opacity="0.54"/>
<stop offset="0.9146" stop-color="#017B4E" stop-opacity="0.841"/>
<stop offset="1" stop-color="#017B4E"/>
</linearGradient>
<linearGradient id="paint25_linear_153_636" x1="27.9095" y1="32.1444" x2="30.5541" y2="29.6376" gradientUnits="userSpaceOnUse">
<stop stop-color="#017B4E" stop-opacity="0"/>
<stop offset="0.1753" stop-color="#017B4E" stop-opacity="0.034"/>
<stop offset="0.3569" stop-color="#017B4E" stop-opacity="0.135"/>
<stop offset="0.5415" stop-color="#017B4E" stop-opacity="0.304"/>
<stop offset="0.7281" stop-color="#017B4E" stop-opacity="0.54"/>
<stop offset="0.9146" stop-color="#017B4E" stop-opacity="0.841"/>
<stop offset="1" stop-color="#017B4E"/>
</linearGradient>
<linearGradient id="paint26_linear_153_636" x1="39.698" y1="20.406" x2="47.3022" y2="31.2419" gradientUnits="userSpaceOnUse">
<stop stop-color="#FE860A"/>
<stop offset="0.3561" stop-color="#FC8108"/>
<stop offset="0.7245" stop-color="#F87504"/>
<stop offset="1" stop-color="#F46700"/>
</linearGradient>
<linearGradient id="paint27_linear_153_636" x1="39.2716" y1="26.0841" x2="35.9189" y2="26.0061" gradientUnits="userSpaceOnUse">
<stop stop-color="#F46700" stop-opacity="0"/>
<stop offset="0.1276" stop-color="#F36500" stop-opacity="0.018"/>
<stop offset="0.2599" stop-color="#F26103" stop-opacity="0.073"/>
<stop offset="0.3944" stop-color="#F15B07" stop-opacity="0.164"/>
<stop offset="0.5304" stop-color="#EF520D" stop-opacity="0.292"/>
<stop offset="0.6676" stop-color="#EC4614" stop-opacity="0.456"/>
<stop offset="0.8059" stop-color="#E9371D" stop-opacity="0.657"/>
<stop offset="0.9424" stop-color="#E52628" stop-opacity="0.891"/>
<stop offset="1" stop-color="#E41F2D"/>
</linearGradient>
<linearGradient id="paint28_linear_153_636" x1="43.7558" y1="26.7211" x2="43.7558" y2="24.07" gradientUnits="userSpaceOnUse">
<stop stop-color="#F46700" stop-opacity="0"/>
<stop offset="0.1276" stop-color="#F36500" stop-opacity="0.018"/>
<stop offset="0.2599" stop-color="#F26103" stop-opacity="0.073"/>
<stop offset="0.3944" stop-color="#F15B07" stop-opacity="0.164"/>
<stop offset="0.5304" stop-color="#EF520D" stop-opacity="0.292"/>
<stop offset="0.6676" stop-color="#EC4614" stop-opacity="0.456"/>
<stop offset="0.8059" stop-color="#E9371D" stop-opacity="0.657"/>
<stop offset="0.9424" stop-color="#E52628" stop-opacity="0.891"/>
<stop offset="1" stop-color="#E41F2D"/>
</linearGradient>
<linearGradient id="paint29_linear_153_636" x1="46.2459" y1="26.1213" x2="44.0628" y2="25.8873" gradientUnits="userSpaceOnUse">
<stop stop-color="#F46700" stop-opacity="0"/>
<stop offset="0.1276" stop-color="#F36500" stop-opacity="0.018"/>
<stop offset="0.2599" stop-color="#F26103" stop-opacity="0.073"/>
<stop offset="0.3944" stop-color="#F15B07" stop-opacity="0.164"/>
<stop offset="0.5304" stop-color="#EF520D" stop-opacity="0.292"/>
<stop offset="0.6676" stop-color="#EC4614" stop-opacity="0.456"/>
<stop offset="0.8059" stop-color="#E9371D" stop-opacity="0.657"/>
<stop offset="0.9424" stop-color="#E52628" stop-opacity="0.891"/>
<stop offset="1" stop-color="#E41F2D"/>
</linearGradient>
<linearGradient id="paint30_linear_153_636" x1="38.7688" y1="31.7843" x2="45.0584" y2="36.0987" gradientUnits="userSpaceOnUse">
<stop stop-color="#9857BD"/>
<stop offset="0.192" stop-color="#9356BD"/>
<stop offset="0.391" stop-color="#8755BE"/>
<stop offset="0.5932" stop-color="#7253C1"/>
<stop offset="0.7966" stop-color="#5550C4"/>
<stop offset="1" stop-color="#314DC9"/>
</linearGradient>
<linearGradient id="paint31_linear_153_636" x1="41.8259" y1="34.4034" x2="38.4342" y2="33.5456" gradientUnits="userSpaceOnUse">
<stop stop-color="#814AA0" stop-opacity="0"/>
<stop offset="0.1738" stop-color="#7D489E" stop-opacity="0.033"/>
<stop offset="0.354" stop-color="#73459B" stop-opacity="0.133"/>
<stop offset="0.537" stop-color="#614095" stop-opacity="0.299"/>
<stop offset="0.7221" stop-color="#49398D" stop-opacity="0.531"/>
<stop offset="0.907" stop-color="#2A2F83" stop-opacity="0.827"/>
<stop offset="1" stop-color="#192A7D"/>
</linearGradient>
<linearGradient id="paint32_linear_153_636" x1="45.9909" y1="34.9019" x2="43.6127" y2="34.746" gradientUnits="userSpaceOnUse">
<stop stop-color="#814AA0" stop-opacity="0"/>
<stop offset="0.1738" stop-color="#7D489E" stop-opacity="0.033"/>
<stop offset="0.354" stop-color="#73459B" stop-opacity="0.133"/>
<stop offset="0.537" stop-color="#614095" stop-opacity="0.299"/>
<stop offset="0.7221" stop-color="#49398D" stop-opacity="0.531"/>
<stop offset="0.907" stop-color="#2A2F83" stop-opacity="0.827"/>
<stop offset="1" stop-color="#192A7D"/>
</linearGradient>
<linearGradient id="paint33_linear_153_636" x1="17.8896" y1="10.6316" x2="13.5007" y2="14.289" gradientUnits="userSpaceOnUse">
<stop stop-color="#E5E1E5"/>
<stop offset="0.198" stop-color="#E1DCE1"/>
<stop offset="0.4032" stop-color="#D5D0D5"/>
<stop offset="0.6118" stop-color="#C2BBC1"/>
<stop offset="0.8212" stop-color="#A79EA6"/>
<stop offset="1" stop-color="#8B8089"/>
</linearGradient>
<linearGradient id="paint34_linear_153_636" x1="12.116" y1="8.65567" x2="9.09137" y2="7.92242" gradientUnits="userSpaceOnUse">
<stop stop-color="#444444" stop-opacity="0"/>
<stop offset="0.2378" stop-color="#444444" stop-opacity="0.061"/>
<stop offset="0.4841" stop-color="#444444" stop-opacity="0.244"/>
<stop offset="0.7343" stop-color="#444444" stop-opacity="0.549"/>
<stop offset="0.9859" stop-color="#444444" stop-opacity="0.973"/>
<stop offset="1" stop-color="#444444"/>
</linearGradient>
<linearGradient id="paint35_linear_153_636" x1="28.5462" y1="34.4833" x2="31.1633" y2="53.6747" gradientUnits="userSpaceOnUse">
<stop stop-color="#E5E1E5"/>
<stop offset="0.198" stop-color="#E1DCE1"/>
<stop offset="0.4032" stop-color="#D5D0D5"/>
<stop offset="0.6118" stop-color="#C2BBC1"/>
<stop offset="0.8212" stop-color="#A79EA6"/>
<stop offset="1" stop-color="#8B8089"/>
</linearGradient>
<linearGradient id="paint36_linear_153_636" x1="30.3845" y1="48.9525" x2="30.3845" y2="51.8855" gradientUnits="userSpaceOnUse">
<stop stop-color="#444444" stop-opacity="0"/>
<stop offset="0.2378" stop-color="#444444" stop-opacity="0.061"/>
<stop offset="0.4841" stop-color="#444444" stop-opacity="0.244"/>
<stop offset="0.7343" stop-color="#444444" stop-opacity="0.549"/>
<stop offset="0.9859" stop-color="#444444" stop-opacity="0.973"/>
<stop offset="1" stop-color="#444444"/>
</linearGradient>
<linearGradient id="paint37_linear_153_636" x1="32.0079" y1="49.5528" x2="28.6625" y2="51.2027" gradientUnits="userSpaceOnUse">
<stop stop-color="#444444" stop-opacity="0"/>
<stop offset="0.2378" stop-color="#444444" stop-opacity="0.061"/>
<stop offset="0.4841" stop-color="#444444" stop-opacity="0.244"/>
<stop offset="0.7343" stop-color="#444444" stop-opacity="0.549"/>
<stop offset="0.9859" stop-color="#444444" stop-opacity="0.973"/>
<stop offset="1" stop-color="#444444"/>
</linearGradient>
<linearGradient id="paint38_linear_153_636" x1="21.6704" y1="48.3809" x2="26.8507" y2="53.5612" gradientUnits="userSpaceOnUse">
<stop stop-color="#465A61"/>
<stop offset="0.3685" stop-color="#45565C"/>
<stop offset="0.7497" stop-color="#444D50"/>
<stop offset="1" stop-color="#444444"/>
</linearGradient>
<linearGradient id="paint39_linear_153_636" x1="24.7349" y1="51.7492" x2="24.7349" y2="56.4697" gradientUnits="userSpaceOnUse">
<stop stop-color="#444444" stop-opacity="0"/>
<stop offset="0.3899" stop-color="#3D3D3D" stop-opacity="0.16"/>
<stop offset="0.7931" stop-color="#292929" stop-opacity="0.637"/>
<stop offset="1" stop-color="#1A1A1A"/>
</linearGradient>
<linearGradient id="paint40_linear_153_636" x1="24.168" y1="51.4456" x2="30.4841" y2="51.4456" gradientUnits="userSpaceOnUse">
<stop stop-color="#444444" stop-opacity="0"/>
<stop offset="0.3899" stop-color="#3D3D3D" stop-opacity="0.16"/>
<stop offset="0.7931" stop-color="#292929" stop-opacity="0.637"/>
<stop offset="1" stop-color="#1A1A1A"/>
</linearGradient>
<linearGradient id="paint41_linear_153_636" x1="26.4595" y1="53.1701" x2="23.0453" y2="49.7558" gradientUnits="userSpaceOnUse">
<stop stop-color="#465A61"/>
<stop offset="0.3685" stop-color="#45565C"/>
<stop offset="0.7497" stop-color="#444D50"/>
<stop offset="1" stop-color="#444444"/>
</linearGradient>
<linearGradient id="paint42_linear_153_636" x1="43.2556" y1="48.3809" x2="48.436" y2="53.5612" gradientUnits="userSpaceOnUse">
<stop stop-color="#465A61"/>
<stop offset="0.3685" stop-color="#45565C"/>
<stop offset="0.7497" stop-color="#444D50"/>
<stop offset="1" stop-color="#444444"/>
</linearGradient>
<linearGradient id="paint43_linear_153_636" x1="46.3202" y1="51.7492" x2="46.3202" y2="56.4697" gradientUnits="userSpaceOnUse">
<stop stop-color="#444444" stop-opacity="0"/>
<stop offset="0.3899" stop-color="#3D3D3D" stop-opacity="0.16"/>
<stop offset="0.7931" stop-color="#292929" stop-opacity="0.637"/>
<stop offset="1" stop-color="#1A1A1A"/>
</linearGradient>
<linearGradient id="paint44_linear_153_636" x1="45.7534" y1="51.4456" x2="52.0694" y2="51.4456" gradientUnits="userSpaceOnUse">
<stop stop-color="#444444" stop-opacity="0"/>
<stop offset="0.3899" stop-color="#3D3D3D" stop-opacity="0.16"/>
<stop offset="0.7931" stop-color="#292929" stop-opacity="0.637"/>
<stop offset="1" stop-color="#1A1A1A"/>
</linearGradient>
<linearGradient id="paint45_linear_153_636" x1="48.0449" y1="53.1701" x2="44.6306" y2="49.7558" gradientUnits="userSpaceOnUse">
<stop stop-color="#465A61"/>
<stop offset="0.3685" stop-color="#45565C"/>
<stop offset="0.7497" stop-color="#444D50"/>
<stop offset="1" stop-color="#444444"/>
</linearGradient>
<linearGradient id="paint46_linear_153_636" x1="5.3772" y1="4.83606" x2="5.3772" y2="10.0314" gradientUnits="userSpaceOnUse">
<stop stop-color="#FE860A"/>
<stop offset="0.3561" stop-color="#FC8108"/>
<stop offset="0.7245" stop-color="#F87504"/>
<stop offset="1" stop-color="#F46700"/>
</linearGradient>
<linearGradient id="paint47_linear_153_636" x1="5.3772" y1="10.3966" x2="5.3772" y2="8.83842" gradientUnits="userSpaceOnUse">
<stop stop-color="#FE860A"/>
<stop offset="0.3561" stop-color="#FC8108"/>
<stop offset="0.7245" stop-color="#F87504"/>
<stop offset="1" stop-color="#F46700"/>
</linearGradient>
<linearGradient id="paint48_linear_153_636" x1="6.93526" y1="7.37466" x2="11.2972" y2="7.37466" gradientUnits="userSpaceOnUse">
<stop stop-color="#F46700" stop-opacity="0"/>
<stop offset="0.1276" stop-color="#F36500" stop-opacity="0.018"/>
<stop offset="0.2599" stop-color="#F26103" stop-opacity="0.073"/>
<stop offset="0.3944" stop-color="#F15B07" stop-opacity="0.164"/>
<stop offset="0.5304" stop-color="#EF520D" stop-opacity="0.292"/>
<stop offset="0.6676" stop-color="#EC4614" stop-opacity="0.456"/>
<stop offset="0.8059" stop-color="#E9371D" stop-opacity="0.657"/>
<stop offset="0.9424" stop-color="#E52628" stop-opacity="0.891"/>
<stop offset="1" stop-color="#E41F2D"/>
</linearGradient>
<linearGradient id="paint49_linear_153_636" x1="31.8328" y1="28.8908" x2="28.9208" y2="23.1337" gradientUnits="userSpaceOnUse">
<stop stop-color="#62DBFB"/>
<stop offset="0.2058" stop-color="#5DD8FA"/>
<stop offset="0.4191" stop-color="#51D1F9"/>
<stop offset="0.6358" stop-color="#3CC6F6"/>
<stop offset="0.8535" stop-color="#1FB6F3"/>
<stop offset="1" stop-color="#08A9F1"/>
</linearGradient>
<linearGradient id="paint50_linear_153_636" x1="28.3594" y1="32.2412" x2="17.9495" y2="31.4044" gradientUnits="userSpaceOnUse">
<stop stop-color="#62DBFB"/>
<stop offset="0.2058" stop-color="#5DD8FA"/>
<stop offset="0.4191" stop-color="#51D1F9"/>
<stop offset="0.6358" stop-color="#3CC6F6"/>
<stop offset="0.8535" stop-color="#1FB6F3"/>
<stop offset="1" stop-color="#08A9F1"/>
</linearGradient>
<linearGradient id="paint51_linear_153_636" x1="32.7328" y1="42.5886" x2="29.553" y2="36.3962" gradientUnits="userSpaceOnUse">
<stop stop-color="#62DBFB"/>
<stop offset="0.2058" stop-color="#5DD8FA"/>
<stop offset="0.4191" stop-color="#51D1F9"/>
<stop offset="0.6358" stop-color="#3CC6F6"/>
<stop offset="0.8535" stop-color="#1FB6F3"/>
<stop offset="1" stop-color="#08A9F1"/>
</linearGradient>
<linearGradient id="paint52_linear_153_636" x1="38.946" y1="40.9712" x2="37.8079" y2="36.5528" gradientUnits="userSpaceOnUse">
<stop stop-color="#62DBFB"/>
<stop offset="0.2058" stop-color="#5DD8FA"/>
<stop offset="0.4191" stop-color="#51D1F9"/>
<stop offset="0.6358" stop-color="#3CC6F6"/>
<stop offset="0.8535" stop-color="#1FB6F3"/>
<stop offset="1" stop-color="#08A9F1"/>
</linearGradient>
<linearGradient id="paint53_linear_153_636" x1="49.6933" y1="32.621" x2="42.3964" y2="30.9809" gradientUnits="userSpaceOnUse">
<stop stop-color="#62DBFB"/>
<stop offset="0.2058" stop-color="#5DD8FA"/>
<stop offset="0.4191" stop-color="#51D1F9"/>
<stop offset="0.6358" stop-color="#3CC6F6"/>
<stop offset="0.8535" stop-color="#1FB6F3"/>
<stop offset="1" stop-color="#08A9F1"/>
</linearGradient>
<linearGradient id="paint54_linear_153_636" x1="40.2478" y1="29.2568" x2="37.3357" y2="22.8971" gradientUnits="userSpaceOnUse">
<stop stop-color="#62DBFB"/>
<stop offset="0.2058" stop-color="#5DD8FA"/>
<stop offset="0.4191" stop-color="#51D1F9"/>
<stop offset="0.6358" stop-color="#3CC6F6"/>
<stop offset="0.8535" stop-color="#1FB6F3"/>
<stop offset="1" stop-color="#08A9F1"/>
</linearGradient>
<linearGradient id="paint55_linear_153_636" x1="16.1312" y1="-5.28866" x2="56.2358" y2="68.2364" gradientUnits="userSpaceOnUse">
<stop stop-color="#62DBFB"/>
<stop offset="0.2058" stop-color="#5DD8FA"/>
<stop offset="0.4191" stop-color="#51D1F9"/>
<stop offset="0.6358" stop-color="#3CC6F6"/>
<stop offset="0.8535" stop-color="#1FB6F3"/>
<stop offset="1" stop-color="#08A9F1"/>
</linearGradient>
<linearGradient id="paint56_linear_153_636" x1="34.3101" y1="39.0466" x2="34.3101" y2="43.3441" gradientUnits="userSpaceOnUse">
<stop stop-color="#017BAE" stop-opacity="0"/>
<stop offset="0.1466" stop-color="#017BAE" stop-opacity="0.024"/>
<stop offset="0.2986" stop-color="#017BAE" stop-opacity="0.095"/>
<stop offset="0.4531" stop-color="#017BAE" stop-opacity="0.215"/>
<stop offset="0.6093" stop-color="#017BAE" stop-opacity="0.382"/>
<stop offset="0.7669" stop-color="#017BAE" stop-opacity="0.597"/>
<stop offset="0.9233" stop-color="#017BAE" stop-opacity="0.856"/>
<stop offset="1" stop-color="#017BAE"/>
</linearGradient>
<linearGradient id="paint57_linear_153_636" x1="47.5011" y1="31.6048" x2="51.4508" y2="32.2742" gradientUnits="userSpaceOnUse">
<stop stop-color="#017BAE" stop-opacity="0"/>
<stop offset="0.1466" stop-color="#017BAE" stop-opacity="0.024"/>
<stop offset="0.2986" stop-color="#017BAE" stop-opacity="0.095"/>
<stop offset="0.4531" stop-color="#017BAE" stop-opacity="0.215"/>
<stop offset="0.6093" stop-color="#017BAE" stop-opacity="0.382"/>
<stop offset="0.7669" stop-color="#017BAE" stop-opacity="0.597"/>
<stop offset="0.9233" stop-color="#017BAE" stop-opacity="0.856"/>
<stop offset="1" stop-color="#017BAE"/>
</linearGradient>
<linearGradient id="paint58_linear_153_636" x1="34.3101" y1="24.3854" x2="34.3101" y2="21.1694" gradientUnits="userSpaceOnUse">
<stop stop-color="#017BAE" stop-opacity="0"/>
<stop offset="0.1466" stop-color="#017BAE" stop-opacity="0.024"/>
<stop offset="0.2986" stop-color="#017BAE" stop-opacity="0.095"/>
<stop offset="0.4531" stop-color="#017BAE" stop-opacity="0.215"/>
<stop offset="0.6093" stop-color="#017BAE" stop-opacity="0.382"/>
<stop offset="0.7669" stop-color="#017BAE" stop-opacity="0.597"/>
<stop offset="0.9233" stop-color="#017BAE" stop-opacity="0.856"/>
<stop offset="1" stop-color="#017BAE"/>
</linearGradient>
<linearGradient id="paint59_linear_153_636" x1="38.4575" y1="40.0523" x2="30.4241" y2="23.45" gradientUnits="userSpaceOnUse">
<stop stop-color="#62DBFB"/>
<stop offset="0.2058" stop-color="#5DD8FA"/>
<stop offset="0.4191" stop-color="#51D1F9"/>
<stop offset="0.6358" stop-color="#3CC6F6"/>
<stop offset="0.8535" stop-color="#1FB6F3"/>
<stop offset="1" stop-color="#08A9F1"/>
</linearGradient>
<linearGradient id="paint60_linear_153_636" x1="34.3101" y1="15.549" x2="34.3101" y2="22.1761" gradientUnits="userSpaceOnUse">
<stop stop-color="#62DBFB"/>
<stop offset="0.2058" stop-color="#5DD8FA"/>
<stop offset="0.4191" stop-color="#51D1F9"/>
<stop offset="0.6358" stop-color="#3CC6F6"/>
<stop offset="0.8535" stop-color="#1FB6F3"/>
<stop offset="1" stop-color="#08A9F1"/>
</linearGradient>
<linearGradient id="paint61_linear_153_636" x1="52.6354" y1="18.7104" x2="56.2899" y2="18.7104" gradientUnits="userSpaceOnUse">
<stop stop-color="#017BAE" stop-opacity="0"/>
<stop offset="0.1466" stop-color="#017BAE" stop-opacity="0.024"/>
<stop offset="0.2986" stop-color="#017BAE" stop-opacity="0.095"/>
<stop offset="0.4531" stop-color="#017BAE" stop-opacity="0.215"/>
<stop offset="0.6093" stop-color="#017BAE" stop-opacity="0.382"/>
<stop offset="0.7669" stop-color="#017BAE" stop-opacity="0.597"/>
<stop offset="0.9233" stop-color="#017BAE" stop-opacity="0.856"/>
<stop offset="1" stop-color="#017BAE"/>
</linearGradient>
<clipPath id="clip0_153_636">
<rect width="56" height="56" fill="white"/>
</clipPath>
</defs>
</svg>
