<svg width="56" height="56" viewBox="0 0 56 56" fill="none" xmlns="http://www.w3.org/2000/svg">
<g clip-path="url(#clip0_153_1027)">
<path d="M28.518 31.6698C28.1745 31.7362 27.8799 31.9254 27.7172 32.2195L26.3939 34.6084C25.9073 35.4865 25.1585 36.1972 24.2314 36.6838C25.6798 37.4614 27.4008 37.2178 28.2061 36.1136C28.4109 35.8327 28.5997 35.54 28.7713 35.2361L29.9243 33.1937C30.1332 32.8237 30.0826 32.3744 29.8368 31.9986C29.7644 31.9433 29.6869 31.893 29.6033 31.8488C29.2473 31.6584 28.8583 31.6039 28.518 31.6698Z" fill="url(#paint0_linear_153_1027)"/>
<path d="M34.2346 32.749L31.7626 35.4262C31.3946 35.8245 31.0093 36.2031 30.6082 36.5612C29.0311 37.9689 26.6405 37.9435 25.084 36.5131C26.5363 36.0173 27.8563 35.1614 28.9071 34.0083L31.7649 30.8714C32.1166 30.4851 32.594 30.2781 33.0794 30.2575C33.5602 30.2372 34.0499 30.4 34.4327 30.7508C34.4336 30.7516 34.4344 30.7524 34.4354 30.7532C34.6107 30.9129 34.7147 31.1397 34.7278 31.3763C34.755 31.8634 34.593 32.3608 34.2346 32.749Z" fill="url(#paint1_linear_153_1027)"/>
<path d="M38.6578 34.1887L34.8143 36.8362C34.2423 37.2301 33.6541 37.5943 33.052 37.9285C30.6847 39.2423 27.7053 38.5362 26.1641 36.3104C28.1182 36.1007 30.0087 35.4035 31.6467 34.2596L36.1016 31.1466C36.65 30.7633 37.3049 30.6393 37.9169 30.7506C38.5234 30.8608 39.0892 31.2023 39.4686 31.7484C39.4694 31.7497 39.4703 31.7509 39.4712 31.7522C39.6544 32.0142 39.7116 32.345 39.6526 32.6593C39.5405 33.2577 39.2012 33.8144 38.6578 34.1887Z" fill="url(#paint2_linear_153_1027)"/>
<path d="M26.298 39.4422C29.4211 39.4422 31.9529 38.3263 31.9529 36.9498C31.9529 35.5734 29.4211 34.4575 26.298 34.4575C23.1749 34.4575 20.6431 35.5734 20.6431 36.9498C20.6431 38.3263 23.1749 39.4422 26.298 39.4422Z" fill="url(#paint3_linear_153_1027)"/>
<path d="M33.3209 4.53358C33.3064 6.09785 31.714 7.16965 30.2605 6.59142C29.5745 6.31845 28.8082 6.16582 27.9997 6.16582C27.1911 6.16582 26.4248 6.31845 25.7388 6.59142C24.2853 7.16976 22.6928 6.09785 22.6784 4.53358C22.6783 4.52173 22.6782 4.50976 22.6782 4.49779C22.6782 2.01369 25.0607 0 27.9997 0C30.9386 0 33.3211 2.01369 33.3211 4.49779C33.3211 4.50976 33.321 4.52162 33.3209 4.53358Z" fill="url(#paint4_linear_153_1027)"/>
<path d="M53.0412 25.9433C53.0412 26.2773 53.0316 27.5191 53.0127 27.8492C52.8958 29.8899 50.8586 31.4948 48.3857 31.4948H7.61396C5.14107 31.4948 3.10388 29.8899 2.98694 27.8492C2.96805 27.5191 2.9585 26.2773 2.9585 25.9433C2.9585 14.5174 14.171 5.25537 27.9998 5.25537C41.8301 5.25537 53.0412 14.5174 53.0412 25.9433Z" fill="url(#paint5_linear_153_1027)"/>
<path d="M48.3859 31.4947C50.8588 31.4947 52.896 29.8898 53.0129 27.8491C53.0318 27.519 53.0413 26.2772 53.0413 25.9433C53.0413 14.5174 41.8302 5.25537 28 5.25537V31.4948H48.3859V31.4947Z" fill="url(#paint6_linear_153_1027)"/>
<path d="M2.9585 25.9435C2.9585 26.2775 2.96805 27.5193 2.98694 27.8494C3.10388 29.8901 5.14107 31.495 7.61396 31.495H48.3857C50.8586 31.495 52.8958 29.8901 53.0127 27.8494C53.0316 27.5193 53.0412 26.2775 53.0412 25.9435C53.0412 22.2815 51.888 18.8426 49.8676 15.8589H6.13227C4.11177 18.8426 2.9585 22.2815 2.9585 25.9435Z" fill="url(#paint7_linear_153_1027)"/>
<path d="M54.1342 33.5884H1.86579C0.835279 33.5884 0 32.753 0 31.7226V30.5259C0 29.4955 0.835279 28.6602 1.86579 28.6602H54.1343C55.1647 28.6602 56.0001 29.4954 56.0001 30.5259V31.7226C56 32.753 55.1647 33.5884 54.1342 33.5884Z" fill="url(#paint8_linear_153_1027)"/>
<path d="M36.1526 33.5886L29.2638 26.6997L22.375 33.5886H36.1526Z" fill="url(#paint9_linear_153_1027)"/>
<path d="M42.4141 33.588C39.0343 38.4183 33.8735 41.7278 28.0594 42.7896L24.3272 43.4418L21.9664 43.8327C21.1692 43.9634 20.4368 44.3093 19.8384 44.8177L17.717 46.5185C17.1778 46.9501 16.3905 46.8622 15.959 46.3242L10.5676 39.5921C10.2734 39.2242 10.2108 38.7224 10.4051 38.2942L11.7162 35.4086C12.0258 34.7234 12.4596 34.1041 12.9932 33.588C13.3742 33.2191 13.8068 32.9039 14.2823 32.6558C14.335 32.6272 14.3888 32.6009 14.4437 32.5745C14.4525 32.5712 14.4602 32.5657 14.4701 32.5624C15.4111 32.1068 18.4603 31.2909 19.6594 30.978C20.0108 30.8868 20.3556 30.7682 20.6839 30.6145C21.8072 30.0897 22.8591 29.433 23.8188 28.66C24.516 28.1022 25.1639 27.4807 25.7546 26.8065C26.4639 25.9984 27.6026 25.77 28.548 26.1993C28.6842 26.2608 28.8159 26.3366 28.9422 26.4255C29.6856 26.9504 30.0392 27.82 29.9425 28.66C29.8953 29.0674 29.7427 29.4682 29.4781 29.8184C28.481 31.1438 27.3984 32.4032 26.2367 33.588C25.7535 34.0821 25.2561 34.5631 24.7466 35.0308L24.6785 35.1692C24.4315 35.6688 24.6818 36.1421 25.2341 36.2167C28.4042 36.6504 29.2771 36.4868 31.3974 35.9159C33.0533 35.469 34.5905 34.6773 35.884 33.588H42.4141Z" fill="url(#paint10_linear_153_1027)"/>
<path d="M31.3975 35.9156C29.7785 36.3517 28.8857 36.5497 27.1431 36.4261V42.9496L28.0595 42.7895C33.8736 41.7277 39.0344 38.4182 42.4142 33.5879H35.8841C34.5906 34.677 33.0534 35.4687 31.3975 35.9156Z" fill="url(#paint11_linear_153_1027)"/>
<path d="M19.1054 31.1245C17.7018 31.4977 15.2888 32.1667 14.4694 32.5625C14.4605 32.5663 14.452 32.5708 14.4431 32.5748C14.3887 32.6009 14.3347 32.6277 14.2819 32.6558C13.14 33.2514 12.2475 34.235 11.7156 35.4082L10.4053 38.2938C10.2106 38.7226 10.2734 39.2245 10.5678 39.592L15.9592 46.3238C16.3907 46.8626 17.1775 46.9497 17.7163 46.518L19.8387 44.8182C20.4365 44.3098 21.1688 43.9637 21.9659 43.8322L24.3269 43.4423L28.0594 42.7898C28.1718 42.7692 28.2836 42.7463 28.3956 42.724L19.1054 31.1245Z" fill="url(#paint12_linear_153_1027)"/>
<path d="M20.575 46.2955L17.3852 49.4853C16.7613 50.1092 15.7497 50.1092 15.1258 49.4853L6.48697 40.8464C5.86307 40.2225 5.86307 39.2108 6.48697 38.5869L9.67678 35.3971C10.3007 34.7732 11.3123 34.7732 11.9362 35.3971L20.5751 44.0361C21.1989 44.6601 21.1989 45.6716 20.575 46.2955Z" fill="url(#paint13_linear_153_1027)"/>
<path d="M11.5376 45.897L15.1261 49.4855C15.75 50.1094 16.7616 50.1094 17.3855 49.4855L20.5753 46.2957C21.1992 45.6718 21.1992 44.6602 20.5753 44.0363L16.9868 40.4478L11.5376 45.897Z" fill="url(#paint14_linear_153_1027)"/>
<path d="M19.3838 48.7277L13.2063 54.9052C12.505 55.6065 11.5539 56.0005 10.5622 56.0005H1.68121C0.752706 56.0004 0 55.2477 0 54.3191V45.3833C0 44.3917 0.393867 43.4407 1.09507 42.7394L7.2442 36.5892C7.93937 35.8941 9.0664 35.8941 9.76157 36.5892L19.384 46.2117C20.0786 46.9064 20.0786 48.0329 19.3838 48.7277Z" fill="url(#paint15_linear_153_1027)"/>
<path d="M19.3836 48.7278L13.2061 54.9052C12.5048 55.6065 11.5537 56.0005 10.562 56.0005H1.60107L15.3867 42.2148L19.3837 46.2118C20.0784 46.9064 20.0784 48.0329 19.3836 48.7278Z" fill="url(#paint16_linear_153_1027)"/>
</g>
<defs>
<linearGradient id="paint0_linear_153_1027" x1="26.3328" y1="32.9542" x2="27.2754" y2="34.4127" gradientUnits="userSpaceOnUse">
<stop stop-color="#FFDFCF"/>
<stop offset="1" stop-color="#FFA78F"/>
</linearGradient>
<linearGradient id="paint1_linear_153_1027" x1="29.2875" y1="32.6693" x2="30.3108" y2="34.6272" gradientUnits="userSpaceOnUse">
<stop stop-color="#FFDFCF"/>
<stop offset="1" stop-color="#FFA78F"/>
</linearGradient>
<linearGradient id="paint2_linear_153_1027" x1="32.5077" y1="33.0972" x2="33.3276" y2="35.4013" gradientUnits="userSpaceOnUse">
<stop stop-color="#FFDFCF"/>
<stop offset="1" stop-color="#FFA78F"/>
</linearGradient>
<linearGradient id="paint3_linear_153_1027" x1="25.483" y1="34.3566" x2="26.6908" y2="38.1997" gradientUnits="userSpaceOnUse">
<stop stop-color="#FFDFCF"/>
<stop offset="1" stop-color="#FFA78F"/>
</linearGradient>
<linearGradient id="paint4_linear_153_1027" x1="26.4381" y1="0.612596" x2="28.9061" y2="6.50808" gradientUnits="userSpaceOnUse">
<stop stop-color="#E1D3CE"/>
<stop offset="1" stop-color="#9E9797"/>
</linearGradient>
<linearGradient id="paint5_linear_153_1027" x1="18.2849" y1="14.0466" x2="34.0577" y2="29.8195" gradientUnits="userSpaceOnUse">
<stop stop-color="#E1D3CE"/>
<stop offset="1" stop-color="#9E9797"/>
</linearGradient>
<linearGradient id="paint6_linear_153_1027" x1="38.7477" y1="18.3234" x2="58.6306" y2="15.3409" gradientUnits="userSpaceOnUse">
<stop stop-color="#433F43" stop-opacity="0"/>
<stop offset="0.3007" stop-color="#3C393C" stop-opacity="0.301"/>
<stop offset="0.7373" stop-color="#292729" stop-opacity="0.737"/>
<stop offset="1" stop-color="#1A1A1A"/>
</linearGradient>
<linearGradient id="paint7_linear_153_1027" x1="27.9998" y1="21.577" x2="27.9998" y2="32.8558" gradientUnits="userSpaceOnUse">
<stop stop-color="#433F43" stop-opacity="0"/>
<stop offset="0.3007" stop-color="#3C393C" stop-opacity="0.301"/>
<stop offset="0.7373" stop-color="#292729" stop-opacity="0.737"/>
<stop offset="1" stop-color="#1A1A1A"/>
</linearGradient>
<linearGradient id="paint8_linear_153_1027" x1="28" y1="29.188" x2="28" y2="32.76" gradientUnits="userSpaceOnUse">
<stop stop-color="#E1D3CE"/>
<stop offset="1" stop-color="#9E9797"/>
</linearGradient>
<linearGradient id="paint9_linear_153_1027" x1="30.8744" y1="33.7223" x2="25.9881" y2="30.2635" gradientUnits="userSpaceOnUse">
<stop stop-color="#433F43" stop-opacity="0"/>
<stop offset="0.3007" stop-color="#3C393C" stop-opacity="0.301"/>
<stop offset="0.7373" stop-color="#292729" stop-opacity="0.737"/>
<stop offset="1" stop-color="#1A1A1A"/>
</linearGradient>
<linearGradient id="paint10_linear_153_1027" x1="24.1966" y1="29.6611" x2="29.0379" y2="44.5572" gradientUnits="userSpaceOnUse">
<stop stop-color="#FFDFCF"/>
<stop offset="1" stop-color="#FFA78F"/>
</linearGradient>
<linearGradient id="paint11_linear_153_1027" x1="34.0814" y1="37.6845" x2="35.4539" y2="32.4139" gradientUnits="userSpaceOnUse">
<stop stop-color="#F89580" stop-opacity="0"/>
<stop offset="0.2599" stop-color="#F2917C" stop-opacity="0.261"/>
<stop offset="0.5954" stop-color="#E2856F" stop-opacity="0.597"/>
<stop offset="0.9709" stop-color="#C8725B" stop-opacity="0.974"/>
<stop offset="0.9972" stop-color="#C5715A"/>
</linearGradient>
<linearGradient id="paint12_linear_153_1027" x1="20.1987" y1="38.7215" x2="17.1368" y2="42.3626" gradientUnits="userSpaceOnUse">
<stop stop-color="#F89580" stop-opacity="0"/>
<stop offset="0.2599" stop-color="#F2917C" stop-opacity="0.261"/>
<stop offset="0.5954" stop-color="#E2856F" stop-opacity="0.597"/>
<stop offset="0.9709" stop-color="#C8725B" stop-opacity="0.974"/>
<stop offset="0.9972" stop-color="#C5715A"/>
</linearGradient>
<linearGradient id="paint13_linear_153_1027" x1="14.2051" y1="41.9472" x2="17.2615" y2="39.8209" gradientUnits="userSpaceOnUse">
<stop stop-color="#FFFDF1"/>
<stop offset="1" stop-color="#FFF5C6"/>
</linearGradient>
<linearGradient id="paint14_linear_153_1027" x1="16.3614" y1="45.2741" x2="20.9197" y2="49.8324" gradientUnits="userSpaceOnUse">
<stop stop-color="#FEA613" stop-opacity="0"/>
<stop offset="0.1832" stop-color="#FC9B19" stop-opacity="0.183"/>
<stop offset="0.5086" stop-color="#F57D28" stop-opacity="0.509"/>
<stop offset="0.9356" stop-color="#EB4C40" stop-opacity="0.936"/>
<stop offset="1" stop-color="#E94444"/>
</linearGradient>
<linearGradient id="paint15_linear_153_1027" x1="4.03848" y1="45.4848" x2="13.1817" y2="50.1979" gradientUnits="userSpaceOnUse">
<stop stop-color="#554E56"/>
<stop offset="1" stop-color="#433F43"/>
</linearGradient>
<linearGradient id="paint16_linear_153_1027" x1="10.5683" y1="51.182" x2="13.2177" y2="53.8313" gradientUnits="userSpaceOnUse">
<stop stop-color="#433F43" stop-opacity="0"/>
<stop offset="1" stop-color="#1A1A1A"/>
</linearGradient>
<clipPath id="clip0_153_1027">
<rect width="56" height="56" fill="white"/>
</clipPath>
</defs>
</svg>
