<svg width="56" height="56" viewBox="0 0 56 56" fill="none" xmlns="http://www.w3.org/2000/svg">
<g clip-path="url(#clip0_153_898)">
<path d="M40.2396 43.1749L28.1519 9.96454C27.2116 7.38086 28.7413 4.55626 31.4191 3.93225C36.6285 2.71825 41.9239 5.58633 43.7533 10.6127L51.7743 32.65C53.6037 37.6764 51.3908 43.2773 46.6198 45.6957C44.1674 46.9389 41.1799 45.7585 40.2396 43.1749Z" fill="url(#paint0_linear_153_898)"/>
<path d="M46.336 30.4205L46.3357 30.4213C45.8937 31.3808 46.4842 32.4953 47.5253 32.6743C48.5892 32.8573 49.6411 33.0741 50.6807 33.3237C51.6047 33.5456 52.2778 34.3357 52.3667 35.2818C52.4163 35.8101 52.4254 36.3376 52.3958 36.8603C52.4749 35.4656 52.2784 34.0361 51.774 32.6502L50.521 29.2076C49.9616 29.1263 49.3986 29.0562 48.8319 28.9972C47.7814 28.8877 46.7778 29.4611 46.336 30.4205Z" fill="url(#paint1_linear_153_898)"/>
<path d="M41.5602 17.2981L41.5598 17.2989C41.118 18.2582 41.7078 19.3728 42.7489 19.5518C43.9336 19.7555 45.1035 20.001 46.258 20.2872C46.9536 20.4596 47.5203 20.9623 47.7654 21.6357L45.7451 16.085C45.1858 16.0037 44.6227 15.9336 44.056 15.8746C43.0055 15.7653 42.002 16.3387 41.5602 17.2981Z" fill="url(#paint2_linear_153_898)"/>
<path d="M41.6789 9.31479C40.6242 9.20477 39.6156 9.77399 39.172 10.7371L39.1716 10.7379C38.7298 11.6972 39.3197 12.8118 40.3607 12.9908C41.5454 13.1945 42.7154 13.44 43.8698 13.7262C44.5654 13.8986 45.1321 14.4012 45.3772 15.0747L43.7531 10.6125C43.6152 10.2336 43.4573 9.86733 43.2816 9.51376C42.7506 9.43777 42.2165 9.3709 41.6789 9.31479Z" fill="url(#paint3_linear_153_898)"/>
<path d="M43.9483 23.8591L43.948 23.8599C43.5062 24.8193 44.096 25.9339 45.1371 26.1129C46.3218 26.3165 47.4917 26.5621 48.6462 26.8482C49.3418 27.0206 49.9085 27.5233 50.1536 28.1967L48.1333 22.646C47.574 22.5648 47.0109 22.4946 46.4442 22.4356C45.3937 22.3264 44.3901 22.8998 43.9483 23.8591Z" fill="url(#paint4_linear_153_898)"/>
<path d="M46.6198 45.6957C50.5683 43.6942 52.7641 39.5131 52.367 35.2818C52.2781 34.3356 51.6052 33.5456 50.6811 33.3237C49.6414 33.074 48.5895 32.8572 47.5256 32.6743C46.4843 32.4953 45.894 31.3808 46.336 30.4212L46.3363 30.4205C46.7782 29.4611 47.7817 28.8877 48.8322 28.997C49.3989 29.0559 49.9619 29.1261 50.5213 29.2073L50.1536 28.1969C49.9085 27.5235 49.3418 27.0208 48.6462 26.8484C47.4917 26.5623 46.3217 26.3168 45.1371 26.1131C44.0961 25.9341 43.5061 24.8195 43.948 23.8601L43.9483 23.8593C44.3902 22.9 45.3937 22.3266 46.4442 22.4358C47.0109 22.4948 47.5739 22.565 48.1333 22.6462L47.7655 21.6358C47.5205 20.9624 46.9538 20.4597 46.2581 20.2873C45.1037 20.0012 43.9337 19.7556 42.749 19.552C41.7081 19.373 41.1181 18.2584 41.56 17.299L41.5603 17.2982C42.0021 16.3389 43.0056 15.7655 44.0561 15.8747C44.6228 15.9337 45.1859 16.0039 45.7453 16.0851L45.3775 15.0747C45.1324 14.4013 44.5657 13.8986 43.8701 13.7262C42.7157 13.4401 41.5457 13.1945 40.361 12.9908C39.3201 12.8119 38.7301 11.6972 39.172 10.7379L39.1723 10.7371C39.6159 9.77403 40.6245 9.2048 41.6792 9.31483C42.2168 9.37094 42.7509 9.4377 43.2819 9.5139C41.1258 5.17742 36.2359 2.80971 31.4191 3.93224C28.7413 4.55626 27.2116 7.38085 28.1519 9.96454L40.2395 43.1748C41.1799 45.7585 44.1675 46.9389 46.6198 45.6957Z" fill="url(#paint5_linear_153_898)"/>
<path d="M31.4191 3.93236C28.7413 4.55637 27.2116 7.38097 28.1519 9.96466L40.2395 43.175C41.1798 45.7587 44.1674 46.939 46.6197 45.6958C47.6474 45.1749 48.555 44.5053 49.3304 43.7266L34.7617 3.69914C33.667 3.60108 32.5413 3.67081 31.4191 3.93236Z" fill="url(#paint6_linear_153_898)"/>
<path d="M46.6197 45.6959C50.5681 43.6944 52.764 39.5132 52.3668 35.282C52.278 34.3358 51.605 33.5458 50.6809 33.3238C49.6413 33.0741 48.5893 32.8574 47.5254 32.6745C46.4842 32.4955 45.8939 31.381 46.3358 30.4214L46.3362 30.4206C46.778 29.4613 47.7815 28.8879 48.832 28.9971C49.3987 29.0561 49.9618 29.1263 50.5211 29.2075L50.1534 28.1971C49.9083 27.5237 49.3416 27.021 48.646 26.8486C47.4915 26.5624 46.3216 26.3169 45.1369 26.1132C44.3448 25.9771 43.8144 25.299 43.8006 24.5601L34.6733 27.8821L40.2395 43.175C41.1798 45.7587 44.1673 46.9391 46.6197 45.6959Z" fill="url(#paint7_linear_153_898)"/>
<path d="M32.7907 12.6065C32.671 12.2777 32.3074 12.1082 31.9786 12.2278C31.6498 12.3475 31.4803 12.711 31.5999 13.0398C31.7195 13.3686 32.0831 13.5381 32.4119 13.4185C32.7408 13.2989 32.9104 12.9354 32.7907 12.6065Z" fill="url(#paint8_linear_153_898)"/>
<path d="M33.1221 9.4776C33.0024 9.14874 32.6389 8.97931 32.3101 9.09889C31.9813 9.21857 31.8118 9.58214 31.9314 9.911C32.0511 10.2398 32.4147 10.4093 32.7434 10.2897C33.0723 10.1699 33.2418 9.80636 33.1221 9.4776Z" fill="url(#paint9_linear_153_898)"/>
<path d="M35.9082 8.83981C35.8245 8.60999 35.5706 8.49151 35.3407 8.57518C35.1109 8.65885 34.9926 8.91283 35.0761 9.14265C35.1598 9.37247 35.4138 9.49095 35.6436 9.40727C35.8734 9.3236 35.9919 9.06963 35.9082 8.83981Z" fill="url(#paint10_linear_153_898)"/>
<path d="M37.6415 17.8493C37.886 17.8493 38.0842 17.6511 38.0842 17.4066C38.0842 17.1621 37.886 16.9639 37.6415 16.9639C37.3969 16.9639 37.1987 17.1621 37.1987 17.4066C37.1987 17.6511 37.3969 17.8493 37.6415 17.8493Z" fill="url(#paint11_linear_153_898)"/>
<path d="M35.9849 16.3603C35.9012 16.1305 35.6473 16.012 35.4174 16.0957C35.1876 16.1794 35.0691 16.4333 35.1528 16.6632C35.2365 16.893 35.4905 17.0115 35.7203 16.9278C35.95 16.8441 36.0685 16.59 35.9849 16.3603Z" fill="url(#paint12_linear_153_898)"/>
<path d="M33.451 18.9035C33.6955 18.9035 33.8938 18.7053 33.8938 18.4608C33.8938 18.2163 33.6955 18.0181 33.451 18.0181C33.2065 18.0181 33.0083 18.2163 33.0083 18.4608C33.0083 18.7053 33.2065 18.9035 33.451 18.9035Z" fill="url(#paint13_linear_153_898)"/>
<path d="M34.3887 11.8218C34.4723 12.0517 34.7263 12.1701 34.9561 12.0865C35.1859 12.0028 35.3044 11.7488 35.2208 11.519C35.1371 11.2892 34.883 11.1707 34.6533 11.2544C34.4235 11.3381 34.305 11.592 34.3887 11.8218Z" fill="url(#paint14_linear_153_898)"/>
<path d="M37.3684 14.8609C37.7183 14.8609 38.002 14.5772 38.002 14.2273C38.002 13.8774 37.7183 13.5938 37.3684 13.5938C37.0185 13.5938 36.7349 13.8774 36.7349 14.2273C36.7349 14.5772 37.0185 14.8609 37.3684 14.8609Z" fill="url(#paint15_linear_153_898)"/>
<path d="M38.4117 23.2168C38.328 22.9869 38.074 22.8685 37.8442 22.9521C37.6144 23.0358 37.4959 23.2899 37.5796 23.5196C37.6632 23.7494 37.9173 23.8679 38.147 23.7842C38.3768 23.7006 38.4952 23.4466 38.4117 23.2168Z" fill="url(#paint16_linear_153_898)"/>
<path d="M36.3394 22.3217C36.2557 22.0919 36.0016 21.9734 35.7719 22.0571C35.5421 22.1408 35.4236 22.3949 35.5073 22.6246C35.591 22.8544 35.845 22.9729 36.0748 22.8892C36.3046 22.8055 36.4231 22.5515 36.3394 22.3217Z" fill="url(#paint17_linear_153_898)"/>
<path d="M38.3179 19.9727C38.1982 19.644 37.8347 19.4744 37.5059 19.594C37.1772 19.7137 37.0076 20.0772 37.1272 20.406C37.2469 20.7347 37.6104 20.9043 37.9393 20.7847C38.2681 20.665 38.4376 20.3015 38.3179 19.9727Z" fill="url(#paint18_linear_153_898)"/>
<path d="M39.2304 16.355C39.3141 16.5848 39.5681 16.7033 39.7979 16.6196C40.0277 16.536 40.1462 16.2819 40.0625 16.0522C39.9789 15.8223 39.7248 15.704 39.4951 15.7875C39.2654 15.8711 39.1468 16.1253 39.2304 16.355Z" fill="url(#paint19_linear_153_898)"/>
<path d="M39.0592 29.8296C38.9395 29.5009 38.5759 29.3314 38.2471 29.4509C37.9183 29.5706 37.7488 29.9342 37.8685 30.2629C37.9882 30.5918 38.3517 30.7612 38.6805 30.6416C39.0093 30.522 39.1789 30.1584 39.0592 29.8296Z" fill="url(#paint20_linear_153_898)"/>
<path d="M39.3907 26.7002C39.271 26.3715 38.9074 26.202 38.5787 26.3215C38.2498 26.4412 38.0804 26.8048 38.2 27.1336C38.3196 27.4624 38.6832 27.6319 39.012 27.5124C39.3408 27.3926 39.5104 27.029 39.3907 26.7002Z" fill="url(#paint21_linear_153_898)"/>
<path d="M42.1768 26.0625C42.0931 25.8326 41.8391 25.7142 41.6093 25.7978C41.3795 25.8815 41.2611 26.1355 41.3447 26.3653C41.4283 26.5951 41.6823 26.7136 41.9121 26.6299C42.1418 26.5464 42.2603 26.2923 42.1768 26.0625Z" fill="url(#paint22_linear_153_898)"/>
<path d="M44.3262 34.478C44.2425 34.2482 43.9885 34.1297 43.7588 34.2134C43.5289 34.297 43.4105 34.551 43.4941 34.7808C43.5778 35.0107 43.8319 35.1291 44.0616 35.0455C44.2914 34.9619 44.4099 34.7078 44.3262 34.478Z" fill="url(#paint23_linear_153_898)"/>
<path d="M42.2535 33.583C42.1698 33.3532 41.9158 33.2347 41.686 33.3183C41.4562 33.402 41.3377 33.656 41.4214 33.8858C41.505 34.1156 41.759 34.2341 41.9888 34.1504C42.2187 34.0668 42.3371 33.8128 42.2535 33.583Z" fill="url(#paint24_linear_153_898)"/>
<path d="M39.7196 36.1262C39.9641 36.1262 40.1623 35.928 40.1623 35.6835C40.1623 35.4389 39.9641 35.2407 39.7196 35.2407C39.4751 35.2407 39.2769 35.4389 39.2769 35.6835C39.2769 35.928 39.4751 36.1262 39.7196 36.1262Z" fill="url(#paint25_linear_153_898)"/>
<path d="M40.6572 29.0445C40.7409 29.2743 40.9949 29.3928 41.2247 29.3091C41.4545 29.2255 41.573 28.9715 41.4893 28.7417C41.4056 28.5118 41.1515 28.3934 40.9218 28.477C40.692 28.5607 40.5735 28.8148 40.6572 29.0445Z" fill="url(#paint26_linear_153_898)"/>
<path d="M44.2325 31.2335C44.1128 30.9047 43.7492 30.7352 43.4205 30.8547C43.0917 30.9744 42.9222 31.338 43.0417 31.6667C43.1614 31.9956 43.525 32.1651 43.8539 32.0454C44.1826 31.9259 44.3521 31.5623 44.2325 31.2335Z" fill="url(#paint27_linear_153_898)"/>
<path d="M44.6802 40.4399C44.5966 40.2101 44.3426 40.0916 44.1128 40.1753C43.8829 40.2589 43.7645 40.513 43.8481 40.7427C43.9318 40.9726 44.1859 41.091 44.4156 41.0074C44.6454 40.9237 44.7639 40.6697 44.6802 40.4399Z" fill="url(#paint28_linear_153_898)"/>
<path d="M42.608 39.5444C42.5243 39.3146 42.2702 39.1961 42.0405 39.2798C41.8107 39.3634 41.6922 39.6175 41.7759 39.8472C41.8595 40.0771 42.1136 40.1955 42.3433 40.1119C42.573 40.0282 42.6915 39.7741 42.608 39.5444Z" fill="url(#paint29_linear_153_898)"/>
<path d="M44.5865 37.1954C44.4668 36.8666 44.1032 36.6971 43.7745 36.8166C43.4457 36.9363 43.2762 37.2999 43.3958 37.6287C43.5154 37.9575 43.879 38.1269 44.2078 38.0074C44.5366 37.8877 44.7062 37.5241 44.5865 37.1954Z" fill="url(#paint30_linear_153_898)"/>
<path d="M45.499 33.5782C45.5826 33.808 45.8366 33.9265 46.0664 33.8428C46.2962 33.7591 46.4147 33.5051 46.331 33.2753C46.2474 33.0456 45.9933 32.927 45.7636 33.0107C45.5339 33.0944 45.4154 33.3485 45.499 33.5782Z" fill="url(#paint31_linear_153_898)"/>
<path d="M38.2354 45.6111L6.79473 14.1704C4.34874 11.7244 4.5913 7.69033 7.31279 5.55498C12.6072 1.40087 20.1702 1.85568 24.9286 6.61415L45.7917 27.4772C50.5503 32.2358 51.005 39.7987 46.8509 45.0931C44.7155 47.8146 40.6814 48.0571 38.2354 45.6111Z" fill="url(#paint32_linear_153_898)"/>
<path d="M38.4053 27.8266V27.8276C38.4116 29.1568 39.6774 30.1136 40.9598 29.7641C42.2701 29.407 43.5849 29.0949 44.9031 28.8268C46.0747 28.5886 47.2622 29.1314 47.8666 30.1632C48.204 30.7392 48.4949 31.3358 48.739 31.9475C48.0877 30.3152 47.1035 28.7896 45.7914 27.4775L42.5322 24.2183C41.8512 24.423 41.1718 24.6424 40.4943 24.8764C39.2384 25.3104 38.399 26.4978 38.4053 27.8266Z" fill="url(#paint33_linear_153_898)"/>
<path d="M25.9825 15.4038V15.4048C25.9887 16.7336 27.254 17.6909 28.5362 17.3415C29.9952 16.9439 31.4598 16.6017 32.9284 16.3142C33.8132 16.1409 34.7267 16.4128 35.3642 17.0503L30.1093 11.7954C29.4283 12.0002 28.749 12.2196 28.0715 12.4536C26.8155 12.8875 25.9762 14.0749 25.9825 15.4038Z" fill="url(#paint34_linear_153_898)"/>
<path d="M21.8733 6.23753C20.6123 6.6729 19.7648 7.85823 19.771 9.19224V9.19323C19.7773 10.5221 21.0426 11.4793 22.3247 11.13C23.7838 10.7324 25.2484 10.3902 26.717 10.1026C27.6018 9.92936 28.5153 10.2012 29.1528 10.8388L24.9284 6.61438C24.5698 6.25576 24.1949 5.92195 23.8065 5.6123C23.1607 5.80787 22.5161 6.01561 21.8733 6.23753Z" fill="url(#paint35_linear_153_898)"/>
<path d="M32.1939 21.6152V21.6162C32.2001 22.945 33.4654 23.9023 34.7476 23.5529C36.2067 23.1553 37.6712 22.8132 39.1399 22.5256C40.0247 22.3523 40.9381 22.6242 41.5756 23.2617L36.3208 18.0068C35.6397 18.2116 34.9604 18.431 34.2829 18.665C33.027 19.0991 32.1875 20.2865 32.1939 21.6152Z" fill="url(#paint36_linear_153_898)"/>
<path d="M46.8509 45.0933C50.2887 40.7117 50.5695 34.7767 47.8669 30.1631C47.2625 29.1315 46.075 28.5886 44.9034 28.8268C43.5853 29.0949 42.2705 29.407 40.9601 29.7641C39.6777 30.1136 38.412 29.1568 38.4056 27.8276V27.8266C38.3994 26.4978 39.2387 25.3105 40.4947 24.8765C41.1721 24.6424 41.8515 24.423 42.5324 24.2184L41.5758 23.2617C40.9383 22.6242 40.0248 22.3524 39.14 22.5256C37.6714 22.8132 36.2068 23.1553 34.7477 23.5529C33.4657 23.9023 32.2004 22.9451 32.194 21.6162V21.6152C32.1878 20.2864 33.0271 19.0991 34.283 18.6651C34.9605 18.431 35.6399 18.2116 36.3208 18.007L35.3642 17.0504C34.7267 16.4128 33.8132 16.141 32.9284 16.3142C31.4598 16.6018 29.9952 16.944 28.5361 17.3416C27.2541 17.691 25.9888 16.7337 25.9824 15.4048V15.4038C25.9762 14.075 26.8155 12.8877 28.0714 12.4537C28.7489 12.2196 29.4283 12.0003 30.1092 11.7956L29.1526 10.839C28.515 10.2014 27.6016 9.92957 26.7168 10.1028C25.2482 10.3904 23.7836 10.7326 22.3245 11.1302C21.0424 11.4796 19.7772 10.5223 19.7708 9.19345V9.19246C19.7644 7.85845 20.612 6.67312 21.8731 6.23775C22.5159 6.01583 23.1605 5.80808 23.8063 5.61252C19.0427 1.81397 12.2082 1.71426 7.31279 5.55521C4.5913 7.69045 4.34874 11.7246 6.79473 14.1706L38.2354 45.6114C40.6814 48.0573 44.7155 47.8148 46.8509 45.0933Z" fill="url(#paint37_linear_153_898)"/>
<path d="M7.31279 5.55484C4.5913 7.6902 4.34874 11.7243 6.79473 14.1703L38.2354 45.611C40.6814 48.057 44.7155 47.8144 46.8509 45.0929C47.7457 43.9525 48.4245 42.7065 48.8947 41.4064L11 3.51172C9.69971 3.9819 8.45332 4.65994 7.31279 5.55484Z" fill="url(#paint38_linear_153_898)"/>
<path d="M46.8508 45.0931C50.2887 40.7115 50.5695 34.7765 47.8669 30.1629C47.2625 29.1313 46.075 28.5883 44.9034 28.8266C43.5853 29.0947 42.2705 29.4068 40.9601 29.7639C39.6777 30.1134 38.412 29.1566 38.4056 27.8274V27.8264C38.3993 26.4976 39.2387 25.3103 40.4946 24.8762C41.1721 24.6421 41.8515 24.4227 42.5325 24.218L41.5759 23.2614C40.9383 22.6239 40.0249 22.352 39.1401 22.5253C37.6715 22.8129 36.2069 23.155 34.7478 23.5526C33.7722 23.8185 32.807 23.3274 32.3982 22.4921L23.7573 31.1331L38.2354 45.6111C40.6814 48.0571 44.7155 47.8146 46.8508 45.0931Z" fill="url(#paint39_linear_153_898)"/>
<path d="M13.4891 14.7164C13.1778 14.4051 12.6732 14.4051 12.3619 14.7164C12.0506 15.0277 12.0506 15.5323 12.3619 15.8436C12.6732 16.1549 13.1778 16.1549 13.4891 15.8436C13.8004 15.5323 13.8004 15.0277 13.4891 14.7164Z" fill="url(#paint40_linear_153_898)"/>
<path d="M12.203 10.9722C11.8917 10.6609 11.387 10.6609 11.0758 10.9722C10.7645 11.2835 10.7645 11.7882 11.0758 12.0995C11.387 12.4108 11.8917 12.4108 12.203 12.0995C12.5143 11.7883 12.5143 11.2835 12.203 10.9722Z" fill="url(#paint41_linear_153_898)"/>
<path d="M15.0407 8.76373C14.8232 8.54621 14.4705 8.54621 14.253 8.76373C14.0355 8.98125 14.0355 9.33394 14.253 9.55146C14.4705 9.76898 14.8232 9.76898 15.0407 9.55146C15.2582 9.33394 15.2582 8.98125 15.0407 8.76373Z" fill="url(#paint42_linear_153_898)"/>
<path d="M21.5722 18.1678C21.8798 18.1678 22.1292 17.9184 22.1292 17.6107C22.1292 17.3031 21.8798 17.0537 21.5722 17.0537C21.2645 17.0537 21.0151 17.3031 21.0151 17.6107C21.0151 17.9184 21.2645 18.1678 21.5722 18.1678Z" fill="url(#paint43_linear_153_898)"/>
<path d="M19.1271 17.2979C18.9096 17.0804 18.5569 17.0804 18.3394 17.2979C18.1219 17.5154 18.1219 17.8681 18.3394 18.0856C18.5569 18.3032 18.9096 18.3032 19.1271 18.0856C19.3447 17.8681 19.3447 17.5154 19.1271 17.2979Z" fill="url(#paint44_linear_153_898)"/>
<path d="M17.3544 21.5975C17.662 21.5975 17.9114 21.3481 17.9114 21.0404C17.9114 20.7328 17.662 20.4834 17.3544 20.4834C17.0468 20.4834 16.7974 20.7328 16.7974 21.0404C16.7974 21.3481 17.0468 21.5975 17.3544 21.5975Z" fill="url(#paint45_linear_153_898)"/>
<path d="M14.8941 12.9719C15.1116 13.1894 15.4643 13.1894 15.6818 12.9719C15.8994 12.7543 15.8994 12.4017 15.6818 12.1841C15.4643 11.9666 15.1116 11.9666 14.8941 12.1841C14.6766 12.4017 14.6766 12.7543 14.8941 12.9719Z" fill="url(#paint46_linear_153_898)"/>
<path d="M19.5705 14.9276C20.0107 14.9276 20.3676 14.5708 20.3676 14.1306C20.3676 13.6904 20.0107 13.3335 19.5705 13.3335C19.1303 13.3335 18.7734 13.6904 18.7734 14.1306C18.7734 14.5708 19.1303 14.9276 19.5705 14.9276Z" fill="url(#paint47_linear_153_898)"/>
<path d="M25.5397 23.8257C25.3222 23.6082 24.9695 23.6082 24.752 23.8257C24.5345 24.0433 24.5345 24.396 24.752 24.6135C24.9695 24.831 25.3222 24.831 25.5397 24.6135C25.7573 24.396 25.7573 24.0433 25.5397 23.8257Z" fill="url(#paint48_linear_153_898)"/>
<path d="M22.7009 23.9073C22.4834 23.6898 22.1307 23.6898 21.9131 23.9073C21.6956 24.1248 21.6956 24.4775 21.9131 24.695C22.1307 24.9125 22.4834 24.9125 22.7009 24.695C22.9184 24.4775 22.9184 24.1248 22.7009 23.9073Z" fill="url(#paint49_linear_153_898)"/>
<path d="M23.7079 20.1763C23.3966 19.865 22.8919 19.865 22.5806 20.1763C22.2693 20.4876 22.2693 20.9923 22.5806 21.3036C22.8919 21.6149 23.3966 21.6149 23.7079 21.3036C24.0192 20.9923 24.0191 20.4876 23.7079 20.1763Z" fill="url(#paint50_linear_153_898)"/>
<path d="M22.8248 15.5666C23.0423 15.7841 23.395 15.7841 23.6125 15.5666C23.83 15.3491 23.83 14.9964 23.6125 14.7789C23.395 14.5613 23.0423 14.5613 22.8248 14.7789C22.6072 14.9964 22.6072 15.3491 22.8248 15.5666Z" fill="url(#paint51_linear_153_898)"/>
<path d="M29.7938 31.0216C29.4825 30.7103 28.9779 30.7103 28.6666 31.0216C28.3553 31.3329 28.3553 31.8375 28.6666 32.1488C28.9779 32.4601 29.4825 32.4601 29.7938 32.1488C30.1051 31.8376 30.1051 31.3329 29.7938 31.0216Z" fill="url(#paint52_linear_153_898)"/>
<path d="M28.5082 27.2774C28.1969 26.9661 27.6922 26.9661 27.3809 27.2774C27.0696 27.5887 27.0696 28.0934 27.3809 28.4047C27.6922 28.716 28.1969 28.716 28.5082 28.4047C28.8194 28.0934 28.8194 27.5887 28.5082 27.2774Z" fill="url(#paint53_linear_153_898)"/>
<path d="M31.3459 25.0689C31.1284 24.8514 30.7757 24.8514 30.5582 25.0689C30.3406 25.2864 30.3406 25.6391 30.5582 25.8566C30.7757 26.0742 31.1284 26.0742 31.3459 25.8566C31.5635 25.6391 31.5635 25.2864 31.3459 25.0689Z" fill="url(#paint54_linear_153_898)"/>
<path d="M38.2712 33.5215C38.0537 33.304 37.701 33.304 37.4835 33.5215C37.2659 33.7391 37.2659 34.0918 37.4835 34.3093C37.701 34.5268 38.0537 34.5268 38.2712 34.3093C38.4888 34.0919 38.4888 33.7392 38.2712 33.5215Z" fill="url(#paint55_linear_153_898)"/>
<path d="M35.4318 33.6031C35.2143 33.3856 34.8616 33.3856 34.6441 33.6031C34.4266 33.8206 34.4266 34.1733 34.6441 34.3908C34.8616 34.6083 35.2143 34.6083 35.4318 34.3908C35.6494 34.1733 35.6494 33.8206 35.4318 33.6031Z" fill="url(#paint56_linear_153_898)"/>
<path d="M33.6596 37.9026C33.9672 37.9026 34.2166 37.6533 34.2166 37.3456C34.2166 37.038 33.9672 36.7886 33.6596 36.7886C33.3519 36.7886 33.1025 37.038 33.1025 37.3456C33.1025 37.6533 33.3519 37.9026 33.6596 37.9026Z" fill="url(#paint57_linear_153_898)"/>
<path d="M31.1988 29.277C31.4163 29.4946 31.769 29.4946 31.9865 29.277C32.204 29.0595 32.204 28.7068 31.9865 28.4893C31.769 28.2718 31.4163 28.2718 31.1988 28.4893C30.9813 28.7068 30.9813 29.0595 31.1988 29.277Z" fill="url(#paint58_linear_153_898)"/>
<path d="M36.4388 29.8721C36.1276 29.5608 35.6229 29.5608 35.3116 29.8721C35.0003 30.1834 35.0003 30.6881 35.3116 30.9994C35.6229 31.3107 36.1276 31.3107 36.4388 30.9994C36.7501 30.6882 36.7501 30.1834 36.4388 29.8721Z" fill="url(#paint59_linear_153_898)"/>
<path d="M41.8449 40.1309C41.6274 39.9134 41.2747 39.9134 41.0572 40.1309C40.8397 40.3484 40.8397 40.7011 41.0572 40.9186C41.2747 41.1362 41.6274 41.1362 41.8449 40.9186C42.0624 40.7011 42.0624 40.3484 41.8449 40.1309Z" fill="url(#paint60_linear_153_898)"/>
<path d="M39.006 40.2125C38.7885 39.9949 38.4358 39.9949 38.2183 40.2125C38.0008 40.43 38.0008 40.7827 38.2183 41.0002C38.4358 41.2177 38.7885 41.2177 39.006 41.0002C39.2236 40.7827 39.2236 40.43 39.006 40.2125Z" fill="url(#paint61_linear_153_898)"/>
<path d="M40.0131 36.4815C39.7018 36.1702 39.1971 36.1702 38.8858 36.4815C38.5745 36.7928 38.5745 37.2975 38.8858 37.6088C39.1971 37.9201 39.7018 37.9201 40.0131 37.6088C40.3244 37.2975 40.3244 36.7928 40.0131 36.4815Z" fill="url(#paint62_linear_153_898)"/>
<path d="M39.1299 31.8718C39.3475 32.0893 39.7002 32.0893 39.9177 31.8718C40.1352 31.6543 40.1352 31.3016 39.9177 31.084C39.7002 30.8665 39.3475 30.8665 39.1299 31.084C38.9124 31.3016 38.9124 31.6543 39.1299 31.8718Z" fill="url(#paint63_linear_153_898)"/>
<path d="M15.1736 33.8768C18.4311 37.1343 19.9276 41.4853 19.6641 45.748C19.5493 47.6043 21.6985 48.7244 23.1577 47.5713C23.6718 47.1651 24.166 46.7213 24.6368 46.2402C30.5688 40.1757 30.513 30.5348 24.5143 24.5362C18.4867 18.5088 8.7142 18.5088 2.68673 24.5362C2.25323 24.9697 1.8509 25.4227 1.47977 25.8922C0.326277 27.3516 1.44573 29.5013 3.3024 29.3865C7.5651 29.1227 11.9162 30.6194 15.1736 33.8768Z" fill="url(#paint64_linear_153_898)"/>
<path d="M28.3886 30.9854L19.0386 40.3354C19.5671 42.0945 19.7762 43.9291 19.6637 45.7479C19.5489 47.6042 21.6981 48.7243 23.1573 47.5712C23.6714 47.165 24.1656 46.7212 24.6364 46.2401C28.7202 42.0651 29.9658 36.1951 28.3886 30.9854Z" fill="url(#paint65_linear_153_898)"/>
<path d="M28.3886 30.9854L19.0386 40.3354C19.5671 42.0945 19.7762 43.9291 19.6637 45.7479C19.5489 47.6042 21.6981 48.7243 23.1573 47.5712C23.6714 47.165 24.1656 46.7212 24.6364 46.2401C28.7202 42.0651 29.9658 36.1951 28.3886 30.9854Z" fill="url(#paint66_linear_153_898)"/>
<path d="M18.0648 20.6616L8.71475 30.0116C6.95558 29.4831 5.12097 29.2739 3.30218 29.3865C1.44595 29.5012 0.325836 27.352 1.47889 25.8929C1.88516 25.3788 2.32888 24.8845 2.81004 24.4138C6.98512 20.33 12.8551 19.0844 18.0648 20.6616Z" fill="url(#paint67_linear_153_898)"/>
<path d="M2.68624 24.5362C2.25274 24.9697 1.85042 25.4227 1.47928 25.8922C0.325789 27.3516 1.44524 29.5013 3.30191 29.3865C7.56461 29.1228 11.9158 30.6195 15.1733 33.8769C18.4307 37.1344 19.9272 41.4854 19.6637 45.7481C19.5489 47.6044 21.6981 48.7245 23.1573 47.5714C23.6714 47.1652 24.1656 46.7214 24.6364 46.2403C26.3565 44.4818 27.572 42.4224 28.2863 40.2385L8.81945 20.7715C6.57682 21.4999 4.46792 22.7545 2.68624 24.5362Z" fill="url(#paint68_linear_153_898)"/>
<path d="M8.14821 28.6558C7.70263 29.6984 8.21234 30.9089 9.27513 31.3039C11.193 32.0165 12.9582 33.1367 14.4358 34.6143C15.9134 36.092 17.0337 37.8572 17.7463 39.775C18.1412 40.8378 19.3517 41.3475 20.3943 40.9019L28.8814 37.2743C29.6133 36.9615 30.0922 36.2434 30.0922 35.4474C30.0922 35.4174 30.0921 35.3875 30.092 35.3575C30.0672 31.0005 28.3481 26.8954 25.2514 23.7988C22.1392 20.6866 18.0014 18.9727 13.6001 18.9727C13.5956 18.9727 13.5911 18.9727 13.5866 18.9727C12.7942 18.9733 12.0811 19.4544 11.7697 20.183L8.14821 28.6558Z" fill="url(#paint69_linear_153_898)"/>
<path d="M25.0523 23.6045C21.9637 20.616 17.9085 18.9727 13.6001 18.9727C13.5956 18.9727 13.5911 18.9727 13.5866 18.9727C12.7942 18.9733 12.0811 19.4544 11.7697 20.183L8.14821 28.6558C7.70263 29.6984 8.21234 30.9089 9.27513 31.3039C11.1078 31.9849 12.8004 33.0389 14.2365 34.4204L25.0523 23.6045Z" fill="url(#paint70_linear_153_898)"/>
<path d="M30.0922 35.3576C30.0675 31.0082 28.3542 26.9103 25.2677 23.8154L14.4521 34.631C15.9217 36.1052 17.0365 37.8643 17.7465 39.7751C18.1415 40.8379 19.3519 41.3476 20.3945 40.902L28.8816 37.2744C29.6135 36.9616 30.0924 36.2435 30.0924 35.4475C30.0924 35.4175 30.0924 35.3876 30.0922 35.3576Z" fill="url(#paint71_linear_153_898)"/>
<path d="M30.0922 35.3576C30.0675 31.0082 28.3542 26.9103 25.2677 23.8154L14.4521 34.631C15.9217 36.1052 17.0365 37.8643 17.7465 39.7751C18.1415 40.8379 19.3519 41.3476 20.3945 40.902L28.8816 37.2744C29.6135 36.9616 30.0924 36.2435 30.0924 35.4475C30.0924 35.4175 30.0924 35.3876 30.0922 35.3576Z" fill="url(#paint72_linear_153_898)"/>
<path d="M11.1026 21.7437L8.14821 28.6557C7.70263 29.6983 8.21234 30.9088 9.27513 31.3037C11.193 32.0164 12.9582 33.1366 14.4358 34.6142C15.9134 36.0918 17.0337 37.857 17.7463 39.7749C18.1412 40.8377 19.3517 41.3474 20.3943 40.9018L27.3064 37.9474L11.1026 21.7437Z" fill="url(#paint73_linear_153_898)"/>
<path d="M12.3648 31.1908C11.604 32.2223 11.7668 33.6767 12.755 34.4932C13.0813 34.7629 13.396 35.0491 13.6985 35.3517C14.001 35.6542 14.2873 35.9689 14.557 36.2952C15.3733 37.2834 16.8278 37.4463 17.8594 36.6854L27.8261 29.334C28.8444 28.5828 29.1062 27.1724 28.4285 26.1038C27.7384 25.0155 26.9227 23.9951 25.989 23.0613C25.0547 22.127 24.0331 21.3116 22.943 20.6223C21.8744 19.9465 20.4655 20.2085 19.715 21.2261L12.3648 31.1908Z" fill="url(#paint74_linear_153_898)"/>
<path d="M12.3648 31.1908C11.604 32.2223 11.7668 33.6767 12.755 34.4932C13.0813 34.7629 13.396 35.0491 13.6985 35.3517C14.001 35.6542 14.2873 35.9689 14.557 36.2952C15.3733 37.2834 16.8278 37.4463 17.8594 36.6854L27.8261 29.334C28.8444 28.5828 29.1062 27.1724 28.4285 26.1038C27.7384 25.0155 26.9227 23.9951 25.989 23.0613C25.0547 22.127 24.0331 21.3116 22.943 20.6223C21.8744 19.9465 20.4655 20.2085 19.715 21.2261L12.3648 31.1908Z" fill="url(#paint75_linear_153_898)"/>
<path d="M16.5071 25.5747L12.3648 31.1906C11.604 32.2221 11.7668 33.6766 12.755 34.4931C13.0813 34.7628 13.396 35.0489 13.6985 35.3515C14.001 35.654 14.2873 35.9687 14.557 36.2951C15.3733 37.2832 16.8278 37.4462 17.8594 36.6852L23.4753 32.543L16.5071 25.5747Z" fill="url(#paint76_linear_153_898)"/>
<path d="M14.6517 25.8566C14.1616 25.4242 13.4138 25.4709 12.9814 25.9611C12.8944 26.0597 12.9039 26.2101 13.0024 26.2971C13.4925 26.7295 14.2403 26.6827 14.6727 26.1926C14.7598 26.094 14.7503 25.9435 14.6517 25.8566Z" fill="url(#paint77_linear_153_898)"/>
<path d="M20.3871 31.7887C19.8969 31.3563 19.1492 31.4031 18.7168 31.8932C18.6298 31.9918 18.6392 32.1423 18.7377 32.2292C19.2279 32.6616 19.9757 32.6149 20.4081 32.1247C20.4951 32.0261 20.4857 31.8757 20.3871 31.7887Z" fill="url(#paint78_linear_153_898)"/>
<path d="M17.5397 25.0264C17.4274 24.9581 17.2809 24.9937 17.2126 25.106C16.8729 25.6644 17.0501 26.3924 17.6086 26.7321C17.7209 26.8004 17.8674 26.7648 17.9357 26.6525C18.2753 26.0941 18.0981 25.3661 17.5397 25.0264Z" fill="url(#paint79_linear_153_898)"/>
<path d="M22.7507 35.6783C22.6384 35.61 22.4919 35.6455 22.4236 35.7579C22.0838 36.3162 22.2611 37.0442 22.8195 37.384C22.9319 37.4523 23.0783 37.4167 23.1466 37.3044C23.4863 36.746 23.309 36.018 22.7507 35.6783Z" fill="url(#paint80_linear_153_898)"/>
<path d="M25.5326 28.046C25.0424 27.6136 24.2947 27.6604 23.8623 28.1506C23.7753 28.2492 23.7847 28.3996 23.8832 28.4866C24.3734 28.919 25.1212 28.8722 25.5536 28.382C25.6405 28.2834 25.6312 28.133 25.5326 28.046Z" fill="url(#paint81_linear_153_898)"/>
<path d="M28.4169 33.5519C27.9267 33.1195 27.1789 33.1662 26.7465 33.6564C26.6596 33.755 26.669 33.9054 26.7675 33.9924C27.2577 34.4248 28.0054 34.378 28.4378 33.8879C28.5249 33.7894 28.5155 33.639 28.4169 33.5519Z" fill="url(#paint82_linear_153_898)"/>
<path d="M25.226 24.9376C24.5949 24.7675 23.9455 25.1411 23.7754 25.7723C23.7411 25.8992 23.8163 26.0299 23.9433 26.064C24.5743 26.2341 25.2238 25.8605 25.3939 25.2293C25.4281 25.1024 25.3529 24.9717 25.226 24.9376Z" fill="url(#paint83_linear_153_898)"/>
<path d="M16.705 28.9361C16.0739 28.766 15.4245 29.1397 15.2544 29.7708C15.2201 29.8978 15.2953 30.0284 15.4223 30.0626C16.0533 30.2327 16.7028 29.859 16.8729 29.2278C16.9071 29.1009 16.8319 28.9703 16.705 28.9361Z" fill="url(#paint84_linear_153_898)"/>
<path d="M21.5281 28.3722C21.419 27.7277 20.8081 27.2939 20.1636 27.403C20.034 27.425 19.9468 27.5479 19.9687 27.6775C20.0779 28.322 20.6888 28.7558 21.3332 28.6467C21.4628 28.6247 21.5501 28.5018 21.5281 28.3722Z" fill="url(#paint85_linear_153_898)"/>
<path d="M15.5633 22.6041C15.4542 21.9597 14.8432 21.5258 14.1988 21.635C14.0692 21.6569 13.9819 21.7798 14.0039 21.9095C14.113 22.5539 14.724 22.9878 15.3684 22.8786C15.498 22.8565 15.5853 22.7337 15.5633 22.6041Z" fill="url(#paint86_linear_153_898)"/>
<path d="M21.8505 32.3186C21.9484 32.4064 22.0988 32.3984 22.1867 32.3005C22.6235 31.8143 22.5836 31.0661 22.0974 30.6293C21.9995 30.5415 21.8491 30.5495 21.7611 30.6473C21.3243 31.1334 21.3643 31.8816 21.8505 32.3186Z" fill="url(#paint87_linear_153_898)"/>
<path d="M21.0406 22.9203C20.9428 22.8325 20.7923 22.8405 20.7045 22.9384C20.2677 23.4246 20.3077 24.1728 20.7939 24.6096C20.8917 24.6974 21.0422 24.6894 21.13 24.5916C21.5668 24.1053 21.5268 23.3571 21.0406 22.9203Z" fill="url(#paint88_linear_153_898)"/>
<path d="M16.9439 31.2778C16.8461 31.1899 16.6957 31.1979 16.6078 31.2958C16.171 31.782 16.211 32.5302 16.6972 32.967C16.795 33.0548 16.9455 33.0468 17.0333 32.949C17.4701 32.4629 17.4301 31.7146 16.9439 31.2778Z" fill="url(#paint89_linear_153_898)"/>
<path d="M19.9773 53.2813H36.0224C38.7247 53.2813 41.3659 52.4413 43.5513 50.852C49.5946 46.4572 53.7065 39.5673 54.3748 31.6958H1.625C2.29316 39.5673 6.4052 46.4571 12.4484 50.852C14.6338 52.4414 17.275 53.2813 19.9773 53.2813Z" fill="url(#paint90_linear_153_898)"/>
<path d="M6.04977 44.2251H49.95C52.4055 40.5894 53.9829 36.312 54.3748 31.6958H1.625C2.01678 36.312 3.59433 40.5895 6.04977 44.2251Z" fill="url(#paint91_linear_153_898)"/>
<path d="M28.8965 53.2813H36.0224C38.7247 53.2813 41.3659 52.4413 43.5514 50.852C49.5946 46.4572 53.7066 39.5673 54.3747 31.6958H28.8965V53.2813Z" fill="url(#paint92_linear_153_898)"/>
<path d="M4.18848 40.9995C6.09906 44.924 8.94892 48.3069 12.4486 50.8519C14.634 52.4412 17.2752 53.2812 19.9775 53.2812H36.0227C38.725 53.2812 41.3662 52.4412 43.5516 50.8519C47.0512 48.3069 49.9012 44.924 51.8116 40.9995H4.18848Z" fill="url(#paint93_linear_153_898)"/>
<path d="M36.2231 36.9725L29.3166 30.0659C28.5894 29.3387 27.4102 29.3387 26.6829 30.0659L19.7764 36.9725C19.0491 37.6997 19.0491 38.8789 19.7764 39.6061L26.6829 46.5127C27.4102 47.2399 28.5894 47.2399 29.3166 46.5127L36.2231 39.6061C36.9504 38.8789 36.9504 37.6998 36.2231 36.9725Z" fill="url(#paint94_linear_153_898)"/>
<path d="M38.1324 44.8839C37.6789 44.4293 36.9433 44.4293 36.4887 44.8839L32.18 49.1926C31.7265 49.6461 31.7265 50.3818 32.18 50.8364L34.6242 53.2806H36.022C37.7349 53.2806 39.4226 52.9435 40.9862 52.2913L42.4411 50.8364C42.8957 50.3818 42.8957 49.6461 42.4411 49.1926L38.1324 44.8839Z" fill="url(#paint95_linear_153_898)"/>
<path d="M19.5112 44.8839C19.0566 44.4293 18.3209 44.4293 17.8674 44.8839L13.5587 49.1926C13.1041 49.6461 13.1041 50.3818 13.5587 50.8364L15.0136 52.2913C16.5772 52.9435 18.2649 53.2806 19.9779 53.2806H21.3757L23.8199 50.8364C24.2734 50.3818 24.2734 49.6461 23.8199 49.1926L19.5112 44.8839Z" fill="url(#paint96_linear_153_898)"/>
<path d="M48.8428 37.4675L44.5336 33.1582C44.0797 32.7044 43.3441 32.7044 42.8903 33.1582L38.5811 37.4675C38.1273 37.9212 38.1273 38.657 38.5811 39.1107L42.8903 43.42C43.3442 43.8738 44.0798 43.8738 44.5336 43.42L48.8428 39.1107C49.2966 38.657 49.2966 37.9213 48.8428 37.4675Z" fill="url(#paint97_linear_153_898)"/>
<path d="M17.419 37.4675L13.1097 33.1582C12.6559 32.7044 11.9202 32.7044 11.4665 33.1582L7.15726 37.4675C6.70344 37.9212 6.70344 38.657 7.15726 39.1107L11.4665 43.42C11.9203 43.8738 12.656 43.8738 13.1097 43.42L17.419 39.1107C17.8728 38.657 17.8728 37.9213 17.419 37.4675Z" fill="url(#paint98_linear_153_898)"/>
<path d="M53.8443 34.343H2.15567C0.965176 34.343 0 33.3778 0 32.1873V30.1859C0 28.9955 0.965176 28.0303 2.15567 28.0303H53.8443C55.0349 28.0303 56 28.9955 56 30.1859V32.1873C56 33.3778 55.0348 34.343 53.8443 34.343Z" fill="url(#paint99_linear_153_898)"/>
<path d="M9.6626 28.0303H30.745V34.343H9.6626V28.0303Z" fill="url(#paint100_linear_153_898)"/>
<path d="M53.8442 28.0303H46.2822V34.343H53.8442C55.0347 34.343 55.9999 33.3778 55.9999 32.1873V30.1859C55.9999 28.9953 55.0347 28.0303 53.8442 28.0303Z" fill="url(#paint101_linear_153_898)"/>
<path d="M49.0285 27.248H22.2707C21.5147 27.248 21.136 28.1622 21.6707 28.6968L33.5523 40.5785C34.7107 41.7368 36.5886 41.7368 37.747 40.5785L49.6286 28.6968C50.1633 28.1622 49.7847 27.248 49.0285 27.248Z" fill="url(#paint102_linear_153_898)"/>
<path d="M49.0285 27.248H22.2707C21.5147 27.248 21.136 28.1622 21.6707 28.6968L33.5523 40.5785C34.7107 41.7368 36.5886 41.7368 37.747 40.5785L49.6286 28.6968C50.1633 28.1622 49.7847 27.248 49.0285 27.248Z" fill="url(#paint103_linear_153_898)"/>
<path d="M49.0285 27.248H22.2707C21.5147 27.248 21.136 28.1622 21.6707 28.6968L33.5523 40.5785C34.7107 41.7368 36.5886 41.7368 37.747 40.5785L49.6286 28.6968C50.1633 28.1622 49.7847 27.248 49.0285 27.248Z" fill="url(#paint104_linear_153_898)"/>
<path d="M53.4278 27.248H31.4982C30.8785 27.248 30.5682 27.9972 31.0064 28.4354L40.7441 38.1731C41.6935 39.1225 43.2326 39.1225 44.1818 38.1731L53.9196 28.4354C54.3577 27.9972 54.0474 27.248 53.4278 27.248Z" fill="url(#paint105_linear_153_898)"/>
<path d="M53.4278 27.248H31.4982C30.8785 27.248 30.5682 27.9972 31.0064 28.4354L40.7441 38.1731C41.6935 39.1225 43.2326 39.1225 44.1818 38.1731L53.9196 28.4354C54.3577 27.9972 54.0474 27.248 53.4278 27.248Z" fill="url(#paint106_linear_153_898)"/>
<path d="M31.4982 27.248H53.4278C54.0474 27.248 54.3577 27.9972 53.9196 28.4354L44.1818 38.1731C43.2326 39.1225 41.6934 39.1225 40.7441 38.1731L31.0064 28.4354C30.5682 27.9972 30.8785 27.248 31.4982 27.248Z" fill="url(#paint107_linear_153_898)"/>
</g>
<defs>
<linearGradient id="paint0_linear_153_898" x1="47.4565" y1="21.7528" x2="42.3278" y2="23.6188" gradientUnits="userSpaceOnUse">
<stop stop-color="#FEF1DA"/>
<stop offset="0.1565" stop-color="#FEEED4"/>
<stop offset="0.3782" stop-color="#FEE7C1"/>
<stop offset="0.6388" stop-color="#FDDBA3"/>
<stop offset="0.9269" stop-color="#FCCA79"/>
<stop offset="1" stop-color="#FBC56D"/>
</linearGradient>
<linearGradient id="paint1_linear_153_898" x1="49.2824" y1="31.9325" x2="49.2519" y2="28.2741" gradientUnits="userSpaceOnUse">
<stop stop-color="#FEA95C" stop-opacity="0"/>
<stop offset="0.1763" stop-color="#FEA556" stop-opacity="0.176"/>
<stop offset="0.4259" stop-color="#FE9B43" stop-opacity="0.426"/>
<stop offset="0.7179" stop-color="#FE8A25" stop-opacity="0.718"/>
<stop offset="1" stop-color="#FE7701"/>
</linearGradient>
<linearGradient id="paint2_linear_153_898" x1="44.6862" y1="18.2055" x2="44.8796" y2="15.1623" gradientUnits="userSpaceOnUse">
<stop stop-color="#FEA95C" stop-opacity="0"/>
<stop offset="0.1763" stop-color="#FEA556" stop-opacity="0.176"/>
<stop offset="0.4259" stop-color="#FE9B43" stop-opacity="0.426"/>
<stop offset="0.7179" stop-color="#FE8A25" stop-opacity="0.718"/>
<stop offset="1" stop-color="#FE7701"/>
</linearGradient>
<linearGradient id="paint3_linear_153_898" x1="42.0437" y1="11.913" x2="41.715" y2="8.96681" gradientUnits="userSpaceOnUse">
<stop stop-color="#FEA95C" stop-opacity="0"/>
<stop offset="0.1763" stop-color="#FEA556" stop-opacity="0.176"/>
<stop offset="0.4259" stop-color="#FE9B43" stop-opacity="0.426"/>
<stop offset="0.7179" stop-color="#FE8A25" stop-opacity="0.718"/>
<stop offset="1" stop-color="#FE7701"/>
</linearGradient>
<linearGradient id="paint4_linear_153_898" x1="46.7912" y1="24.8341" x2="46.4475" y2="21.847" gradientUnits="userSpaceOnUse">
<stop stop-color="#FEA95C" stop-opacity="0"/>
<stop offset="0.1763" stop-color="#FEA556" stop-opacity="0.176"/>
<stop offset="0.4259" stop-color="#FE9B43" stop-opacity="0.426"/>
<stop offset="0.7179" stop-color="#FE8A25" stop-opacity="0.718"/>
<stop offset="1" stop-color="#FE7701"/>
</linearGradient>
<linearGradient id="paint5_linear_153_898" x1="45.1939" y1="22.576" x2="31.7" y2="27.4855" gradientUnits="userSpaceOnUse">
<stop stop-color="#FBC56D"/>
<stop offset="1" stop-color="#C5715A"/>
</linearGradient>
<linearGradient id="paint6_linear_153_898" x1="38.9244" y1="24.8571" x2="33.8878" y2="26.6896" gradientUnits="userSpaceOnUse">
<stop stop-color="#8C3D27" stop-opacity="0"/>
<stop offset="1" stop-color="#8C3D27"/>
</linearGradient>
<linearGradient id="paint7_linear_153_898" x1="45.8539" y1="36.8282" x2="50.4198" y2="44.2711" gradientUnits="userSpaceOnUse">
<stop stop-color="#8C3D27" stop-opacity="0"/>
<stop offset="1" stop-color="#8C3D27"/>
</linearGradient>
<linearGradient id="paint8_linear_153_898" x1="43.2407" y1="6.1479" x2="20.0915" y2="20.1442" gradientUnits="userSpaceOnUse">
<stop stop-color="#8C3D27" stop-opacity="0"/>
<stop offset="1" stop-color="#8C3D27"/>
</linearGradient>
<linearGradient id="paint9_linear_153_898" x1="41.9438" y1="4.00283" x2="18.7946" y2="17.9993" gradientUnits="userSpaceOnUse">
<stop stop-color="#8C3D27" stop-opacity="0"/>
<stop offset="1" stop-color="#8C3D27"/>
</linearGradient>
<linearGradient id="paint10_linear_153_898" x1="42.4266" y1="4.80162" x2="19.2773" y2="18.7979" gradientUnits="userSpaceOnUse">
<stop stop-color="#8C3D27" stop-opacity="0"/>
<stop offset="1" stop-color="#8C3D27"/>
</linearGradient>
<linearGradient id="paint11_linear_153_898" x1="46.7292" y1="11.9174" x2="23.5799" y2="25.9139" gradientUnits="userSpaceOnUse">
<stop stop-color="#8C3D27" stop-opacity="0"/>
<stop offset="1" stop-color="#8C3D27"/>
</linearGradient>
<linearGradient id="paint12_linear_153_898" x1="45.7775" y1="10.3439" x2="22.6283" y2="24.3403" gradientUnits="userSpaceOnUse">
<stop stop-color="#8C3D27" stop-opacity="0"/>
<stop offset="1" stop-color="#8C3D27"/>
</linearGradient>
<linearGradient id="paint13_linear_153_898" x1="46.0736" y1="10.8334" x2="22.9242" y2="24.8297" gradientUnits="userSpaceOnUse">
<stop stop-color="#8C3D27" stop-opacity="0"/>
<stop offset="1" stop-color="#8C3D27"/>
</linearGradient>
<linearGradient id="paint14_linear_153_898" x1="43.4289" y1="6.45936" x2="20.2797" y2="20.4558" gradientUnits="userSpaceOnUse">
<stop stop-color="#8C3D27" stop-opacity="0"/>
<stop offset="1" stop-color="#8C3D27"/>
</linearGradient>
<linearGradient id="paint15_linear_153_898" x1="45.2481" y1="9.46778" x2="22.0988" y2="23.4642" gradientUnits="userSpaceOnUse">
<stop stop-color="#8C3D27" stop-opacity="0"/>
<stop offset="1" stop-color="#8C3D27"/>
</linearGradient>
<linearGradient id="paint16_linear_153_898" x1="49.4639" y1="16.441" x2="26.3147" y2="30.4373" gradientUnits="userSpaceOnUse">
<stop stop-color="#8C3D27" stop-opacity="0"/>
<stop offset="1" stop-color="#8C3D27"/>
</linearGradient>
<linearGradient id="paint17_linear_153_898" x1="48.5126" y1="14.8673" x2="25.3634" y2="28.8637" gradientUnits="userSpaceOnUse">
<stop stop-color="#8C3D27" stop-opacity="0"/>
<stop offset="1" stop-color="#8C3D27"/>
</linearGradient>
<linearGradient id="paint18_linear_153_898" x1="47.9828" y1="13.9918" x2="24.8336" y2="27.9881" gradientUnits="userSpaceOnUse">
<stop stop-color="#8C3D27" stop-opacity="0"/>
<stop offset="1" stop-color="#8C3D27"/>
</linearGradient>
<linearGradient id="paint19_linear_153_898" x1="46.7333" y1="11.9245" x2="23.584" y2="25.9208" gradientUnits="userSpaceOnUse">
<stop stop-color="#8C3D27" stop-opacity="0"/>
<stop offset="1" stop-color="#8C3D27"/>
</linearGradient>
<linearGradient id="paint20_linear_153_898" x1="52.5466" y1="21.5399" x2="29.3974" y2="35.5362" gradientUnits="userSpaceOnUse">
<stop stop-color="#8C3D27" stop-opacity="0"/>
<stop offset="1" stop-color="#8C3D27"/>
</linearGradient>
<linearGradient id="paint21_linear_153_898" x1="51.2498" y1="19.3944" x2="28.1005" y2="33.3908" gradientUnits="userSpaceOnUse">
<stop stop-color="#8C3D27" stop-opacity="0"/>
<stop offset="1" stop-color="#8C3D27"/>
</linearGradient>
<linearGradient id="paint22_linear_153_898" x1="51.7326" y1="20.1932" x2="28.5834" y2="34.1895" gradientUnits="userSpaceOnUse">
<stop stop-color="#8C3D27" stop-opacity="0"/>
<stop offset="1" stop-color="#8C3D27"/>
</linearGradient>
<linearGradient id="paint23_linear_153_898" x1="56.0353" y1="27.3091" x2="32.8861" y2="41.3056" gradientUnits="userSpaceOnUse">
<stop stop-color="#8C3D27" stop-opacity="0"/>
<stop offset="1" stop-color="#8C3D27"/>
</linearGradient>
<linearGradient id="paint24_linear_153_898" x1="55.0836" y1="25.7356" x2="31.9344" y2="39.7319" gradientUnits="userSpaceOnUse">
<stop stop-color="#8C3D27" stop-opacity="0"/>
<stop offset="1" stop-color="#8C3D27"/>
</linearGradient>
<linearGradient id="paint25_linear_153_898" x1="55.3796" y1="26.225" x2="32.2303" y2="40.2214" gradientUnits="userSpaceOnUse">
<stop stop-color="#8C3D27" stop-opacity="0"/>
<stop offset="1" stop-color="#8C3D27"/>
</linearGradient>
<linearGradient id="paint26_linear_153_898" x1="52.735" y1="21.851" x2="29.5856" y2="35.8474" gradientUnits="userSpaceOnUse">
<stop stop-color="#8C3D27" stop-opacity="0"/>
<stop offset="1" stop-color="#8C3D27"/>
</linearGradient>
<linearGradient id="paint27_linear_153_898" x1="54.5543" y1="24.8595" x2="31.405" y2="38.8559" gradientUnits="userSpaceOnUse">
<stop stop-color="#8C3D27" stop-opacity="0"/>
<stop offset="1" stop-color="#8C3D27"/>
</linearGradient>
<linearGradient id="paint28_linear_153_898" x1="58.77" y1="31.8331" x2="35.6208" y2="45.8294" gradientUnits="userSpaceOnUse">
<stop stop-color="#8C3D27" stop-opacity="0"/>
<stop offset="1" stop-color="#8C3D27"/>
</linearGradient>
<linearGradient id="paint29_linear_153_898" x1="57.8186" y1="30.2589" x2="34.6694" y2="44.2553" gradientUnits="userSpaceOnUse">
<stop stop-color="#8C3D27" stop-opacity="0"/>
<stop offset="1" stop-color="#8C3D27"/>
</linearGradient>
<linearGradient id="paint30_linear_153_898" x1="57.2889" y1="29.3834" x2="34.1395" y2="43.3797" gradientUnits="userSpaceOnUse">
<stop stop-color="#8C3D27" stop-opacity="0"/>
<stop offset="1" stop-color="#8C3D27"/>
</linearGradient>
<linearGradient id="paint31_linear_153_898" x1="56.0394" y1="27.3166" x2="32.8901" y2="41.3129" gradientUnits="userSpaceOnUse">
<stop stop-color="#8C3D27" stop-opacity="0"/>
<stop offset="1" stop-color="#8C3D27"/>
</linearGradient>
<linearGradient id="paint32_linear_153_898" x1="35.0697" y1="17.3299" x2="30.2167" y2="22.1829" gradientUnits="userSpaceOnUse">
<stop stop-color="#FEF1DA"/>
<stop offset="0.1565" stop-color="#FEEED4"/>
<stop offset="0.3782" stop-color="#FEE7C1"/>
<stop offset="0.6388" stop-color="#FDDBA3"/>
<stop offset="0.9269" stop-color="#FCCA79"/>
<stop offset="1" stop-color="#FBC56D"/>
</linearGradient>
<linearGradient id="paint33_linear_153_898" x1="42.5622" y1="27.9609" x2="40.5826" y2="23.8077" gradientUnits="userSpaceOnUse">
<stop stop-color="#FEA95C" stop-opacity="0"/>
<stop offset="0.1763" stop-color="#FEA556" stop-opacity="0.176"/>
<stop offset="0.4259" stop-color="#FE9B43" stop-opacity="0.426"/>
<stop offset="0.7179" stop-color="#FE8A25" stop-opacity="0.718"/>
<stop offset="1" stop-color="#FE7701"/>
</linearGradient>
<linearGradient id="paint34_linear_153_898" x1="30.0265" y1="14.7604" x2="28.6291" y2="11.1893" gradientUnits="userSpaceOnUse">
<stop stop-color="#FEA95C" stop-opacity="0"/>
<stop offset="0.1763" stop-color="#FEA556" stop-opacity="0.176"/>
<stop offset="0.4259" stop-color="#FE9B43" stop-opacity="0.426"/>
<stop offset="0.7179" stop-color="#FE8A25" stop-opacity="0.718"/>
<stop offset="1" stop-color="#FE7701"/>
</linearGradient>
<linearGradient id="paint35_linear_153_898" x1="23.6699" y1="8.99333" x2="21.7291" y2="5.81044" gradientUnits="userSpaceOnUse">
<stop stop-color="#FEA95C" stop-opacity="0"/>
<stop offset="0.1763" stop-color="#FEA556" stop-opacity="0.176"/>
<stop offset="0.4259" stop-color="#FE9B43" stop-opacity="0.426"/>
<stop offset="0.7179" stop-color="#FE8A25" stop-opacity="0.718"/>
<stop offset="1" stop-color="#FE7701"/>
</linearGradient>
<linearGradient id="paint36_linear_153_898" x1="35.9492" y1="21.1958" x2="33.9696" y2="17.9741" gradientUnits="userSpaceOnUse">
<stop stop-color="#FEA95C" stop-opacity="0"/>
<stop offset="0.1763" stop-color="#FEA556" stop-opacity="0.176"/>
<stop offset="0.4259" stop-color="#FE9B43" stop-opacity="0.426"/>
<stop offset="0.7179" stop-color="#FE8A25" stop-opacity="0.718"/>
<stop offset="1" stop-color="#FE7701"/>
</linearGradient>
<linearGradient id="paint37_linear_153_898" x1="32.9287" y1="19.4712" x2="20.1599" y2="32.2399" gradientUnits="userSpaceOnUse">
<stop stop-color="#FBC56D"/>
<stop offset="1" stop-color="#C5715A"/>
</linearGradient>
<linearGradient id="paint38_linear_153_898" x1="26.9961" y1="25.4034" x2="22.2301" y2="30.1693" gradientUnits="userSpaceOnUse">
<stop stop-color="#8C3D27" stop-opacity="0"/>
<stop offset="1" stop-color="#8C3D27"/>
</linearGradient>
<linearGradient id="paint39_linear_153_898" x1="41.2575" y1="35.3627" x2="50.418" y2="41.418" gradientUnits="userSpaceOnUse">
<stop stop-color="#8C3D27" stop-opacity="0"/>
<stop offset="1" stop-color="#8C3D27"/>
</linearGradient>
<linearGradient id="paint40_linear_153_898" x1="21.9696" y1="1.7863" x2="3.02748" y2="30.0441" gradientUnits="userSpaceOnUse">
<stop stop-color="#8C3D27" stop-opacity="0"/>
<stop offset="1" stop-color="#8C3D27"/>
</linearGradient>
<linearGradient id="paint41_linear_153_898" x1="19.3508" y1="0.0310144" x2="0.40878" y2="28.2888" gradientUnits="userSpaceOnUse">
<stop stop-color="#8C3D27" stop-opacity="0"/>
<stop offset="1" stop-color="#8C3D27"/>
</linearGradient>
<linearGradient id="paint42_linear_153_898" x1="20.3257" y1="0.6846" x2="1.38361" y2="28.9424" gradientUnits="userSpaceOnUse">
<stop stop-color="#8C3D27" stop-opacity="0"/>
<stop offset="1" stop-color="#8C3D27"/>
</linearGradient>
<linearGradient id="paint43_linear_153_898" x1="29.0123" y1="6.50754" x2="10.0702" y2="34.7654" gradientUnits="userSpaceOnUse">
<stop stop-color="#8C3D27" stop-opacity="0"/>
<stop offset="1" stop-color="#8C3D27"/>
</linearGradient>
<linearGradient id="paint44_linear_153_898" x1="27.0914" y1="5.21956" x2="8.14932" y2="33.4774" gradientUnits="userSpaceOnUse">
<stop stop-color="#8C3D27" stop-opacity="0"/>
<stop offset="1" stop-color="#8C3D27"/>
</linearGradient>
<linearGradient id="paint45_linear_153_898" x1="27.6887" y1="5.6202" x2="8.7466" y2="33.878" gradientUnits="userSpaceOnUse">
<stop stop-color="#8C3D27" stop-opacity="0"/>
<stop offset="1" stop-color="#8C3D27"/>
</linearGradient>
<linearGradient id="paint46_linear_153_898" x1="22.3498" y1="2.04119" x2="3.40776" y2="30.299" gradientUnits="userSpaceOnUse">
<stop stop-color="#8C3D27" stop-opacity="0"/>
<stop offset="1" stop-color="#8C3D27"/>
</linearGradient>
<linearGradient id="paint47_linear_153_898" x1="26.0221" y1="4.50281" x2="7.08004" y2="32.7606" gradientUnits="userSpaceOnUse">
<stop stop-color="#8C3D27" stop-opacity="0"/>
<stop offset="1" stop-color="#8C3D27"/>
</linearGradient>
<linearGradient id="paint48_linear_153_898" x1="34.5338" y1="10.2087" x2="15.5918" y2="38.4665" gradientUnits="userSpaceOnUse">
<stop stop-color="#8C3D27" stop-opacity="0"/>
<stop offset="1" stop-color="#8C3D27"/>
</linearGradient>
<linearGradient id="paint49_linear_153_898" x1="32.6132" y1="8.92109" x2="13.6711" y2="37.1789" gradientUnits="userSpaceOnUse">
<stop stop-color="#8C3D27" stop-opacity="0"/>
<stop offset="1" stop-color="#8C3D27"/>
</linearGradient>
<linearGradient id="paint50_linear_153_898" x1="31.5437" y1="8.20447" x2="12.6016" y2="36.4623" gradientUnits="userSpaceOnUse">
<stop stop-color="#8C3D27" stop-opacity="0"/>
<stop offset="1" stop-color="#8C3D27"/>
</linearGradient>
<linearGradient id="paint51_linear_153_898" x1="29.0206" y1="6.51302" x2="10.0786" y2="34.7708" gradientUnits="userSpaceOnUse">
<stop stop-color="#8C3D27" stop-opacity="0"/>
<stop offset="1" stop-color="#8C3D27"/>
</linearGradient>
<linearGradient id="paint52_linear_153_898" x1="40.7574" y1="14.3808" x2="21.8153" y2="42.6387" gradientUnits="userSpaceOnUse">
<stop stop-color="#8C3D27" stop-opacity="0"/>
<stop offset="1" stop-color="#8C3D27"/>
</linearGradient>
<linearGradient id="paint53_linear_153_898" x1="38.1392" y1="12.6255" x2="19.1971" y2="40.8833" gradientUnits="userSpaceOnUse">
<stop stop-color="#8C3D27" stop-opacity="0"/>
<stop offset="1" stop-color="#8C3D27"/>
</linearGradient>
<linearGradient id="paint54_linear_153_898" x1="39.1141" y1="13.2791" x2="20.1721" y2="41.537" gradientUnits="userSpaceOnUse">
<stop stop-color="#8C3D27" stop-opacity="0"/>
<stop offset="1" stop-color="#8C3D27"/>
</linearGradient>
<linearGradient id="paint55_linear_153_898" x1="47.8007" y1="19.1015" x2="28.8586" y2="47.3594" gradientUnits="userSpaceOnUse">
<stop stop-color="#8C3D27" stop-opacity="0"/>
<stop offset="1" stop-color="#8C3D27"/>
</linearGradient>
<linearGradient id="paint56_linear_153_898" x1="45.8793" y1="17.814" x2="26.9373" y2="46.0718" gradientUnits="userSpaceOnUse">
<stop stop-color="#8C3D27" stop-opacity="0"/>
<stop offset="1" stop-color="#8C3D27"/>
</linearGradient>
<linearGradient id="paint57_linear_153_898" x1="46.477" y1="18.2147" x2="27.535" y2="46.4725" gradientUnits="userSpaceOnUse">
<stop stop-color="#8C3D27" stop-opacity="0"/>
<stop offset="1" stop-color="#8C3D27"/>
</linearGradient>
<linearGradient id="paint58_linear_153_898" x1="41.1379" y1="14.6355" x2="22.1958" y2="42.8934" gradientUnits="userSpaceOnUse">
<stop stop-color="#8C3D27" stop-opacity="0"/>
<stop offset="1" stop-color="#8C3D27"/>
</linearGradient>
<linearGradient id="paint59_linear_153_898" x1="44.8102" y1="17.0975" x2="25.8681" y2="45.3553" gradientUnits="userSpaceOnUse">
<stop stop-color="#8C3D27" stop-opacity="0"/>
<stop offset="1" stop-color="#8C3D27"/>
</linearGradient>
<linearGradient id="paint60_linear_153_898" x1="53.3223" y1="22.8031" x2="34.3803" y2="51.0609" gradientUnits="userSpaceOnUse">
<stop stop-color="#8C3D27" stop-opacity="0"/>
<stop offset="1" stop-color="#8C3D27"/>
</linearGradient>
<linearGradient id="paint61_linear_153_898" x1="51.4015" y1="21.5157" x2="32.4594" y2="49.7735" gradientUnits="userSpaceOnUse">
<stop stop-color="#8C3D27" stop-opacity="0"/>
<stop offset="1" stop-color="#8C3D27"/>
</linearGradient>
<linearGradient id="paint62_linear_153_898" x1="50.3323" y1="20.799" x2="31.3902" y2="49.0569" gradientUnits="userSpaceOnUse">
<stop stop-color="#8C3D27" stop-opacity="0"/>
<stop offset="1" stop-color="#8C3D27"/>
</linearGradient>
<linearGradient id="paint63_linear_153_898" x1="47.8092" y1="19.1075" x2="28.8671" y2="47.3654" gradientUnits="userSpaceOnUse">
<stop stop-color="#8C3D27" stop-opacity="0"/>
<stop offset="1" stop-color="#8C3D27"/>
</linearGradient>
<linearGradient id="paint64_linear_153_898" x1="22.1553" y1="26.891" x2="10.5046" y2="38.5417" gradientUnits="userSpaceOnUse">
<stop stop-color="#FBC56D"/>
<stop offset="1" stop-color="#C5715A"/>
</linearGradient>
<linearGradient id="paint65_linear_153_898" x1="25.4153" y1="39.8533" x2="29.8064" y2="42.4093" gradientUnits="userSpaceOnUse">
<stop stop-color="#8C3D27" stop-opacity="0"/>
<stop offset="1" stop-color="#8C3D27"/>
</linearGradient>
<linearGradient id="paint66_linear_153_898" x1="25.392" y1="42.1749" x2="24.114" y2="38.8652" gradientUnits="userSpaceOnUse">
<stop stop-color="#8C3D27" stop-opacity="0"/>
<stop offset="1" stop-color="#8C3D27"/>
</linearGradient>
<linearGradient id="paint67_linear_153_898" x1="8.17376" y1="22.6202" x2="11.8112" y2="27.1425" gradientUnits="userSpaceOnUse">
<stop stop-color="#8C3D27" stop-opacity="0"/>
<stop offset="1" stop-color="#8C3D27"/>
</linearGradient>
<linearGradient id="paint68_linear_153_898" x1="14.8146" y1="34.2315" x2="10.7512" y2="38.2948" gradientUnits="userSpaceOnUse">
<stop stop-color="#8C3D27" stop-opacity="0"/>
<stop offset="1" stop-color="#8C3D27"/>
</linearGradient>
<linearGradient id="paint69_linear_153_898" x1="23.0649" y1="24.4177" x2="15.7574" y2="36.903" gradientUnits="userSpaceOnUse">
<stop stop-color="#FBC56D"/>
<stop offset="1" stop-color="#C5715A"/>
</linearGradient>
<linearGradient id="paint70_linear_153_898" x1="12.9816" y1="24.1009" x2="18.536" y2="28.5739" gradientUnits="userSpaceOnUse">
<stop stop-color="#8C3D27" stop-opacity="0"/>
<stop offset="1" stop-color="#8C3D27"/>
</linearGradient>
<linearGradient id="paint71_linear_153_898" x1="23.0062" y1="36.3468" x2="24.2842" y2="40.7051" gradientUnits="userSpaceOnUse">
<stop stop-color="#8C3D27" stop-opacity="0"/>
<stop offset="1" stop-color="#8C3D27"/>
</linearGradient>
<linearGradient id="paint72_linear_153_898" x1="23.5044" y1="34.6715" x2="21.571" y2="31.5584" gradientUnits="userSpaceOnUse">
<stop stop-color="#8C3D27" stop-opacity="0"/>
<stop offset="1" stop-color="#8C3D27"/>
</linearGradient>
<linearGradient id="paint73_linear_153_898" x1="16.8135" y1="32.2325" x2="12.017" y2="37.029" gradientUnits="userSpaceOnUse">
<stop stop-color="#8C3D27" stop-opacity="0"/>
<stop offset="1" stop-color="#8C3D27"/>
</linearGradient>
<linearGradient id="paint74_linear_153_898" x1="20.9555" y1="23.5205" x2="19.7758" y2="36.104" gradientUnits="userSpaceOnUse">
<stop stop-color="#FBC56D"/>
<stop offset="1" stop-color="#C5715A"/>
</linearGradient>
<linearGradient id="paint75_linear_153_898" x1="19.997" y1="29.5096" x2="23.4378" y2="34.0318" gradientUnits="userSpaceOnUse">
<stop stop-color="#8C3D27" stop-opacity="0"/>
<stop offset="1" stop-color="#8C3D27"/>
</linearGradient>
<linearGradient id="paint76_linear_153_898" x1="16.9774" y1="32.0684" x2="13.3905" y2="35.6553" gradientUnits="userSpaceOnUse">
<stop stop-color="#8C3D27" stop-opacity="0"/>
<stop offset="1" stop-color="#8C3D27"/>
</linearGradient>
<linearGradient id="paint77_linear_153_898" x1="15.3985" y1="22.6796" x2="7.73591" y2="39.2427" gradientUnits="userSpaceOnUse">
<stop stop-color="#FEF1DA"/>
<stop offset="0.1565" stop-color="#FEEED4"/>
<stop offset="0.3782" stop-color="#FEE7C1"/>
<stop offset="0.6388" stop-color="#FDDBA3"/>
<stop offset="0.9269" stop-color="#FCCA79"/>
<stop offset="1" stop-color="#FBC56D"/>
</linearGradient>
<linearGradient id="paint78_linear_153_898" x1="21.133" y1="28.6108" x2="13.4704" y2="45.174" gradientUnits="userSpaceOnUse">
<stop stop-color="#FEF1DA"/>
<stop offset="0.1565" stop-color="#FEEED4"/>
<stop offset="0.3782" stop-color="#FEE7C1"/>
<stop offset="0.6388" stop-color="#FDDBA3"/>
<stop offset="0.9269" stop-color="#FCCA79"/>
<stop offset="1" stop-color="#FBC56D"/>
</linearGradient>
<linearGradient id="paint79_linear_153_898" x1="19.5807" y1="21.5401" x2="9.79056" y2="42.7022" gradientUnits="userSpaceOnUse">
<stop stop-color="#FEF1DA"/>
<stop offset="0.1565" stop-color="#FEEED4"/>
<stop offset="0.3782" stop-color="#FEE7C1"/>
<stop offset="0.6388" stop-color="#FDDBA3"/>
<stop offset="0.9269" stop-color="#FCCA79"/>
<stop offset="1" stop-color="#FBC56D"/>
</linearGradient>
<linearGradient id="paint80_linear_153_898" x1="24.7909" y1="32.1904" x2="15.0007" y2="53.3525" gradientUnits="userSpaceOnUse">
<stop stop-color="#FEF1DA"/>
<stop offset="0.1565" stop-color="#FEEED4"/>
<stop offset="0.3782" stop-color="#FEE7C1"/>
<stop offset="0.6388" stop-color="#FDDBA3"/>
<stop offset="0.9269" stop-color="#FCCA79"/>
<stop offset="1" stop-color="#FBC56D"/>
</linearGradient>
<linearGradient id="paint81_linear_153_898" x1="26.2777" y1="24.8687" x2="18.615" y2="41.4319" gradientUnits="userSpaceOnUse">
<stop stop-color="#FEF1DA"/>
<stop offset="0.1565" stop-color="#FEEED4"/>
<stop offset="0.3782" stop-color="#FEE7C1"/>
<stop offset="0.6388" stop-color="#FDDBA3"/>
<stop offset="0.9269" stop-color="#FCCA79"/>
<stop offset="1" stop-color="#FBC56D"/>
</linearGradient>
<linearGradient id="paint82_linear_153_898" x1="29.1615" y1="30.3738" x2="21.499" y2="46.9369" gradientUnits="userSpaceOnUse">
<stop stop-color="#FEF1DA"/>
<stop offset="0.1565" stop-color="#FEEED4"/>
<stop offset="0.3782" stop-color="#FEE7C1"/>
<stop offset="0.6388" stop-color="#FDDBA3"/>
<stop offset="0.9269" stop-color="#FCCA79"/>
<stop offset="1" stop-color="#FBC56D"/>
</linearGradient>
<linearGradient id="paint83_linear_153_898" x1="26.6502" y1="21.0318" x2="16.5668" y2="42.8276" gradientUnits="userSpaceOnUse">
<stop stop-color="#FEF1DA"/>
<stop offset="0.1565" stop-color="#FEEED4"/>
<stop offset="0.3782" stop-color="#FEE7C1"/>
<stop offset="0.6388" stop-color="#FDDBA3"/>
<stop offset="0.9269" stop-color="#FCCA79"/>
<stop offset="1" stop-color="#FBC56D"/>
</linearGradient>
<linearGradient id="paint84_linear_153_898" x1="18.1305" y1="25.0298" x2="8.04712" y2="46.8256" gradientUnits="userSpaceOnUse">
<stop stop-color="#FEF1DA"/>
<stop offset="0.1565" stop-color="#FEEED4"/>
<stop offset="0.3782" stop-color="#FEE7C1"/>
<stop offset="0.6388" stop-color="#FDDBA3"/>
<stop offset="0.9269" stop-color="#FCCA79"/>
<stop offset="1" stop-color="#FBC56D"/>
</linearGradient>
<linearGradient id="paint85_linear_153_898" x1="22.1361" y1="25.0224" x2="15.3658" y2="39.6568" gradientUnits="userSpaceOnUse">
<stop stop-color="#FEF1DA"/>
<stop offset="0.1565" stop-color="#FEEED4"/>
<stop offset="0.3782" stop-color="#FEE7C1"/>
<stop offset="0.6388" stop-color="#FDDBA3"/>
<stop offset="0.9269" stop-color="#FCCA79"/>
<stop offset="1" stop-color="#FBC56D"/>
</linearGradient>
<linearGradient id="paint86_linear_153_898" x1="16.1721" y1="19.2551" x2="9.40178" y2="33.8895" gradientUnits="userSpaceOnUse">
<stop stop-color="#FEF1DA"/>
<stop offset="0.1565" stop-color="#FEEED4"/>
<stop offset="0.3782" stop-color="#FEE7C1"/>
<stop offset="0.6388" stop-color="#FDDBA3"/>
<stop offset="0.9269" stop-color="#FCCA79"/>
<stop offset="1" stop-color="#FBC56D"/>
</linearGradient>
<linearGradient id="paint87_linear_153_898" x1="24.1585" y1="26.7478" x2="13.4961" y2="49.795" gradientUnits="userSpaceOnUse">
<stop stop-color="#FEF1DA"/>
<stop offset="0.1565" stop-color="#FEEED4"/>
<stop offset="0.3782" stop-color="#FEE7C1"/>
<stop offset="0.6388" stop-color="#FDDBA3"/>
<stop offset="0.9269" stop-color="#FCCA79"/>
<stop offset="1" stop-color="#FBC56D"/>
</linearGradient>
<linearGradient id="paint88_linear_153_898" x1="23.102" y1="19.04" x2="12.4396" y2="42.0872" gradientUnits="userSpaceOnUse">
<stop stop-color="#FEF1DA"/>
<stop offset="0.1565" stop-color="#FEEED4"/>
<stop offset="0.3782" stop-color="#FEE7C1"/>
<stop offset="0.6388" stop-color="#FDDBA3"/>
<stop offset="0.9269" stop-color="#FCCA79"/>
<stop offset="1" stop-color="#FBC56D"/>
</linearGradient>
<linearGradient id="paint89_linear_153_898" x1="19.0059" y1="27.3962" x2="8.34365" y2="50.4434" gradientUnits="userSpaceOnUse">
<stop stop-color="#FEF1DA"/>
<stop offset="0.1565" stop-color="#FEEED4"/>
<stop offset="0.3782" stop-color="#FEE7C1"/>
<stop offset="0.6388" stop-color="#FDDBA3"/>
<stop offset="0.9269" stop-color="#FCCA79"/>
<stop offset="1" stop-color="#FBC56D"/>
</linearGradient>
<linearGradient id="paint90_linear_153_898" x1="25.0815" y1="28.1193" x2="34.4514" y2="46.4931" gradientUnits="userSpaceOnUse">
<stop stop-color="#F89580"/>
<stop offset="1" stop-color="#C4573A"/>
</linearGradient>
<linearGradient id="paint91_linear_153_898" x1="27.9999" y1="39.7599" x2="27.9999" y2="32.4996" gradientUnits="userSpaceOnUse">
<stop stop-color="#C4573A" stop-opacity="0"/>
<stop offset="0.2412" stop-color="#BF5539" stop-opacity="0.241"/>
<stop offset="0.5203" stop-color="#B14F36" stop-opacity="0.52"/>
<stop offset="0.817" stop-color="#9A4632" stop-opacity="0.817"/>
<stop offset="1" stop-color="#883F2E"/>
</linearGradient>
<linearGradient id="paint92_linear_153_898" x1="36.3312" y1="39.403" x2="47.5312" y2="45.918" gradientUnits="userSpaceOnUse">
<stop stop-color="#C4573A" stop-opacity="0"/>
<stop offset="0.2412" stop-color="#BF5539" stop-opacity="0.241"/>
<stop offset="0.5203" stop-color="#B14F36" stop-opacity="0.52"/>
<stop offset="0.817" stop-color="#9A4632" stop-opacity="0.817"/>
<stop offset="1" stop-color="#883F2E"/>
</linearGradient>
<linearGradient id="paint93_linear_153_898" x1="28.0001" y1="43.42" x2="28.0001" y2="52.7971" gradientUnits="userSpaceOnUse">
<stop stop-color="#C4573A" stop-opacity="0"/>
<stop offset="0.2412" stop-color="#BF5539" stop-opacity="0.241"/>
<stop offset="0.5203" stop-color="#B14F36" stop-opacity="0.52"/>
<stop offset="0.817" stop-color="#9A4632" stop-opacity="0.817"/>
<stop offset="1" stop-color="#883F2E"/>
</linearGradient>
<linearGradient id="paint94_linear_153_898" x1="22.964" y1="20.7987" x2="32.5535" y2="54.106" gradientUnits="userSpaceOnUse">
<stop stop-color="#C4573A" stop-opacity="0"/>
<stop offset="0.2412" stop-color="#BF5539" stop-opacity="0.241"/>
<stop offset="0.5203" stop-color="#B14F36" stop-opacity="0.52"/>
<stop offset="0.817" stop-color="#9A4632" stop-opacity="0.817"/>
<stop offset="1" stop-color="#883F2E"/>
</linearGradient>
<linearGradient id="paint95_linear_153_898" x1="28.4451" y1="19.2205" x2="38.0346" y2="52.5278" gradientUnits="userSpaceOnUse">
<stop stop-color="#C4573A" stop-opacity="0"/>
<stop offset="0.2412" stop-color="#BF5539" stop-opacity="0.241"/>
<stop offset="0.5203" stop-color="#B14F36" stop-opacity="0.52"/>
<stop offset="0.817" stop-color="#9A4632" stop-opacity="0.817"/>
<stop offset="1" stop-color="#883F2E"/>
</linearGradient>
<linearGradient id="paint96_linear_153_898" x1="11.2487" y1="24.1718" x2="20.8382" y2="57.479" gradientUnits="userSpaceOnUse">
<stop stop-color="#C4573A" stop-opacity="0"/>
<stop offset="0.2412" stop-color="#BF5539" stop-opacity="0.241"/>
<stop offset="0.5203" stop-color="#B14F36" stop-opacity="0.52"/>
<stop offset="0.817" stop-color="#9A4632" stop-opacity="0.817"/>
<stop offset="1" stop-color="#883F2E"/>
</linearGradient>
<linearGradient id="paint97_linear_153_898" x1="37.4734" y1="16.6212" x2="47.063" y2="49.9284" gradientUnits="userSpaceOnUse">
<stop stop-color="#C4573A" stop-opacity="0"/>
<stop offset="0.2412" stop-color="#BF5539" stop-opacity="0.241"/>
<stop offset="0.5203" stop-color="#B14F36" stop-opacity="0.52"/>
<stop offset="0.817" stop-color="#9A4632" stop-opacity="0.817"/>
<stop offset="1" stop-color="#883F2E"/>
</linearGradient>
<linearGradient id="paint98_linear_153_898" x1="8.45503" y1="24.9759" x2="18.0445" y2="58.2831" gradientUnits="userSpaceOnUse">
<stop stop-color="#C4573A" stop-opacity="0"/>
<stop offset="0.2412" stop-color="#BF5539" stop-opacity="0.241"/>
<stop offset="0.5203" stop-color="#B14F36" stop-opacity="0.52"/>
<stop offset="0.817" stop-color="#9A4632" stop-opacity="0.817"/>
<stop offset="1" stop-color="#883F2E"/>
</linearGradient>
<linearGradient id="paint99_linear_153_898" x1="28" y1="28.7794" x2="28" y2="34.1312" gradientUnits="userSpaceOnUse">
<stop stop-color="#F89580"/>
<stop offset="1" stop-color="#C4573A"/>
</linearGradient>
<linearGradient id="paint100_linear_153_898" x1="19.9987" y1="31.312" x2="23.9516" y2="28.8963" gradientUnits="userSpaceOnUse">
<stop stop-color="#8C3D27" stop-opacity="0"/>
<stop offset="1" stop-color="#8C3D27"/>
</linearGradient>
<linearGradient id="paint101_linear_153_898" x1="54.1987" y1="34.1924" x2="50.081" y2="30.8982" gradientUnits="userSpaceOnUse">
<stop stop-color="#C4573A" stop-opacity="0"/>
<stop offset="0.2412" stop-color="#BF5539" stop-opacity="0.241"/>
<stop offset="0.5203" stop-color="#B14F36" stop-opacity="0.52"/>
<stop offset="0.817" stop-color="#9A4632" stop-opacity="0.817"/>
<stop offset="1" stop-color="#883F2E"/>
</linearGradient>
<linearGradient id="paint102_linear_153_898" x1="34.3963" y1="25.9195" x2="40.5453" y2="36.6071" gradientUnits="userSpaceOnUse">
<stop stop-color="#FEF1DA"/>
<stop offset="0.1565" stop-color="#FEEED4"/>
<stop offset="0.3782" stop-color="#FEE7C1"/>
<stop offset="0.6388" stop-color="#FDDBA3"/>
<stop offset="0.9269" stop-color="#FCCA79"/>
<stop offset="1" stop-color="#FBC56D"/>
</linearGradient>
<linearGradient id="paint103_linear_153_898" x1="32.4916" y1="32.3241" x2="36.6093" y2="29.7437" gradientUnits="userSpaceOnUse">
<stop stop-color="#FEA95C" stop-opacity="0"/>
<stop offset="0.1763" stop-color="#FEA556" stop-opacity="0.176"/>
<stop offset="0.4259" stop-color="#FE9B43" stop-opacity="0.426"/>
<stop offset="0.7179" stop-color="#FE8A25" stop-opacity="0.718"/>
<stop offset="1" stop-color="#FE7701"/>
</linearGradient>
<linearGradient id="paint104_linear_153_898" x1="31.4425" y1="35.2502" x2="29.2464" y2="38.9836" gradientUnits="userSpaceOnUse">
<stop stop-color="#FEA95C" stop-opacity="0"/>
<stop offset="0.1763" stop-color="#FEA556" stop-opacity="0.176"/>
<stop offset="0.4259" stop-color="#FE9B43" stop-opacity="0.426"/>
<stop offset="0.7179" stop-color="#FE8A25" stop-opacity="0.718"/>
<stop offset="1" stop-color="#FE7701"/>
</linearGradient>
<linearGradient id="paint105_linear_153_898" x1="41.4358" y1="26.1592" x2="46.4752" y2="34.9184" gradientUnits="userSpaceOnUse">
<stop stop-color="#FEF1DA"/>
<stop offset="0.1565" stop-color="#FEEED4"/>
<stop offset="0.3782" stop-color="#FEE7C1"/>
<stop offset="0.6388" stop-color="#FDDBA3"/>
<stop offset="0.9269" stop-color="#FCCA79"/>
<stop offset="1" stop-color="#FBC56D"/>
</linearGradient>
<linearGradient id="paint106_linear_153_898" x1="45.6071" y1="31.3384" x2="48.3522" y2="34.3031" gradientUnits="userSpaceOnUse">
<stop stop-color="#FEA95C" stop-opacity="0"/>
<stop offset="0.1763" stop-color="#FEA556" stop-opacity="0.176"/>
<stop offset="0.4259" stop-color="#FE9B43" stop-opacity="0.426"/>
<stop offset="0.7179" stop-color="#FE8A25" stop-opacity="0.718"/>
<stop offset="1" stop-color="#FE7701"/>
</linearGradient>
<linearGradient id="paint107_linear_153_898" x1="38.7899" y1="32.2397" x2="35.8801" y2="35.6437" gradientUnits="userSpaceOnUse">
<stop stop-color="#FEA95C" stop-opacity="0"/>
<stop offset="0.1763" stop-color="#FEA556" stop-opacity="0.176"/>
<stop offset="0.4259" stop-color="#FE9B43" stop-opacity="0.426"/>
<stop offset="0.7179" stop-color="#FE8A25" stop-opacity="0.718"/>
<stop offset="1" stop-color="#FE7701"/>
</linearGradient>
<clipPath id="clip0_153_898">
<rect width="56" height="56" fill="white"/>
</clipPath>
</defs>
</svg>
