<svg width="56" height="56" viewBox="0 0 56 56" fill="none" xmlns="http://www.w3.org/2000/svg">
<g clip-path="url(#clip0_153_721)">
<path d="M42.6882 8.51095C41.6121 9.12203 40.6795 9.95645 40.0297 11.0098C38.8691 12.9 38.0004 14.8381 37.3506 16.6849C37.1318 17.3073 37.0155 17.9435 36.9903 18.5796C36.9357 20.0274 37.3437 21.4798 38.0802 22.7818C38.1394 22.8867 38.1805 22.9983 38.1964 23.1124C38.2369 23.3677 38.2873 23.6174 38.3471 23.8615C38.5856 24.8348 38.0071 25.8181 37.0329 26.0531C35.9704 26.3093 34.7819 26.4526 33.5269 26.4526C32.1396 26.4526 30.8336 26.2771 29.6896 25.9678C28.7958 25.7261 28.2311 24.8219 28.4181 23.9152C28.4705 23.661 28.5146 23.4004 28.5496 23.1329C28.5769 22.9163 28.6864 22.711 28.8596 22.5287C29.7169 21.6167 30.3827 20.5382 30.654 19.3161C30.7201 19.022 30.7909 18.721 30.8638 18.4155C31.9925 13.8463 34.2223 8.23741 38.632 3.40369C39.943 1.96727 42.2162 1.99002 43.5136 3.44022C44.9227 5.01106 44.5123 7.47353 42.6882 8.51095Z" fill="url(#paint0_linear_153_721)"/>
<path d="M38.4658 13.9365H32.2578C31.6672 15.493 31.2125 17.0041 30.8638 18.4156C30.7909 18.7211 30.7202 19.0221 30.654 19.3162C30.3827 20.5384 29.7169 21.6168 28.8596 22.5288C28.6864 22.7112 28.5769 22.9164 28.5496 23.133C28.5146 23.4005 28.4705 23.6612 28.4181 23.9154C28.2311 24.8221 28.7958 25.7263 29.6896 25.9679C30.8337 26.2772 32.1396 26.4527 33.5269 26.4527C34.7818 26.4527 35.9704 26.3095 37.0329 26.0532C38.0071 25.8183 38.5856 24.835 38.3471 23.8616C38.2873 23.6175 38.2369 23.3678 38.1964 23.1125C38.1805 22.9986 38.1394 22.8868 38.0802 22.7819C37.3437 21.48 36.9356 20.0276 36.9903 18.5797C37.0154 17.9436 37.1317 17.3075 37.3506 16.685C37.6672 15.7852 38.0367 14.8636 38.4658 13.9365Z" fill="url(#paint1_linear_153_721)"/>
<path d="M1.06848 21.2212C1.96328 20.9215 3.00158 20.7952 4.09729 20.8757C2.7697 20.3815 1.52994 19.812 1.12842 19.565C0.19578 18.9913 -0.0951578 17.7701 0.478623 16.8375C1.0524 15.9048 2.27358 15.614 3.20622 16.1877C3.63453 16.4511 4.82015 17.4004 5.92178 18.4403C5.69056 17.4443 5.64703 16.4706 5.77555 15.5944C6.05073 13.7187 8.14351 13.94 8.95989 15.9261L8.98384 15.9844C9.19986 16.5102 9.27609 17.075 9.18673 17.562C9.03011 18.4154 9.04247 19.3713 9.23803 20.3561C9.20664 19.5039 9.33111 18.6907 9.58901 17.9703C10.1788 16.3231 12.1908 16.7472 12.6513 18.6114L12.6649 18.6661C12.7867 19.1595 12.7649 19.6727 12.5943 20.0985C12.1264 21.2656 12.0186 22.7014 12.3791 24.1608C12.3799 24.1642 12.3808 24.1677 12.3816 24.171C12.5192 24.7245 12.7767 25.2403 13.1123 25.7015C14.7138 27.9024 15.8899 30.2696 16.1732 32.38C16.2241 32.7597 15.9829 33.1305 15.6088 33.2135C15.4399 33.251 15.2742 33.2281 15.1321 33.1605C14.9147 33.057 14.7524 32.8489 14.7187 32.5924C14.5138 31.0351 13.6659 29.1232 12.334 27.166C11.9571 26.6121 11.3461 26.2533 10.6776 26.2089C10.6739 26.2087 10.6701 26.2084 10.6664 26.2082C9.16628 26.111 7.77219 26.4707 6.70589 27.1374C6.31695 27.3805 5.81569 27.4927 5.30851 27.4598L5.2523 27.4562C3.33615 27.3321 2.56331 25.4267 4.08045 24.5553C4.74403 24.1741 5.52245 23.9081 6.36672 23.7885C5.36298 23.7699 4.41984 23.9265 3.60751 24.2314C3.14398 24.4054 2.57458 24.4302 2.01895 24.3103L1.95737 24.297C-0.141751 23.8441 -0.728986 21.8233 1.06848 21.2212Z" fill="url(#paint2_linear_153_721)"/>
<path d="M6.72636 14.5761C6.73489 14.4949 6.7443 14.4143 6.75458 14.3345C7.49888 14.1652 8.46422 14.7203 8.95947 15.9263L8.98397 15.9842C9.20031 16.51 9.27589 17.0747 9.18719 17.5618C9.03045 18.416 9.0427 19.3713 9.23816 20.3563C9.2072 19.5037 9.33156 18.6909 9.58903 17.9707C10.1789 16.3229 12.1906 16.7472 12.6512 18.6112L12.6651 18.6665C12.7863 19.1592 12.7646 19.6731 12.5941 20.0985C12.1258 21.2656 12.0184 22.7018 12.379 24.1611C12.3798 24.164 12.3806 24.167 12.3814 24.171C12.5191 24.7241 12.7769 25.2402 13.1127 25.7015C14.215 27.2172 15.1171 28.8128 15.6635 30.3479C15.9106 31.0413 16.0859 31.7223 16.1735 32.3795C16.2212 32.7379 16.0089 33.0884 15.6701 33.1964C15.48 31.8746 14.4973 27.2487 9.75233 22.6912C7.56166 20.5871 6.41049 17.597 6.72636 14.5761Z" fill="url(#paint3_linear_153_721)"/>
<path d="M5.30856 27.4596L5.25234 27.456C3.3362 27.3319 2.56336 25.4264 4.0805 24.555C4.74408 24.1739 5.5225 23.9079 6.36676 23.7882C5.36303 23.7696 4.41989 23.9263 3.60756 24.2312C3.14403 24.4052 2.57462 24.4299 2.019 24.31L1.95742 24.2968C-0.141704 23.844 -0.729048 21.8232 1.06853 21.2211C1.96333 20.9214 3.00162 20.7951 4.09734 20.8756C2.76975 20.3814 1.52998 19.8119 1.12847 19.5649C0.195936 18.9911 -0.0950015 17.77 0.47878 16.8373C0.492889 16.8144 0.509186 16.7937 0.524061 16.7715C13.4279 22.2919 15.3928 31.2668 15.6703 33.1965C15.6503 33.2029 15.63 33.2088 15.6091 33.2134C15.4402 33.2509 15.2745 33.2279 15.1324 33.1603C14.915 33.0569 14.7527 32.8487 14.719 32.5923C14.5141 31.035 13.6661 29.1231 12.3343 27.1658C11.9574 26.612 11.3464 26.2531 10.6779 26.2088C10.6742 26.2086 10.6703 26.2083 10.6666 26.208C9.16654 26.1109 7.77245 26.4705 6.70615 27.1373C6.31711 27.3804 5.81573 27.4925 5.30856 27.4596Z" fill="url(#paint4_linear_153_721)"/>
<path d="M5.30854 27.4595L5.25232 27.4559C3.33618 27.3318 2.56333 25.4264 4.08048 24.555C4.74405 24.1738 5.52248 23.9078 6.36674 23.7881C5.36301 23.7695 4.41987 23.9262 3.60754 24.2311C3.14401 24.4051 2.5746 24.4298 2.01898 24.31L1.9574 24.2967C0.688429 24.023 -0.0267745 23.1763 0.0023192 22.4162C1.81663 21.857 3.52529 21.6686 5.09351 21.7207C7.92774 21.8151 10.5437 23.2253 12.2401 25.4978C14.8701 29.021 15.5195 32.1482 15.6702 33.1965C15.67 33.1968 15.6699 33.1969 15.6696 33.1972C15.48 33.2556 15.2913 33.2359 15.1322 33.1603C14.9147 33.0568 14.7524 32.8486 14.7187 32.5922C14.5135 31.0329 13.6637 29.1181 12.329 27.1583C11.9523 26.6053 11.3454 26.2525 10.6776 26.2087L10.6664 26.2079C9.1663 26.1108 7.77221 26.4704 6.70591 27.1372C6.31709 27.3803 5.81571 27.4924 5.30854 27.4595Z" fill="url(#paint5_linear_153_721)"/>
<path d="M13.9443 28.1912C15.1796 30.5365 15.5596 32.4272 15.6703 33.1968C15.67 33.1972 15.6699 33.1973 15.6698 33.1976C15.4802 33.256 15.2915 33.2363 15.1324 33.1606C14.9149 33.0572 14.7526 32.849 14.7189 32.5926C14.5137 31.0333 13.6639 29.1185 12.3292 27.1587C11.9525 26.6057 11.3456 26.2527 10.6778 26.2091L10.6666 26.2083C9.1665 26.1112 7.77241 26.4708 6.70611 27.1376C6.31718 27.3807 5.81591 27.4928 5.30874 27.46L5.25252 27.4564C3.962 27.3728 3.19146 26.4813 3.28847 25.6418C4.74819 24.8526 6.43552 24.4402 8.21396 24.5283C8.22938 24.5291 8.2448 24.5299 8.26011 24.5307C10.6625 24.6615 12.8231 26.0624 13.9443 28.1912Z" fill="url(#paint6_linear_153_721)"/>
<path d="M10.6598 23.611C10.1239 23.0373 9.83302 22.2712 9.87098 21.4871C9.8712 21.4825 9.87142 21.478 9.87163 21.4734C9.95531 19.7868 10.3918 18.2361 11.0739 16.9575C11.7406 17.0511 12.4096 17.6326 12.6513 18.6112L12.6652 18.6665C12.7864 19.1592 12.7647 19.6731 12.5942 20.0985C12.1259 21.2656 12.0184 22.7018 12.3791 24.1611C12.3799 24.164 12.3807 24.167 12.3815 24.171C12.5192 24.7241 12.777 25.2402 13.1127 25.7015C14.1511 27.129 15.0102 28.6258 15.5636 30.0771C15.8637 30.864 16.0745 31.6367 16.1736 32.3794C16.2213 32.7378 16.009 33.0883 15.6701 33.1963C15.4927 31.9635 14.6256 27.8562 10.6598 23.611Z" fill="url(#paint7_linear_153_721)"/>
<path d="M27.415 23.3872C27.4034 23.3868 27.3917 23.3865 27.38 23.3863C26.9566 23.376 26.9065 22.7702 27.3227 22.692C27.4879 22.6609 27.6524 22.6343 27.8158 22.6124C28.5627 22.5118 29.3442 22.1349 30.0031 21.574L30.0761 21.5118C32.5652 19.3926 31.8973 16.2593 29.0529 16.7465C29.0385 16.7489 29.0242 16.7514 29.0098 16.7539C27.6273 16.9971 26.5551 15.5671 27.2009 14.3208C27.3754 13.9841 27.5055 13.7111 27.5795 13.5266C28.1998 11.9794 27.4484 10.2223 25.9011 9.60188C24.3539 8.9815 22.5968 9.73291 21.9764 11.2802C21.9025 11.4646 21.808 11.752 21.7015 12.116C21.3076 13.4633 19.5445 13.7566 18.7129 12.6257C18.7042 12.614 18.6956 12.6023 18.687 12.5906C16.9668 10.2732 14.3194 12.0774 14.6552 15.3292L14.665 15.4246C14.7539 16.2852 15.0585 17.0977 15.5292 17.6863C15.6321 17.8151 15.7327 17.948 15.8307 18.0846C16.0776 18.4287 15.6229 18.832 15.3097 18.547C15.301 18.5391 15.2924 18.5314 15.2837 18.5235C13.3064 16.7391 10.9135 18.7572 11.6385 21.5891L11.6597 21.6721C11.8517 22.4216 12.2506 23.0943 12.7861 23.5423C14.2543 24.7707 15.433 26.6185 16.0007 28.8355C16.3079 30.0353 16.4059 31.2259 16.3215 32.349C16.6472 32.0368 17.0937 32.2157 17.1134 32.6666C17.8282 31.7961 18.7215 31.003 19.7725 30.3477C21.7143 29.1369 23.8432 28.6151 25.7533 28.7412C26.4501 28.7872 27.2031 28.5765 27.8597 28.1671L27.9324 28.1217C30.4134 26.5753 30.0774 23.4631 27.415 23.3872Z" fill="url(#paint8_linear_153_721)"/>
<path d="M17.1139 32.6665C17.8288 31.796 18.7221 31.0029 19.7731 30.3476C21.7149 29.1368 23.8438 28.615 25.7539 28.7411C26.4506 28.7871 27.2037 28.5764 27.8603 28.167L27.933 28.1216C30.4135 26.575 30.0775 23.4628 27.4151 23.3869C27.4034 23.3865 27.3918 23.3862 27.3801 23.386C26.9567 23.3757 26.9066 22.7699 27.3228 22.6917C27.4881 22.6606 27.6526 22.634 27.816 22.612C28.5629 22.5115 29.3444 22.1346 30.0032 21.5736L30.0762 21.5115C32.5653 19.3923 31.8974 16.259 29.053 16.7462C29.0387 16.7486 29.0243 16.7511 29.0099 16.7536C27.6274 16.9967 26.5552 15.5668 27.2012 14.3204C27.3756 13.9838 27.5058 13.7108 27.5797 13.5263C28.2001 11.979 27.4486 10.2219 25.9013 9.60156L16.8325 32.2214C16.9875 32.2836 17.1041 32.4411 17.1139 32.6665Z" fill="url(#paint9_linear_153_721)"/>
<path d="M19.7732 30.348C21.715 29.1372 23.8439 28.6154 25.754 28.7415C26.4507 28.7876 27.2038 28.5768 27.8604 28.1674L27.9331 28.122C30.4136 26.5755 30.0776 23.4632 27.4152 23.3873C27.4035 23.387 27.3919 23.3866 27.3802 23.3864C26.9568 23.3761 26.9067 22.7703 27.3229 22.6921C27.4882 22.661 27.6527 22.6345 27.8161 22.6125C28.563 22.512 29.3445 22.1351 30.0033 21.5741L30.0763 21.5119C30.9383 20.778 31.4211 19.9226 31.5665 19.138C26.0826 18.8523 22.4421 20.8941 20.9531 21.9443L16.8325 32.2219C16.9873 32.284 17.1039 32.4415 17.1137 32.6669C17.8289 31.7965 18.7222 31.0034 19.7732 30.348Z" fill="url(#paint10_linear_153_721)"/>
<path d="M17.1138 32.6665C17.8287 31.796 18.722 31.0029 19.773 30.3476C21.7148 29.1368 23.8437 28.615 25.7538 28.7411C26.4505 28.7871 27.2036 28.5764 27.8601 28.167L27.9329 28.1216C29.2354 27.3095 29.7601 26.066 29.5804 25.0568C24.1275 24.7615 19.862 27.1045 18.4985 28.0661L16.8325 32.2215C16.9874 32.2836 17.104 32.4411 17.1138 32.6665Z" fill="url(#paint11_linear_153_721)"/>
<path d="M17.1138 32.6665C17.8287 31.796 18.722 31.0029 19.773 30.3476C21.7148 29.1368 23.8437 28.615 25.7538 28.7411C26.4505 28.7871 27.2036 28.5764 27.8601 28.167L27.9329 28.1216C29.2354 27.3095 29.7601 26.066 29.5804 25.0568C24.1275 24.7615 19.862 27.1045 18.4985 28.0661L16.8325 32.2215C16.9874 32.2836 17.104 32.4411 17.1138 32.6665Z" fill="url(#paint12_linear_153_721)"/>
<path d="M16.0008 28.8357C15.4332 26.6188 14.2545 24.7709 12.7862 23.5425C12.2507 23.0945 11.8517 22.4219 11.6598 21.6723L11.6385 21.5893C10.9135 18.7575 13.3064 16.7394 15.2837 18.5238C15.2924 18.5315 15.301 18.5394 15.3097 18.5473C15.6229 18.8323 16.0776 18.4289 15.8307 18.0848C15.7327 17.9481 15.6321 17.8153 15.5292 17.6866C15.0585 17.0979 14.7539 16.2855 14.665 15.4248L14.6552 15.3295C14.5389 14.2033 14.7807 13.2513 15.2176 12.5835C19.38 16.1653 20.6017 20.1565 20.9528 21.9445L16.8322 32.2221C16.6774 32.1601 16.4844 32.1933 16.3215 32.3495C16.406 31.2261 16.308 30.0356 16.0008 28.8357Z" fill="url(#paint13_linear_153_721)"/>
<path d="M16.3215 32.3494C16.406 31.2263 16.308 30.0357 16.0007 28.8359C15.4331 26.6189 14.2544 24.7711 12.7861 23.5427C12.2506 23.0947 11.8516 22.422 11.6597 21.6725L11.6384 21.5894C11.2577 20.1024 11.7373 18.8409 12.5645 18.2354C16.7111 21.7888 18.1766 26.4295 18.4982 28.0666L16.8322 32.222C16.6774 32.16 16.4844 32.1934 16.3215 32.3494Z" fill="url(#paint14_linear_153_721)"/>
<path d="M26.2117 25.4044C26.1934 25.1244 25.953 24.9131 25.6715 24.9307C23.6624 25.0624 21.0048 25.9993 18.7839 27.354L18.105 29.0474C18.719 28.5839 19.4214 28.1374 20.1913 27.727C22.092 26.7141 24.1656 26.0478 25.738 25.9446C26.0179 25.9262 26.2301 25.6844 26.2117 25.4044Z" fill="url(#paint15_linear_153_721)"/>
<path d="M26.2117 25.4044C26.1934 25.1244 25.953 24.9131 25.6715 24.9307C23.6624 25.0624 21.0048 25.9993 18.7839 27.354L18.105 29.0474C18.719 28.5839 19.4214 28.1374 20.1913 27.727C22.092 26.7141 24.1656 26.0478 25.738 25.9446C26.0179 25.9262 26.2301 25.6844 26.2117 25.4044Z" fill="url(#paint16_linear_153_721)"/>
<path d="M28.6771 19.255C28.6587 18.975 28.4183 18.7637 28.1369 18.7813C26.1278 18.913 23.4702 19.8499 21.2492 21.2046L20.5703 22.898C21.1843 22.4345 21.8867 21.988 22.6566 21.5776C24.5574 20.5647 26.6309 19.8983 28.2034 19.7952C28.4833 19.7768 28.6955 19.535 28.6771 19.255Z" fill="url(#paint17_linear_153_721)"/>
<path d="M28.6771 19.255C28.6587 18.975 28.4183 18.7637 28.1369 18.7813C26.1278 18.913 23.4702 19.8499 21.2492 21.2046L20.5703 22.898C21.1843 22.4345 21.8867 21.988 22.6566 21.5776C24.5574 20.5647 26.6309 19.8983 28.2034 19.7952C28.4833 19.7768 28.6955 19.535 28.6771 19.255Z" fill="url(#paint18_linear_153_721)"/>
<path d="M14.7602 20.8137C14.9669 20.6239 15.2866 20.6371 15.478 20.8443C16.8397 22.3274 18.114 24.8408 18.784 27.3545L18.1051 29.0479C17.9811 28.2886 17.7819 27.4805 17.5088 26.652C16.8342 24.6066 15.7953 22.6924 14.7295 21.5315C14.5398 21.3248 14.5534 21.0034 14.7602 20.8137Z" fill="url(#paint19_linear_153_721)"/>
<path d="M17.2255 14.6638C17.4322 14.474 17.7519 14.4872 17.9433 14.6944C19.305 16.1775 20.5794 18.6909 21.2493 21.2046L20.5704 22.898C20.4465 22.1387 20.2472 21.3306 19.9741 20.5021C19.2996 18.4567 18.2606 16.5425 17.1949 15.3816C17.0051 15.175 17.0188 14.8535 17.2255 14.6638Z" fill="url(#paint20_linear_153_721)"/>
<path d="M14.5047 38.0279C14.0282 37.8369 13.7969 37.2958 13.9879 36.8194L22.123 16.5286C22.3139 16.0522 22.855 15.8208 23.3315 16.0118C23.8079 16.2028 24.0392 16.7438 23.8483 17.2203L15.7132 37.5111C15.5221 37.9875 14.9811 38.219 14.5047 38.0279Z" fill="url(#paint21_linear_153_721)"/>
<path d="M17.916 27.0215L13.9879 36.8191C13.7969 37.2955 14.0282 37.8366 14.5047 38.0276C14.9811 38.2185 15.5222 37.9872 15.7132 37.5108L19.6413 27.7132L17.916 27.0215Z" fill="url(#paint22_linear_153_721)"/>
<path d="M41.2245 27.5887L41.2783 27.6327C41.7636 28.0291 42.3469 28.276 42.9113 28.3108C44.4588 28.4062 46.1152 29.0447 47.5505 30.2174C48.3273 30.8521 48.9632 31.5812 49.4479 32.3542C49.5102 31.9941 49.8873 31.8962 50.1168 32.1807C50.1647 31.2697 50.366 30.3234 50.7364 29.3911C51.4208 27.6686 52.558 26.3055 53.8641 25.47C54.3404 25.1653 54.7302 24.666 54.9616 24.0837L54.9872 24.0191C55.8614 21.8188 54.1468 19.9511 52.3745 21.181C52.3667 21.1863 52.359 21.1918 52.3513 21.1971C52.0703 21.3938 51.7466 21.0229 51.9803 20.7719C52.0732 20.6721 52.1677 20.5759 52.2636 20.483C52.7023 20.0586 53.0308 19.4373 53.1908 18.755L53.2085 18.6794C53.8132 16.1017 51.8723 14.3797 50.2517 16.0641C50.2435 16.0726 50.2354 16.0811 50.2272 16.0897C49.4426 16.9125 48.0565 16.4952 47.8788 15.3724C47.8307 15.069 47.7845 14.8285 47.744 14.6727C47.4051 13.3659 46.0708 12.5812 44.764 12.9202C43.4572 13.2591 42.6725 14.5933 43.0115 15.9002C43.0518 16.056 43.1283 16.2887 43.2338 16.5771C43.6243 17.6449 42.6156 18.6833 41.5301 18.3455C41.5188 18.342 41.5076 18.3385 41.4963 18.3351C39.2613 17.6508 38.4021 20.099 40.1835 22.0579L40.2357 22.1154C40.7073 22.6338 41.2962 23.0171 41.886 23.1749C42.015 23.2093 42.1443 23.2476 42.274 23.2896C42.6002 23.3954 42.4976 23.8768 42.1564 23.8415C42.147 23.8405 42.1376 23.8395 42.1282 23.8387C39.9816 23.6252 39.391 26.0907 41.2245 27.5887Z" fill="url(#paint23_linear_153_721)"/>
<path d="M49.4477 32.3542C48.9631 31.5813 48.3272 30.8522 47.5504 30.2175C46.1151 29.0447 44.4587 28.4062 42.9111 28.3108C42.3467 28.2761 41.7635 28.0292 41.2782 27.6327L41.2244 27.5887C39.3909 26.0907 39.9815 23.6252 42.1281 23.8385C42.1375 23.8394 42.1469 23.8404 42.1563 23.8413C42.4975 23.8767 42.6002 23.3952 42.2739 23.2894C42.1443 23.2474 42.0149 23.2092 41.886 23.1746C41.2962 23.0169 40.7072 22.6336 40.2357 22.1151L40.1834 22.0577C38.402 20.0987 39.2614 17.6505 41.4963 18.3349C41.5075 18.3384 41.5188 18.3417 41.5301 18.3452C42.6156 18.683 43.6243 17.6447 43.2338 16.5769C43.1283 16.2885 43.0519 16.0557 43.0114 15.9C42.6725 14.5931 43.4571 13.2589 44.764 12.9199L49.7195 32.0257C49.5887 32.0597 49.4789 32.1741 49.4477 32.3542Z" fill="url(#paint24_linear_153_721)"/>
<path d="M47.5506 30.2175C46.1152 29.0448 44.4589 28.4063 42.9113 28.3109C42.3468 28.2761 41.7636 28.0292 41.2783 27.6328L41.2245 27.5888C39.3911 26.0908 39.9817 23.6253 42.1283 23.8385C42.1377 23.8394 42.1471 23.8404 42.1565 23.8414C42.4977 23.8767 42.6004 23.3952 42.2741 23.2895C42.1445 23.2475 42.0151 23.2092 41.8861 23.1746C41.2964 23.0169 40.7074 22.6337 40.2359 22.1151L40.1836 22.0577C39.5667 21.3794 39.2669 20.6424 39.231 19.9971C43.6659 20.3325 46.3801 22.3478 47.4681 23.3447L49.7197 32.0257C49.589 32.0596 49.4791 32.1741 49.4479 32.3541C48.9633 31.5813 48.3273 30.8521 47.5506 30.2175Z" fill="url(#paint25_linear_153_721)"/>
<path d="M49.4479 32.3544C48.9632 31.5814 48.3273 30.8523 47.5505 30.2176C46.1152 29.0449 44.4588 28.4064 42.9113 28.311C42.3468 28.2762 41.7636 28.0294 41.2783 27.6329L41.2245 27.5889C40.2618 26.8023 39.9683 25.7493 40.2167 24.957C44.6277 25.2815 47.8131 27.603 48.8093 28.5161L49.7197 32.0259C49.5889 32.0598 49.479 32.1742 49.4479 32.3544Z" fill="url(#paint26_linear_153_721)"/>
<path d="M49.4479 32.3544C48.9632 31.5814 48.3273 30.8523 47.5505 30.2176C46.1152 29.0449 44.4588 28.4064 42.9113 28.311C42.3468 28.2762 41.7636 28.0294 41.2783 27.6329L41.2245 27.5889C40.2618 26.8023 39.9683 25.7493 40.2167 24.957C44.6277 25.2815 47.8131 27.603 48.8093 28.5161L49.7197 32.0259C49.5889 32.0598 49.479 32.1742 49.4479 32.3544Z" fill="url(#paint27_linear_153_721)"/>
<path d="M50.7362 29.391C51.4206 27.6686 52.5579 26.3054 53.8639 25.4699C54.3402 25.1652 54.7301 24.6659 54.9614 24.0836L54.987 24.0191C55.8612 21.8188 54.1466 19.9511 52.3743 21.1809C52.3666 21.1862 52.3588 21.1917 52.3511 21.1971C52.0702 21.3937 51.7464 21.0229 51.9801 20.7718C52.073 20.6721 52.1675 20.5758 52.2634 20.483C52.7021 20.0585 53.0306 19.4372 53.1906 18.755L53.2083 18.6794C53.4178 17.7867 53.3215 16.997 53.0393 16.4155C49.3265 18.8642 47.9339 21.9447 47.4678 23.3449L49.7194 32.0259C49.8501 31.9919 50.0018 32.0385 50.1165 32.1808C50.1644 31.2695 50.3658 30.3232 50.7362 29.391Z" fill="url(#paint28_linear_153_721)"/>
<path d="M50.1167 32.1805C50.1646 31.2695 50.3659 30.3232 50.7363 29.3909C51.4206 27.6685 52.5579 26.3053 53.864 25.4698C54.3403 25.1651 54.7301 24.6658 54.9614 24.0835L54.987 24.0189C55.4461 22.8635 55.1907 21.8007 54.5886 21.229C50.8914 23.6566 49.236 27.2337 48.8091 28.5158L49.7194 32.0256C49.8502 31.9917 50.0019 32.0383 50.1167 32.1805Z" fill="url(#paint29_linear_153_721)"/>
<path d="M42.8866 25.5835C42.9302 25.3605 43.1451 25.2155 43.3694 25.2586C44.9699 25.5714 47.0083 26.5977 48.653 27.9148L49.024 29.3451C48.5784 28.9096 48.0602 28.4784 47.484 28.0695C46.0614 27.06 44.4642 26.3111 43.2116 26.0663C42.9885 26.0226 42.8431 25.8065 42.8866 25.5835Z" fill="url(#paint30_linear_153_721)"/>
<path d="M42.8866 25.5835C42.9302 25.3605 43.1451 25.2155 43.3694 25.2586C44.9699 25.5714 47.0083 26.5977 48.653 27.9148L49.024 29.3451C48.5784 28.9096 48.0602 28.4784 47.484 28.0695C46.0614 27.06 44.4642 26.3111 43.2116 26.0663C42.9885 26.0226 42.8431 25.8065 42.8866 25.5835Z" fill="url(#paint31_linear_153_721)"/>
<path d="M41.5395 20.3892C41.5831 20.1662 41.7979 20.0211 42.0223 20.0642C43.6227 20.377 45.6612 21.4034 47.3058 22.7205L47.6768 24.1508C47.2312 23.7153 46.713 23.2841 46.1368 22.8752C44.7143 21.8656 43.1171 21.1167 41.8644 20.872C41.6413 20.8284 41.4958 20.6123 41.5395 20.3892Z" fill="url(#paint32_linear_153_721)"/>
<path d="M41.5395 20.3892C41.5831 20.1662 41.7979 20.0211 42.0223 20.0642C43.6227 20.377 45.6612 21.4034 47.3058 22.7205L47.6768 24.1508C47.2312 23.7153 46.713 23.2841 46.1368 22.8752C44.7143 21.8656 43.1171 21.1167 41.8644 20.872C41.6413 20.8284 41.4958 20.6123 41.5395 20.3892Z" fill="url(#paint33_linear_153_721)"/>
<path d="M52.5595 23.0745C52.413 22.9008 52.1547 22.8785 51.9797 23.0252C50.7331 24.0764 49.4504 25.9642 48.6533 27.9147L49.0243 29.345C49.2021 28.7478 49.4454 28.1191 49.7502 27.4817C50.5027 25.908 51.5346 24.4773 52.5103 23.6544C52.684 23.5079 52.7061 23.2482 52.5595 23.0745Z" fill="url(#paint34_linear_153_721)"/>
<path d="M51.2124 17.8802C51.0658 17.7065 50.8076 17.6842 50.6326 17.8309C49.3859 18.8821 48.1033 20.7699 47.3062 22.7204L47.6772 24.1507C47.8549 23.5535 48.0982 22.9248 48.4031 22.2873C49.1556 20.7137 50.1874 19.2829 51.1632 18.4601C51.3367 18.3136 51.3588 18.054 51.2124 17.8802Z" fill="url(#paint35_linear_153_721)"/>
<path d="M50.9918 36.9298C51.3941 36.8254 51.6358 36.4145 51.5314 36.0121L47.0861 18.8735C46.9817 18.4711 46.5709 18.2295 46.1684 18.3339C45.766 18.4382 45.5244 18.849 45.6288 19.2515L50.0741 36.3901C50.1786 36.7925 50.5894 37.0341 50.9918 36.9298Z" fill="url(#paint36_linear_153_721)"/>
<path d="M49.3846 27.7363L51.531 36.0119C51.6354 36.4143 51.3938 36.8251 50.9914 36.9295C50.589 37.0339 50.1782 36.7923 50.0737 36.3899L47.9272 28.1143L49.3846 27.7363Z" fill="url(#paint37_linear_153_721)"/>
<path d="M3.80111 25.2563C1.70177 25.2563 0 26.9581 0 29.0573C0 31.1566 1.70177 32.8583 3.801 32.8583C5.90023 32.8583 7.602 31.1566 7.602 29.0573C7.602 26.9581 5.90034 25.2563 3.80111 25.2563ZM3.80111 30.5194C2.9937 30.5194 2.3392 29.8649 2.3392 29.0575C2.3392 28.2501 2.9937 27.5956 3.80111 27.5956C4.60852 27.5956 5.26302 28.2501 5.26302 29.0575C5.26302 29.8649 4.60852 30.5194 3.80111 30.5194Z" fill="url(#paint38_linear_153_721)"/>
<path d="M0 29.0573C0 31.1565 1.70177 32.8583 3.80111 32.8583C5.90045 32.8583 7.60222 31.1565 7.60222 29.0573C7.60222 28.3527 7.40972 27.6932 7.07558 27.1274H0.526641C0.1925 27.6932 0 28.3527 0 29.0573ZM3.80111 27.5953C4.60852 27.5953 5.26302 28.2498 5.26302 29.0573C5.26302 29.8647 4.60852 30.5192 3.80111 30.5192C2.9937 30.5192 2.3392 29.8647 2.3392 29.0573C2.3392 28.2498 2.99359 27.5953 3.80111 27.5953Z" fill="url(#paint39_linear_153_721)"/>
<path d="M1.11334 31.745C2.59778 33.2295 5.00447 33.2295 6.4888 31.745C7.97323 30.2606 7.97323 27.8539 6.4888 26.3696C5.99059 25.8714 5.38827 25.5412 4.75192 25.3774L0.121094 30.0082C0.284938 30.6445 0.615031 31.2468 1.11334 31.745ZM2.76731 28.0236C3.33825 27.4526 4.26389 27.4526 4.83483 28.0236C5.40577 28.5945 5.40577 29.5201 4.83483 30.0911C4.26389 30.662 3.33825 30.662 2.76731 30.0911C2.19638 29.5201 2.19638 28.5945 2.76731 28.0236Z" fill="url(#paint40_linear_153_721)"/>
<path d="M42.1106 13.873C40.0113 13.873 38.3096 15.5748 38.3096 17.674C38.3096 19.7733 40.0113 21.475 42.1106 21.475C44.2098 21.475 45.9116 19.7733 45.9116 17.674C45.9116 15.5748 44.2098 13.873 42.1106 13.873ZM42.1106 19.1361C41.3032 19.1361 40.6487 18.4816 40.6487 17.6742C40.6487 16.8668 41.3032 16.2123 42.1106 16.2123C42.918 16.2123 43.5725 16.8668 43.5725 17.6742C43.5725 18.4816 42.918 19.1361 42.1106 19.1361Z" fill="url(#paint41_linear_153_721)"/>
<path d="M38.3096 17.674C38.3096 19.7732 40.0113 21.475 42.1107 21.475C44.21 21.475 45.9118 19.7732 45.9118 17.674C45.9118 16.9694 45.7193 16.3099 45.3851 15.7441H38.8362C38.5021 16.3099 38.3096 16.9694 38.3096 17.674ZM42.1107 16.212C42.9181 16.212 43.5726 16.8665 43.5726 17.674C43.5726 18.4814 42.9181 19.1359 42.1107 19.1359C41.3033 19.1359 40.6488 18.4814 40.6488 17.674C40.6488 16.8665 41.3033 16.212 42.1107 16.212Z" fill="url(#paint42_linear_153_721)"/>
<path d="M39.4229 20.3617C40.9074 21.8462 43.314 21.8462 44.7984 20.3617C46.2828 18.8773 46.2828 16.4706 44.7984 14.9863C44.3002 14.4881 43.6978 14.1579 43.0615 13.9941L38.4307 18.625C38.5945 19.2611 38.9247 19.8634 39.4229 20.3617ZM41.0769 16.6402C41.6478 16.0693 42.5735 16.0693 43.1444 16.6402C43.7153 17.2112 43.7153 18.1368 43.1444 18.7078C42.5735 19.2787 41.6478 19.2787 41.0769 18.7078C40.5061 18.1368 40.5061 17.2111 41.0769 16.6402Z" fill="url(#paint43_linear_153_721)"/>
<path d="M6.78417 21.394C6.70793 21.9991 7.13668 22.5513 7.74164 22.6274C9.76147 22.8818 11.7442 23.4988 13.559 24.4304C14.2667 24.7937 15.1202 24.3365 15.2196 23.5472C15.2801 23.067 15.0341 22.5995 14.6035 22.3787C12.5523 21.3271 10.3117 20.6308 8.0294 20.3433C7.42434 20.267 6.87211 20.6958 6.79598 21.3007L6.78417 21.394Z" fill="url(#paint44_linear_153_721)"/>
<path d="M11.6148 23.5774L11.9093 21.2396C10.6487 20.8118 9.34606 20.5091 8.02929 20.3433C7.42423 20.267 6.872 20.6958 6.79587 21.3007L6.78417 21.3939C6.70793 21.999 7.13668 22.5512 7.74164 22.6273C9.06081 22.7935 10.3638 23.1153 11.6148 23.5774Z" fill="url(#paint45_linear_153_721)"/>
<path d="M12.7304 38.5365C12.441 38.5679 12.1459 38.5831 11.8479 38.5831C7.23799 38.5831 3.50098 34.846 3.50098 30.2361C3.50098 25.6272 7.23799 21.8901 11.8479 21.8901C12.1459 21.8901 12.441 21.9053 12.7304 21.9367C8.53551 22.3774 5.26673 25.9251 5.26673 30.2361C5.26673 34.5481 8.53551 38.0957 12.7304 38.5365Z" fill="url(#paint46_linear_153_721)"/>
<path d="M13.0924 38.5827C17.7019 38.5827 21.4387 34.846 21.4387 30.2364C21.4387 25.6269 17.7019 21.8901 13.0924 21.8901C8.48286 21.8901 4.74609 25.6269 4.74609 30.2364C4.74609 34.846 8.48286 38.5827 13.0924 38.5827Z" fill="url(#paint47_linear_153_721)"/>
<path d="M4.74609 30.2366C4.74609 34.8461 8.48289 38.5829 13.0924 38.5829C17.7019 38.5829 21.4387 34.8461 21.4387 30.2366C21.4387 29.8451 21.4111 29.4601 21.359 29.083H4.82583C4.77366 29.4602 4.74609 29.8451 4.74609 30.2366Z" fill="url(#paint48_linear_153_721)"/>
<path d="M21.4388 30.2366C21.4388 26.9334 19.5197 24.0784 16.7357 22.7256L5.58154 33.8799C6.9344 36.6638 9.7892 38.583 13.0925 38.583C17.702 38.5829 21.4388 34.8462 21.4388 30.2366Z" fill="url(#paint49_linear_153_721)"/>
<path d="M13.5174 30.0897L16.7693 29.858C17.5743 29.8007 18.2241 29.1469 18.2375 28.3399C18.2442 27.9408 18.0993 27.5339 17.7778 27.2123C17.5483 26.9828 17.2034 26.7395 16.7262 26.6297C16.4356 26.5629 16.2114 26.3387 16.1446 26.0481C16.0348 25.571 15.7915 25.226 15.5621 24.9965C15.2405 24.675 14.8335 24.5303 14.4344 24.5368C13.6274 24.5503 12.9736 25.2 12.9163 26.005L12.6846 29.2569C12.651 29.7302 13.0444 30.1234 13.5174 30.0897Z" fill="url(#paint50_linear_153_721)"/>
<path d="M12.9793 31.2161L12.7477 34.4681C12.6904 35.2731 12.0365 35.9229 11.2296 35.9362C10.8305 35.9429 10.4236 35.7981 10.1019 35.4765C9.87244 35.247 9.62919 34.9022 9.51937 34.425C9.45255 34.1345 9.22833 33.9101 8.93772 33.8433C8.46062 33.7335 8.11566 33.4902 7.88619 33.2608C7.56462 32.9392 7.41992 32.5322 7.42648 32.1331C7.43994 31.3261 8.08962 30.6723 8.89462 30.615L12.1466 30.3833C12.6198 30.3499 13.013 30.7431 12.9793 31.2161Z" fill="url(#paint51_linear_153_721)"/>
<path d="M13.1373 31.0579L13.3689 34.3099C13.4263 35.1149 14.0801 35.7647 14.8871 35.778C15.2862 35.7847 15.693 35.6399 16.0147 35.3183C16.2442 35.0888 16.4874 34.744 16.5972 34.2668C16.6641 33.9763 16.8883 33.7519 17.1789 33.6851C17.656 33.5753 18.001 33.3321 18.2304 33.1026C18.552 32.781 18.6967 32.374 18.6901 31.9749C18.6767 31.168 18.027 30.5141 17.222 30.4568L13.9701 30.2251C13.4968 30.1916 13.1035 30.5848 13.1373 31.0579Z" fill="url(#paint52_linear_153_721)"/>
<path d="M11.7393 30.1576L8.4874 29.9259C7.6824 29.8686 7.03261 29.2148 7.01926 28.4078C7.01259 28.0087 7.1574 27.6018 7.47897 27.2801C7.70844 27.0507 8.05329 26.8074 8.5305 26.6976C8.821 26.6308 9.04533 26.4065 9.11215 26.1159C9.22197 25.6388 9.46522 25.2939 9.69469 25.0644C10.0162 24.7428 10.4232 24.5981 10.8223 24.6047C11.6293 24.6182 12.2832 25.2678 12.3405 26.0728L12.5721 29.3248C12.6056 29.798 12.2124 30.1914 11.7393 30.1576Z" fill="url(#paint53_linear_153_721)"/>
<path d="M15.321 27.1327C14.8551 28.0309 14.019 28.5212 13.4534 28.2279C12.8878 27.9345 12.8071 26.9686 13.2729 26.0703C13.7388 25.172 14.5749 24.6818 15.1405 24.9751C15.7061 25.2685 15.7869 26.2344 15.321 27.1327Z" fill="url(#paint54_linear_153_721)"/>
<path d="M12.489 33.9193C12.023 34.8175 11.187 35.3078 10.6214 35.0145C10.0558 34.7211 9.97508 33.7552 10.4409 32.8569C10.9068 31.9587 11.7429 31.4684 12.3085 31.7618C12.8741 32.0551 12.9549 33.0211 12.489 33.9193Z" fill="url(#paint55_linear_153_721)"/>
<path d="M15.3873 31.9524C14.8022 31.9033 14.3529 31.5649 14.3838 31.1964C14.4148 30.8281 14.9142 30.5692 15.4993 30.6183C16.0845 30.6674 16.5338 31.0058 16.5029 31.3743C16.4719 31.7427 15.9725 32.0015 15.3873 31.9524Z" fill="url(#paint56_linear_153_721)"/>
<path d="M15.1251 28.2697C15.5403 27.8545 16.0888 27.7298 16.3504 27.9912C16.6118 28.2526 16.4871 28.8011 16.0719 29.2164C15.6567 29.6317 15.1082 29.7563 14.8467 29.4949C14.5853 29.2334 14.7099 28.6849 15.1251 28.2697Z" fill="url(#paint57_linear_153_721)"/>
<path d="M9.3937 32.3147C8.80854 32.2656 8.35923 31.9272 8.39018 31.5587C8.42113 31.1904 8.92054 30.9315 9.50569 30.9806C10.0909 31.0297 10.5402 31.3681 10.5092 31.7366C10.4783 32.105 9.97885 32.3639 9.3937 32.3147Z" fill="url(#paint58_linear_153_721)"/>
<path d="M9.44752 29.4577C8.68726 29.3939 8.10341 28.9541 8.14355 28.4754C8.18369 27.9966 8.83262 27.6603 9.59288 27.7241C10.3531 27.7878 10.937 28.2276 10.8969 28.7064C10.8567 29.1851 10.2078 29.5214 9.44752 29.4577Z" fill="url(#paint59_linear_153_721)"/>
<path d="M10.0541 26.8339C10.5442 27.4186 11.24 27.6426 11.6081 27.3339C11.9763 27.0253 11.8775 26.3012 11.3874 25.7164C10.8973 25.1315 10.2016 24.9076 9.83342 25.2163C9.46526 25.525 9.56403 26.2491 10.0541 26.8339Z" fill="url(#paint60_linear_153_721)"/>
<path d="M14.1454 34.0956C14.6356 34.6803 15.3313 34.9043 15.6994 34.5956C16.0676 34.2871 15.9688 33.5629 15.4787 32.9781C14.9886 32.3933 14.2929 32.1693 13.9247 32.478C13.5566 32.7866 13.6553 33.5107 14.1454 34.0956Z" fill="url(#paint61_linear_153_721)"/>
<path d="M33.7941 29.5868C33.043 29.0156 32.1002 28.5625 31.0367 28.2868C32.4527 28.2452 33.8097 28.1042 34.2693 27.9992C35.3368 27.7554 36.0045 26.6923 35.7607 25.6248C35.5169 24.5573 34.4538 23.8896 33.3864 24.1334C32.8962 24.2454 31.4685 24.7636 30.0912 25.3946C30.6301 24.5255 30.984 23.6175 31.1437 22.7464C31.4855 20.8818 29.4325 20.419 28.0215 22.0379L27.9801 22.0854C27.6066 22.5138 27.3531 23.0242 27.2813 23.5141C27.1555 24.3726 26.8368 25.274 26.3353 26.1437C26.6387 25.3468 26.7821 24.5368 26.7692 23.7716C26.7398 22.0222 24.6981 21.7777 23.6633 23.3952L23.6329 23.4427C23.359 23.8708 23.2148 24.3639 23.2397 24.8218C23.3079 26.0774 22.9489 27.4717 22.1387 28.738C22.1369 28.7409 22.1349 28.744 22.133 28.747C21.8249 29.2269 21.4154 29.6327 20.9495 29.9617C18.726 31.5315 16.8519 33.3955 15.9058 35.3031C15.7355 35.6464 15.8448 36.075 16.1725 36.2738C16.3204 36.3635 16.4847 36.3951 16.641 36.3767C16.8802 36.3486 17.1007 36.2036 17.215 35.9715C17.9092 34.5625 19.3264 33.0243 21.2163 31.5986C21.7511 31.1951 22.445 31.0516 23.0923 31.2243C23.0959 31.2253 23.0996 31.2263 23.1032 31.2272C24.5549 31.6171 25.7598 32.4054 26.5554 33.3792C26.8456 33.7343 27.2843 34.0015 27.7751 34.1333L27.8295 34.148C29.684 34.646 31.0278 33.0896 29.871 31.7771C29.365 31.203 28.7133 30.701 27.9521 30.3166C28.9086 30.6214 29.7514 31.0726 30.4228 31.6223C30.8058 31.936 31.3372 32.1423 31.9018 32.2072L31.9643 32.2145C34.0978 32.4596 35.303 30.7344 33.7941 29.5868Z" fill="url(#paint62_linear_153_721)"/>
<path d="M30.5703 21.4768C30.5883 21.3971 30.6053 21.3179 30.6211 21.2389C29.9707 20.8396 28.8781 21.0551 28.0217 22.0382L27.98 22.0851C27.6062 22.5135 27.3533 23.024 27.2808 23.5139C27.1548 24.3731 26.8364 25.2739 26.335 26.144C26.6383 25.3465 26.7814 24.5368 26.7688 23.772C26.7394 22.0221 24.698 21.7778 23.6631 23.395L23.6322 23.443C23.3592 23.8707 23.2146 24.3643 23.2395 24.822C23.3082 26.0776 22.9486 27.4722 22.1385 28.7384C22.1367 28.7409 22.135 28.7435 22.133 28.747C21.8249 29.2266 21.415 29.6325 20.9489 29.9615C19.4181 31.0428 18.0513 32.2642 17.0409 33.5424C16.5843 34.1196 16.1994 34.7083 15.9054 35.3025C15.7452 35.6266 15.8336 36.0267 16.1198 36.2379C16.7243 35.0473 19.1407 30.982 25.0981 28.19C27.8485 26.9011 29.899 24.4391 30.5703 21.4768Z" fill="url(#paint63_linear_153_721)"/>
<path d="M27.7751 34.1334L27.8294 34.1481C29.6839 34.646 31.0278 33.0896 29.8709 31.7771C29.3649 31.203 28.7132 30.7011 27.952 30.3167C28.9085 30.6215 29.7514 31.0727 30.4227 31.6224C30.8057 31.9361 31.3371 32.1423 31.9017 32.2073L31.9642 32.2145C34.0976 32.46 35.3028 30.7348 33.7939 29.5872C33.0428 29.016 32.1 28.5629 31.0365 28.2872C32.4525 28.2456 33.8095 28.1045 34.2691 27.9995C35.3366 27.7557 36.0043 26.6927 35.7605 25.6252C35.7545 25.599 35.7458 25.5742 35.7389 25.5483C21.7457 26.6317 17.0022 34.5001 16.1196 36.2383C16.1366 36.2508 16.154 36.2628 16.1722 36.274C16.3201 36.3637 16.4844 36.3953 16.6407 36.3769C16.8799 36.3488 17.1004 36.2038 17.2147 35.9717C17.9089 34.5627 19.3261 33.0244 21.216 31.5987C21.7508 31.1953 22.4447 31.0517 23.092 31.2245C23.0956 31.2254 23.0993 31.2264 23.1029 31.2274C24.5546 31.6172 25.7595 32.4056 26.5551 33.3794C26.8454 33.7344 27.2842 34.0016 27.7751 34.1334Z" fill="url(#paint64_linear_153_721)"/>
<path d="M27.7751 34.1335L27.8294 34.1481C29.6839 34.6461 31.0278 33.0897 29.8709 31.7772C29.3649 31.2031 28.7132 30.7012 27.952 30.3167C28.9085 30.6215 29.7514 31.0727 30.4227 31.6224C30.8057 31.9361 31.3371 32.1424 31.9017 32.2074L31.9642 32.2146C33.2541 32.363 34.2033 31.7908 34.4198 31.0617C32.8812 29.9493 31.3237 29.2221 29.8218 28.7678C27.1073 27.947 24.1771 28.4422 21.8407 30.0494C18.2184 32.5412 16.599 35.2943 16.1196 36.2385C16.1197 36.2388 16.1197 36.239 16.1198 36.2394C16.2806 36.3555 16.4657 36.3975 16.6407 36.377C16.8799 36.3488 17.1004 36.2038 17.2147 35.9717C17.9098 34.5609 19.3297 33.0206 21.2232 31.5933C21.7575 31.1906 22.4457 31.0514 23.092 31.2244L23.1029 31.2274C24.5546 31.6172 25.7595 32.4056 26.5551 33.3793C26.8454 33.7345 27.2842 34.0017 27.7751 34.1335Z" fill="url(#paint65_linear_153_721)"/>
<path d="M19.3618 32.052C17.4387 33.8763 16.4716 35.5448 16.1196 36.2382C16.1197 36.2385 16.1197 36.2387 16.1198 36.239C16.2806 36.3552 16.4657 36.3972 16.6407 36.3766C16.8799 36.3485 17.1004 36.2035 17.2147 35.9714C17.9098 34.5607 19.3296 33.0202 21.2231 31.593C21.7574 31.1903 22.4456 31.051 23.092 31.2241L23.1029 31.227C24.5546 31.6168 25.7595 32.4052 26.5551 33.379C26.8453 33.7341 27.284 34.0013 27.7748 34.1331L27.8292 34.1478C29.0782 34.4831 30.0943 33.8864 30.272 33.0602C29.1431 31.8439 27.6776 30.9114 25.9651 30.4238C25.9503 30.4195 25.9355 30.4154 25.9206 30.4112C23.6035 29.7635 21.1075 30.3962 19.3618 32.052Z" fill="url(#paint66_linear_153_721)"/>
<path d="M23.9436 28.7696C24.6354 28.3985 25.1569 27.7663 25.3728 27.0115C25.374 27.0071 25.3753 27.0028 25.3766 26.9983C25.839 25.3743 25.9236 23.7655 25.6885 22.3355C25.027 22.2101 24.2068 22.5458 23.6636 23.3949L23.6327 23.4429C23.3597 23.8706 23.2151 24.3642 23.24 24.8219C23.3087 26.0776 22.9491 27.4721 22.1389 28.7383C22.1372 28.7408 22.1354 28.7435 22.1335 28.747C21.8254 29.2266 21.4155 29.6325 20.9494 29.9615C19.5075 30.9798 18.2133 32.1214 17.223 33.318C16.6861 33.9668 16.2382 34.6309 15.9059 35.3025C15.7456 35.6266 15.8341 36.0266 16.1203 36.2378C16.684 35.1274 18.8244 31.5161 23.9436 28.7696Z" fill="url(#paint67_linear_153_721)"/>
<path d="M20.2273 27.8802C20.0666 28.4684 20.4132 29.0756 21.0014 29.2362C22.9654 29.7726 24.8414 30.6627 26.5068 31.8407C27.1564 32.3 28.0656 31.9677 28.2753 31.2002C28.4028 30.7334 28.2251 30.2359 27.8299 29.9566C25.9474 28.6266 23.8273 27.6215 21.6081 27.0154C21.0199 26.8547 20.4128 27.2013 20.2521 27.7895L20.2273 27.8802Z" fill="url(#paint68_linear_153_721)"/>
<path d="M24.7023 30.7223L25.3231 28.4494C24.1353 27.8484 22.8884 27.3651 21.608 27.0154C21.0198 26.8547 20.4127 27.2013 20.252 27.7895L20.2273 27.8801C20.0666 28.4683 20.4132 29.0754 21.0014 29.2361C22.2842 29.5864 23.5288 30.0886 24.7023 30.7223Z" fill="url(#paint69_linear_153_721)"/>
<path d="M52.5405 34.9198C48.6196 38.8407 42.0069 38.5853 37.7704 34.3487C33.5338 30.1122 33.2784 23.4994 37.1993 19.5786C38.4652 18.3127 40.0118 17.4821 41.6683 17.0804C44.2789 16.4472 46.8587 17.5303 48.0969 19.7485C48.5811 20.6159 49.1957 21.4366 49.9391 22.1801C50.6826 22.9236 51.5033 23.5381 52.3707 24.0223C54.589 25.2606 55.6721 27.8403 55.0388 30.4509C54.637 32.1074 53.8065 33.6539 52.5405 34.9198Z" fill="url(#paint70_linear_153_721)"/>
<path d="M51.5747 34.2098C48.2861 37.4983 42.5612 37.1057 38.7874 33.3319C35.0136 29.5582 34.621 23.8332 37.9096 20.5447C38.9714 19.4829 40.2871 18.8048 41.709 18.5006C43.9501 18.0208 46.2091 19.0246 47.3375 20.975C47.7787 21.7376 48.3315 22.4632 48.9937 23.1256C49.656 23.7879 50.3816 24.3406 51.1444 24.7819C53.0948 25.9103 54.0985 28.1692 53.6188 30.4103C53.3144 31.8323 52.6365 33.148 51.5747 34.2098Z" fill="url(#paint71_linear_153_721)"/>
<path d="M37.1993 19.5786C33.2784 23.4995 33.5338 30.1122 37.7704 34.3487C42.0069 38.5853 48.6196 38.8407 52.5405 34.9198C52.9514 34.5089 53.3157 34.0679 53.6351 33.6036L38.5154 18.4839C38.0512 18.8034 37.6102 19.1676 37.1993 19.5786Z" fill="url(#paint72_linear_153_721)"/>
<path d="M54.4319 26.0386H34.4262C34.3132 28.9651 35.4385 32.0169 37.7703 34.3488C42.007 38.5854 48.6196 38.8407 52.5404 34.9198C53.8063 33.6539 54.6369 32.1074 55.0387 30.4509C55.4217 28.8719 55.1759 27.3049 54.4319 26.0386Z" fill="url(#paint73_linear_153_721)"/>
<path d="M40.8741 24.442C41.3792 23.9369 42.0121 23.6215 42.701 23.489C43.7866 23.2803 44.8973 23.7939 45.4683 24.7559C45.4906 24.7936 45.5135 24.831 45.5371 24.8683C45.6226 25.0041 45.8108 25.0274 45.9241 24.9139C46.0067 24.8314 46.0204 24.7023 45.9568 24.6043C45.5297 23.945 45.2661 23.2117 45.1671 22.4629C44.9769 21.0271 43.6364 20.0318 42.217 20.3169C42.1986 20.3203 42.1807 20.324 42.1622 20.3282C41.0123 20.5744 39.9489 21.1228 39.0907 21.9809C37.0782 23.9934 36.771 27.1344 38.0636 29.8655C38.4425 30.6662 39.412 30.9904 40.1945 30.575C40.5981 30.3607 40.7394 29.8565 40.5141 29.4589C39.5355 27.732 39.6218 25.6941 40.8741 24.442Z" fill="url(#paint74_linear_153_721)"/>
<path d="M40.8741 24.442C41.3792 23.9369 42.0121 23.6215 42.701 23.489C43.7866 23.2803 44.8973 23.7939 45.4683 24.7559C45.4906 24.7936 45.5135 24.831 45.5371 24.8683C45.6226 25.0041 45.8108 25.0274 45.9241 24.9139C46.0067 24.8314 46.0204 24.7023 45.9568 24.6043C45.5297 23.945 45.2661 23.2117 45.1671 22.4629C44.9769 21.0271 43.6364 20.0318 42.217 20.3169C42.1986 20.3203 42.1807 20.324 42.1622 20.3282C41.0123 20.5744 39.9489 21.1228 39.0907 21.9809C37.0782 23.9934 36.771 27.1344 38.0636 29.8655C38.4425 30.6662 39.412 30.9904 40.1945 30.575C40.5981 30.3607 40.7394 29.8565 40.5141 29.4589C39.5355 27.732 39.6218 25.6941 40.8741 24.442Z" fill="url(#paint75_linear_153_721)"/>
<path d="M40.8741 24.442C41.3792 23.9369 42.0121 23.6215 42.701 23.489C43.7866 23.2803 44.8973 23.7939 45.4683 24.7559C45.4906 24.7936 45.5135 24.831 45.5371 24.8683C45.6226 25.0041 45.8108 25.0274 45.9241 24.9139C46.0067 24.8314 46.0204 24.7023 45.9568 24.6043C45.5297 23.945 45.2661 23.2117 45.1671 22.4629C44.9769 21.0271 43.6364 20.0318 42.217 20.3169C42.1986 20.3203 42.1807 20.324 42.1622 20.3282C41.0123 20.5744 39.9489 21.1228 39.0907 21.9809C37.0782 23.9934 36.771 27.1344 38.0636 29.8655C38.4425 30.6662 39.412 30.9904 40.1945 30.575C40.5981 30.3607 40.7394 29.8565 40.5141 29.4589C39.5355 27.732 39.6218 25.6941 40.8741 24.442Z" fill="url(#paint76_linear_153_721)"/>
<path d="M51.791 29.957C51.7947 29.9391 51.799 29.9207 51.8023 29.9022C52.0873 28.4828 51.0921 27.1423 49.6563 26.9521C48.9074 26.8532 48.1742 26.5895 47.5149 26.1624C47.4169 26.0988 47.2878 26.1125 47.2052 26.1951C47.0918 26.3085 47.1151 26.4967 47.2508 26.5822C47.2881 26.6057 47.3257 26.6286 47.3633 26.651C48.3252 27.2219 48.8389 28.3326 48.6302 29.4183C48.4977 30.1071 48.1823 30.7401 47.6772 31.2451C46.4251 32.4973 44.3872 32.5836 42.6602 31.6048C42.2627 31.3795 41.7584 31.5209 41.5441 31.9244C41.1287 32.7068 41.4529 33.6764 42.2536 34.0553C44.9848 35.3479 48.1257 35.0407 50.1382 33.0282C50.9964 32.1703 51.5448 31.1069 51.791 29.957Z" fill="url(#paint77_linear_153_721)"/>
<path d="M51.791 29.957C51.7947 29.9391 51.799 29.9207 51.8023 29.9022C52.0873 28.4828 51.0921 27.1423 49.6563 26.9521C48.9074 26.8532 48.1742 26.5895 47.5149 26.1624C47.4169 26.0988 47.2878 26.1125 47.2052 26.1951C47.0918 26.3085 47.1151 26.4967 47.2508 26.5822C47.2881 26.6057 47.3257 26.6286 47.3633 26.651C48.3252 27.2219 48.8389 28.3326 48.6302 29.4183C48.4977 30.1071 48.1823 30.7401 47.6772 31.2451C46.4251 32.4973 44.3872 32.5836 42.6602 31.6048C42.2627 31.3795 41.7584 31.5209 41.5441 31.9244C41.1287 32.7068 41.4529 33.6764 42.2536 34.0553C44.9848 35.3479 48.1257 35.0407 50.1382 33.0282C50.9964 32.1703 51.5448 31.1069 51.791 29.957Z" fill="url(#paint78_linear_153_721)"/>
<path d="M51.791 29.957C51.7947 29.9391 51.799 29.9207 51.8023 29.9022C52.0873 28.4828 51.0921 27.1423 49.6563 26.9521C48.9074 26.8532 48.1742 26.5895 47.5149 26.1624C47.4169 26.0988 47.2878 26.1125 47.2052 26.1951C47.0918 26.3085 47.1151 26.4967 47.2508 26.5822C47.2881 26.6057 47.3257 26.6286 47.3633 26.651C48.3252 27.2219 48.8389 28.3326 48.6302 29.4183C48.4977 30.1071 48.1823 30.7401 47.6772 31.2451C46.4251 32.4973 44.3872 32.5836 42.6602 31.6048C42.2627 31.3795 41.7584 31.5209 41.5441 31.9244C41.1287 32.7068 41.4529 33.6764 42.2536 34.0553C44.9848 35.3479 48.1257 35.0407 50.1382 33.0282C50.9964 32.1703 51.5448 31.1069 51.791 29.957Z" fill="url(#paint79_linear_153_721)"/>
<path d="M43.6245 22.8261C43.7213 22.8446 43.9477 22.6654 44.0126 22.3283C44.0775 21.9912 43.9338 21.7406 43.837 21.722C43.7403 21.7034 43.5137 21.8827 43.4489 22.2198C43.384 22.5569 43.5277 22.8075 43.6245 22.8261Z" fill="url(#paint80_linear_153_721)"/>
<path d="M42.1051 22.7831C42.2012 22.7617 42.3374 22.5068 42.2626 22.1719C42.1877 21.8369 41.9561 21.6644 41.8598 21.6859C41.7637 21.7073 41.6274 21.9621 41.7022 22.2971C41.7773 22.6321 42.0089 22.8047 42.1051 22.7831Z" fill="url(#paint81_linear_153_721)"/>
<path d="M40.6632 23.7908C40.7376 23.7261 40.7361 23.4373 40.5107 23.1783C40.2854 22.9193 39.9996 22.8778 39.9253 22.9426C39.8509 23.0073 39.8524 23.2962 40.0777 23.5551C40.3029 23.8141 40.5888 23.8555 40.6632 23.7908Z" fill="url(#paint82_linear_153_721)"/>
<path d="M39.682 25.2714C39.7095 25.1767 39.5517 24.9348 39.222 24.8392C38.8923 24.7437 38.6296 24.8637 38.6022 24.9584C38.5747 25.053 38.7326 25.2951 39.0622 25.3906C39.3919 25.4862 39.6546 25.366 39.682 25.2714Z" fill="url(#paint83_linear_153_721)"/>
<path d="M39.2856 27.0795C39.2922 26.9811 39.0863 26.7785 38.7439 26.7555C38.4014 26.7325 38.1703 26.9059 38.1637 27.0042C38.1572 27.1025 38.3629 27.3053 38.7055 27.3282C39.048 27.3511 39.279 27.1778 39.2856 27.0795Z" fill="url(#paint84_linear_153_721)"/>
<path d="M39.6206 28.7111C39.5824 28.6202 39.3076 28.5313 38.9911 28.6643C38.6747 28.7973 38.546 29.0559 38.5842 29.1468C38.6223 29.2377 38.8972 29.3266 39.2136 29.1935C39.53 29.0605 39.6588 28.8019 39.6206 28.7111Z" fill="url(#paint85_linear_153_721)"/>
<path d="M49.2928 28.4947C49.2742 28.3979 49.4535 28.1715 49.7906 28.1066C50.1277 28.0417 50.3783 28.1853 50.3968 28.2821C50.4154 28.3789 50.2362 28.6055 49.8991 28.6703C49.5621 28.7352 49.3115 28.5915 49.2928 28.4947Z" fill="url(#paint86_linear_153_721)"/>
<path d="M49.3363 30.014C49.3577 29.9179 49.6126 29.7817 49.9475 29.8565C50.2825 29.9314 50.455 30.163 50.4335 30.2593C50.4121 30.3554 50.1572 30.4917 49.8223 30.4169C49.4873 30.3419 49.3147 30.1103 49.3363 30.014Z" fill="url(#paint87_linear_153_721)"/>
<path d="M48.3283 31.456C48.3929 31.3817 48.6818 31.3832 48.9408 31.6085C49.1998 31.8338 49.2413 32.1196 49.1765 32.194C49.1119 32.2684 48.8229 32.2668 48.564 32.0415C48.305 31.8162 48.2636 31.5303 48.3283 31.456Z" fill="url(#paint88_linear_153_721)"/>
<path d="M46.8476 32.4371C46.9422 32.4097 47.1842 32.5675 47.2798 32.8972C47.3754 33.2268 47.2553 33.4895 47.1605 33.517C47.0659 33.5445 46.8239 33.3866 46.7284 33.057C46.6328 32.7273 46.753 32.4646 46.8476 32.4371Z" fill="url(#paint89_linear_153_721)"/>
<path d="M45.0399 32.8336C45.1382 32.8271 45.3409 33.0329 45.3638 33.3754C45.3868 33.7178 45.2134 33.9489 45.1151 33.9555C45.0168 33.9621 44.814 33.7563 44.7911 33.4138C44.7682 33.0713 44.9415 32.8403 45.0399 32.8336Z" fill="url(#paint90_linear_153_721)"/>
<path d="M43.4081 32.4987C43.499 32.5369 43.5878 32.8117 43.4548 33.1282C43.3218 33.4446 43.0632 33.5733 42.9723 33.5351C42.8814 33.497 42.7925 33.2221 42.9256 32.9057C43.0586 32.5893 43.3172 32.4605 43.4081 32.4987Z" fill="url(#paint91_linear_153_721)"/>
<path d="M34.7921 33.3031C35.5513 32.788 36.4584 32.4002 37.4572 32.1816C36.2553 32.2492 35.1416 32.521 34.1976 32.9583C33.6589 33.2078 32.9804 33.2884 32.3052 33.1949L32.2304 33.1845C29.6799 32.831 28.7967 30.4672 30.8922 29.5864C31.9486 29.1422 33.197 28.8974 34.5334 28.9019C32.7769 28.1436 31.0243 27.1948 30.5072 26.8242C29.44 26.0593 29.195 24.5741 29.96 23.507C30.7249 22.4398 32.21 22.1948 33.2772 22.9598C33.7942 23.3304 35.2557 24.6855 36.538 26.1053C36.1046 24.8411 35.9355 23.5803 36.0167 22.4372C36.1779 20.1698 38.7001 20.2469 39.854 22.5488L39.8878 22.6163C40.1933 23.2257 40.335 23.8942 40.2716 24.4845C40.1607 25.5189 40.2611 26.6608 40.5831 27.8207C40.4694 26.8046 40.5453 25.8211 40.7892 24.9366C41.3469 22.9143 43.7907 23.2413 44.5083 25.429L44.5293 25.4932C44.7192 26.0722 44.7391 26.6879 44.5731 27.2123C44.1181 28.6498 44.1177 30.3762 44.6794 32.0889C44.6813 32.0944 44.6831 32.1 44.6849 32.1055C44.987 33.0206 45.5874 33.808 46.3706 34.3694L49.3721 36.5208C49.6979 36.7544 49.802 37.209 49.5784 37.5416C49.3469 37.8858 48.8787 37.9685 48.544 37.7287L45.5176 35.5593C44.7344 34.9979 43.7958 34.6822 42.8322 34.6901C42.8264 34.6901 42.8205 34.6902 42.8147 34.6902C41.0123 34.7084 39.3775 35.2631 38.1623 36.1559C37.7192 36.4815 37.1297 36.6603 36.5203 36.6665L36.4527 36.6672C34.1506 36.6902 33.0559 34.4809 34.7921 33.3031Z" fill="url(#paint92_linear_153_721)"/>
<path d="M48.5443 37.7283L45.5179 35.559C44.7347 34.9976 43.7961 34.6819 42.8325 34.6898C42.8266 34.6898 42.8208 34.6899 42.8149 34.6899C41.0125 34.708 39.3777 35.2628 38.1626 36.1555C37.7194 36.4811 37.1299 36.6599 36.5205 36.6662L36.4529 36.6668C34.1506 36.69 33.0559 34.4808 34.7921 33.303C35.5513 32.7879 36.4584 32.4001 37.4572 32.1815C36.2553 32.2491 35.1416 32.5209 34.1976 32.9581C33.6589 33.2076 32.9804 33.2882 32.3052 33.1947L32.2304 33.1843C29.6799 32.8308 28.7967 30.467 30.8922 29.5862C31.9486 29.1421 33.197 28.8973 34.5334 28.9018C32.7769 28.1435 31.0243 27.1946 30.5072 26.8241C29.44 26.0592 29.195 24.574 29.96 23.5068L49.5651 37.5593C49.3295 37.8878 48.8729 37.9638 48.5443 37.7283Z" fill="url(#paint93_linear_153_721)"/>
<path d="M36.5206 36.6665L36.453 36.6672C34.1506 36.6904 33.056 34.4811 34.7921 33.3034C35.5514 32.7882 36.4585 32.4005 37.4573 32.1818C36.2553 32.2494 35.1417 32.5212 34.1977 32.9585C33.659 33.208 32.9804 33.2886 32.3053 33.1951L32.2305 33.1847C30.3911 32.9297 29.4194 31.6294 29.8063 30.5936C30.8327 30.2715 31.7905 30.0355 32.6762 29.8665C35.7942 29.2715 39.0192 30.0006 41.5992 31.85L49.565 37.5598C49.3294 37.8883 48.8727 37.9643 48.5442 37.7288L45.4695 35.525C44.7012 34.9742 43.7776 34.6819 42.8323 34.6902L42.8147 34.6903C41.0123 34.7085 39.3775 35.2633 38.1623 36.156C37.7193 36.4815 37.1299 36.6604 36.5206 36.6665Z" fill="url(#paint94_linear_153_721)"/>
<path d="M45.492 34.6402L49.5652 37.5598C49.3296 37.8883 48.873 37.9643 48.5444 37.7288L45.4698 35.525C44.7014 34.9742 43.7779 34.682 42.8326 34.6903L42.8149 34.6904C41.0126 34.7085 39.3777 35.2633 38.1626 36.156C37.7194 36.4816 37.13 36.6604 36.5205 36.6667L36.4529 36.6673C35.1443 36.6805 34.2268 35.9723 33.9966 35.1423C35.764 33.7803 37.741 33.2115 39.5007 33.0259C41.6254 32.802 43.7558 33.3957 45.492 34.6402Z" fill="url(#paint95_linear_153_721)"/>
<path d="M44.4181 31.105C44.4853 31.4321 44.5719 31.7608 44.6795 32.089C44.6814 32.0946 44.6832 32.1002 44.685 32.1057C44.9871 33.0208 45.5875 33.8082 46.3707 34.3696L49.3722 36.521C49.698 36.7545 49.8021 37.2092 49.5785 37.5418C49.347 37.886 48.8788 37.9687 48.5441 37.7288L45.5177 35.5595C44.7345 34.9981 43.7959 34.6824 42.8323 34.6903C42.8264 34.6903 42.8206 34.6904 42.8147 34.6904C42.4693 34.6939 42.1302 34.7174 41.7988 34.7589L44.4181 31.105Z" fill="url(#paint96_linear_153_721)"/>
<path d="M44.5297 25.4928L44.5087 25.4286C43.7912 23.2409 41.3473 22.9138 40.7896 24.9362C40.5457 25.8207 40.4697 26.8042 40.5835 27.8203C40.2615 26.6604 40.1611 25.5185 40.272 24.4841C40.3354 23.8938 40.1937 23.2253 39.8882 22.6159L39.8544 22.5485C39.0222 20.8884 37.4787 20.3859 36.6221 21.0849C36.6467 22.1604 36.7308 23.1433 36.8553 24.0363C37.2933 27.1803 39.0196 30.0002 41.5996 31.8495L49.5654 37.5593C49.8008 37.2307 49.7261 36.7738 49.3975 36.5383L46.3229 34.3345C45.5545 33.7837 44.9811 33.0031 44.6853 32.1051L44.6798 32.0885C44.1181 30.3758 44.1184 28.6494 44.5735 27.2119C44.7394 26.6875 44.7196 26.0719 44.5297 25.4928Z" fill="url(#paint97_linear_153_721)"/>
<path d="M45.4922 34.6398L49.5655 37.5595C49.8008 37.2309 49.7261 36.774 49.3976 36.5385L46.3229 34.3347C45.5546 33.7839 44.9811 33.0033 44.6854 32.1053L44.6799 32.0887C44.1181 30.376 44.1185 28.6496 44.5736 27.2121C44.7395 26.6877 44.7197 26.0722 44.5297 25.493L44.5087 25.4288C44.1009 24.1853 43.1355 23.5438 42.2755 23.5924C41.5533 25.7036 41.6497 27.7586 42.0391 29.4847C42.5095 31.5685 43.756 33.3954 45.4922 34.6398Z" fill="url(#paint98_linear_153_721)"/>
<path d="M42.2992 32.0107C42.4934 32.5887 43.1196 32.8998 43.6975 32.7054C45.6272 32.0567 47.6811 31.7507 49.7204 31.8011C50.5157 31.8208 51.0856 31.0381 50.8322 30.284C50.6779 29.8253 50.2532 29.5111 49.7695 29.4994C47.4651 29.4438 45.1446 29.7903 42.9641 30.5233C42.386 30.7175 42.0749 31.3437 42.2693 31.9217L42.2992 32.0107Z" fill="url(#paint99_linear_153_721)"/>
<path d="M47.5988 31.878L46.8481 29.6445C45.5268 29.8072 44.2221 30.1005 42.9641 30.5235C42.386 30.7177 42.0749 31.3439 42.2693 31.9218L42.2992 32.0109C42.4934 32.5889 43.1196 32.9 43.6975 32.7056C44.958 32.2819 46.2713 32.0054 47.5988 31.878Z" fill="url(#paint100_linear_153_721)"/>
<path d="M32.0486 27.8037C29.9493 27.8037 28.2476 29.5055 28.2476 31.6047C28.2476 33.7039 29.9493 35.4057 32.0486 35.4057C34.1478 35.4057 35.8496 33.7039 35.8496 31.6047C35.8496 29.5055 34.1478 27.8037 32.0486 27.8037ZM32.0486 33.0667C31.2412 33.0667 30.5867 32.4122 30.5867 31.6048C30.5867 30.7974 31.2412 30.1429 32.0486 30.1429C32.856 30.1429 33.5105 30.7974 33.5105 31.6048C33.5105 32.4122 32.856 33.0667 32.0486 33.0667Z" fill="url(#paint101_linear_153_721)"/>
<path d="M28.2476 31.6046C28.2476 33.7039 29.9493 35.4056 32.0487 35.4056C34.148 35.4056 35.8498 33.7039 35.8498 31.6046C35.8498 30.9 35.6573 30.2406 35.3231 29.6748H28.7742C28.4401 30.2407 28.2476 30.9 28.2476 31.6046ZM32.0487 30.1427C32.8561 30.1427 33.5106 30.7972 33.5106 31.6046C33.5106 32.412 32.8561 33.0665 32.0487 33.0665C31.2413 33.0665 30.5868 32.412 30.5868 31.6046C30.5868 30.7972 31.2413 30.1427 32.0487 30.1427Z" fill="url(#paint102_linear_153_721)"/>
<path d="M29.3609 34.2924C30.8453 35.7768 33.252 35.7768 34.7364 34.2924C36.2208 32.808 36.2208 30.4013 34.7364 28.9169C34.2382 28.4187 33.6358 28.0885 32.9995 27.9248L28.3687 32.5556C28.5325 33.1919 28.8627 33.7942 29.3609 34.2924ZM31.0149 30.5709C31.5858 30 32.5114 30 33.0824 30.5709C33.6533 31.1419 33.6533 32.0675 33.0824 32.6384C32.5114 33.2094 31.5858 33.2094 31.0149 32.6384C30.4439 32.0675 30.4439 31.1419 31.0149 30.5709Z" fill="url(#paint103_linear_153_721)"/>
<path d="M17.8782 28.5867C17.8223 29.5026 17.5754 30.4576 17.1385 31.382C17.819 30.389 18.284 29.3413 18.5143 28.3267C18.6458 27.7478 18.9963 27.1612 19.4828 26.6838L19.5368 26.6309C21.3744 24.8272 23.7855 25.5716 23.2032 27.7688C22.9097 28.8766 22.3411 30.0146 21.5214 31.0701C23.1946 30.1424 25.0162 29.3341 25.6256 29.1511C26.883 28.7733 28.2087 29.4863 28.5864 30.7438C28.9642 32.0012 28.2512 33.3269 26.9937 33.7047C26.3845 33.8878 24.4189 34.2174 22.5115 34.3655C23.7772 34.7944 24.879 35.4305 25.7344 36.1931C27.4313 37.7055 25.8298 39.6556 23.3023 39.1634L23.2282 39.1489C22.5591 39.0187 21.9433 38.7225 21.5146 38.3119C20.7632 37.5923 19.7977 36.9744 18.6827 36.5209C19.5568 37.0514 20.2892 37.7122 20.8405 38.4456C22.1013 40.1224 20.3497 41.8576 18.1792 41.0896L18.1155 41.0671C17.541 40.8637 17.0415 40.5036 16.7276 40.0518C15.8672 38.8136 14.5004 37.7589 12.8012 37.1577C12.7958 37.1557 12.7902 37.1537 12.7847 37.1519C11.8756 36.8322 10.8854 36.8267 9.96251 37.104L6.42587 38.1667C6.04196 38.282 5.61835 38.0868 5.49159 37.7065C5.36034 37.3131 5.58084 36.8918 5.97524 36.7733L9.54131 35.7019C10.4642 35.4246 11.2874 34.8742 11.8697 34.1064C11.8732 34.1017 11.8768 34.0971 11.8803 34.0924C12.9667 32.6542 13.5258 31.0209 13.5613 29.5134C13.5742 28.9636 13.7925 28.3877 14.1598 27.9014L14.2005 27.8474C15.5881 26.0103 18.0059 26.4927 17.8782 28.5867Z" fill="url(#paint104_linear_153_721)"/>
<path d="M5.97497 36.7732L9.54103 35.7018C10.4639 35.4245 11.2871 34.8741 11.8694 34.1063C11.8729 34.1016 11.8765 34.097 11.88 34.0923C12.9664 32.654 13.5256 31.0207 13.561 29.5133C13.5739 28.9635 13.7922 28.3875 14.1595 27.9013L14.2002 27.8473C15.5879 26.0102 18.0059 26.4927 17.8781 28.5867C17.8222 29.5026 17.5754 30.4576 17.1384 31.382C17.819 30.389 18.2839 29.3413 18.5143 28.3267C18.6457 27.7478 18.9963 27.1612 19.4828 26.6838L19.5367 26.6309C21.3743 24.8272 23.7855 25.5716 23.2032 27.7688C22.9096 28.8766 22.3411 30.0146 21.5213 31.0701C23.1945 30.1424 25.0162 29.3341 25.6255 29.1511C26.883 28.7733 28.2086 29.4863 28.5864 30.7438L5.4853 37.6847C5.36903 37.2976 5.58778 36.8896 5.97497 36.7732Z" fill="url(#paint105_linear_153_721)"/>
<path d="M14.1595 27.9016L14.2001 27.8476C15.5879 26.0105 18.0058 26.493 17.8781 28.587C17.8222 29.5029 17.5753 30.4579 17.1384 31.3823C17.8189 30.3893 18.2839 29.3416 18.5142 28.327C18.6457 27.7481 18.9962 27.1615 19.4827 26.6841L19.5367 26.6312C20.862 25.3304 22.485 25.3552 23.0689 26.2941C22.6971 27.3036 22.299 28.2062 21.8919 29.0106C20.4587 31.843 17.9117 33.9513 14.8716 34.8647L5.48526 37.6849C5.3691 37.2979 5.58774 36.8898 5.97493 36.7734L9.59776 35.6849C10.5032 35.4129 11.2986 34.8601 11.8694 34.1065L11.88 34.0925C12.9664 32.6542 13.5255 31.0209 13.561 29.5135C13.5739 28.9638 13.7922 28.3878 14.1595 27.9016Z" fill="url(#paint106_linear_153_721)"/>
<path d="M10.2848 36.2428L5.48526 37.685C5.3691 37.2979 5.58774 36.8898 5.97493 36.7734L9.59776 35.6849C10.5032 35.4129 11.2986 34.8601 11.8694 34.1065L11.88 34.0925C12.9664 32.6543 13.5255 31.021 13.561 29.5136C13.5739 28.9637 13.7922 28.3878 14.1595 27.9015L14.2001 27.8476C14.989 26.8033 16.1102 26.5093 16.9079 26.834C16.9071 29.0652 16.1499 30.9782 15.2221 32.4848C14.1019 34.3039 12.3307 35.6281 10.2848 36.2428Z" fill="url(#paint107_linear_153_721)"/>
<path d="M13.7397 37.5521C13.4397 37.4055 13.1266 37.2733 12.8009 37.1581C12.7954 37.1561 12.7898 37.1541 12.7843 37.1523C11.8752 36.8326 10.885 36.8271 9.96213 37.1043L6.42538 38.167C6.04148 38.2824 5.61787 38.0872 5.4911 37.7069C5.35985 37.3135 5.58035 36.8922 5.97476 36.7737L9.54082 35.7023C10.4637 35.425 11.2869 34.8746 11.8692 34.1068C11.8727 34.1021 11.8763 34.0975 11.8798 34.0928C12.0881 33.8172 12.2765 33.5343 12.4459 33.2466L13.7397 37.5521Z" fill="url(#paint108_linear_153_721)"/>
<path d="M18.1152 41.0673L18.1788 41.0899C20.3494 41.8579 22.1009 40.1226 20.8401 38.4458C20.2887 37.7125 19.5563 37.0516 18.6823 36.5212C19.7973 36.9746 20.7629 37.5926 21.5142 38.3122C21.943 38.7228 22.5588 39.019 23.2278 39.1492L23.3019 39.1637C25.1247 39.5186 26.4653 38.6032 26.435 37.498C25.5683 36.8607 24.7387 36.3269 23.9556 35.88C21.1986 34.3066 17.9113 33.9513 14.8712 34.8648L5.48486 37.685C5.60124 38.0721 6.00866 38.2921 6.39585 38.1757L10.0187 37.0872C10.9241 36.8152 11.8925 36.8379 12.7841 37.1521L12.8006 37.1579C14.4999 37.7592 15.8666 38.8139 16.727 40.0521C17.041 40.5037 17.5406 40.864 18.1152 41.0673Z" fill="url(#paint109_linear_153_721)"/>
<path d="M10.2845 36.2431L5.48486 37.6852C5.60124 38.0723 6.00866 38.2922 6.39585 38.1758L10.0187 37.0873C10.9241 36.8153 11.8925 36.8381 12.7841 37.1523L12.8006 37.1581C14.4999 37.7593 15.8666 38.814 16.727 40.0523C17.0408 40.5039 17.5404 40.8642 18.1149 41.0675L18.1786 41.09C19.4123 41.5265 20.5098 41.1539 20.9966 40.4433C19.7661 38.5821 18.0799 37.4032 16.4754 36.6574C14.5382 35.757 12.3303 35.6283 10.2845 36.2431Z" fill="url(#paint110_linear_153_721)"/>
<path d="M31.8985 53.661H24.101C19.623 53.661 15.6671 50.744 14.3436 46.4659L14.1179 45.7366C13.8726 44.9436 14.4654 44.1396 15.2954 44.1396H40.704C41.5342 44.1396 42.127 44.9436 41.8816 45.7366L41.6559 46.4659C40.3325 50.7439 36.3766 53.661 31.8985 53.661Z" fill="url(#paint111_linear_153_721)"/>
<path d="M14.3994 46.6396C15.7752 50.8227 19.6841 53.6609 24.1012 53.6609H31.8986C36.3158 53.6609 40.2246 50.8226 41.6004 46.6396H14.3994Z" fill="url(#paint112_linear_153_721)"/>
<path d="M40.7041 44.1396H25.7661V53.661H31.8986C36.3766 53.661 40.3325 50.744 41.656 46.4659L41.8816 45.7366C42.127 44.9436 41.5342 44.1396 40.7041 44.1396Z" fill="url(#paint113_linear_153_721)"/>
<path d="M35.8322 50.5925H20.1678C11.1717 50.5925 3.22458 44.7325 0.565672 36.1382L0.112313 34.673C-0.380531 33.0799 0.810344 31.4648 2.47798 31.4648H53.5221C55.1897 31.4648 56.3806 33.0799 55.8878 34.673L55.4344 36.1382C52.7754 44.7325 44.8283 50.5925 35.8322 50.5925Z" fill="url(#paint114_linear_153_721)"/>
<path d="M0.677734 36.4873C3.44164 44.8907 11.2942 50.5925 20.1679 50.5925H35.8324C44.7062 50.5925 52.5587 44.8907 55.3226 36.4873H0.677734Z" fill="url(#paint115_linear_153_721)"/>
<path d="M53.522 31.4648H23.5127V50.5925H35.8323C44.8284 50.5925 52.7754 44.7325 55.4343 36.1382L55.8877 34.673C56.3805 33.0799 55.1897 31.4648 53.522 31.4648Z" fill="url(#paint116_linear_153_721)"/>
</g>
<defs>
<linearGradient id="paint0_linear_153_721" x1="35.0695" y1="13.9005" x2="39.5917" y2="15.7718" gradientUnits="userSpaceOnUse">
<stop stop-color="#F89580"/>
<stop offset="1" stop-color="#C4573A"/>
</linearGradient>
<linearGradient id="paint1_linear_153_721" x1="35.8761" y1="17.3841" x2="33.8489" y2="22.8421" gradientUnits="userSpaceOnUse">
<stop stop-color="#C4573A" stop-opacity="0"/>
<stop offset="0.235" stop-color="#BE5539" stop-opacity="0.235"/>
<stop offset="0.539" stop-color="#AE4E35" stop-opacity="0.539"/>
<stop offset="0.8794" stop-color="#934330" stop-opacity="0.879"/>
<stop offset="1" stop-color="#883F2E"/>
</linearGradient>
<linearGradient id="paint2_linear_153_721" x1="11.9155" y1="21.1524" x2="4.66165" y2="28.2456" gradientUnits="userSpaceOnUse">
<stop stop-color="#78A91F"/>
<stop offset="0.1553" stop-color="#6DA423"/>
<stop offset="0.428" stop-color="#50992E"/>
<stop offset="0.7835" stop-color="#218741"/>
<stop offset="1" stop-color="#017B4E"/>
</linearGradient>
<linearGradient id="paint3_linear_153_721" x1="13.5523" y1="22.274" x2="7.33781" y2="26.0048" gradientUnits="userSpaceOnUse">
<stop stop-color="#017B4E" stop-opacity="0"/>
<stop offset="0.473" stop-color="#01774B" stop-opacity="0.473"/>
<stop offset="0.8807" stop-color="#016D44" stop-opacity="0.881"/>
<stop offset="1" stop-color="#026841"/>
</linearGradient>
<linearGradient id="paint4_linear_153_721" x1="5.90825" y1="26.5451" x2="12.139" y2="21.7932" gradientUnits="userSpaceOnUse">
<stop stop-color="#017B4E" stop-opacity="0"/>
<stop offset="0.473" stop-color="#01774B" stop-opacity="0.473"/>
<stop offset="0.8807" stop-color="#016D44" stop-opacity="0.881"/>
<stop offset="1" stop-color="#026841"/>
</linearGradient>
<linearGradient id="paint5_linear_153_721" x1="8.24901" y1="27.0125" x2="10.8558" y2="22.9619" gradientUnits="userSpaceOnUse">
<stop stop-color="#017B4E" stop-opacity="0"/>
<stop offset="0.473" stop-color="#01774B" stop-opacity="0.473"/>
<stop offset="0.8807" stop-color="#016D44" stop-opacity="0.881"/>
<stop offset="1" stop-color="#026841"/>
</linearGradient>
<linearGradient id="paint6_linear_153_721" x1="9.93851" y1="28.554" x2="12.112" y2="25.1766" gradientUnits="userSpaceOnUse">
<stop stop-color="#017B4E" stop-opacity="0"/>
<stop offset="0.473" stop-color="#01774B" stop-opacity="0.473"/>
<stop offset="0.8807" stop-color="#016D44" stop-opacity="0.881"/>
<stop offset="1" stop-color="#026841"/>
</linearGradient>
<linearGradient id="paint7_linear_153_721" x1="15.2106" y1="24.2703" x2="9.70187" y2="26.4336" gradientUnits="userSpaceOnUse">
<stop stop-color="#017B4E" stop-opacity="0"/>
<stop offset="0.473" stop-color="#01774B" stop-opacity="0.473"/>
<stop offset="0.8807" stop-color="#016D44" stop-opacity="0.881"/>
<stop offset="1" stop-color="#026841"/>
</linearGradient>
<linearGradient id="paint8_linear_153_721" x1="12.5946" y1="19.8725" x2="32.0258" y2="22.5556" gradientUnits="userSpaceOnUse">
<stop stop-color="#A274BF"/>
<stop offset="0.1435" stop-color="#976FBB"/>
<stop offset="0.3928" stop-color="#7B61B3"/>
<stop offset="0.7158" stop-color="#4D4BA4"/>
<stop offset="1" stop-color="#1F3596"/>
</linearGradient>
<linearGradient id="paint9_linear_153_721" x1="25.2387" y1="21.5788" x2="20.1139" y2="20.9517" gradientUnits="userSpaceOnUse">
<stop stop-color="#1F3596" stop-opacity="0"/>
<stop offset="0.2618" stop-color="#1E3190" stop-opacity="0.262"/>
<stop offset="0.6062" stop-color="#1D267F" stop-opacity="0.606"/>
<stop offset="0.9953" stop-color="#1B1464" stop-opacity="0.995"/>
<stop offset="1" stop-color="#1B1464"/>
</linearGradient>
<linearGradient id="paint10_linear_153_721" x1="23.8928" y1="25.2845" x2="21.5774" y2="21.8823" gradientUnits="userSpaceOnUse">
<stop stop-color="#1F3596" stop-opacity="0"/>
<stop offset="0.2618" stop-color="#1E3190" stop-opacity="0.262"/>
<stop offset="0.6062" stop-color="#1D267F" stop-opacity="0.606"/>
<stop offset="0.9953" stop-color="#1B1464" stop-opacity="0.995"/>
<stop offset="1" stop-color="#1B1464"/>
</linearGradient>
<linearGradient id="paint11_linear_153_721" x1="25.3423" y1="31.2066" x2="20.8415" y2="25.9768" gradientUnits="userSpaceOnUse">
<stop stop-color="#1F3596" stop-opacity="0"/>
<stop offset="0.2618" stop-color="#1E3190" stop-opacity="0.262"/>
<stop offset="0.6062" stop-color="#1D267F" stop-opacity="0.606"/>
<stop offset="0.9953" stop-color="#1B1464" stop-opacity="0.995"/>
<stop offset="1" stop-color="#1B1464"/>
</linearGradient>
<linearGradient id="paint12_linear_153_721" x1="22.9286" y1="28.0614" x2="23.698" y2="29.8606" gradientUnits="userSpaceOnUse">
<stop stop-color="#1F3596" stop-opacity="0"/>
<stop offset="0.2618" stop-color="#1E3190" stop-opacity="0.262"/>
<stop offset="0.6062" stop-color="#1D267F" stop-opacity="0.606"/>
<stop offset="0.9953" stop-color="#1B1464" stop-opacity="0.995"/>
<stop offset="1" stop-color="#1B1464"/>
</linearGradient>
<linearGradient id="paint13_linear_153_721" x1="16.4537" y1="22.3063" x2="20.478" y2="21.4455" gradientUnits="userSpaceOnUse">
<stop stop-color="#1F3596" stop-opacity="0"/>
<stop offset="0.2618" stop-color="#1E3190" stop-opacity="0.262"/>
<stop offset="0.6062" stop-color="#1D267F" stop-opacity="0.606"/>
<stop offset="0.9953" stop-color="#1B1464" stop-opacity="0.995"/>
<stop offset="1" stop-color="#1B1464"/>
</linearGradient>
<linearGradient id="paint14_linear_153_721" x1="13.054" y1="25.416" x2="17.6713" y2="24.9357" gradientUnits="userSpaceOnUse">
<stop stop-color="#1F3596" stop-opacity="0"/>
<stop offset="0.2618" stop-color="#1E3190" stop-opacity="0.262"/>
<stop offset="0.6062" stop-color="#1D267F" stop-opacity="0.606"/>
<stop offset="0.9953" stop-color="#1B1464" stop-opacity="0.995"/>
<stop offset="1" stop-color="#1B1464"/>
</linearGradient>
<linearGradient id="paint15_linear_153_721" x1="21.7578" y1="26.0441" x2="22.0524" y2="26.9709" gradientUnits="userSpaceOnUse">
<stop stop-color="#FFA1AE"/>
<stop offset="0.1759" stop-color="#FF9AA8"/>
<stop offset="0.4315" stop-color="#FF8699"/>
<stop offset="0.7343" stop-color="#FF6780"/>
<stop offset="1" stop-color="#FF4565"/>
</linearGradient>
<linearGradient id="paint16_linear_153_721" x1="23.0413" y1="26.2228" x2="19.4704" y2="27.6142" gradientUnits="userSpaceOnUse">
<stop stop-color="#FD4755" stop-opacity="0"/>
<stop offset="0.2613" stop-color="#F64452" stop-opacity="0.261"/>
<stop offset="0.6438" stop-color="#E33A4B" stop-opacity="0.644"/>
<stop offset="1" stop-color="#CA2E43"/>
</linearGradient>
<linearGradient id="paint17_linear_153_721" x1="24.2223" y1="19.8958" x2="24.5168" y2="20.8227" gradientUnits="userSpaceOnUse">
<stop stop-color="#FFA1AE"/>
<stop offset="0.1759" stop-color="#FF9AA8"/>
<stop offset="0.4315" stop-color="#FF8699"/>
<stop offset="0.7343" stop-color="#FF6780"/>
<stop offset="1" stop-color="#FF4565"/>
</linearGradient>
<linearGradient id="paint18_linear_153_721" x1="24.7608" y1="20.5678" x2="21.9611" y2="21.3803" gradientUnits="userSpaceOnUse">
<stop stop-color="#FD4755" stop-opacity="0"/>
<stop offset="0.2613" stop-color="#F64452" stop-opacity="0.261"/>
<stop offset="0.6438" stop-color="#E33A4B" stop-opacity="0.644"/>
<stop offset="1" stop-color="#CA2E43"/>
</linearGradient>
<linearGradient id="paint19_linear_153_721" x1="17.4721" y1="24.3301" x2="16.6189" y2="24.7968" gradientUnits="userSpaceOnUse">
<stop stop-color="#FFA1AE"/>
<stop offset="0.1759" stop-color="#FF9AA8"/>
<stop offset="0.4315" stop-color="#FF8699"/>
<stop offset="0.7343" stop-color="#FF6780"/>
<stop offset="1" stop-color="#FF4565"/>
</linearGradient>
<linearGradient id="paint20_linear_153_721" x1="19.9366" y1="18.1814" x2="19.0833" y2="18.6483" gradientUnits="userSpaceOnUse">
<stop stop-color="#FFA1AE"/>
<stop offset="0.1759" stop-color="#FF9AA8"/>
<stop offset="0.4315" stop-color="#FF8699"/>
<stop offset="0.7343" stop-color="#FF6780"/>
<stop offset="1" stop-color="#FF4565"/>
</linearGradient>
<linearGradient id="paint21_linear_153_721" x1="18.3757" y1="26.7998" x2="19.9354" y2="27.4251" gradientUnits="userSpaceOnUse">
<stop stop-color="#FFA1AE"/>
<stop offset="0.1759" stop-color="#FF9AA8"/>
<stop offset="0.4315" stop-color="#FF8699"/>
<stop offset="0.7343" stop-color="#FF6780"/>
<stop offset="1" stop-color="#FF4565"/>
</linearGradient>
<linearGradient id="paint22_linear_153_721" x1="17.6235" y1="30.1368" x2="16.0218" y2="34.1324" gradientUnits="userSpaceOnUse">
<stop stop-color="#FD4755" stop-opacity="0"/>
<stop offset="0.2613" stop-color="#F64452" stop-opacity="0.261"/>
<stop offset="0.6438" stop-color="#E33A4B" stop-opacity="0.644"/>
<stop offset="1" stop-color="#CA2E43"/>
</linearGradient>
<linearGradient id="paint23_linear_153_721" x1="54.3994" y1="22.5301" x2="38.519" y2="22.6769" gradientUnits="userSpaceOnUse">
<stop stop-color="#A274BF"/>
<stop offset="0.1435" stop-color="#976FBB"/>
<stop offset="0.3928" stop-color="#7B61B3"/>
<stop offset="0.7158" stop-color="#4D4BA4"/>
<stop offset="1" stop-color="#1F3596"/>
</linearGradient>
<linearGradient id="paint24_linear_153_721" x1="44.0265" y1="22.6043" x2="48.209" y2="22.6285" gradientUnits="userSpaceOnUse">
<stop stop-color="#1F3596" stop-opacity="0"/>
<stop offset="0.2618" stop-color="#1E3190" stop-opacity="0.262"/>
<stop offset="0.6062" stop-color="#1D267F" stop-opacity="0.606"/>
<stop offset="0.9953" stop-color="#1B1464" stop-opacity="0.995"/>
<stop offset="1" stop-color="#1B1464"/>
</linearGradient>
<linearGradient id="paint25_linear_153_721" x1="44.7263" y1="25.7203" x2="46.9374" y2="23.2251" gradientUnits="userSpaceOnUse">
<stop stop-color="#1F3596" stop-opacity="0"/>
<stop offset="0.2618" stop-color="#1E3190" stop-opacity="0.262"/>
<stop offset="0.6062" stop-color="#1D267F" stop-opacity="0.606"/>
<stop offset="0.9953" stop-color="#1B1464" stop-opacity="0.995"/>
<stop offset="1" stop-color="#1B1464"/>
</linearGradient>
<linearGradient id="paint26_linear_153_721" x1="42.9512" y1="30.3299" x2="47.1066" y2="26.5915" gradientUnits="userSpaceOnUse">
<stop stop-color="#1F3596" stop-opacity="0"/>
<stop offset="0.2618" stop-color="#1E3190" stop-opacity="0.262"/>
<stop offset="0.6062" stop-color="#1D267F" stop-opacity="0.606"/>
<stop offset="0.9953" stop-color="#1B1464" stop-opacity="0.995"/>
<stop offset="1" stop-color="#1B1464"/>
</linearGradient>
<linearGradient id="paint27_linear_153_721" x1="45.2148" y1="28.0515" x2="44.411" y2="29.4178" gradientUnits="userSpaceOnUse">
<stop stop-color="#1F3596" stop-opacity="0"/>
<stop offset="0.2618" stop-color="#1E3190" stop-opacity="0.262"/>
<stop offset="0.6062" stop-color="#1D267F" stop-opacity="0.606"/>
<stop offset="0.9953" stop-color="#1B1464" stop-opacity="0.995"/>
<stop offset="1" stop-color="#1B1464"/>
</linearGradient>
<linearGradient id="paint28_linear_153_721" x1="51.0221" y1="24.0922" x2="47.8772" y2="22.9859" gradientUnits="userSpaceOnUse">
<stop stop-color="#1F3596" stop-opacity="0"/>
<stop offset="0.2618" stop-color="#1E3190" stop-opacity="0.262"/>
<stop offset="0.6062" stop-color="#1D267F" stop-opacity="0.606"/>
<stop offset="0.9953" stop-color="#1B1464" stop-opacity="0.995"/>
<stop offset="1" stop-color="#1B1464"/>
</linearGradient>
<linearGradient id="paint29_linear_153_721" x1="53.4214" y1="26.9426" x2="49.7609" y2="26.0808" gradientUnits="userSpaceOnUse">
<stop stop-color="#1F3596" stop-opacity="0"/>
<stop offset="0.2618" stop-color="#1E3190" stop-opacity="0.262"/>
<stop offset="0.6062" stop-color="#1D267F" stop-opacity="0.606"/>
<stop offset="0.9953" stop-color="#1B1464" stop-opacity="0.995"/>
<stop offset="1" stop-color="#1B1464"/>
</linearGradient>
<linearGradient id="paint30_linear_153_721" x1="46.3628" y1="26.5513" x2="46.0307" y2="27.2658" gradientUnits="userSpaceOnUse">
<stop stop-color="#FFA1AE"/>
<stop offset="0.1759" stop-color="#FF9AA8"/>
<stop offset="0.4315" stop-color="#FF8699"/>
<stop offset="0.7343" stop-color="#FF6780"/>
<stop offset="1" stop-color="#FF4565"/>
</linearGradient>
<linearGradient id="paint31_linear_153_721" x1="45.3131" y1="26.5627" x2="48.0391" y2="28.0486" gradientUnits="userSpaceOnUse">
<stop stop-color="#FD4755" stop-opacity="0"/>
<stop offset="0.2613" stop-color="#F64452" stop-opacity="0.261"/>
<stop offset="0.6438" stop-color="#E33A4B" stop-opacity="0.644"/>
<stop offset="1" stop-color="#CA2E43"/>
</linearGradient>
<linearGradient id="paint32_linear_153_721" x1="45.016" y1="21.357" x2="44.6838" y2="22.0713" gradientUnits="userSpaceOnUse">
<stop stop-color="#FFA1AE"/>
<stop offset="0.1759" stop-color="#FF9AA8"/>
<stop offset="0.4315" stop-color="#FF8699"/>
<stop offset="0.7343" stop-color="#FF6780"/>
<stop offset="1" stop-color="#FF4565"/>
</linearGradient>
<linearGradient id="paint33_linear_153_721" x1="44.5141" y1="21.8413" x2="46.68" y2="22.7827" gradientUnits="userSpaceOnUse">
<stop stop-color="#FD4755" stop-opacity="0"/>
<stop offset="0.2613" stop-color="#F64452" stop-opacity="0.261"/>
<stop offset="0.6438" stop-color="#E33A4B" stop-opacity="0.644"/>
<stop offset="1" stop-color="#CA2E43"/>
</linearGradient>
<linearGradient id="paint34_linear_153_721" x1="49.9952" y1="25.6138" x2="50.6327" y2="26.0769" gradientUnits="userSpaceOnUse">
<stop stop-color="#FFA1AE"/>
<stop offset="0.1759" stop-color="#FF9AA8"/>
<stop offset="0.4315" stop-color="#FF8699"/>
<stop offset="0.7343" stop-color="#FF6780"/>
<stop offset="1" stop-color="#FF4565"/>
</linearGradient>
<linearGradient id="paint35_linear_153_721" x1="48.6484" y1="20.4195" x2="49.2858" y2="20.8824" gradientUnits="userSpaceOnUse">
<stop stop-color="#FFA1AE"/>
<stop offset="0.1759" stop-color="#FF9AA8"/>
<stop offset="0.4315" stop-color="#FF8699"/>
<stop offset="0.7343" stop-color="#FF6780"/>
<stop offset="1" stop-color="#FF4565"/>
</linearGradient>
<linearGradient id="paint36_linear_153_721" x1="49.0032" y1="27.5065" x2="47.6855" y2="27.8482" gradientUnits="userSpaceOnUse">
<stop stop-color="#FFA1AE"/>
<stop offset="0.1759" stop-color="#FF9AA8"/>
<stop offset="0.4315" stop-color="#FF8699"/>
<stop offset="0.7343" stop-color="#FF6780"/>
<stop offset="1" stop-color="#FF4565"/>
</linearGradient>
<linearGradient id="paint37_linear_153_721" x1="49.2633" y1="30.2653" x2="50.1386" y2="33.6409" gradientUnits="userSpaceOnUse">
<stop stop-color="#FD4755" stop-opacity="0"/>
<stop offset="0.2613" stop-color="#F64452" stop-opacity="0.261"/>
<stop offset="0.6438" stop-color="#E33A4B" stop-opacity="0.644"/>
<stop offset="1" stop-color="#CA2E43"/>
</linearGradient>
<linearGradient id="paint38_linear_153_721" x1="2.82811" y1="27.4359" x2="5.43069" y2="31.7733" gradientUnits="userSpaceOnUse">
<stop stop-color="#5A5A5A"/>
<stop offset="1" stop-color="#444444"/>
</linearGradient>
<linearGradient id="paint39_linear_153_721" x1="3.80111" y1="30.0124" x2="3.80111" y2="32.653" gradientUnits="userSpaceOnUse">
<stop stop-color="#433F43" stop-opacity="0"/>
<stop offset="1" stop-color="#1A1A1A"/>
</linearGradient>
<linearGradient id="paint40_linear_153_721" x1="3.78713" y1="29.0474" x2="5.58044" y2="30.3339" gradientUnits="userSpaceOnUse">
<stop stop-color="#433F43" stop-opacity="0"/>
<stop offset="1" stop-color="#1A1A1A"/>
</linearGradient>
<linearGradient id="paint41_linear_153_721" x1="41.1377" y1="16.0526" x2="43.7401" y2="20.39" gradientUnits="userSpaceOnUse">
<stop stop-color="#5A5A5A"/>
<stop offset="1" stop-color="#444444"/>
</linearGradient>
<linearGradient id="paint42_linear_153_721" x1="42.1107" y1="18.6291" x2="42.1107" y2="21.2697" gradientUnits="userSpaceOnUse">
<stop stop-color="#433F43" stop-opacity="0"/>
<stop offset="1" stop-color="#1A1A1A"/>
</linearGradient>
<linearGradient id="paint43_linear_153_721" x1="42.0968" y1="17.6641" x2="43.8901" y2="18.9506" gradientUnits="userSpaceOnUse">
<stop stop-color="#433F43" stop-opacity="0"/>
<stop offset="1" stop-color="#1A1A1A"/>
</linearGradient>
<linearGradient id="paint44_linear_153_721" x1="11.2619" y1="21.639" x2="10.6816" y2="23.4809" gradientUnits="userSpaceOnUse">
<stop stop-color="#FEF0AE"/>
<stop offset="1" stop-color="#FAC600"/>
</linearGradient>
<linearGradient id="paint45_linear_153_721" x1="8.95434" y1="22.1161" x2="7.14482" y2="22.5071" gradientUnits="userSpaceOnUse">
<stop stop-color="#FE9738" stop-opacity="0"/>
<stop offset="1" stop-color="#FE9738"/>
</linearGradient>
<linearGradient id="paint46_linear_153_721" x1="8.07515" y1="24.4398" x2="8.34662" y2="35.7943" gradientUnits="userSpaceOnUse">
<stop stop-color="#78A91F"/>
<stop offset="0.1553" stop-color="#6DA423"/>
<stop offset="0.428" stop-color="#50992E"/>
<stop offset="0.7835" stop-color="#218741"/>
<stop offset="1" stop-color="#017B4E"/>
</linearGradient>
<linearGradient id="paint47_linear_153_721" x1="10.7659" y1="26.782" x2="20.8425" y2="41.7442" gradientUnits="userSpaceOnUse">
<stop stop-color="#D1F19E"/>
<stop offset="1" stop-color="#78A91F"/>
</linearGradient>
<linearGradient id="paint48_linear_153_721" x1="12.1036" y1="33.8485" x2="10.2037" y2="40.4984" gradientUnits="userSpaceOnUse">
<stop stop-color="#026841" stop-opacity="0"/>
<stop offset="0.3243" stop-color="#046842" stop-opacity="0.324"/>
<stop offset="0.5509" stop-color="#0E6546" stop-opacity="0.551"/>
<stop offset="0.7476" stop-color="#1D614C" stop-opacity="0.748"/>
<stop offset="0.9263" stop-color="#335C54" stop-opacity="0.926"/>
<stop offset="1" stop-color="#3E5959"/>
</linearGradient>
<linearGradient id="paint49_linear_153_721" x1="15.7887" y1="32.6737" x2="20.4935" y2="36.926" gradientUnits="userSpaceOnUse">
<stop stop-color="#026841" stop-opacity="0"/>
<stop offset="0.3243" stop-color="#046842" stop-opacity="0.324"/>
<stop offset="0.5509" stop-color="#0E6546" stop-opacity="0.551"/>
<stop offset="0.7476" stop-color="#1D614C" stop-opacity="0.748"/>
<stop offset="0.9263" stop-color="#335C54" stop-opacity="0.926"/>
<stop offset="1" stop-color="#3E5959"/>
</linearGradient>
<linearGradient id="paint50_linear_153_721" x1="12.621" y1="21.6882" x2="17.3031" y2="33.3142" gradientUnits="userSpaceOnUse">
<stop stop-color="white" stop-opacity="0"/>
<stop offset="1" stop-color="white"/>
</linearGradient>
<linearGradient id="paint51_linear_153_721" x1="8.27895" y1="29.7198" x2="17.4847" y2="39.7172" gradientUnits="userSpaceOnUse">
<stop stop-color="white" stop-opacity="0"/>
<stop offset="1" stop-color="white"/>
</linearGradient>
<linearGradient id="paint52_linear_153_721" x1="14.803" y1="29.4826" x2="17.5398" y2="37.5801" gradientUnits="userSpaceOnUse">
<stop stop-color="white" stop-opacity="0"/>
<stop offset="1" stop-color="white"/>
</linearGradient>
<linearGradient id="paint53_linear_153_721" x1="7.41903" y1="22.3241" x2="12.7118" y2="33.9049" gradientUnits="userSpaceOnUse">
<stop stop-color="white" stop-opacity="0"/>
<stop offset="1" stop-color="white"/>
</linearGradient>
<linearGradient id="paint54_linear_153_721" x1="13.9747" y1="24.2964" x2="14.6668" y2="28.5854" gradientUnits="userSpaceOnUse">
<stop stop-color="white" stop-opacity="0"/>
<stop offset="1" stop-color="white"/>
</linearGradient>
<linearGradient id="paint55_linear_153_721" x1="11.146" y1="31.085" x2="11.8381" y2="35.374" gradientUnits="userSpaceOnUse">
<stop stop-color="white" stop-opacity="0"/>
<stop offset="1" stop-color="white"/>
</linearGradient>
<linearGradient id="paint56_linear_153_721" x1="16.5722" y1="30.7212" x2="14.4271" y2="32.0479" gradientUnits="userSpaceOnUse">
<stop stop-color="white" stop-opacity="0"/>
<stop offset="1" stop-color="white"/>
</linearGradient>
<linearGradient id="paint57_linear_153_721" x1="15.4618" y1="30.0701" x2="15.8321" y2="27.5768" gradientUnits="userSpaceOnUse">
<stop stop-color="white" stop-opacity="0"/>
<stop offset="1" stop-color="white"/>
</linearGradient>
<linearGradient id="paint58_linear_153_721" x1="10.5753" y1="31.0814" x2="8.43009" y2="32.4082" gradientUnits="userSpaceOnUse">
<stop stop-color="white" stop-opacity="0"/>
<stop offset="1" stop-color="white"/>
</linearGradient>
<linearGradient id="paint59_linear_153_721" x1="10.9929" y1="27.8093" x2="8.20557" y2="29.5332" gradientUnits="userSpaceOnUse">
<stop stop-color="white" stop-opacity="0"/>
<stop offset="1" stop-color="white"/>
</linearGradient>
<linearGradient id="paint60_linear_153_721" x1="10.6801" y1="24.4599" x2="10.8751" y2="27.7279" gradientUnits="userSpaceOnUse">
<stop stop-color="white" stop-opacity="0"/>
<stop offset="1" stop-color="white"/>
</linearGradient>
<linearGradient id="paint61_linear_153_721" x1="14.7694" y1="31.7174" x2="14.9644" y2="34.9855" gradientUnits="userSpaceOnUse">
<stop stop-color="white" stop-opacity="0"/>
<stop offset="1" stop-color="white"/>
</linearGradient>
<linearGradient id="paint62_linear_153_721" x1="23.5025" y1="26.1102" x2="28.0892" y2="35.1599" gradientUnits="userSpaceOnUse">
<stop stop-color="#78A91F"/>
<stop offset="0.1553" stop-color="#6DA423"/>
<stop offset="0.428" stop-color="#50992E"/>
<stop offset="0.7835" stop-color="#218741"/>
<stop offset="1" stop-color="#017B4E"/>
</linearGradient>
<linearGradient id="paint63_linear_153_721" x1="21.5917" y1="26.6461" x2="26.2759" y2="32.1775" gradientUnits="userSpaceOnUse">
<stop stop-color="#017B4E" stop-opacity="0"/>
<stop offset="0.473" stop-color="#01774B" stop-opacity="0.473"/>
<stop offset="0.8807" stop-color="#016D44" stop-opacity="0.881"/>
<stop offset="1" stop-color="#026841"/>
</linearGradient>
<linearGradient id="paint64_linear_153_721" x1="27.4559" y1="33.1492" x2="23.0848" y2="26.6455" gradientUnits="userSpaceOnUse">
<stop stop-color="#017B4E" stop-opacity="0"/>
<stop offset="0.473" stop-color="#01774B" stop-opacity="0.473"/>
<stop offset="0.8807" stop-color="#016D44" stop-opacity="0.881"/>
<stop offset="1" stop-color="#026841"/>
</linearGradient>
<linearGradient id="paint65_linear_153_721" x1="25.0891" y1="32.8389" x2="23.9237" y2="28.1649" gradientUnits="userSpaceOnUse">
<stop stop-color="#017B4E" stop-opacity="0"/>
<stop offset="0.473" stop-color="#01774B" stop-opacity="0.473"/>
<stop offset="0.8807" stop-color="#016D44" stop-opacity="0.881"/>
<stop offset="1" stop-color="#026841"/>
</linearGradient>
<linearGradient id="paint66_linear_153_721" x1="22.9937" y1="33.7544" x2="22.0219" y2="29.8574" gradientUnits="userSpaceOnUse">
<stop stop-color="#017B4E" stop-opacity="0"/>
<stop offset="0.473" stop-color="#01774B" stop-opacity="0.473"/>
<stop offset="0.8807" stop-color="#016D44" stop-opacity="0.881"/>
<stop offset="1" stop-color="#026841"/>
</linearGradient>
<linearGradient id="paint67_linear_153_721" x1="19.3796" y1="28.0027" x2="23.8999" y2="31.8229" gradientUnits="userSpaceOnUse">
<stop stop-color="#017B4E" stop-opacity="0"/>
<stop offset="0.473" stop-color="#01774B" stop-opacity="0.473"/>
<stop offset="0.8807" stop-color="#016D44" stop-opacity="0.881"/>
<stop offset="1" stop-color="#026841"/>
</linearGradient>
<linearGradient id="paint68_linear_153_721" x1="24.5972" y1="28.744" x2="23.7621" y2="30.4866" gradientUnits="userSpaceOnUse">
<stop stop-color="#FEF0AE"/>
<stop offset="1" stop-color="#FAC600"/>
</linearGradient>
<linearGradient id="paint69_linear_153_721" x1="22.2439" y1="28.8905" x2="20.3961" y2="29.0221" gradientUnits="userSpaceOnUse">
<stop stop-color="#FE9738" stop-opacity="0"/>
<stop offset="1" stop-color="#FE9738"/>
</linearGradient>
<linearGradient id="paint70_linear_153_721" x1="46.1062" y1="21.7707" x2="43.7207" y2="32.3148" gradientUnits="userSpaceOnUse">
<stop stop-color="#FD4755"/>
<stop offset="1" stop-color="#A72B2B"/>
</linearGradient>
<linearGradient id="paint71_linear_153_721" x1="44.707" y1="58.0767" x2="44.707" y2="-1.88631" gradientUnits="userSpaceOnUse">
<stop stop-color="#FFA1AE"/>
<stop offset="0.1812" stop-color="#FF9AA8" stop-opacity="0.819"/>
<stop offset="0.4447" stop-color="#FF8699" stop-opacity="0.555"/>
<stop offset="0.7568" stop-color="#FF6780" stop-opacity="0.243"/>
<stop offset="1" stop-color="#FF4968" stop-opacity="0"/>
</linearGradient>
<linearGradient id="paint72_linear_153_721" x1="41.2449" y1="30.8653" x2="37.6206" y2="34.4896" gradientUnits="userSpaceOnUse">
<stop stop-color="#A72B2B" stop-opacity="0"/>
<stop offset="0.2378" stop-color="#A22C2B" stop-opacity="0.238"/>
<stop offset="0.5507" stop-color="#912E29" stop-opacity="0.551"/>
<stop offset="0.9042" stop-color="#763227" stop-opacity="0.904"/>
<stop offset="1" stop-color="#6D3326"/>
</linearGradient>
<linearGradient id="paint73_linear_153_721" x1="45.7255" y1="32.3275" x2="46.7981" y2="37.5115" gradientUnits="userSpaceOnUse">
<stop stop-color="#A72B2B" stop-opacity="0"/>
<stop offset="0.2378" stop-color="#A22C2B" stop-opacity="0.238"/>
<stop offset="0.5507" stop-color="#912E29" stop-opacity="0.551"/>
<stop offset="0.9042" stop-color="#763227" stop-opacity="0.904"/>
<stop offset="1" stop-color="#6D3326"/>
</linearGradient>
<linearGradient id="paint74_linear_153_721" x1="41.9127" y1="19.8309" x2="41.3287" y2="32.0945" gradientUnits="userSpaceOnUse">
<stop stop-color="#FD4755"/>
<stop offset="1" stop-color="#A72B2B"/>
</linearGradient>
<linearGradient id="paint75_linear_153_721" x1="40.7025" y1="25.3107" x2="37.6636" y2="24.0594" gradientUnits="userSpaceOnUse">
<stop stop-color="#A72B2B" stop-opacity="0"/>
<stop offset="0.2378" stop-color="#A22C2B" stop-opacity="0.238"/>
<stop offset="0.5507" stop-color="#912E29" stop-opacity="0.551"/>
<stop offset="0.9042" stop-color="#763227" stop-opacity="0.904"/>
<stop offset="1" stop-color="#6D3326"/>
</linearGradient>
<linearGradient id="paint76_linear_153_721" x1="41.6297" y1="25.4282" x2="41.3914" y2="20.0655" gradientUnits="userSpaceOnUse">
<stop stop-color="#A72B2B" stop-opacity="0"/>
<stop offset="0.2378" stop-color="#A22C2B" stop-opacity="0.238"/>
<stop offset="0.5507" stop-color="#912E29" stop-opacity="0.551"/>
<stop offset="0.9042" stop-color="#763227" stop-opacity="0.904"/>
<stop offset="1" stop-color="#6D3326"/>
</linearGradient>
<linearGradient id="paint77_linear_153_721" x1="46.8564" y1="25.7674" x2="46.3736" y2="35.9058" gradientUnits="userSpaceOnUse">
<stop stop-color="#FD4755"/>
<stop offset="1" stop-color="#A72B2B"/>
</linearGradient>
<linearGradient id="paint78_linear_153_721" x1="48.2489" y1="32.5934" x2="44.4354" y2="28.5415" gradientUnits="userSpaceOnUse">
<stop stop-color="#A72B2B" stop-opacity="0"/>
<stop offset="0.2378" stop-color="#A22C2B" stop-opacity="0.238"/>
<stop offset="0.5507" stop-color="#912E29" stop-opacity="0.551"/>
<stop offset="0.9042" stop-color="#763227" stop-opacity="0.904"/>
<stop offset="1" stop-color="#6D3326"/>
</linearGradient>
<linearGradient id="paint79_linear_153_721" x1="46.9568" y1="30.1314" x2="48.2081" y2="26.4966" gradientUnits="userSpaceOnUse">
<stop stop-color="#A72B2B" stop-opacity="0"/>
<stop offset="0.2378" stop-color="#A22C2B" stop-opacity="0.238"/>
<stop offset="0.5507" stop-color="#912E29" stop-opacity="0.551"/>
<stop offset="0.9042" stop-color="#763227" stop-opacity="0.904"/>
<stop offset="1" stop-color="#6D3326"/>
</linearGradient>
<linearGradient id="paint80_linear_153_721" x1="44.1376" y1="22.1621" x2="43.5066" y2="22.3391" gradientUnits="userSpaceOnUse">
<stop stop-color="#FAC600"/>
<stop offset="1" stop-color="#FE9738"/>
</linearGradient>
<linearGradient id="paint81_linear_153_721" x1="42.3043" y1="21.9571" x2="41.796" y2="22.3709" gradientUnits="userSpaceOnUse">
<stop stop-color="#FAC600"/>
<stop offset="1" stop-color="#FE9738"/>
</linearGradient>
<linearGradient id="paint82_linear_153_721" x1="40.5821" y1="22.9534" x2="40.3324" y2="23.5589" gradientUnits="userSpaceOnUse">
<stop stop-color="#FAC600"/>
<stop offset="1" stop-color="#FE9738"/>
</linearGradient>
<linearGradient id="paint83_linear_153_721" x1="39.0217" y1="24.8592" x2="39.1404" y2="25.504" gradientUnits="userSpaceOnUse">
<stop stop-color="#FAC600"/>
<stop offset="1" stop-color="#FE9738"/>
</linearGradient>
<linearGradient id="paint84_linear_153_721" x1="38.487" y1="26.6664" x2="38.7402" y2="27.2711" gradientUnits="userSpaceOnUse">
<stop stop-color="#FAC600"/>
<stop offset="1" stop-color="#FE9738"/>
</linearGradient>
<linearGradient id="paint85_linear_153_721" x1="38.7894" y1="28.7986" x2="39.2871" y2="29.2253" gradientUnits="userSpaceOnUse">
<stop stop-color="#FAC600"/>
<stop offset="1" stop-color="#FE9738"/>
</linearGradient>
<linearGradient id="paint86_linear_153_721" x1="49.9568" y1="27.982" x2="49.7799" y2="28.6129" gradientUnits="userSpaceOnUse">
<stop stop-color="#FAC600"/>
<stop offset="1" stop-color="#FE9738"/>
</linearGradient>
<linearGradient id="paint87_linear_153_721" x1="50.163" y1="29.815" x2="49.7492" y2="30.3232" gradientUnits="userSpaceOnUse">
<stop stop-color="#FAC600"/>
<stop offset="1" stop-color="#FE9738"/>
</linearGradient>
<linearGradient id="paint88_linear_153_721" x1="49.1612" y1="31.5328" x2="48.5556" y2="31.7826" gradientUnits="userSpaceOnUse">
<stop stop-color="#FAC600"/>
<stop offset="1" stop-color="#FE9738"/>
</linearGradient>
<linearGradient id="paint89_linear_153_721" x1="47.2594" y1="33.1039" x2="46.6145" y2="32.9852" gradientUnits="userSpaceOnUse">
<stop stop-color="#FAC600"/>
<stop offset="1" stop-color="#FE9738"/>
</linearGradient>
<linearGradient id="paint90_linear_153_721" x1="45.4553" y1="33.6336" x2="44.8507" y2="33.3804" gradientUnits="userSpaceOnUse">
<stop stop-color="#FAC600"/>
<stop offset="1" stop-color="#FE9738"/>
</linearGradient>
<linearGradient id="paint91_linear_153_721" x1="43.3203" y1="33.335" x2="42.8934" y2="32.8373" gradientUnits="userSpaceOnUse">
<stop stop-color="#FAC600"/>
<stop offset="1" stop-color="#FE9738"/>
</linearGradient>
<linearGradient id="paint92_linear_153_721" x1="41.5946" y1="25.3809" x2="36.7796" y2="38.5458" gradientUnits="userSpaceOnUse">
<stop stop-color="#D1F19E"/>
<stop offset="1" stop-color="#78A91F"/>
</linearGradient>
<linearGradient id="paint93_linear_153_721" x1="37.1849" y1="33.5361" x2="41.5803" y2="28.422" gradientUnits="userSpaceOnUse">
<stop stop-color="#026841" stop-opacity="0"/>
<stop offset="0.3243" stop-color="#046842" stop-opacity="0.324"/>
<stop offset="0.5509" stop-color="#0E6546" stop-opacity="0.551"/>
<stop offset="0.7476" stop-color="#1D614C" stop-opacity="0.748"/>
<stop offset="0.9263" stop-color="#335C54" stop-opacity="0.926"/>
<stop offset="1" stop-color="#3E5959"/>
</linearGradient>
<linearGradient id="paint94_linear_153_721" x1="39.4304" y1="34.6157" x2="42.1933" y2="28.3738" gradientUnits="userSpaceOnUse">
<stop stop-color="#026841" stop-opacity="0"/>
<stop offset="0.3243" stop-color="#046842" stop-opacity="0.324"/>
<stop offset="0.5509" stop-color="#0E6546" stop-opacity="0.551"/>
<stop offset="0.7476" stop-color="#1D614C" stop-opacity="0.748"/>
<stop offset="0.9263" stop-color="#335C54" stop-opacity="0.926"/>
<stop offset="1" stop-color="#3E5959"/>
</linearGradient>
<linearGradient id="paint95_linear_153_721" x1="41.23" y1="38.3821" x2="42.9538" y2="31.7377" gradientUnits="userSpaceOnUse">
<stop stop-color="#026841" stop-opacity="0"/>
<stop offset="0.3243" stop-color="#046842" stop-opacity="0.324"/>
<stop offset="0.5509" stop-color="#0E6546" stop-opacity="0.551"/>
<stop offset="0.7476" stop-color="#1D614C" stop-opacity="0.748"/>
<stop offset="0.9263" stop-color="#335C54" stop-opacity="0.926"/>
<stop offset="1" stop-color="#3E5959"/>
</linearGradient>
<linearGradient id="paint96_linear_153_721" x1="44.9971" y1="34.3562" x2="46.9488" y2="35.7558" gradientUnits="userSpaceOnUse">
<stop stop-color="#026841" stop-opacity="0"/>
<stop offset="0.3243" stop-color="#046842" stop-opacity="0.324"/>
<stop offset="0.5509" stop-color="#0E6546" stop-opacity="0.551"/>
<stop offset="0.7476" stop-color="#1D614C" stop-opacity="0.748"/>
<stop offset="0.9263" stop-color="#335C54" stop-opacity="0.926"/>
<stop offset="1" stop-color="#3E5959"/>
</linearGradient>
<linearGradient id="paint97_linear_153_721" x1="43.5322" y1="28.9578" x2="38.5065" y2="33.5772" gradientUnits="userSpaceOnUse">
<stop stop-color="#026841" stop-opacity="0"/>
<stop offset="0.3243" stop-color="#046842" stop-opacity="0.324"/>
<stop offset="0.5509" stop-color="#0E6546" stop-opacity="0.551"/>
<stop offset="0.7476" stop-color="#1D614C" stop-opacity="0.748"/>
<stop offset="0.9263" stop-color="#335C54" stop-opacity="0.926"/>
<stop offset="1" stop-color="#3E5959"/>
</linearGradient>
<linearGradient id="paint98_linear_153_721" x1="46.4377" y1="30.2667" x2="40.6975" y2="34.0309" gradientUnits="userSpaceOnUse">
<stop stop-color="#026841" stop-opacity="0"/>
<stop offset="0.3243" stop-color="#046842" stop-opacity="0.324"/>
<stop offset="0.5509" stop-color="#0E6546" stop-opacity="0.551"/>
<stop offset="0.7476" stop-color="#1D614C" stop-opacity="0.748"/>
<stop offset="0.9263" stop-color="#335C54" stop-opacity="0.926"/>
<stop offset="1" stop-color="#3E5959"/>
</linearGradient>
<linearGradient id="paint99_linear_153_721" x1="46.4383" y1="30.2949" x2="46.717" y2="32.2067" gradientUnits="userSpaceOnUse">
<stop stop-color="#FEF0AE"/>
<stop offset="1" stop-color="#FAC600"/>
</linearGradient>
<linearGradient id="paint100_linear_153_721" x1="44.5674" y1="31.7287" x2="43.1074" y2="32.8683" gradientUnits="userSpaceOnUse">
<stop stop-color="#FE9738" stop-opacity="0"/>
<stop offset="1" stop-color="#FE9738"/>
</linearGradient>
<linearGradient id="paint101_linear_153_721" x1="31.0757" y1="29.9832" x2="33.6781" y2="34.3207" gradientUnits="userSpaceOnUse">
<stop stop-color="#5A5A5A"/>
<stop offset="1" stop-color="#444444"/>
</linearGradient>
<linearGradient id="paint102_linear_153_721" x1="32.0487" y1="32.5598" x2="32.0487" y2="35.2003" gradientUnits="userSpaceOnUse">
<stop stop-color="#433F43" stop-opacity="0"/>
<stop offset="1" stop-color="#1A1A1A"/>
</linearGradient>
<linearGradient id="paint103_linear_153_721" x1="32.0348" y1="31.5948" x2="33.8281" y2="32.8814" gradientUnits="userSpaceOnUse">
<stop stop-color="#433F43" stop-opacity="0"/>
<stop offset="1" stop-color="#1A1A1A"/>
</linearGradient>
<linearGradient id="paint104_linear_153_721" x1="19.9716" y1="38.8327" x2="12.4846" y2="26.9831" gradientUnits="userSpaceOnUse">
<stop stop-color="#D1F19E"/>
<stop offset="1" stop-color="#78A91F"/>
</linearGradient>
<linearGradient id="paint105_linear_153_721" x1="16.2046" y1="30.362" x2="17.5718" y2="36.9647" gradientUnits="userSpaceOnUse">
<stop stop-color="#026841" stop-opacity="0"/>
<stop offset="0.3243" stop-color="#046842" stop-opacity="0.324"/>
<stop offset="0.5509" stop-color="#0E6546" stop-opacity="0.551"/>
<stop offset="0.7476" stop-color="#1D614C" stop-opacity="0.748"/>
<stop offset="0.9263" stop-color="#335C54" stop-opacity="0.926"/>
<stop offset="1" stop-color="#3E5959"/>
</linearGradient>
<linearGradient id="paint106_linear_153_721" x1="13.9791" y1="31.4818" x2="17.236" y2="37.4802" gradientUnits="userSpaceOnUse">
<stop stop-color="#026841" stop-opacity="0"/>
<stop offset="0.3243" stop-color="#046842" stop-opacity="0.324"/>
<stop offset="0.5509" stop-color="#0E6546" stop-opacity="0.551"/>
<stop offset="0.7476" stop-color="#1D614C" stop-opacity="0.748"/>
<stop offset="0.9263" stop-color="#335C54" stop-opacity="0.926"/>
<stop offset="1" stop-color="#3E5959"/>
</linearGradient>
<linearGradient id="paint107_linear_153_721" x1="9.89789" y1="30.6079" x2="14.1079" y2="36.029" gradientUnits="userSpaceOnUse">
<stop stop-color="#026841" stop-opacity="0"/>
<stop offset="0.3243" stop-color="#046842" stop-opacity="0.324"/>
<stop offset="0.5509" stop-color="#0E6546" stop-opacity="0.551"/>
<stop offset="0.7476" stop-color="#1D614C" stop-opacity="0.748"/>
<stop offset="0.9263" stop-color="#335C54" stop-opacity="0.926"/>
<stop offset="1" stop-color="#3E5959"/>
</linearGradient>
<linearGradient id="paint108_linear_153_721" x1="10.7866" y1="36.0493" x2="8.48665" y2="36.7407" gradientUnits="userSpaceOnUse">
<stop stop-color="#026841" stop-opacity="0"/>
<stop offset="0.3243" stop-color="#046842" stop-opacity="0.324"/>
<stop offset="0.5509" stop-color="#0E6546" stop-opacity="0.551"/>
<stop offset="0.7476" stop-color="#1D614C" stop-opacity="0.748"/>
<stop offset="0.9263" stop-color="#335C54" stop-opacity="0.926"/>
<stop offset="1" stop-color="#3E5959"/>
</linearGradient>
<linearGradient id="paint109_linear_153_721" x1="16.0122" y1="38.1524" x2="15.4215" y2="31.3524" gradientUnits="userSpaceOnUse">
<stop stop-color="#026841" stop-opacity="0"/>
<stop offset="0.3243" stop-color="#046842" stop-opacity="0.324"/>
<stop offset="0.5509" stop-color="#0E6546" stop-opacity="0.551"/>
<stop offset="0.7476" stop-color="#1D614C" stop-opacity="0.748"/>
<stop offset="0.9263" stop-color="#335C54" stop-opacity="0.926"/>
<stop offset="1" stop-color="#3E5959"/>
</linearGradient>
<linearGradient id="paint110_linear_153_721" x1="13.202" y1="39.6547" x2="13.7248" y2="32.8108" gradientUnits="userSpaceOnUse">
<stop stop-color="#026841" stop-opacity="0"/>
<stop offset="0.3243" stop-color="#046842" stop-opacity="0.324"/>
<stop offset="0.5509" stop-color="#0E6546" stop-opacity="0.551"/>
<stop offset="0.7476" stop-color="#1D614C" stop-opacity="0.748"/>
<stop offset="0.9263" stop-color="#335C54" stop-opacity="0.926"/>
<stop offset="1" stop-color="#3E5959"/>
</linearGradient>
<linearGradient id="paint111_linear_153_721" x1="26.5886" y1="43.7734" x2="32.128" y2="52.1135" gradientUnits="userSpaceOnUse">
<stop stop-color="#FFFBF5"/>
<stop offset="0.4893" stop-color="#FFF8EC"/>
<stop offset="1" stop-color="#FFF2DE"/>
</linearGradient>
<linearGradient id="paint112_linear_153_721" x1="28" y1="48.5772" x2="28" y2="53.9397" gradientUnits="userSpaceOnUse">
<stop stop-color="#FFF2DE" stop-opacity="0"/>
<stop offset="0.2223" stop-color="#FFEDD7" stop-opacity="0.222"/>
<stop offset="0.5516" stop-color="#FFDFC3" stop-opacity="0.552"/>
<stop offset="0.9456" stop-color="#FFC8A2" stop-opacity="0.946"/>
<stop offset="1" stop-color="#FFC49D"/>
</linearGradient>
<linearGradient id="paint113_linear_153_721" x1="34.1788" y1="49.4633" x2="38.0542" y2="52.4343" gradientUnits="userSpaceOnUse">
<stop stop-color="#FFF2DE" stop-opacity="0"/>
<stop offset="0.2223" stop-color="#FFEDD7" stop-opacity="0.222"/>
<stop offset="0.5516" stop-color="#FFDFC3" stop-opacity="0.552"/>
<stop offset="0.9456" stop-color="#FFC8A2" stop-opacity="0.946"/>
<stop offset="1" stop-color="#FFC49D"/>
</linearGradient>
<linearGradient id="paint114_linear_153_721" x1="25.1652" y1="30.7291" x2="36.2932" y2="47.4837" gradientUnits="userSpaceOnUse">
<stop stop-color="#FFFBF5"/>
<stop offset="0.4893" stop-color="#FFF8EC"/>
<stop offset="1" stop-color="#FFF2DE"/>
</linearGradient>
<linearGradient id="paint115_linear_153_721" x1="28.0002" y1="40.38" x2="28.0002" y2="51.1527" gradientUnits="userSpaceOnUse">
<stop stop-color="#FFF2DE" stop-opacity="0"/>
<stop offset="0.2223" stop-color="#FFEDD7" stop-opacity="0.222"/>
<stop offset="0.5516" stop-color="#FFDFC3" stop-opacity="0.552"/>
<stop offset="0.9456" stop-color="#FFC8A2" stop-opacity="0.946"/>
<stop offset="1" stop-color="#FFC49D"/>
</linearGradient>
<linearGradient id="paint116_linear_153_721" x1="40.4133" y1="42.1595" x2="48.1986" y2="48.1282" gradientUnits="userSpaceOnUse">
<stop stop-color="#FFF2DE" stop-opacity="0"/>
<stop offset="0.2223" stop-color="#FFEDD7" stop-opacity="0.222"/>
<stop offset="0.5516" stop-color="#FFDFC3" stop-opacity="0.552"/>
<stop offset="0.9456" stop-color="#FFC8A2" stop-opacity="0.946"/>
<stop offset="1" stop-color="#FFC49D"/>
</linearGradient>
<clipPath id="clip0_153_721">
<rect width="56" height="56" fill="white"/>
</clipPath>
</defs>
</svg>
