<svg width="24" height="24" viewBox="0 0 24 24" fill="none" xmlns="http://www.w3.org/2000/svg">
<path d="M10.0038 12L0.413988 2.41015C-0.137997 1.85816 -0.137997 0.965972 0.413988 0.413988C0.965971 -0.137996 1.85817 -0.137996 2.41015 0.413988L12 10.0038L21.5899 0.413988C22.1418 -0.137996 23.034 -0.137996 23.586 0.413988C24.138 0.965972 24.138 1.85816 23.586 2.41015L13.9962 12L23.586 21.5898C24.138 22.1418 24.138 23.034 23.586 23.586C23.3107 23.8613 22.9493 23.9996 22.5879 23.9996C22.2265 23.9996 21.8651 23.8612 21.5899 23.586L12 13.9961L2.41019 23.586C2.13491 23.8613 1.77351 23.9996 1.41212 23.9996C1.05072 23.9996 0.689323 23.8612 0.414036 23.586C-0.137949 23.034 -0.137949 22.1418 0.414036 21.5898L10.0038 12Z" fill="#2A2A2A"/>
</svg>
