<svg width="36" height="36" viewBox="0 0 36 36" fill="none" xmlns="http://www.w3.org/2000/svg">
<path d="M6.43989 0.614693C14.1221 -0.204907 21.8699 -0.204888 29.5522 0.614693C31.0439 0.772221 32.437 1.43568 33.4985 2.49555C34.5599 3.55546 35.2265 4.94745 35.3862 6.43891C36.2058 14.1213 36.2058 21.8699 35.3862 29.5522C35.2286 31.0438 34.5641 32.4361 33.5043 33.4975C32.4444 34.5589 31.0525 35.2255 29.561 35.3852C21.8788 36.2048 14.1309 36.2048 6.44868 35.3852C4.95688 35.2277 3.56388 34.5633 2.50239 33.5034C1.44089 32.4434 0.774332 31.0516 0.614698 29.56C-0.204905 21.8777 -0.204893 14.13 0.614698 6.4477C0.772236 4.95588 1.43654 3.56291 2.49653 2.50141C3.55648 1.43997 4.94837 0.774374 6.43989 0.614693ZM20.4877 6.75043C17.428 6.75043 15.3414 8.66254 15.3413 12.1762V15.2036H12.8745C12.7972 15.2047 12.7208 15.2209 12.6499 15.2514C12.5788 15.282 12.5143 15.3268 12.4604 15.3823C12.4066 15.4376 12.364 15.5029 12.3354 15.5747C12.3068 15.6465 12.2923 15.7239 12.2934 15.8012L12.3061 18.936C12.3053 19.013 12.3194 19.0901 12.3481 19.1616C12.3768 19.2331 12.4201 19.2979 12.4741 19.353C12.528 19.408 12.5917 19.4526 12.6625 19.4829C12.7335 19.5131 12.8101 19.5289 12.8872 19.5297H15.3413V28.8237C15.3391 28.8786 15.3482 28.9334 15.3676 28.9848C15.3872 29.0363 15.4173 29.0837 15.4555 29.1235C15.4937 29.1632 15.5396 29.1947 15.5903 29.2163C15.641 29.2378 15.6954 29.2495 15.7504 29.2495H19.0659C19.1758 29.2468 19.2804 29.2005 19.3569 29.1215C19.4334 29.0423 19.4762 28.9358 19.475 28.8256L19.4917 19.5297H22.7641C22.9079 19.528 23.0465 19.4733 23.1528 19.3764C23.2589 19.2796 23.3262 19.1472 23.3413 19.0043L23.7026 15.8686C23.7133 15.7862 23.7071 15.7021 23.6831 15.6225C23.6591 15.543 23.6183 15.4694 23.5639 15.4067C23.5095 15.3439 23.442 15.2932 23.3667 15.2582C23.2914 15.2233 23.2094 15.2047 23.1264 15.2036H19.4711V12.5834C19.4712 11.4013 19.7947 10.5834 21.4575 10.5834H22.9956C23.0729 10.5826 23.1491 10.5659 23.2202 10.5356C23.2915 10.5051 23.3564 10.4612 23.4106 10.4057C23.4648 10.3502 23.5078 10.2844 23.5366 10.2123C23.5652 10.1404 23.5787 10.0632 23.5776 9.98579V7.34711C23.5786 7.26972 23.5653 7.19245 23.5366 7.12055C23.5079 7.0487 23.4646 6.98356 23.4106 6.92817C23.3564 6.87268 23.2915 6.82778 23.2202 6.79731C23.1491 6.76702 23.0728 6.75129 22.9956 6.75043H20.4877Z" fill="#119BE5"/>
</svg>
