<svg width="36" height="36" viewBox="0 0 36 36" fill="none" xmlns="http://www.w3.org/2000/svg">
<path d="M6.4399 0.614684C14.1221 -0.20491 21.87 -0.20488 29.5522 0.614684C31.044 0.77222 32.437 1.43656 33.4985 2.49652C34.56 3.55653 35.2266 4.94827 35.3862 6.43988C36.2058 14.1222 36.2058 21.8699 35.3862 29.5522C35.2287 31.044 34.5643 32.437 33.5044 33.4985C32.4444 34.5599 31.0526 35.2265 29.561 35.3862C21.8788 36.2058 14.1309 36.2057 6.44869 35.3862C4.95696 35.2286 3.56387 34.5642 2.5024 33.5043C1.44099 32.4444 0.774415 31.0524 0.614707 29.561C-0.204902 21.8786 -0.204902 14.13 0.614707 6.44769C0.772305 4.95613 1.43679 3.56376 2.49654 2.50238C3.55649 1.44095 4.94839 0.774372 6.4399 0.614684ZM8.28072 14.1713C8.07903 14.1714 7.88526 14.2514 7.74264 14.394C7.60002 14.5366 7.52002 14.7304 7.51998 14.9321V28.4887C7.51971 28.5887 7.53946 28.6883 7.5776 28.7807C7.61574 28.873 7.67203 28.9572 7.74264 29.0278C7.81328 29.0983 7.89741 29.1537 7.98971 29.1918C8.08205 29.2299 8.18083 29.2497 8.28072 29.2495H11.5151C11.6149 29.2494 11.7139 29.2302 11.8061 29.1918C11.8984 29.1534 11.9827 29.0967 12.0532 29.0258C12.1235 28.955 12.1794 28.8711 12.2172 28.7787C12.2551 28.6862 12.2744 28.5867 12.2739 28.4868V14.9321C12.2738 14.7307 12.1934 14.5376 12.0512 14.395C11.9091 14.2525 11.7164 14.172 11.5151 14.1713H8.28072ZM23.6499 13.9467C21.1402 13.9467 19.964 14.8647 19.1704 16.0551V14.8725C19.1703 14.6871 19.0964 14.5094 18.9653 14.3784C18.8342 14.2473 18.6566 14.1733 18.4712 14.1733H15.1128C15.021 14.1733 14.9299 14.1918 14.8452 14.227C14.7605 14.2622 14.6834 14.3134 14.6186 14.3784C14.5539 14.4433 14.5022 14.5202 14.4672 14.6049C14.4324 14.6897 14.4153 14.7809 14.4155 14.8725V28.5502C14.4152 28.642 14.4323 28.733 14.4672 28.8178C14.5022 28.9026 14.5539 28.9794 14.6186 29.0444C14.6834 29.1094 14.7604 29.1615 14.8452 29.1967C14.9299 29.2318 15.0211 29.2495 15.1128 29.2495H18.4712C18.6548 29.2467 18.8305 29.1723 18.9594 29.0414C19.0883 28.9106 19.1606 28.7339 19.1606 28.5502V21.2153C19.2466 20.2293 19.6819 18.0349 21.8188 18.0346C24.5777 18.0346 24.3003 21.2414 24.3003 22.1909V28.5502C24.3 28.642 24.318 28.7329 24.353 28.8178C24.388 28.9028 24.4394 28.9804 24.5044 29.0453C24.5694 29.1104 24.6469 29.1617 24.7319 29.1967C24.8168 29.2317 24.9076 29.2497 24.9995 29.2495H28.477C28.5688 29.2497 28.6597 29.2317 28.7446 29.1967C28.8296 29.1617 28.9071 29.1104 28.9721 29.0453C29.0371 28.9804 29.0885 28.9028 29.1235 28.8178C29.1585 28.7329 29.1765 28.642 29.1762 28.5502V21.9887C29.1762 19.1375 29.209 13.9468 23.6499 13.9467ZM9.90084 6.75043C9.29414 6.75044 8.70121 6.93097 8.19674 7.268C7.6922 7.60512 7.29907 8.08435 7.06686 8.64496C6.83465 9.20556 6.77367 9.82229 6.89205 10.4174C7.01044 11.0125 7.30284 11.5597 7.73189 11.9887C8.16085 12.4175 8.70735 12.7092 9.30221 12.8276C9.89719 12.9459 10.5142 12.8858 11.0747 12.6537C11.6353 12.4215 12.1145 12.0274 12.4516 11.5229C12.7887 11.0184 12.9692 10.4255 12.9692 9.81879C12.9692 9.00531 12.6459 8.22515 12.0708 7.64984C11.4954 7.07447 10.7145 6.75043 9.90084 6.75043Z" fill="#0B60BF"/>
</svg>
