<svg width="129" height="137" viewBox="0 0 129 137" fill="none" xmlns="http://www.w3.org/2000/svg">
<path d="M128.941 107.419V119.638H125.415V107.419H128.941Z" fill="white"/>
<path d="M123.967 116.391V119.638H115.745V107.419H119.271V116.391H123.967Z" fill="white"/>
<path d="M114.19 116.6V119.638H105.462V107.419H114.19V110.456H108.988V112.08H113.422V114.855H108.988V116.6H114.19Z" fill="white"/>
<path d="M103.587 107.419V119.638H99.9214L95.9067 112.446V119.638H92.5029V107.419H96.3431L100.183 114.401V107.419H103.587Z" fill="white"/>
<path d="M84.7812 116.845C86.3987 116.845 87.2075 115.74 87.2075 113.529C87.2075 111.318 86.358 110.212 84.659 110.212C83.0299 110.212 82.2153 111.318 82.2153 113.529C82.2153 114.611 82.4306 115.437 82.8611 116.007C83.3033 116.566 83.9434 116.845 84.7812 116.845ZM84.7463 119.882C82.6982 119.882 81.1389 119.347 80.0683 118.276C78.9977 117.194 78.4624 115.612 78.4624 113.529C78.4624 111.469 79.0035 109.898 80.0857 108.816C81.168 107.722 82.6924 107.175 84.659 107.175C86.7537 107.175 88.3246 107.728 89.372 108.833C90.4193 109.927 90.9429 111.492 90.9429 113.529C90.9429 115.67 90.4018 117.264 89.3196 118.311C88.249 119.359 86.7246 119.882 84.7463 119.882Z" fill="white"/>
<path d="M76.9205 107.419V119.638H73.3771V114.995H69.2926V119.638H65.7666V107.419H69.2926V111.87H73.3771V107.419H76.9205Z" fill="white"/>
<path d="M59.6363 107.419V119.638H56.1104V107.419H59.6363Z" fill="white"/>
<path d="M51.3418 116.566V115.117H49.3868V112.342H54.379V118.852C53.1339 119.539 51.6793 119.882 50.0152 119.882C47.8158 119.882 46.1576 119.335 45.0405 118.241C43.9233 117.148 43.3647 115.629 43.3647 113.686C43.3647 111.544 43.8884 109.927 44.9357 108.833C45.983 107.728 47.6588 107.175 49.9629 107.175C51.5222 107.175 52.7324 107.349 53.5936 107.698V110.753C52.8255 110.462 51.8131 110.317 50.5563 110.317C49.3228 110.317 48.4151 110.561 47.8333 111.05C47.2631 111.539 46.978 112.365 46.978 113.529C46.978 115.67 48.0253 116.74 50.1199 116.74C50.4923 116.74 50.8996 116.682 51.3418 116.566Z" fill="white"/>
<path d="M31.8623 119.638V107.419H36.7847C40.171 107.419 41.8642 108.815 41.8642 111.608C41.8642 113.389 41.2183 114.611 39.9267 115.274L42.5275 119.638H38.7397L36.6625 115.92H36.4531H35.3883V119.638H31.8623ZM35.301 110.456V113.144H36.5578C37.128 113.144 37.5527 113.04 37.832 112.83C38.1113 112.609 38.2509 112.26 38.2509 111.783C38.2509 111.306 38.1055 110.968 37.8146 110.77C37.5353 110.561 37.0814 110.456 36.4531 110.456H35.301Z" fill="white"/>
<path d="M24.1401 116.845C25.7576 116.845 26.5664 115.74 26.5664 113.529C26.5664 111.318 25.7169 110.212 24.0179 110.212C22.3888 110.212 21.5742 111.318 21.5742 113.529C21.5742 114.611 21.7895 115.437 22.22 116.007C22.6622 116.566 23.3023 116.845 24.1401 116.845ZM24.1052 119.882C22.0571 119.882 20.4978 119.347 19.4272 118.276C18.3566 117.194 17.8213 115.612 17.8213 113.529C17.8213 111.469 18.3624 109.898 19.4446 108.816C20.5269 107.722 22.0513 107.175 24.0179 107.175C26.1126 107.175 27.6835 107.728 28.7309 108.833C29.7782 109.927 30.3018 111.492 30.3018 113.529C30.3018 115.67 29.7607 117.264 28.6785 118.311C27.6079 119.359 26.0835 119.882 24.1052 119.882Z" fill="white"/>
<path d="M16.2716 107.419V119.638H12.7456V107.419H16.2716Z" fill="white"/>
<path d="M7.97707 116.566V115.117H6.02208V112.342H11.0143V118.852C9.76915 119.539 8.31454 119.882 6.65047 119.882C4.4511 119.882 2.79285 119.335 1.67571 118.241C0.55857 117.148 0 115.629 0 113.686C0 111.544 0.523659 109.927 1.57098 108.833C2.6183 107.728 4.294 107.175 6.5981 107.175C8.15745 107.175 9.36768 107.349 10.2288 107.698V110.753C9.46078 110.462 8.44837 110.317 7.19159 110.317C5.95808 110.317 5.0504 110.561 4.46856 111.05C3.89835 111.539 3.61325 112.365 3.61325 113.529C3.61325 115.67 4.66057 116.74 6.7552 116.74C7.12758 116.74 7.53487 116.682 7.97707 116.566Z" fill="white"/>
<path d="M93.4113 129.548V131.702H94.2886C95.1831 131.702 95.6304 131.341 95.6304 130.618C95.6304 130.231 95.5229 129.956 95.3078 129.793C95.0928 129.629 94.7402 129.548 94.2499 129.548H93.4113ZM93.4758 133.947V136.334H90.8696V127.303H94.495C97.0324 127.303 98.301 128.374 98.301 130.515C98.301 131.625 97.9699 132.476 97.3076 133.07C96.6453 133.655 95.639 133.947 94.2886 133.947H93.4758Z" fill="white"/>
<path d="M81.2164 132.205V127.303H83.8355V132.605C83.8355 133.99 83.5 134.988 82.8291 135.599C82.1582 136.209 81.1863 136.515 79.9133 136.515C78.6748 136.515 77.7114 136.214 77.0234 135.611C76.3353 135.001 75.9912 133.99 75.9912 132.58V127.303H78.6103V132.205C78.6103 132.868 78.7006 133.354 78.8812 133.663C79.0618 133.964 79.4059 134.115 79.9133 134.115C80.438 134.115 80.7864 133.964 80.9584 133.663C81.1304 133.362 81.2164 132.876 81.2164 132.205Z" fill="white"/>
<path d="M64.646 134.27C65.8416 134.27 66.4394 133.453 66.4394 131.818C66.4394 130.184 65.8115 129.367 64.5557 129.367C63.3515 129.367 62.7495 130.184 62.7495 131.818C62.7495 132.618 62.9086 133.229 63.2268 133.65C63.5537 134.063 64.0267 134.27 64.646 134.27ZM64.6202 136.515C63.1064 136.515 61.9539 136.119 61.1625 135.328C60.3712 134.528 59.9756 133.358 59.9756 131.818C59.9756 130.296 60.3755 129.135 61.1754 128.335C61.9754 127.526 63.1021 127.122 64.5557 127.122C66.1039 127.122 67.2651 127.531 68.0392 128.348C68.8133 129.156 69.2003 130.313 69.2003 131.818C69.2003 133.401 68.8004 134.579 68.0005 135.353C67.2092 136.127 66.0824 136.515 64.6202 136.515Z" fill="white"/>
<path d="M45.9604 136.334V127.303H49.5987C52.1017 127.303 53.3532 128.335 53.3532 130.399C53.3532 131.715 52.8758 132.618 51.9211 133.109L53.8434 136.334H51.0437L49.5084 133.586H49.3536H48.5666V136.334H45.9604ZM48.5021 129.548V131.535H49.431C49.8525 131.535 50.1664 131.457 50.3728 131.302C50.5793 131.139 50.6825 130.881 50.6825 130.528C50.6825 130.176 50.575 129.926 50.3599 129.78C50.1535 129.625 49.8181 129.548 49.3536 129.548H48.5021Z" fill="white"/>
<path d="M36.7594 134.063V132.992H35.3144V130.941H39.0043V135.753C38.084 136.261 37.0088 136.515 35.7788 136.515C34.1532 136.515 32.9276 136.11 32.1018 135.302C31.2761 134.493 30.8633 133.371 30.8633 131.934C30.8633 130.352 31.2503 129.156 32.0244 128.348C32.7985 127.531 34.0371 127.122 35.7401 127.122C36.8927 127.122 37.7872 127.251 38.4237 127.509V129.767C37.856 129.552 37.1077 129.444 36.1788 129.444C35.2671 129.444 34.5962 129.625 34.1661 129.986C33.7447 130.348 33.5339 130.958 33.5339 131.818C33.5339 133.401 34.308 134.192 35.8563 134.192C36.1315 134.192 36.4325 134.149 36.7594 134.063Z" fill="white"/>
<path d="M64.5654 14.0229L93.4141 30.8228L93.3486 30.9351V61.9595H93.3457L93.4141 62.0776L64.5654 78.8765L64.5537 78.8979L64.542 78.8911L64.5303 78.8979L64.5176 78.8765L35.6699 62.0776L35.7383 61.9595H35.6699V30.8433H35.6816L35.6699 30.8228L64.5176 14.0229L64.5303 14.0024L64.542 14.0083L64.5537 14.0024L64.5654 14.0229ZM42.2471 34.603V58.2964L64.542 71.2798L86.7715 58.3345V34.5649L64.541 21.6196L42.2471 34.603Z" fill="url(#paint0_linear_153_1309)"/>
<path d="M105.847 23.7607H106.25V70.0547H106.161L106.249 70.21L64.0015 94.1816L64.0005 94.1846L63.9985 94.1836L63.9731 94.1982L63.9478 94.1533L22.9995 70.3076H22.7681V24.0137H22.8062L63.938 0.0595703L63.9731 0L105.847 23.7607ZM29.3452 27.8174V66.3916L64.0405 86.5967L99.6724 66.3779V27.8193L64.0513 7.60645L29.3452 27.8174Z" fill="white"/>
<path d="M48.3364 37.4407V55.5284L64.5268 64.8885L80.8438 55.5284V43.1326H64.5268V49.71H74.3929V51.7338L64.5268 57.2992L54.9138 51.7338V40.9823L64.5268 35.5433L74.6459 41.3618L80.8438 37.4407L64.5268 28.0806L48.3364 37.4407Z" fill="white"/>
<defs>
<linearGradient id="paint0_linear_153_1309" x1="64.542" y1="14.0024" x2="64.542" y2="78.8979" gradientUnits="userSpaceOnUse">
<stop stop-color="#027BC7"/>
<stop offset="1" stop-color="#01C9BD"/>
</linearGradient>
</defs>
</svg>
