<svg width="181" height="46" viewBox="0 0 181 46" fill="none" xmlns="http://www.w3.org/2000/svg">
<path d="M20.0903 6.73987L33.9595 14.816L33.9272 14.8707V29.7838H33.9263L33.9595 29.8405L20.0903 37.9166L20.0854 37.9264L20.0796 37.9225L20.0747 37.9264L20.0688 37.9166L6.20166 29.8405L6.23486 29.7838H6.20166V14.8268H6.20752L6.20166 14.816L20.0688 6.73987L20.0747 6.73108L20.0796 6.73401L20.0854 6.73108L20.0903 6.73987ZM9.36377 16.6334V28.0231L20.0806 34.2633L30.7661 28.0416V16.6149L20.0796 10.3932L9.36377 16.6334Z" fill="url(#paint0_linear_153_1390)"/>
<path d="M39.9365 11.4219H40.1299V33.6758H40.0869L40.1289 33.75L19.8203 45.2734V45.2744L19.8193 45.2734L19.8076 45.2812L19.7949 45.2598L0.110352 33.7969H0V11.543H0.0205078L19.791 0.0283203L19.8076 0L39.9365 11.4219ZM3.16211 13.3711V31.915L19.8398 41.627L36.9678 31.9082V13.3721L19.8447 3.65625L3.16211 13.3711Z" fill="#023670"/>
<path d="M12.2905 18.2408V26.9356L20.0733 31.435L27.9168 26.9356V20.9769H20.0733V24.1387H24.8159V25.1115L20.0733 27.7868L15.4523 25.1115V19.9433L20.0733 17.3288L24.9375 20.1257L27.9168 18.2408L20.0733 13.7414L12.2905 18.2408Z" fill="#023670"/>
<path d="M181 8.06567V20.488H177.415V8.06567H181Z" fill="#252525"/>
<path d="M175.943 17.1872V20.488H167.584V8.06567H171.169V17.1872H175.943Z" fill="#252525"/>
<path d="M166.003 17.4002V20.488H157.13V8.06567H166.003V11.1535H160.715V12.8039H165.223V15.6256H160.715V17.4002H166.003Z" fill="#252525"/>
<path d="M155.224 8.06567V20.488H151.497L147.416 13.1766V20.488H143.955V8.06567H147.859L151.763 15.1642V8.06567H155.224Z" fill="#252525"/>
<path d="M136.104 17.6487C137.749 17.6487 138.571 16.5248 138.571 14.2769C138.571 12.029 137.707 10.9051 135.98 10.9051C134.324 10.9051 133.496 12.029 133.496 14.2769C133.496 15.3772 133.714 16.2171 134.152 16.7969C134.602 17.3647 135.252 17.6487 136.104 17.6487ZM136.069 20.7365C133.987 20.7365 132.401 20.1923 131.313 19.1039C130.224 18.0036 129.68 16.3946 129.68 14.2769C129.68 12.1828 130.23 10.5857 131.331 9.48541C132.431 8.37331 133.981 7.81726 135.98 7.81726C138.11 7.81726 139.707 8.37923 140.772 9.50315C141.836 10.6153 142.369 12.2065 142.369 14.2769C142.369 16.4538 141.819 18.0746 140.718 19.1394C139.63 20.2041 138.08 20.7365 136.069 20.7365Z" fill="#252525"/>
<path d="M128.113 8.06567V20.488H124.51V15.7675H120.358V20.488H116.773V8.06567H120.358V12.591H124.51V8.06567H128.113Z" fill="#252525"/>
<path d="M110.54 8.06567V20.488H106.956V8.06567H110.54Z" fill="#252525"/>
<path d="M102.108 17.3647V15.8918H100.12V13.0701H105.195V19.6895C103.93 20.3875 102.451 20.7365 100.759 20.7365C98.5228 20.7365 96.837 20.1805 95.7012 19.0684C94.5654 17.9563 93.9976 16.4124 93.9976 14.4366C93.9976 12.2597 94.5299 10.6153 95.5947 9.50315C96.6595 8.37923 98.3631 7.81726 100.706 7.81726C102.291 7.81726 103.521 7.99472 104.397 8.34965V11.4552C103.616 11.1595 102.587 11.0116 101.309 11.0116C100.055 11.0116 99.1321 11.26 98.5406 11.7569C97.9609 12.2538 97.671 13.0938 97.671 14.2769C97.671 16.4538 98.7358 17.5422 100.865 17.5422C101.244 17.5422 101.658 17.483 102.108 17.3647Z" fill="#252525"/>
<path d="M82.3037 20.488V8.06567H87.3081C90.7509 8.06567 92.4723 9.48537 92.4723 12.3248C92.4723 14.1349 91.8157 15.3771 90.5025 16.0515L93.1467 20.488H89.2957L87.1839 16.7081H86.971H85.8885V20.488H82.3037ZM85.7997 11.1535V13.8864H87.0774C87.6572 13.8864 88.089 13.78 88.3729 13.567C88.6569 13.3422 88.7988 12.9873 88.7988 12.5022C88.7988 12.0172 88.6509 11.6741 88.3552 11.473C88.0712 11.26 87.6098 11.1535 86.971 11.1535H85.7997Z" fill="#252525"/>
<path d="M74.4529 17.6487C76.0974 17.6487 76.9197 16.5248 76.9197 14.2769C76.9197 12.029 76.056 10.9051 74.3287 10.9051C72.6724 10.9051 71.8443 12.029 71.8443 14.2769C71.8443 15.3772 72.0631 16.2171 72.5009 16.7969C72.9504 17.3647 73.6011 17.6487 74.4529 17.6487ZM74.4175 20.7365C72.3352 20.7365 70.7499 20.1923 69.6615 19.1039C68.573 18.0036 68.0288 16.3946 68.0288 14.2769C68.0288 12.1828 68.5789 10.5857 69.6792 9.48541C70.7795 8.37331 72.3293 7.81726 74.3287 7.81726C76.4583 7.81726 78.0554 8.37923 79.1202 9.50315C80.185 10.6153 80.7174 12.2065 80.7174 14.2769C80.7174 16.4538 80.1672 18.0746 79.067 19.1394C77.9785 20.2041 76.4287 20.7365 74.4175 20.7365Z" fill="#252525"/>
<path d="M66.4529 8.06567V20.488H62.8682V8.06567H66.4529Z" fill="#252525"/>
<path d="M58.0202 17.3647V15.8918H56.0326V13.0701H61.108V19.6895C59.8421 20.3875 58.3633 20.7365 56.6715 20.7365C54.4354 20.7365 52.7496 20.1805 51.6138 19.0684C50.478 17.9563 49.9102 16.4124 49.9102 14.4366C49.9102 12.2597 50.4425 10.6153 51.5073 9.50315C52.5721 8.37923 54.2757 7.81726 56.6182 7.81726C58.2036 7.81726 59.434 7.99472 60.3095 8.34965V11.4552C59.5286 11.1595 58.4993 11.0116 57.2216 11.0116C55.9675 11.0116 55.0447 11.26 54.4532 11.7569C53.8735 12.2538 53.5836 13.0938 53.5836 14.2769C53.5836 16.4538 54.6484 17.5422 56.778 17.5422C57.1565 17.5422 57.5706 17.483 58.0202 17.3647Z" fill="#252525"/>
<path d="M113.501 30.5633V32.7538H114.392C115.302 32.7538 115.757 32.3866 115.757 31.652C115.757 31.2585 115.647 30.9787 115.429 30.8125C115.21 30.6464 114.852 30.5633 114.353 30.5633H113.501ZM113.566 35.0362V37.4628H110.917V28.281H114.602C117.182 28.281 118.472 29.3697 118.472 31.5471C118.472 32.6751 118.135 33.5408 117.462 34.1442C116.788 34.7388 115.765 35.0362 114.392 35.0362H113.566Z" fill="#252525"/>
<path d="M101.103 33.2654V28.281H103.766V33.672C103.766 35.0799 103.425 36.0942 102.742 36.7151C102.06 37.336 101.072 37.6464 99.778 37.6464C98.5188 37.6464 97.5394 37.3403 96.8399 36.7282C96.1403 36.1074 95.7905 35.0799 95.7905 33.6458V28.281H98.4532V33.2654C98.4532 33.9387 98.5451 34.4328 98.7287 34.7476C98.9123 35.0536 99.2621 35.2067 99.778 35.2067C100.311 35.2067 100.666 35.0536 100.84 34.7476C101.015 34.4415 101.103 33.9475 101.103 33.2654Z" fill="#252525"/>
<path d="M84.2556 35.3641C85.4711 35.3641 86.0788 34.5333 86.0788 32.8719C86.0788 31.2104 85.4405 30.3797 84.1638 30.3797C82.9396 30.3797 82.3274 31.2104 82.3274 32.8719C82.3274 33.6851 82.4892 34.306 82.8128 34.7344C83.145 35.1542 83.626 35.3641 84.2556 35.3641ZM84.2294 37.6464C82.6903 37.6464 81.5186 37.2441 80.7141 36.4396C79.9096 35.6264 79.5073 34.4371 79.5073 32.8719C79.5073 31.3241 79.9139 30.1436 80.7272 29.3303C81.5404 28.5083 82.686 28.0974 84.1638 28.0974C85.7378 28.0974 86.9183 28.5127 87.7053 29.3434C88.4923 30.1654 88.8858 31.3416 88.8858 32.8719C88.8858 34.4809 88.4792 35.6789 87.666 36.4659C86.8615 37.2529 85.7159 37.6464 84.2294 37.6464Z" fill="#252525"/>
<path d="M65.2593 37.4628V28.281H68.9582C71.5029 28.281 72.7752 29.3303 72.7752 31.429C72.7752 32.7669 72.2899 33.6851 71.3192 34.1836L73.2736 37.4628H70.4273L68.8664 34.6689H68.709H67.9089V37.4628H65.2593ZM67.8433 30.5633V32.5833H68.7877C69.2162 32.5833 69.5353 32.5046 69.7452 32.3472C69.9551 32.1811 70.06 31.9187 70.06 31.5602C70.06 31.2017 69.9507 30.9481 69.7321 30.7994C69.5222 30.642 69.1812 30.5633 68.709 30.5633H67.8433Z" fill="#252525"/>
<path d="M55.9045 35.1542V34.0655H54.4354V31.9799H58.1869V36.8725C57.2512 37.3884 56.1581 37.6464 54.9077 37.6464C53.2549 37.6464 52.0088 37.2354 51.1694 36.4134C50.3299 35.5914 49.9102 34.4502 49.9102 32.9899C49.9102 31.3809 50.3037 30.1654 51.0907 29.3434C51.8777 28.5127 53.1369 28.0974 54.8683 28.0974C56.0401 28.0974 56.9495 28.2285 57.5966 28.4909V30.7863C57.0195 30.5677 56.2587 30.4584 55.3143 30.4584C54.3874 30.4584 53.7053 30.642 53.2681 31.0093C52.8396 31.3765 52.6253 31.9974 52.6253 32.8719C52.6253 34.4809 53.4123 35.2854 54.9864 35.2854C55.2662 35.2854 55.5722 35.2416 55.9045 35.1542Z" fill="#252525"/>
<defs>
<linearGradient id="paint0_linear_153_1390" x1="20.0805" y1="6.73108" x2="20.0805" y2="37.9266" gradientUnits="userSpaceOnUse">
<stop stop-color="#027BC7"/>
<stop offset="1" stop-color="#01C9BD"/>
</linearGradient>
</defs>
</svg>
