<svg width="59" height="67" viewBox="0 0 59 67" fill="none" xmlns="http://www.w3.org/2000/svg">
<path d="M29.5391 9.91016L49.9277 21.7842L49.8818 21.8623V43.7891H49.8789L49.9277 43.873L29.5391 55.7461L29.5312 55.7607L29.5225 55.7559L29.5146 55.7607L29.5059 55.7461L9.11816 43.873L9.16699 43.7891H9.11816V21.7988H9.12695L9.11816 21.7842L29.5059 9.91016L29.5146 9.89648L29.5225 9.90039L29.5312 9.89648L29.5391 9.91016ZM13.7666 24.4551V41.2012L29.5225 50.376L45.2334 41.2275V24.4287L29.5225 15.2793L13.7666 24.4551Z" fill="url(#paint0_linear_153_602)"/>
<path d="M58.7148 16.792H59V49.5107H58.9365L58.999 49.6201L29.1426 66.5605L29.1406 66.5645L29.1377 66.5625L29.1211 66.5732L29.1035 66.543L0.164062 49.6895H0V16.9707H0.0283203L29.0957 0.0429688L29.1211 0L58.7148 16.792ZM4.64844 19.6592V46.9219L29.1689 61.2002L54.3516 46.9121V19.6602L29.1758 5.375L4.64844 19.6592Z" fill="#023670"/>
<path d="M18.0698 26.8183V39.6016L29.5122 46.2167L41.044 39.6016V30.841H29.5122V35.4895H36.4849V36.9198L29.5122 40.8531L22.7183 36.9198V29.3213L29.5122 25.4774L36.6637 29.5895L41.044 26.8183L29.5122 20.2031L18.0698 26.8183Z" fill="#023670"/>
<defs>
<linearGradient id="paint0_linear_153_602" x1="29.5229" y1="9.89648" x2="29.5229" y2="55.7607" gradientUnits="userSpaceOnUse">
<stop stop-color="#027BC7"/>
<stop offset="1" stop-color="#01C9BD"/>
</linearGradient>
</defs>
</svg>
