<svg width="60" height="60" viewBox="0 0 60 60" fill="none" xmlns="http://www.w3.org/2000/svg">
<path d="M43.193 2.75037H16.807C9.02952 2.75037 2.72461 9.05528 2.72461 16.8328V43.2187C2.72461 50.9962 9.02952 57.3011 16.807 57.3011H43.193C50.9705 57.3011 57.2754 50.9962 57.2754 43.2187V16.8328C57.2754 9.05528 50.9705 2.75037 43.193 2.75037Z" fill="url(#paint0_linear_153_1374)"/>
<path d="M30.0001 10.2106C26.593 10.2111 23.2462 11.109 20.2964 12.8138C17.3465 14.5187 14.8977 16.9703 13.1962 19.9221C11.4948 22.874 10.6008 26.2218 10.6041 29.6289C10.6075 33.0359 11.5081 36.382 13.2153 39.3305L10.5786 49.4239L20.8384 46.7063C23.438 48.0986 26.3208 48.8798 29.2677 48.9906C32.2146 49.1014 35.148 48.5388 37.8448 47.3456C40.5416 46.1524 42.9308 44.36 44.8308 42.1046C46.7308 39.8493 48.0915 37.1904 48.8095 34.3302C49.5275 31.47 49.5839 28.4837 48.9744 25.5984C48.3649 22.7131 47.1055 20.0047 45.2921 17.6793C43.4786 15.3538 41.1587 13.4725 38.5089 12.1783C35.8591 10.8841 32.9491 10.2111 30.0001 10.2106ZM41.4071 41.0156C38.8026 43.6187 35.3865 45.2531 31.7254 45.6476C28.0643 46.0422 24.3783 45.1732 21.279 43.1848L15.3188 44.7656L16.8423 38.9438C15.0626 36.4357 14.0368 33.4712 13.8858 30.3996C13.7348 27.3279 14.4649 24.2771 15.99 21.6066C17.5152 18.936 19.7719 16.7571 22.4942 15.3264C25.2165 13.8957 28.291 13.2729 31.3554 13.5313C34.4199 13.7898 37.3467 14.9188 39.7909 16.7852C42.2351 18.6517 44.0949 21.1778 45.1512 24.0661C46.2075 26.9544 46.4163 30.0844 45.753 33.0873C45.0896 36.0903 43.5818 38.8411 41.4071 41.0156Z" fill="white"/>
<path d="M39.7195 34.6875C39.7205 35.0065 39.6935 35.3249 39.6387 35.6391C39.5872 35.9576 39.5088 36.2713 39.4043 36.5766C39.1641 37.2551 37.8516 38.086 37.8516 38.086C36.9188 38.7068 35.8044 38.9957 34.6875 38.9063C34.4256 38.8795 34.1654 38.8381 33.9082 38.782C33.4723 38.6848 33.2601 38.6227 33.2601 38.6227C33.0492 38.5606 32.5019 38.3883 32.5019 38.3883C31.9547 38.2172 31.8316 38.1844 31.8316 38.1844C31.0004 37.9345 30.1948 37.6061 29.4258 37.2035C27.6527 36.2403 25.7215 34.5141 25.7215 34.5141C24.578 33.4976 23.5443 32.364 22.6371 31.132C22.1546 30.4108 21.7388 29.6471 21.3949 28.8504C21.348 28.7332 21.1172 28.207 21.1172 28.207C20.8828 27.682 20.8008 27.4793 20.8008 27.4793C20.7164 27.2754 20.5664 26.8535 20.5664 26.8535C20.4808 26.6046 20.4108 26.3506 20.3566 26.093C20.3135 25.8606 20.2845 25.6258 20.2699 25.3899C20.2019 24.157 20.8148 22.8598 20.8148 22.8598C21.4887 21.4653 22.1426 21.1465 22.1426 21.1465C22.435 21.0145 22.7366 20.9037 23.0449 20.8149C23.3501 20.7202 23.6643 20.6574 23.9824 20.6274C24.0777 20.618 24.1738 20.6264 24.266 20.652C24.5121 20.7188 25.0336 21.6305 25.0336 21.6305C25.1953 21.8766 25.4754 22.3336 25.4754 22.3336C25.7566 22.7883 25.9922 23.1539 25.9922 23.1539C26.2266 23.5231 26.4469 23.8465 26.4469 23.8465C26.4902 23.8981 26.7 24.1688 26.7 24.1688C26.8152 24.3144 26.9202 24.4679 27.0141 24.6281C27.0785 24.7442 27.1183 24.8722 27.1312 25.0043C27.1453 25.2727 26.7867 25.6957 26.7867 25.6957C26.5431 25.9758 26.2791 26.2374 25.9969 26.4785C25.7183 26.7148 25.4541 26.9676 25.2058 27.2356C24.8449 27.6317 24.8543 27.8731 24.8543 27.8731C24.8684 27.9756 24.8964 28.0757 24.9375 28.1707C25.0148 28.3477 25.0676 28.4391 25.0676 28.4391C25.1191 28.5293 25.2726 28.7496 25.2726 28.7496C25.4262 28.9699 25.4402 28.9957 25.4402 28.9957C26.1477 30.1014 26.9897 31.115 27.9469 32.0133C29.3332 33.2531 31.2281 34.1684 31.2281 34.1684C31.2562 34.1801 31.4918 34.3078 31.4918 34.3078C31.7262 34.4367 31.8234 34.4777 31.8234 34.4777C31.9195 34.5199 32.1047 34.5762 32.1047 34.5762C32.2028 34.6096 32.3057 34.6266 32.4094 34.6266C32.6508 34.6137 33.0047 34.2106 33.0047 34.2106C33.2427 33.9336 33.4642 33.6429 33.668 33.3399C33.8765 33.0332 34.1072 32.7422 34.3582 32.4692C34.7391 32.0649 35.0074 32.0496 35.0074 32.0496C35.1398 32.0485 35.2712 32.0732 35.3941 32.1223C35.5628 32.1996 35.7268 32.2869 35.8851 32.3836C36.1781 32.5617 36.2367 32.5992 36.2367 32.5992C36.5883 32.782 36.9773 32.9742 36.9773 32.9742C37.3711 33.1676 37.8539 33.3961 37.8539 33.3961C38.3367 33.6246 38.5992 33.757 38.5992 33.757C39.5637 34.1742 39.6539 34.411 39.6539 34.411C39.6892 34.4994 39.7113 34.5926 39.7195 34.6875Z" fill="white"/>
<defs>
<linearGradient id="paint0_linear_153_1374" x1="30" y1="57.3011" x2="30" y2="2.75037" gradientUnits="userSpaceOnUse">
<stop stop-color="#00D02D"/>
<stop offset="0.25" stop-color="#10D93A"/>
<stop offset="0.75" stop-color="#3AF15D"/>
<stop offset="1" stop-color="#51FE71"/>
</linearGradient>
</defs>
</svg>
