<svg width="54" height="54" viewBox="0 0 54 54" fill="none" xmlns="http://www.w3.org/2000/svg">
<g clip-path="url(#clip0_2001_556)">
<path d="M16.7592 22.6124C16.253 22.6018 15.8627 22.1905 15.8522 21.6843C15.8311 20.1022 15.6518 18.5202 15.3143 16.9698C15.2088 16.4741 15.5041 15.9889 15.9893 15.8624C16.5061 15.7253 17.0229 16.0522 17.1389 16.569C17.508 18.246 17.6979 19.9546 17.719 21.6632C17.719 22.2011 17.2866 22.6335 16.7592 22.6124Z" fill="url(#paint0_linear_2001_556)"/>
<path d="M16.7592 22.6124C16.253 22.6018 15.8627 22.1905 15.8522 21.6843C15.8311 20.1022 15.6518 18.5202 15.3143 16.9698C15.2088 16.4741 15.5041 15.9889 15.9893 15.8624C16.5061 15.7253 17.0229 16.0522 17.1389 16.569C17.508 18.246 17.6979 19.9546 17.719 21.6632C17.719 22.2011 17.2866 22.6335 16.7592 22.6124Z" fill="url(#paint1_linear_2001_556)"/>
<path d="M15.0715 3.43827C11.2324 0.548425 4.3664 -1.09689 0.643355 0.833191C-0.137114 1.23397 -0.221488 2.30975 0.464058 2.84764C1.8457 3.91288 3.24843 5.6953 3.72304 9.00702C3.88125 10.125 4.03945 11.3695 4.17656 12.5613C4.80937 17.993 10.7051 21.1781 15.5461 18.6258C16.5164 18.109 17.3707 17.4023 18.0562 16.4953C20.9355 12.6773 19.5961 6.83436 15.0715 3.43827Z" fill="url(#paint2_linear_2001_556)"/>
<path d="M15.0715 3.43827C11.2324 0.548425 4.3664 -1.09689 0.643355 0.833191C-0.137114 1.23397 -0.221488 2.30975 0.464058 2.84764C1.8457 3.91288 3.24843 5.6953 3.72304 9.00702C3.88125 10.125 4.03945 11.3695 4.17656 12.5613C4.80937 17.993 10.7051 21.1781 15.5461 18.6258C16.5164 18.109 17.3707 17.4023 18.0562 16.4953C20.9355 12.6773 19.5961 6.83436 15.0715 3.43827Z" fill="url(#paint3_linear_2001_556)"/>
<path d="M15.0715 3.43827C11.2324 0.548425 4.3664 -1.09689 0.643355 0.833191C-0.137114 1.23397 -0.221488 2.30975 0.464058 2.84764C1.8457 3.91288 3.24843 5.6953 3.72304 9.00702C3.88125 10.125 4.03945 11.3695 4.17656 12.5613C4.80937 17.993 10.7051 21.1781 15.5461 18.6258C16.5164 18.109 17.3707 17.4023 18.0562 16.4953C20.9355 12.6773 19.5961 6.83436 15.0715 3.43827Z" fill="url(#paint4_linear_2001_556)"/>
<path d="M0.105421 1.38158C-0.105517 1.86674 -4.77713e-05 2.47846 0.464015 2.83705C1.84566 3.91283 3.24839 5.69525 3.723 9.00697C3.8812 10.1249 4.0394 11.3695 4.17651 12.5613C4.80933 17.9929 10.705 21.1781 15.546 18.6257C16.1683 18.2988 16.7378 17.8874 17.2546 17.4023C17.107 14.2593 15.989 10.9898 13.848 8.11049C10.3253 3.37494 4.98862 0.94916 0.105421 1.38158Z" fill="url(#paint5_linear_2001_556)"/>
<path d="M15.5461 18.6364C16.5164 18.1196 17.3707 17.413 18.0562 16.506C20.7352 12.9411 19.7437 7.60439 15.9152 4.14502L4.21875 12.8356C5.00977 18.1091 10.7895 21.136 15.5461 18.6364Z" fill="url(#paint6_linear_2001_556)"/>
<path d="M18.5941 10.8844C18.0562 13.3734 16.991 15.1559 16.991 15.1559C13.7215 12.2027 6.84492 13.7004 4.58789 14.3016C4.39804 13.7531 4.26093 13.173 4.18711 12.5719C4.05 11.3801 3.89179 10.125 3.73359 9.01758C3.24843 5.70586 1.8457 3.91289 0.464058 2.83711C-0.221488 2.29922 -0.137114 1.22344 0.643355 0.822657C4.37695 -1.09687 11.2324 0.548438 15.0715 3.42773C16.0629 4.16602 16.8961 5.03086 17.5711 5.95898C18.5941 7.38281 18.9633 9.17578 18.5941 10.8844Z" fill="url(#paint7_linear_2001_556)"/>
<path d="M0.643355 0.833202C-0.137114 1.23398 -0.221488 2.30976 0.464058 2.84765C1.81406 3.90234 3.1957 5.64258 3.70195 8.84883C6.56015 7.68867 10.9582 6.43359 13.848 8.11055C13.848 8.11055 13.9852 7.11914 14.1328 6.01172C14.3965 4.09219 13.3312 2.22539 11.5383 1.48711C7.85742 -0.0632825 3.39609 -0.590626 0.643355 0.833202Z" fill="url(#paint8_linear_2001_556)"/>
<path d="M7.9207 3.03753C7.9207 3.03753 7.77304 2.48909 7.59375 1.87737C7.29843 0.812138 6.33867 0.0633101 5.23125 0.0105757C3.50156 -0.0632524 1.89843 0.179326 0.643355 0.833232C-0.137114 1.23401 -0.221488 2.30979 0.464058 2.84768C1.08632 3.33284 1.70859 3.95511 2.24648 4.79886C4.01836 3.61761 6.01171 2.7844 7.9207 3.03753Z" fill="url(#paint9_linear_2001_556)"/>
<path d="M12.5613 51.6903C13.6054 51.8274 14.5652 51.1102 14.7445 50.0661C15.3035 46.7965 16.1894 43.6008 17.4023 40.5C17.782 39.5192 17.339 38.4118 16.3687 37.9899C15.3456 37.5469 14.1749 38.0426 13.7742 39.0762C12.4769 42.4196 11.5066 45.8789 10.9054 49.4121C10.7156 50.509 11.4644 51.5426 12.5613 51.6903Z" fill="url(#paint10_linear_2001_556)"/>
<path d="M12.5613 51.6903C13.6054 51.8274 14.5652 51.1102 14.7445 50.0661C15.3035 46.7965 16.1894 43.6008 17.4023 40.5C17.782 39.5192 17.339 38.4118 16.3687 37.9899C15.3456 37.5469 14.1749 38.0426 13.7742 39.0762C12.4769 42.4196 11.5066 45.8789 10.9054 49.4121C10.7156 50.509 11.4644 51.5426 12.5613 51.6903Z" fill="url(#paint11_linear_2001_556)"/>
<path d="M22.328 12.6458C31.2085 7.94186 45.9213 6.79225 52.9877 11.9919C54.4538 13.0676 54.285 15.3141 52.6924 16.2001C49.4967 17.9719 46.0057 21.1993 43.928 27.8649C43.2319 30.1114 42.4936 32.6532 41.8186 35.0579C38.7389 46.0794 25.5237 50.72 16.3585 43.8645C14.5233 42.4934 12.9835 40.7426 11.876 38.6438C7.20376 29.8161 11.8866 18.1723 22.328 12.6458Z" fill="url(#paint12_linear_2001_556)"/>
<path d="M22.328 12.6458C31.2085 7.94186 45.9213 6.79225 52.9877 11.9919C54.4538 13.0676 54.285 15.3141 52.6924 16.2001C49.4967 17.9719 46.0057 21.1993 43.928 27.8649C43.2319 30.1114 42.4936 32.6532 41.8186 35.0579C38.7389 46.0794 25.5237 50.72 16.3585 43.8645C14.5233 42.4934 12.9835 40.7426 11.876 38.6438C7.20376 29.8161 11.8866 18.1723 22.328 12.6458Z" fill="url(#paint13_linear_2001_556)"/>
<path d="M22.328 12.6458C31.2085 7.94186 45.9213 6.79225 52.9877 11.9919C54.4538 13.0676 54.285 15.3141 52.6924 16.2001C49.4967 17.9719 46.0057 21.1993 43.928 27.8649C43.2319 30.1114 42.4936 32.6532 41.8186 35.0579C38.7389 46.0794 25.5237 50.72 16.3585 43.8645C14.5233 42.4934 12.9835 40.7426 11.876 38.6438C7.20376 29.8161 11.8866 18.1723 22.328 12.6458Z" fill="url(#paint14_linear_2001_556)"/>
<path d="M53.9051 13.3102C54.2004 14.3754 53.768 15.5989 52.6922 16.2001C49.4965 17.9719 46.0055 21.1993 43.9277 27.8649C43.2316 30.1114 42.4934 32.6532 41.8184 35.0579C38.7387 46.0794 25.5234 50.72 16.3582 43.8645C15.177 42.9786 14.1328 41.945 13.2363 40.7637C14.5652 34.3196 17.9613 27.9282 23.3191 22.6864C32.1469 14.059 43.9805 10.8211 53.9051 13.3102Z" fill="url(#paint15_linear_2001_556)"/>
<path d="M16.3584 43.8645C14.5232 42.4934 12.9834 40.7426 11.8759 38.6437C7.50953 30.3961 11.3064 19.7016 20.3451 13.8164L41.6603 35.6168C38.2959 46.227 25.3654 50.6039 16.3584 43.8645Z" fill="url(#paint16_linear_2001_556)"/>
<path d="M12.6144 26.8629C12.8992 32.1785 14.5234 36.2074 14.5234 36.2074C22.2437 31.1766 35.9652 36.5344 40.4265 38.5067C41.0066 37.4414 41.4707 36.2918 41.8187 35.0684C42.4937 32.6531 43.232 30.1219 43.9281 27.8754C46.0058 21.1992 49.4863 17.9824 52.6926 16.2106C54.2851 15.3246 54.4644 13.0887 52.9879 12.0024C45.9215 6.80275 31.2086 7.95236 22.3281 12.6563C20.0394 13.8692 18.0355 15.3668 16.3375 17.0649C13.764 19.6383 12.4246 23.2137 12.6144 26.8629Z" fill="url(#paint17_linear_2001_556)"/>
<path d="M52.9879 11.9918C54.4539 13.0676 54.2852 15.3141 52.6926 16.2001C49.5496 17.9403 46.1324 21.0833 44.0441 27.5274C38.5176 24.184 29.848 20.1446 23.3301 22.6758C23.3301 22.6758 23.3723 20.577 23.425 18.2461C23.5094 14.1856 26.3148 10.6946 30.2699 9.74536C38.391 7.78364 47.7777 8.15279 52.9879 11.9918Z" fill="url(#paint18_linear_2001_556)"/>
<path d="M37.2305 14.175C37.2305 14.175 37.7156 13.0993 38.2746 11.8864C39.2449 9.77698 41.4703 8.53245 43.7801 8.80667C47.3766 9.22855 50.6145 10.2516 52.9875 12.0024C54.4535 13.0782 54.2848 15.3246 52.6922 16.2106C51.2578 17.0016 49.7707 18.0879 48.3785 19.6489C45.0984 16.643 41.2594 14.27 37.2305 14.175Z" fill="url(#paint19_linear_2001_556)"/>
<path d="M24.6585 52.0383C24.8167 52.5973 25.2175 53.0192 25.7132 53.2196C26.0718 53.3672 26.4831 53.3989 26.8839 53.2934C32.6741 51.6797 37.9054 48.8743 42.314 45.109L38.5171 43.5481C34.8257 46.3852 30.5647 48.5262 25.9136 49.8235C24.9538 50.0766 24.3948 51.0786 24.6585 52.0383Z" fill="url(#paint20_linear_2001_556)"/>
<path d="M24.6585 52.0383C24.8167 52.5973 25.2175 53.0192 25.7132 53.2196C26.0718 53.3672 26.4831 53.3989 26.8839 53.2934C32.6741 51.6797 37.9054 48.8743 42.314 45.109L38.5171 43.5481C34.8257 46.3852 30.5647 48.5262 25.9136 49.8235C24.9538 50.0766 24.3948 51.0786 24.6585 52.0383Z" fill="url(#paint21_linear_2001_556)"/>
<path d="M48.3153 43.2105C46.5118 47.5242 43.3372 50.8886 39.5087 53.0085C33.054 56.5734 25.7344 49.8867 28.6243 43.0945C29.7106 40.5421 32.0731 38.7808 34.8258 38.4222C36.7981 38.1585 38.7704 37.6523 40.7005 36.8718C43.0313 35.9332 45.1407 34.6675 46.9864 33.1593C48.0938 32.2523 49.7602 33.0117 49.8446 34.4355C49.9923 37.3464 49.5071 40.3417 48.3153 43.2105Z" fill="url(#paint22_linear_2001_556)"/>
<path d="M48.3153 43.2105C46.5118 47.5242 43.3372 50.8886 39.5087 53.0085C33.054 56.5734 25.7344 49.8867 28.6243 43.0945C29.7106 40.5421 32.0731 38.7808 34.8258 38.4222C36.7981 38.1585 38.7704 37.6523 40.7005 36.8718C43.0313 35.9332 45.1407 34.6675 46.9864 33.1593C48.0938 32.2523 49.7602 33.0117 49.8446 34.4355C49.9923 37.3464 49.5071 40.3417 48.3153 43.2105Z" fill="url(#paint23_linear_2001_556)"/>
<path d="M46.3641 46.7964C44.5712 49.412 42.1981 51.5214 39.5087 53.0085C33.054 56.5733 25.7344 49.8761 28.6243 43.0944C29.1727 41.8183 30.027 40.7425 31.1028 39.9304C32.168 39.1288 33.4548 38.5909 34.8258 38.4116C35.7434 38.2956 36.661 38.1163 37.568 37.8843L46.3641 46.7964Z" fill="url(#paint24_linear_2001_556)"/>
<path d="M48.9162 32.9906C48.3362 32.6742 47.5768 32.6742 46.9862 33.1593C45.1405 34.6675 43.0311 35.9331 40.7002 36.8718C38.7702 37.6523 36.7979 38.1585 34.8256 38.4222C32.0729 38.7808 29.7104 40.5421 28.6241 43.0945C27.4217 45.921 27.9912 48.7371 29.5311 50.8042C38.3377 48.062 45.4674 41.4703 48.9162 32.9906Z" fill="url(#paint25_linear_2001_556)"/>
</g>
<defs>
<linearGradient id="paint0_linear_2001_556" x1="15.5911" y1="19.2929" x2="17.3197" y2="19.1436" gradientUnits="userSpaceOnUse">
<stop stop-color="#BBEC6C"/>
<stop offset="0.2292" stop-color="#B7E967"/>
<stop offset="0.4667" stop-color="#ADE05B"/>
<stop offset="0.7079" stop-color="#9DD146"/>
<stop offset="0.9504" stop-color="#86BC29"/>
<stop offset="1" stop-color="#81B823"/>
</linearGradient>
<linearGradient id="paint1_linear_2001_556" x1="16.3014" y1="20.6061" x2="16.6801" y2="17.5368" gradientUnits="userSpaceOnUse">
<stop stop-color="#017B4E" stop-opacity="0"/>
<stop offset="0.1753" stop-color="#017B4E" stop-opacity="0.034"/>
<stop offset="0.3569" stop-color="#017B4E" stop-opacity="0.135"/>
<stop offset="0.5415" stop-color="#017B4E" stop-opacity="0.304"/>
<stop offset="0.7281" stop-color="#017B4E" stop-opacity="0.54"/>
<stop offset="0.9146" stop-color="#017B4E" stop-opacity="0.841"/>
<stop offset="1" stop-color="#017B4E"/>
</linearGradient>
<linearGradient id="paint2_linear_2001_556" x1="2.29938" y1="11.0793" x2="18.69" y2="7.26703" gradientUnits="userSpaceOnUse">
<stop stop-color="#BBEC6C"/>
<stop offset="0.2292" stop-color="#B7E967"/>
<stop offset="0.4667" stop-color="#ADE05B"/>
<stop offset="0.7079" stop-color="#9DD146"/>
<stop offset="0.9504" stop-color="#86BC29"/>
<stop offset="1" stop-color="#81B823"/>
</linearGradient>
<linearGradient id="paint3_linear_2001_556" x1="15.4706" y1="8.48326" x2="20.5804" y2="7.61007" gradientUnits="userSpaceOnUse">
<stop stop-color="#017B4E" stop-opacity="0"/>
<stop offset="0.1753" stop-color="#017B4E" stop-opacity="0.034"/>
<stop offset="0.3569" stop-color="#017B4E" stop-opacity="0.135"/>
<stop offset="0.5415" stop-color="#017B4E" stop-opacity="0.304"/>
<stop offset="0.7281" stop-color="#017B4E" stop-opacity="0.54"/>
<stop offset="0.9146" stop-color="#017B4E" stop-opacity="0.841"/>
<stop offset="1" stop-color="#017B4E"/>
</linearGradient>
<linearGradient id="paint4_linear_2001_556" x1="11.5947" y1="6.65384" x2="18.1359" y2="0.825547" gradientUnits="userSpaceOnUse">
<stop stop-color="#017B4E" stop-opacity="0"/>
<stop offset="0.1753" stop-color="#017B4E" stop-opacity="0.034"/>
<stop offset="0.3569" stop-color="#017B4E" stop-opacity="0.135"/>
<stop offset="0.5415" stop-color="#017B4E" stop-opacity="0.304"/>
<stop offset="0.7281" stop-color="#017B4E" stop-opacity="0.54"/>
<stop offset="0.9146" stop-color="#017B4E" stop-opacity="0.841"/>
<stop offset="1" stop-color="#017B4E"/>
</linearGradient>
<linearGradient id="paint5_linear_2001_556" x1="4.48806" y1="10.3921" x2="23.4893" y2="10.6434" gradientUnits="userSpaceOnUse">
<stop stop-color="#017B4E" stop-opacity="0"/>
<stop offset="0.1753" stop-color="#017B4E" stop-opacity="0.034"/>
<stop offset="0.3569" stop-color="#017B4E" stop-opacity="0.135"/>
<stop offset="0.5415" stop-color="#017B4E" stop-opacity="0.304"/>
<stop offset="0.7281" stop-color="#017B4E" stop-opacity="0.54"/>
<stop offset="0.9146" stop-color="#017B4E" stop-opacity="0.841"/>
<stop offset="1" stop-color="#017B4E"/>
</linearGradient>
<linearGradient id="paint6_linear_2001_556" x1="12.1368" y1="11.9523" x2="17.4978" y2="19.1753" gradientUnits="userSpaceOnUse">
<stop stop-color="#017B4E" stop-opacity="0"/>
<stop offset="0.1753" stop-color="#017B4E" stop-opacity="0.034"/>
<stop offset="0.3569" stop-color="#017B4E" stop-opacity="0.135"/>
<stop offset="0.5415" stop-color="#017B4E" stop-opacity="0.304"/>
<stop offset="0.7281" stop-color="#017B4E" stop-opacity="0.54"/>
<stop offset="0.9146" stop-color="#017B4E" stop-opacity="0.841"/>
<stop offset="1" stop-color="#017B4E"/>
</linearGradient>
<linearGradient id="paint7_linear_2001_556" x1="11.176" y1="10.3745" x2="17.4365" y2="19.0279" gradientUnits="userSpaceOnUse">
<stop stop-color="#017B4E" stop-opacity="0"/>
<stop offset="0.1753" stop-color="#017B4E" stop-opacity="0.034"/>
<stop offset="0.3569" stop-color="#017B4E" stop-opacity="0.135"/>
<stop offset="0.5415" stop-color="#017B4E" stop-opacity="0.304"/>
<stop offset="0.7281" stop-color="#017B4E" stop-opacity="0.54"/>
<stop offset="0.9146" stop-color="#017B4E" stop-opacity="0.841"/>
<stop offset="1" stop-color="#017B4E"/>
</linearGradient>
<linearGradient id="paint8_linear_2001_556" x1="8.34396" y1="5.72331" x2="13.8572" y2="11.7579" gradientUnits="userSpaceOnUse">
<stop stop-color="#017B4E" stop-opacity="0"/>
<stop offset="0.1753" stop-color="#017B4E" stop-opacity="0.034"/>
<stop offset="0.3569" stop-color="#017B4E" stop-opacity="0.135"/>
<stop offset="0.5415" stop-color="#017B4E" stop-opacity="0.304"/>
<stop offset="0.7281" stop-color="#017B4E" stop-opacity="0.54"/>
<stop offset="0.9146" stop-color="#017B4E" stop-opacity="0.841"/>
<stop offset="1" stop-color="#017B4E"/>
</linearGradient>
<linearGradient id="paint9_linear_2001_556" x1="3.95341" y1="2.34434" x2="10.0362" y2="6.60618" gradientUnits="userSpaceOnUse">
<stop stop-color="#017B4E" stop-opacity="0"/>
<stop offset="0.1753" stop-color="#017B4E" stop-opacity="0.034"/>
<stop offset="0.3569" stop-color="#017B4E" stop-opacity="0.135"/>
<stop offset="0.5415" stop-color="#017B4E" stop-opacity="0.304"/>
<stop offset="0.7281" stop-color="#017B4E" stop-opacity="0.54"/>
<stop offset="0.9146" stop-color="#017B4E" stop-opacity="0.841"/>
<stop offset="1" stop-color="#017B4E"/>
</linearGradient>
<linearGradient id="paint10_linear_2001_556" x1="15.9722" y1="45.193" x2="12.4535" y2="44.3185" gradientUnits="userSpaceOnUse">
<stop stop-color="#BBEC6C"/>
<stop offset="0.2292" stop-color="#B7E967"/>
<stop offset="0.4667" stop-color="#ADE05B"/>
<stop offset="0.7079" stop-color="#9DD146"/>
<stop offset="0.9504" stop-color="#86BC29"/>
<stop offset="1" stop-color="#81B823"/>
</linearGradient>
<linearGradient id="paint11_linear_2001_556" x1="14.0761" y1="47.6707" x2="14.2997" y2="41.2118" gradientUnits="userSpaceOnUse">
<stop stop-color="#017B4E" stop-opacity="0"/>
<stop offset="0.1753" stop-color="#017B4E" stop-opacity="0.034"/>
<stop offset="0.3569" stop-color="#017B4E" stop-opacity="0.135"/>
<stop offset="0.5415" stop-color="#017B4E" stop-opacity="0.304"/>
<stop offset="0.7281" stop-color="#017B4E" stop-opacity="0.54"/>
<stop offset="0.9146" stop-color="#017B4E" stop-opacity="0.841"/>
<stop offset="1" stop-color="#017B4E"/>
</linearGradient>
<linearGradient id="paint12_linear_2001_556" x1="23.8366" y1="9.15367" x2="40.7335" y2="40.4431" gradientUnits="userSpaceOnUse">
<stop stop-color="#BBEC6C"/>
<stop offset="0.2292" stop-color="#B7E967"/>
<stop offset="0.4667" stop-color="#ADE05B"/>
<stop offset="0.7079" stop-color="#9DD146"/>
<stop offset="0.9504" stop-color="#86BC29"/>
<stop offset="1" stop-color="#81B823"/>
</linearGradient>
<linearGradient id="paint13_linear_2001_556" x1="29.877" y1="25.8849" x2="47.8703" y2="33.8397" gradientUnits="userSpaceOnUse">
<stop stop-color="#017B4E" stop-opacity="0"/>
<stop offset="0.1753" stop-color="#017B4E" stop-opacity="0.034"/>
<stop offset="0.3569" stop-color="#017B4E" stop-opacity="0.135"/>
<stop offset="0.5415" stop-color="#017B4E" stop-opacity="0.304"/>
<stop offset="0.7281" stop-color="#017B4E" stop-opacity="0.54"/>
<stop offset="0.9146" stop-color="#017B4E" stop-opacity="0.841"/>
<stop offset="1" stop-color="#017B4E"/>
</linearGradient>
<linearGradient id="paint14_linear_2001_556" x1="22.4734" y1="33.7008" x2="12.0376" y2="43.0263" gradientUnits="userSpaceOnUse">
<stop stop-color="#017B4E" stop-opacity="0"/>
<stop offset="0.1753" stop-color="#017B4E" stop-opacity="0.034"/>
<stop offset="0.3569" stop-color="#017B4E" stop-opacity="0.135"/>
<stop offset="0.5415" stop-color="#017B4E" stop-opacity="0.304"/>
<stop offset="0.7281" stop-color="#017B4E" stop-opacity="0.54"/>
<stop offset="0.9146" stop-color="#017B4E" stop-opacity="0.841"/>
<stop offset="1" stop-color="#017B4E"/>
</linearGradient>
<linearGradient id="paint15_linear_2001_556" x1="41.6541" y1="30.4625" x2="2.34121" y2="24.7223" gradientUnits="userSpaceOnUse">
<stop stop-color="#017B4E" stop-opacity="0"/>
<stop offset="0.1753" stop-color="#017B4E" stop-opacity="0.034"/>
<stop offset="0.3569" stop-color="#017B4E" stop-opacity="0.135"/>
<stop offset="0.5415" stop-color="#017B4E" stop-opacity="0.304"/>
<stop offset="0.7281" stop-color="#017B4E" stop-opacity="0.54"/>
<stop offset="0.9146" stop-color="#017B4E" stop-opacity="0.841"/>
<stop offset="1" stop-color="#017B4E"/>
</linearGradient>
<linearGradient id="paint16_linear_2001_556" x1="25.0673" y1="37.4866" x2="23.3335" y2="47.7845" gradientUnits="userSpaceOnUse">
<stop stop-color="#017B4E" stop-opacity="0"/>
<stop offset="0.1753" stop-color="#017B4E" stop-opacity="0.034"/>
<stop offset="0.3569" stop-color="#017B4E" stop-opacity="0.135"/>
<stop offset="0.5415" stop-color="#017B4E" stop-opacity="0.304"/>
<stop offset="0.7281" stop-color="#017B4E" stop-opacity="0.54"/>
<stop offset="0.9146" stop-color="#017B4E" stop-opacity="0.841"/>
<stop offset="1" stop-color="#017B4E"/>
</linearGradient>
<linearGradient id="paint17_linear_2001_556" x1="27.8524" y1="28.223" x2="12.0763" y2="44.0267" gradientUnits="userSpaceOnUse">
<stop stop-color="#017B4E" stop-opacity="0"/>
<stop offset="0.1753" stop-color="#017B4E" stop-opacity="0.034"/>
<stop offset="0.3569" stop-color="#017B4E" stop-opacity="0.135"/>
<stop offset="0.5415" stop-color="#017B4E" stop-opacity="0.304"/>
<stop offset="0.7281" stop-color="#017B4E" stop-opacity="0.54"/>
<stop offset="0.9146" stop-color="#017B4E" stop-opacity="0.841"/>
<stop offset="1" stop-color="#017B4E"/>
</linearGradient>
<linearGradient id="paint18_linear_2001_556" x1="35.2315" y1="19.553" x2="21.8611" y2="30.1961" gradientUnits="userSpaceOnUse">
<stop stop-color="#017B4E" stop-opacity="0"/>
<stop offset="0.1753" stop-color="#017B4E" stop-opacity="0.034"/>
<stop offset="0.3569" stop-color="#017B4E" stop-opacity="0.135"/>
<stop offset="0.5415" stop-color="#017B4E" stop-opacity="0.304"/>
<stop offset="0.7281" stop-color="#017B4E" stop-opacity="0.54"/>
<stop offset="0.9146" stop-color="#017B4E" stop-opacity="0.841"/>
<stop offset="1" stop-color="#017B4E"/>
</linearGradient>
<linearGradient id="paint19_linear_2001_556" x1="45.4089" y1="14.0228" x2="31.4466" y2="20.8183" gradientUnits="userSpaceOnUse">
<stop stop-color="#017B4E" stop-opacity="0"/>
<stop offset="0.1753" stop-color="#017B4E" stop-opacity="0.034"/>
<stop offset="0.3569" stop-color="#017B4E" stop-opacity="0.135"/>
<stop offset="0.5415" stop-color="#017B4E" stop-opacity="0.304"/>
<stop offset="0.7281" stop-color="#017B4E" stop-opacity="0.54"/>
<stop offset="0.9146" stop-color="#017B4E" stop-opacity="0.841"/>
<stop offset="1" stop-color="#017B4E"/>
</linearGradient>
<linearGradient id="paint20_linear_2001_556" x1="32.7952" y1="46.9358" x2="34.0808" y2="50.1112" gradientUnits="userSpaceOnUse">
<stop stop-color="#BBEC6C"/>
<stop offset="0.2292" stop-color="#B7E967"/>
<stop offset="0.4667" stop-color="#ADE05B"/>
<stop offset="0.7079" stop-color="#9DD146"/>
<stop offset="0.9504" stop-color="#86BC29"/>
<stop offset="1" stop-color="#81B823"/>
</linearGradient>
<linearGradient id="paint21_linear_2001_556" x1="25.2263" y1="47.9229" x2="30.788" y2="48.3322" gradientUnits="userSpaceOnUse">
<stop stop-color="#017B4E" stop-opacity="0"/>
<stop offset="0.1753" stop-color="#017B4E" stop-opacity="0.034"/>
<stop offset="0.3569" stop-color="#017B4E" stop-opacity="0.135"/>
<stop offset="0.5415" stop-color="#017B4E" stop-opacity="0.304"/>
<stop offset="0.7281" stop-color="#017B4E" stop-opacity="0.54"/>
<stop offset="0.9146" stop-color="#017B4E" stop-opacity="0.841"/>
<stop offset="1" stop-color="#017B4E"/>
</linearGradient>
<linearGradient id="paint22_linear_2001_556" x1="41.8471" y1="30.9559" x2="35.4944" y2="54.1569" gradientUnits="userSpaceOnUse">
<stop stop-color="#BBEC6C"/>
<stop offset="0.2292" stop-color="#B7E967"/>
<stop offset="0.4667" stop-color="#ADE05B"/>
<stop offset="0.7079" stop-color="#9DD146"/>
<stop offset="0.9504" stop-color="#86BC29"/>
<stop offset="1" stop-color="#81B823"/>
</linearGradient>
<linearGradient id="paint23_linear_2001_556" x1="40.3571" y1="43.7333" x2="44.7057" y2="51.5739" gradientUnits="userSpaceOnUse">
<stop stop-color="#017B4E" stop-opacity="0"/>
<stop offset="0.1753" stop-color="#017B4E" stop-opacity="0.034"/>
<stop offset="0.3569" stop-color="#017B4E" stop-opacity="0.135"/>
<stop offset="0.5415" stop-color="#017B4E" stop-opacity="0.304"/>
<stop offset="0.7281" stop-color="#017B4E" stop-opacity="0.54"/>
<stop offset="0.9146" stop-color="#017B4E" stop-opacity="0.841"/>
<stop offset="1" stop-color="#017B4E"/>
</linearGradient>
<linearGradient id="paint24_linear_2001_556" x1="35.8755" y1="47.5691" x2="31.6817" y2="54.6258" gradientUnits="userSpaceOnUse">
<stop stop-color="#017B4E" stop-opacity="0"/>
<stop offset="0.1753" stop-color="#017B4E" stop-opacity="0.034"/>
<stop offset="0.3569" stop-color="#017B4E" stop-opacity="0.135"/>
<stop offset="0.5415" stop-color="#017B4E" stop-opacity="0.304"/>
<stop offset="0.7281" stop-color="#017B4E" stop-opacity="0.54"/>
<stop offset="0.9146" stop-color="#017B4E" stop-opacity="0.841"/>
<stop offset="1" stop-color="#017B4E"/>
</linearGradient>
<linearGradient id="paint25_linear_2001_556" x1="38.0177" y1="39.824" x2="44.5414" y2="51.4627" gradientUnits="userSpaceOnUse">
<stop stop-color="#017B4E" stop-opacity="0"/>
<stop offset="0.1753" stop-color="#017B4E" stop-opacity="0.034"/>
<stop offset="0.3569" stop-color="#017B4E" stop-opacity="0.135"/>
<stop offset="0.5415" stop-color="#017B4E" stop-opacity="0.304"/>
<stop offset="0.7281" stop-color="#017B4E" stop-opacity="0.54"/>
<stop offset="0.9146" stop-color="#017B4E" stop-opacity="0.841"/>
<stop offset="1" stop-color="#017B4E"/>
</linearGradient>
<clipPath id="clip0_2001_556">
<rect width="54" height="54" fill="white"/>
</clipPath>
</defs>
</svg>
