<svg width="54" height="54" viewBox="0 0 54 54" fill="none" xmlns="http://www.w3.org/2000/svg">
<g clip-path="url(#clip0_2001_347)">
<path d="M16.1998 49.4332C19.5537 46.0793 19.4061 40.5528 15.7674 37.3887C12.6666 34.6993 7.97326 34.7309 4.90412 37.4731C3.14279 39.0446 2.23576 41.175 2.16193 43.3371C2.1092 45.0668 1.6135 46.7438 0.843573 48.2836C-0.19002 50.3614 -0.316583 52.2809 0.695917 53.2934C1.70842 54.3059 3.62795 54.1793 5.70568 53.1457C7.25607 52.3758 8.94357 51.8907 10.6733 51.8274C12.6877 51.7641 14.6705 50.9731 16.1998 49.4332Z" fill="url(#paint0_linear_2001_347)"/>
<path d="M16.1998 49.4332C19.5537 46.0793 19.4061 40.5528 15.7674 37.3887C12.6666 34.6993 7.97326 34.7309 4.90412 37.4731C3.14279 39.0446 2.23576 41.175 2.16193 43.3371C2.1092 45.0668 1.6135 46.7438 0.843573 48.2836C-0.19002 50.3614 -0.316583 52.2809 0.695917 53.2934C1.70842 54.3059 3.62795 54.1793 5.70568 53.1457C7.25607 52.3758 8.94357 51.8907 10.6733 51.8274C12.6877 51.7641 14.6705 50.9731 16.1998 49.4332Z" fill="url(#paint1_linear_2001_347)"/>
<path d="M16.1998 49.4332C19.5537 46.0793 19.4061 40.5528 15.7674 37.3887C12.6666 34.6993 7.97326 34.7309 4.90412 37.4731C3.14279 39.0446 2.23576 41.175 2.16193 43.3371C2.1092 45.0668 1.6135 46.7438 0.843573 48.2836C-0.19002 50.3614 -0.316583 52.2809 0.695917 53.2934C1.70842 54.3059 3.62795 54.1793 5.70568 53.1457C7.25607 52.3758 8.94357 51.8907 10.6733 51.8274C12.6877 51.7641 14.6705 50.9731 16.1998 49.4332Z" fill="url(#paint2_linear_2001_347)"/>
<path d="M14.1957 46.6805C16.1785 44.6977 16.0942 41.4387 13.9426 39.5719C12.1074 37.9794 9.33362 38.0005 7.5301 39.6247C6.49651 40.5528 5.94807 41.8184 5.90588 43.084C5.87424 44.1071 5.57893 45.0985 5.12542 46.0055C4.5137 47.2395 4.43987 48.368 5.04104 48.9692C5.64221 49.5704 6.77073 49.486 8.00471 48.8848C8.92229 48.4313 9.9137 48.1465 10.9367 48.1044C12.118 48.0516 13.2887 47.577 14.1957 46.6805Z" fill="url(#paint3_linear_2001_347)"/>
<path d="M24.2892 16.5586H4.25017C2.30954 16.5586 1.33923 18.9105 2.71032 20.2816L12.5506 30.1219L24.2892 16.5586Z" fill="url(#paint4_linear_2001_347)"/>
<path d="M24.2892 16.5586H4.25017C2.30954 16.5586 1.33923 18.9105 2.71032 20.2816L12.5506 30.1219L24.2892 16.5586Z" fill="url(#paint5_linear_2001_347)"/>
<path d="M37.4412 29.7104V49.739C37.4412 51.6796 35.0893 52.6499 33.7182 51.2788L23.8779 41.4491L37.4412 29.7104Z" fill="url(#paint6_linear_2001_347)"/>
<path d="M37.4412 29.7104V49.739C37.4412 51.6796 35.0893 52.6499 33.7182 51.2788L23.8779 41.4491L37.4412 29.7104Z" fill="url(#paint7_linear_2001_347)"/>
<path d="M37.4412 29.7104V49.739C37.4412 51.6796 35.0893 52.6499 33.7182 51.2788L23.8779 41.4491L37.4412 29.7104Z" fill="url(#paint8_linear_2001_347)"/>
<path d="M37.4412 29.7104V49.739C37.4412 51.6796 35.0893 52.6499 33.7182 51.2788L23.8779 41.4491L37.4412 29.7104Z" fill="url(#paint9_linear_2001_347)"/>
<path d="M16.7375 48.6315L5.36798 37.262C4.99884 36.8929 5.16759 36.2812 5.66329 36.1335L11.7699 34.4038L19.6063 42.2401L17.8766 48.3468C17.7289 48.8425 17.1066 49.0007 16.7375 48.6315Z" fill="url(#paint10_linear_2001_347)"/>
<path d="M16.7375 48.6315L5.36798 37.262C4.99884 36.8929 5.16759 36.2812 5.66329 36.1335L11.7699 34.4038L19.6063 42.2401L17.8766 48.3468C17.7289 48.8425 17.1066 49.0007 16.7375 48.6315Z" fill="url(#paint11_linear_2001_347)"/>
<path d="M16.7375 48.6315L5.36798 37.262C4.99884 36.8929 5.16759 36.2812 5.66329 36.1335L11.7699 34.4038L19.6063 42.2401L17.8766 48.3468C17.7289 48.8425 17.1066 49.0007 16.7375 48.6315Z" fill="url(#paint12_linear_2001_347)"/>
<path d="M16.7375 48.6315L5.36798 37.262C4.99884 36.8929 5.16759 36.2812 5.66329 36.1335L11.7699 34.4038L19.6063 42.2401L17.8766 48.3468C17.7289 48.8425 17.1066 49.0007 16.7375 48.6315Z" fill="url(#paint13_linear_2001_347)"/>
<path d="M15.166 47.06L6.93945 38.8335L13.2043 35.8381L18.1613 40.7952L15.166 47.06Z" fill="url(#paint14_linear_2001_347)"/>
<path d="M12.3814 44.2757L9.72363 41.6179L14.8811 37.5151L16.4842 39.1183L12.3814 44.2757Z" fill="url(#paint15_linear_2001_347)"/>
<path d="M13.0356 30.723L23.2872 40.9746C23.7407 41.4281 23.7407 42.177 23.2872 42.6305L21.2095 44.7082C20.756 45.1617 20.0071 45.1617 19.5536 44.7082L9.30205 34.4566C8.84854 34.0031 8.84854 33.2543 9.30205 32.8008L11.3798 30.723C11.8333 30.259 12.5821 30.259 13.0356 30.723Z" fill="url(#paint16_linear_2001_347)"/>
<path d="M13.0356 30.723L23.2872 40.9746C23.7407 41.4281 23.7407 42.177 23.2872 42.6305L21.2095 44.7082C20.756 45.1617 20.0071 45.1617 19.5536 44.7082L9.30205 34.4566C8.84854 34.0031 8.84854 33.2543 9.30205 32.8008L11.3798 30.723C11.8333 30.259 12.5821 30.259 13.0356 30.723Z" fill="url(#paint17_linear_2001_347)"/>
<path d="M13.0356 30.723L23.2872 40.9746C23.7407 41.4281 23.7407 42.177 23.2872 42.6305L21.2095 44.7082C20.756 45.1617 20.0071 45.1617 19.5536 44.7082L9.30205 34.4566C8.84854 34.0031 8.84854 33.2543 9.30205 32.8008L11.3798 30.723C11.8333 30.259 12.5821 30.259 13.0356 30.723Z" fill="url(#paint18_linear_2001_347)"/>
<path d="M21.2833 44.6238L23.2028 42.7042C23.6985 42.2085 23.6985 41.3964 23.2028 40.9007L17.6974 35.3953L14.4067 38.264V39.5718L19.4587 44.6238C19.9755 45.1195 20.7876 45.1195 21.2833 44.6238Z" fill="url(#paint19_linear_2001_347)"/>
<path d="M23.2027 40.8903L18.5305 36.218L14.7969 39.9516L19.4691 44.6239C19.9648 45.1196 20.777 45.1196 21.2727 44.6239L23.1922 42.7043C23.709 42.1981 23.709 41.386 23.2027 40.8903Z" fill="url(#paint20_linear_2001_347)"/>
<path d="M42.5989 28.3078C41.7446 29.1621 40.8586 29.9531 39.9516 30.6914L24.8063 42.8414C24.1946 43.3266 23.3192 43.2844 22.7602 42.7254L11.2641 31.2293C10.7157 30.6809 10.6629 29.7949 11.1481 29.1832L23.3086 14.0379C27.0528 9.39727 32.3684 5.48438 38.9707 2.79492L48.3047 5.69531L51.2051 15.0293C49.043 20.3344 46.0899 24.8062 42.5989 28.3078Z" fill="url(#paint21_linear_2001_347)"/>
<path d="M51.205 15.0188L48.3046 5.69536L43.6956 4.26099L13.9956 33.961L22.7601 42.7254C23.3085 43.2739 24.1944 43.3266 24.8062 42.8415L39.9515 30.6809C40.869 29.9426 41.755 29.1516 42.5987 28.2973C46.0897 24.8063 49.0429 20.3344 51.205 15.0188Z" fill="url(#paint22_linear_2001_347)"/>
<path d="M51.205 15.0188L48.3046 5.69536L43.6956 4.26099L13.9956 33.961L22.7601 42.7254C23.3085 43.2739 24.1944 43.3266 24.8062 42.8415L39.9515 30.6809C40.869 29.9426 41.755 29.1516 42.5987 28.2973C46.0897 24.8063 49.0429 20.3344 51.205 15.0188Z" fill="url(#paint23_linear_2001_347)"/>
<path d="M28.0122 18.109V40.268L39.9407 30.6914C40.8583 29.9531 41.7442 29.1621 42.588 28.3078C43.052 27.8437 43.5056 27.3586 43.9591 26.8523V18.0879L28.0122 18.109Z" fill="url(#paint24_linear_2001_347)"/>
<path d="M51.2051 15.0293C49.4438 13.0149 47.4504 10.8844 45.2883 8.71175C43.1262 6.5391 40.9852 4.55628 38.9707 2.79496C41.7023 1.68753 44.6555 0.780503 47.809 0.11605C49.623 -0.263637 51.3316 0.348081 52.4918 1.50824C53.652 2.66839 54.2637 4.37699 53.884 6.19105C53.2195 9.34457 52.3125 12.2977 51.2051 15.0293Z" fill="url(#paint25_linear_2001_347)"/>
<path d="M51.2047 15.0293C49.4434 13.0149 47.45 10.8844 45.2879 8.71173C44.2543 7.67813 43.2313 6.68673 42.2188 5.73751L47.8508 0.105479C49.6438 -0.253115 51.3418 0.358604 52.4914 1.50821C53.6516 2.66837 54.2633 4.37696 53.8836 6.19103C53.2191 9.34454 52.3121 12.2977 51.2047 15.0293Z" fill="url(#paint26_linear_2001_347)"/>
<path d="M17.1808 21.6948L11.1585 29.2042C10.6734 29.8159 10.7156 30.6913 11.2746 31.2397L22.7707 42.7358C23.3191 43.2843 24.205 43.337 24.8062 42.8519L32.3156 36.8296L17.1808 21.6948Z" fill="url(#paint27_linear_2001_347)"/>
<path d="M35.9856 25.9874C40.3893 25.9874 43.9591 22.4176 43.9591 18.014C43.9591 13.6104 40.3893 10.0405 35.9856 10.0405C31.582 10.0405 28.0122 13.6104 28.0122 18.014C28.0122 22.4176 31.582 25.9874 35.9856 25.9874Z" fill="url(#paint28_linear_2001_347)"/>
<path d="M35.9857 25.1121C39.9059 25.1121 43.0838 21.9342 43.0838 18.0141C43.0838 14.0939 39.9059 10.916 35.9857 10.916C32.0656 10.916 28.8877 14.0939 28.8877 18.0141C28.8877 21.9342 32.0656 25.1121 35.9857 25.1121Z" fill="url(#paint29_linear_2001_347)"/>
<path d="M30.3535 12.3714C27.2422 15.4827 27.2422 20.5347 30.3535 23.6565C33.4648 26.7784 38.5168 26.7679 41.6387 23.6565C42.1977 23.0976 42.6617 22.4647 43.0203 21.8003L32.1992 10.9897C31.5348 11.3483 30.9125 11.8019 30.3535 12.3714Z" fill="url(#paint30_linear_2001_347)"/>
<path d="M41.6284 12.3713C40.9851 11.728 40.2573 11.2217 39.4874 10.842L28.814 21.5049C29.1937 22.2749 29.6999 23.0026 30.3433 23.6459C33.4546 26.7573 38.5065 26.7573 41.6284 23.6459C44.7503 20.5346 44.7503 15.4827 41.6284 12.3713Z" fill="url(#paint31_linear_2001_347)"/>
<path d="M35.9856 24.0362C39.3117 24.0362 42.0079 21.34 42.0079 18.014C42.0079 14.688 39.3117 11.9917 35.9856 11.9917C32.6596 11.9917 29.9634 14.688 29.9634 18.014C29.9634 21.34 32.6596 24.0362 35.9856 24.0362Z" fill="url(#paint32_linear_2001_347)"/>
<path d="M35.9856 24.0362C39.3117 24.0362 42.0079 21.34 42.0079 18.014C42.0079 14.688 39.3117 11.9917 35.9856 11.9917C32.6596 11.9917 29.9634 14.688 29.9634 18.014C29.9634 21.34 32.6596 24.0362 35.9856 24.0362Z" fill="url(#paint33_linear_2001_347)"/>
<path d="M35.9856 24.0362C39.3117 24.0362 42.0079 21.34 42.0079 18.014C42.0079 14.688 39.3117 11.9917 35.9856 11.9917C32.6596 11.9917 29.9634 14.688 29.9634 18.014C29.9634 21.34 32.6596 24.0362 35.9856 24.0362Z" fill="url(#paint34_linear_2001_347)"/>
<path d="M35.9856 24.0362C39.3117 24.0362 42.0079 21.34 42.0079 18.014C42.0079 14.688 39.3117 11.9917 35.9856 11.9917C32.6596 11.9917 29.9634 14.688 29.9634 18.014C29.9634 21.34 32.6596 24.0362 35.9856 24.0362Z" fill="url(#paint35_linear_2001_347)"/>
<path d="M24.0887 23.8782L30.1215 29.911C30.4695 30.2591 30.4695 30.8181 30.1215 31.1556L25.6707 35.6063C25.3227 35.9544 24.7637 35.9544 24.4262 35.6063L18.3934 29.5735C18.0453 29.2255 18.0453 28.6665 18.3934 28.329L22.8441 23.8782C23.1816 23.5302 23.7406 23.5302 24.0887 23.8782Z" fill="url(#paint36_linear_2001_347)"/>
<path d="M24.0887 23.8782L30.1215 29.911C30.4695 30.2591 30.4695 30.8181 30.1215 31.1556L25.6707 35.6063C25.3227 35.9544 24.7637 35.9544 24.4262 35.6063L18.3934 29.5735C18.0453 29.2255 18.0453 28.6665 18.3934 28.329L22.8441 23.8782C23.1816 23.5302 23.7406 23.5302 24.0887 23.8782Z" fill="url(#paint37_linear_2001_347)"/>
<path d="M24.0887 23.8782L30.1215 29.911C30.4695 30.2591 30.4695 30.8181 30.1215 31.1556L25.6707 35.6063C25.3227 35.9544 24.7637 35.9544 24.4262 35.6063L18.3934 29.5735C18.0453 29.2255 18.0453 28.6665 18.3934 28.329L22.8441 23.8782C23.1816 23.5302 23.7406 23.5302 24.0887 23.8782Z" fill="url(#paint38_linear_2001_347)"/>
<path d="M27.1687 40.9431V27.1372L16.4741 36.4501L22.7495 42.7255C23.2979 43.2739 24.1839 43.3267 24.7956 42.8415L27.1687 40.9431Z" fill="url(#paint39_linear_2001_347)"/>
<path d="M25.3018 30.1113C25.8607 29.3624 26.3986 28.5925 26.8943 27.8015C27.1791 27.348 27.2318 27.0316 27.1053 26.8945C26.9682 26.7574 26.6518 26.8101 26.1982 27.1054C25.4072 27.6117 24.6373 28.139 23.8885 28.698C22.085 30.048 20.4396 31.5245 19.0685 33.0011L14.6178 37.7999C14.4385 37.9898 14.3541 38.1902 14.4174 38.2535L15.7463 39.5824C15.8096 39.6456 16.01 39.5613 16.1998 39.382L20.9986 34.9312C21.2834 34.6675 21.5787 34.3827 21.8635 34.098C23.0447 32.9062 24.2154 31.5562 25.3018 30.1113Z" fill="url(#paint40_linear_2001_347)"/>
<path d="M18.0666 34.0874L14.6178 37.7999C14.4385 37.9897 14.3541 38.1901 14.4174 38.2534L15.7463 39.5823C15.8096 39.6456 16.01 39.5612 16.1998 39.3819L19.9123 35.9331L18.0666 34.0874Z" fill="url(#paint41_linear_2001_347)"/>
</g>
<defs>
<linearGradient id="paint0_linear_2001_347" x1="6.28791" y1="37.9169" x2="11.3317" y2="53.3173" gradientUnits="userSpaceOnUse">
<stop stop-color="#FEF48B"/>
<stop offset="0.1646" stop-color="#FDF286"/>
<stop offset="0.3352" stop-color="#FDEE7A"/>
<stop offset="0.5086" stop-color="#FCE765"/>
<stop offset="0.6839" stop-color="#FCDE48"/>
<stop offset="0.8589" stop-color="#FBD123"/>
<stop offset="1" stop-color="#FAC600"/>
</linearGradient>
<linearGradient id="paint1_linear_2001_347" x1="7.44719" y1="46.547" x2="11.1673" y2="42.8269" gradientUnits="userSpaceOnUse">
<stop stop-color="#FE9738" stop-opacity="0"/>
<stop offset="0.1207" stop-color="#FE9738" stop-opacity="0.016"/>
<stop offset="0.2459" stop-color="#FE9738" stop-opacity="0.065"/>
<stop offset="0.3731" stop-color="#FE9738" stop-opacity="0.147"/>
<stop offset="0.5018" stop-color="#FE9738" stop-opacity="0.262"/>
<stop offset="0.6317" stop-color="#FE9738" stop-opacity="0.41"/>
<stop offset="0.7625" stop-color="#FE9738" stop-opacity="0.59"/>
<stop offset="0.8916" stop-color="#FE9738" stop-opacity="0.8"/>
<stop offset="1" stop-color="#FE9738"/>
</linearGradient>
<linearGradient id="paint2_linear_2001_347" x1="9.51611" y1="48.2266" x2="10.424" y2="52.3625" gradientUnits="userSpaceOnUse">
<stop stop-color="#FE9738" stop-opacity="0"/>
<stop offset="0.1207" stop-color="#FE9738" stop-opacity="0.016"/>
<stop offset="0.2459" stop-color="#FE9738" stop-opacity="0.065"/>
<stop offset="0.3731" stop-color="#FE9738" stop-opacity="0.147"/>
<stop offset="0.5018" stop-color="#FE9738" stop-opacity="0.262"/>
<stop offset="0.6317" stop-color="#FE9738" stop-opacity="0.41"/>
<stop offset="0.7625" stop-color="#FE9738" stop-opacity="0.59"/>
<stop offset="0.8916" stop-color="#FE9738" stop-opacity="0.8"/>
<stop offset="1" stop-color="#FE9738"/>
</linearGradient>
<linearGradient id="paint3_linear_2001_347" x1="7.99559" y1="36.8044" x2="11.5262" y2="51.0281" gradientUnits="userSpaceOnUse">
<stop stop-color="#C41926" stop-opacity="0"/>
<stop offset="0.1379" stop-color="#C41926" stop-opacity="0.021"/>
<stop offset="0.2809" stop-color="#C41926" stop-opacity="0.085"/>
<stop offset="0.4263" stop-color="#C41926" stop-opacity="0.191"/>
<stop offset="0.5732" stop-color="#C41926" stop-opacity="0.339"/>
<stop offset="0.7215" stop-color="#C41926" stop-opacity="0.53"/>
<stop offset="0.8686" stop-color="#C41926" stop-opacity="0.761"/>
<stop offset="1" stop-color="#C41926"/>
</linearGradient>
<linearGradient id="paint4_linear_2001_347" x1="13.81" y1="14.901" x2="10.4055" y2="28.9524" gradientUnits="userSpaceOnUse">
<stop stop-color="#60B7FF"/>
<stop offset="0.1892" stop-color="#5EB2FC"/>
<stop offset="0.3853" stop-color="#58A6F6"/>
<stop offset="0.5845" stop-color="#4F91EB"/>
<stop offset="0.7859" stop-color="#4274DD"/>
<stop offset="0.9873" stop-color="#324FCA"/>
<stop offset="1" stop-color="#314DC9"/>
</linearGradient>
<linearGradient id="paint5_linear_2001_347" x1="8.37161" y1="22.9148" x2="6.30657" y2="24.9798" gradientUnits="userSpaceOnUse">
<stop stop-color="#192A7D" stop-opacity="0"/>
<stop offset="0.1738" stop-color="#192A7D" stop-opacity="0.033"/>
<stop offset="0.354" stop-color="#192A7D" stop-opacity="0.133"/>
<stop offset="0.537" stop-color="#192A7D" stop-opacity="0.299"/>
<stop offset="0.7221" stop-color="#192A7D" stop-opacity="0.531"/>
<stop offset="0.907" stop-color="#192A7D" stop-opacity="0.827"/>
<stop offset="1" stop-color="#192A7D"/>
</linearGradient>
<linearGradient id="paint6_linear_2001_347" x1="39.0736" y1="40.1644" x2="25.0221" y2="43.569" gradientUnits="userSpaceOnUse">
<stop stop-color="#60B7FF"/>
<stop offset="0.1892" stop-color="#5EB2FC"/>
<stop offset="0.3853" stop-color="#58A6F6"/>
<stop offset="0.5845" stop-color="#4F91EB"/>
<stop offset="0.7859" stop-color="#4274DD"/>
<stop offset="0.9873" stop-color="#324FCA"/>
<stop offset="1" stop-color="#314DC9"/>
</linearGradient>
<linearGradient id="paint7_linear_2001_347" x1="34.3785" y1="40.5506" x2="30.912" y2="35.9286" gradientUnits="userSpaceOnUse">
<stop stop-color="#192A7D" stop-opacity="0"/>
<stop offset="0.1738" stop-color="#192A7D" stop-opacity="0.033"/>
<stop offset="0.354" stop-color="#192A7D" stop-opacity="0.133"/>
<stop offset="0.537" stop-color="#192A7D" stop-opacity="0.299"/>
<stop offset="0.7221" stop-color="#192A7D" stop-opacity="0.531"/>
<stop offset="0.907" stop-color="#192A7D" stop-opacity="0.827"/>
<stop offset="1" stop-color="#192A7D"/>
</linearGradient>
<linearGradient id="paint8_linear_2001_347" x1="33.7481" y1="40.5265" x2="39.4429" y2="41.1868" gradientUnits="userSpaceOnUse">
<stop stop-color="#192A7D" stop-opacity="0"/>
<stop offset="0.1738" stop-color="#192A7D" stop-opacity="0.033"/>
<stop offset="0.354" stop-color="#192A7D" stop-opacity="0.133"/>
<stop offset="0.537" stop-color="#192A7D" stop-opacity="0.299"/>
<stop offset="0.7221" stop-color="#192A7D" stop-opacity="0.531"/>
<stop offset="0.907" stop-color="#192A7D" stop-opacity="0.827"/>
<stop offset="1" stop-color="#192A7D"/>
</linearGradient>
<linearGradient id="paint9_linear_2001_347" x1="31.0773" y1="45.6203" x2="29.0122" y2="47.6854" gradientUnits="userSpaceOnUse">
<stop stop-color="#192A7D" stop-opacity="0"/>
<stop offset="0.1738" stop-color="#192A7D" stop-opacity="0.033"/>
<stop offset="0.354" stop-color="#192A7D" stop-opacity="0.133"/>
<stop offset="0.537" stop-color="#192A7D" stop-opacity="0.299"/>
<stop offset="0.7221" stop-color="#192A7D" stop-opacity="0.531"/>
<stop offset="0.907" stop-color="#192A7D" stop-opacity="0.827"/>
<stop offset="1" stop-color="#192A7D"/>
</linearGradient>
<linearGradient id="paint10_linear_2001_347" x1="8.70588" y1="35.9778" x2="16.8268" y2="44.0986" gradientUnits="userSpaceOnUse">
<stop stop-color="#7B7179"/>
<stop offset="0.2651" stop-color="#766D74"/>
<stop offset="0.5398" stop-color="#6A6369"/>
<stop offset="0.8179" stop-color="#555255"/>
<stop offset="1" stop-color="#444444"/>
</linearGradient>
<linearGradient id="paint11_linear_2001_347" x1="12.3725" y1="41.6193" x2="14.9309" y2="39.0609" gradientUnits="userSpaceOnUse">
<stop stop-color="#444444" stop-opacity="0"/>
<stop offset="0.3899" stop-color="#3D3D3D" stop-opacity="0.16"/>
<stop offset="0.7931" stop-color="#292929" stop-opacity="0.637"/>
<stop offset="1" stop-color="#1A1A1A"/>
</linearGradient>
<linearGradient id="paint12_linear_2001_347" x1="14.2423" y1="41.5433" x2="19.6937" y2="43.8475" gradientUnits="userSpaceOnUse">
<stop stop-color="#444444" stop-opacity="0"/>
<stop offset="0.3899" stop-color="#3D3D3D" stop-opacity="0.16"/>
<stop offset="0.7931" stop-color="#292929" stop-opacity="0.637"/>
<stop offset="1" stop-color="#1A1A1A"/>
</linearGradient>
<linearGradient id="paint13_linear_2001_347" x1="12.822" y1="41.1697" x2="10.8268" y2="43.165" gradientUnits="userSpaceOnUse">
<stop stop-color="#444444" stop-opacity="0"/>
<stop offset="0.3899" stop-color="#3D3D3D" stop-opacity="0.16"/>
<stop offset="0.7931" stop-color="#292929" stop-opacity="0.637"/>
<stop offset="1" stop-color="#1A1A1A"/>
</linearGradient>
<linearGradient id="paint14_linear_2001_347" x1="16.125" y1="35.5947" x2="9.71833" y2="44.8677" gradientUnits="userSpaceOnUse">
<stop stop-color="#444444" stop-opacity="0"/>
<stop offset="0.3899" stop-color="#3D3D3D" stop-opacity="0.16"/>
<stop offset="0.7931" stop-color="#292929" stop-opacity="0.637"/>
<stop offset="1" stop-color="#1A1A1A"/>
</linearGradient>
<linearGradient id="paint15_linear_2001_347" x1="15.9154" y1="36.2854" x2="10.404" y2="44.2625" gradientUnits="userSpaceOnUse">
<stop stop-color="#444444" stop-opacity="0"/>
<stop offset="0.3899" stop-color="#3D3D3D" stop-opacity="0.16"/>
<stop offset="0.7931" stop-color="#292929" stop-opacity="0.637"/>
<stop offset="1" stop-color="#1A1A1A"/>
</linearGradient>
<linearGradient id="paint16_linear_2001_347" x1="18.3444" y1="35.6475" x2="14.1089" y2="39.8831" gradientUnits="userSpaceOnUse">
<stop stop-color="#FE646F"/>
<stop offset="0.236" stop-color="#FC5F6B"/>
<stop offset="0.4805" stop-color="#F7535F"/>
<stop offset="0.7289" stop-color="#EF3E4B"/>
<stop offset="0.9785" stop-color="#E5212F"/>
<stop offset="1" stop-color="#E41F2D"/>
</linearGradient>
<linearGradient id="paint17_linear_2001_347" x1="15.35" y1="38.642" x2="17.3326" y2="36.6594" gradientUnits="userSpaceOnUse">
<stop stop-color="#C41926" stop-opacity="0"/>
<stop offset="0.1865" stop-color="#C01926" stop-opacity="0.038"/>
<stop offset="0.3798" stop-color="#B61C26" stop-opacity="0.152"/>
<stop offset="0.5761" stop-color="#A62126" stop-opacity="0.343"/>
<stop offset="0.7747" stop-color="#8F2826" stop-opacity="0.609"/>
<stop offset="0.9732" stop-color="#713126" stop-opacity="0.949"/>
<stop offset="1" stop-color="#6D3326"/>
</linearGradient>
<linearGradient id="paint18_linear_2001_347" x1="15.7214" y1="38.2706" x2="14.3571" y2="39.6348" gradientUnits="userSpaceOnUse">
<stop stop-color="#C41926" stop-opacity="0"/>
<stop offset="0.1865" stop-color="#C01926" stop-opacity="0.038"/>
<stop offset="0.3798" stop-color="#B61C26" stop-opacity="0.152"/>
<stop offset="0.5761" stop-color="#A62126" stop-opacity="0.343"/>
<stop offset="0.7747" stop-color="#8F2826" stop-opacity="0.609"/>
<stop offset="0.9732" stop-color="#713126" stop-opacity="0.949"/>
<stop offset="1" stop-color="#6D3326"/>
</linearGradient>
<linearGradient id="paint19_linear_2001_347" x1="19.0588" y1="41.0867" x2="18.4397" y2="36.8362" gradientUnits="userSpaceOnUse">
<stop stop-color="#C41926" stop-opacity="0"/>
<stop offset="0.1865" stop-color="#C01926" stop-opacity="0.038"/>
<stop offset="0.3798" stop-color="#B61C26" stop-opacity="0.152"/>
<stop offset="0.5761" stop-color="#A62126" stop-opacity="0.343"/>
<stop offset="0.7747" stop-color="#8F2826" stop-opacity="0.609"/>
<stop offset="0.9732" stop-color="#713126" stop-opacity="0.949"/>
<stop offset="1" stop-color="#6D3326"/>
</linearGradient>
<linearGradient id="paint20_linear_2001_347" x1="19.3477" y1="40.7672" x2="22.5059" y2="43.9254" gradientUnits="userSpaceOnUse">
<stop stop-color="#C41926" stop-opacity="0"/>
<stop offset="0.1865" stop-color="#C01926" stop-opacity="0.038"/>
<stop offset="0.3798" stop-color="#B61C26" stop-opacity="0.152"/>
<stop offset="0.5761" stop-color="#A62126" stop-opacity="0.343"/>
<stop offset="0.7747" stop-color="#8F2826" stop-opacity="0.609"/>
<stop offset="0.9732" stop-color="#713126" stop-opacity="0.949"/>
<stop offset="1" stop-color="#6D3326"/>
</linearGradient>
<linearGradient id="paint21_linear_2001_347" x1="27.0198" y1="15.7064" x2="40.4138" y2="29.1004" gradientUnits="userSpaceOnUse">
<stop stop-color="#EAF6FF"/>
<stop offset="0.2677" stop-color="#E5F3FC"/>
<stop offset="0.5449" stop-color="#D9EAF6"/>
<stop offset="0.8257" stop-color="#C4DDEB"/>
<stop offset="1" stop-color="#B4D2E2"/>
</linearGradient>
<linearGradient id="paint22_linear_2001_347" x1="34.0034" y1="23.7052" x2="39.7602" y2="31.5046" gradientUnits="userSpaceOnUse">
<stop stop-color="#8D9CA8" stop-opacity="0"/>
<stop offset="0.1493" stop-color="#8D9CA8" stop-opacity="0.025"/>
<stop offset="0.304" stop-color="#8D9CA8" stop-opacity="0.099"/>
<stop offset="0.4613" stop-color="#8D9CA8" stop-opacity="0.222"/>
<stop offset="0.6204" stop-color="#8D9CA8" stop-opacity="0.395"/>
<stop offset="0.7808" stop-color="#8D9CA8" stop-opacity="0.618"/>
<stop offset="0.9402" stop-color="#8D9CA8" stop-opacity="0.887"/>
<stop offset="1" stop-color="#8D9CA8"/>
</linearGradient>
<linearGradient id="paint23_linear_2001_347" x1="37.4241" y1="25.4421" x2="43.5522" y2="29.3419" gradientUnits="userSpaceOnUse">
<stop stop-color="#8D9CA8" stop-opacity="0"/>
<stop offset="0.1493" stop-color="#8D9CA8" stop-opacity="0.025"/>
<stop offset="0.304" stop-color="#8D9CA8" stop-opacity="0.099"/>
<stop offset="0.4613" stop-color="#8D9CA8" stop-opacity="0.222"/>
<stop offset="0.6204" stop-color="#8D9CA8" stop-opacity="0.395"/>
<stop offset="0.7808" stop-color="#8D9CA8" stop-opacity="0.618"/>
<stop offset="0.9402" stop-color="#8D9CA8" stop-opacity="0.887"/>
<stop offset="1" stop-color="#8D9CA8"/>
</linearGradient>
<linearGradient id="paint24_linear_2001_347" x1="35.5019" y1="29.3928" x2="36.3685" y2="16.8889" gradientUnits="userSpaceOnUse">
<stop stop-color="#8D9CA8" stop-opacity="0"/>
<stop offset="0.1493" stop-color="#8D9CA8" stop-opacity="0.025"/>
<stop offset="0.304" stop-color="#8D9CA8" stop-opacity="0.099"/>
<stop offset="0.4613" stop-color="#8D9CA8" stop-opacity="0.222"/>
<stop offset="0.6204" stop-color="#8D9CA8" stop-opacity="0.395"/>
<stop offset="0.7808" stop-color="#8D9CA8" stop-opacity="0.618"/>
<stop offset="0.9402" stop-color="#8D9CA8" stop-opacity="0.887"/>
<stop offset="1" stop-color="#8D9CA8"/>
</linearGradient>
<linearGradient id="paint25_linear_2001_347" x1="45.292" y1="1.72105" x2="52.1214" y2="8.55051" gradientUnits="userSpaceOnUse">
<stop stop-color="#FE646F"/>
<stop offset="0.236" stop-color="#FC5F6B"/>
<stop offset="0.4805" stop-color="#F7535F"/>
<stop offset="0.7289" stop-color="#EF3E4B"/>
<stop offset="0.9785" stop-color="#E5212F"/>
<stop offset="1" stop-color="#E41F2D"/>
</linearGradient>
<linearGradient id="paint26_linear_2001_347" x1="49.5495" y1="6.95141" x2="53.9651" y2="9.22114" gradientUnits="userSpaceOnUse">
<stop stop-color="#C41926" stop-opacity="0"/>
<stop offset="0.1865" stop-color="#C01926" stop-opacity="0.038"/>
<stop offset="0.3798" stop-color="#B61C26" stop-opacity="0.152"/>
<stop offset="0.5761" stop-color="#A62126" stop-opacity="0.343"/>
<stop offset="0.7747" stop-color="#8F2826" stop-opacity="0.609"/>
<stop offset="0.9732" stop-color="#713126" stop-opacity="0.949"/>
<stop offset="1" stop-color="#6D3326"/>
</linearGradient>
<linearGradient id="paint27_linear_2001_347" x1="19.0437" y1="34.9485" x2="17.0009" y2="36.9912" gradientUnits="userSpaceOnUse">
<stop stop-color="#8D9CA8" stop-opacity="0"/>
<stop offset="0.1493" stop-color="#8D9CA8" stop-opacity="0.025"/>
<stop offset="0.304" stop-color="#8D9CA8" stop-opacity="0.099"/>
<stop offset="0.4613" stop-color="#8D9CA8" stop-opacity="0.222"/>
<stop offset="0.6204" stop-color="#8D9CA8" stop-opacity="0.395"/>
<stop offset="0.7808" stop-color="#8D9CA8" stop-opacity="0.618"/>
<stop offset="0.9402" stop-color="#8D9CA8" stop-opacity="0.887"/>
<stop offset="1" stop-color="#8D9CA8"/>
</linearGradient>
<linearGradient id="paint28_linear_2001_347" x1="35.981" y1="9.3589" x2="35.9809" y2="26.7076" gradientUnits="userSpaceOnUse">
<stop stop-color="#60B7FF"/>
<stop offset="0.1892" stop-color="#5EB2FC"/>
<stop offset="0.3853" stop-color="#58A6F6"/>
<stop offset="0.5845" stop-color="#4F91EB"/>
<stop offset="0.7859" stop-color="#4274DD"/>
<stop offset="0.9873" stop-color="#324FCA"/>
<stop offset="1" stop-color="#314DC9"/>
</linearGradient>
<linearGradient id="paint29_linear_2001_347" x1="35.981" y1="25.6812" x2="35.981" y2="8.4422" gradientUnits="userSpaceOnUse">
<stop stop-color="#60B7FF"/>
<stop offset="0.1892" stop-color="#5EB2FC"/>
<stop offset="0.3853" stop-color="#58A6F6"/>
<stop offset="0.5845" stop-color="#4F91EB"/>
<stop offset="0.7859" stop-color="#4274DD"/>
<stop offset="0.9873" stop-color="#324FCA"/>
<stop offset="1" stop-color="#314DC9"/>
</linearGradient>
<linearGradient id="paint30_linear_2001_347" x1="34.8513" y1="19.1404" x2="27.8284" y2="26.1634" gradientUnits="userSpaceOnUse">
<stop stop-color="#192A7D" stop-opacity="0"/>
<stop offset="0.1738" stop-color="#192A7D" stop-opacity="0.033"/>
<stop offset="0.354" stop-color="#192A7D" stop-opacity="0.133"/>
<stop offset="0.537" stop-color="#192A7D" stop-opacity="0.299"/>
<stop offset="0.7221" stop-color="#192A7D" stop-opacity="0.531"/>
<stop offset="0.907" stop-color="#192A7D" stop-opacity="0.827"/>
<stop offset="1" stop-color="#192A7D"/>
</linearGradient>
<linearGradient id="paint31_linear_2001_347" x1="36.8472" y1="19.3196" x2="42.7613" y2="28.2578" gradientUnits="userSpaceOnUse">
<stop stop-color="#192A7D" stop-opacity="0"/>
<stop offset="0.1738" stop-color="#192A7D" stop-opacity="0.033"/>
<stop offset="0.354" stop-color="#192A7D" stop-opacity="0.133"/>
<stop offset="0.537" stop-color="#192A7D" stop-opacity="0.299"/>
<stop offset="0.7221" stop-color="#192A7D" stop-opacity="0.531"/>
<stop offset="0.907" stop-color="#192A7D" stop-opacity="0.827"/>
<stop offset="1" stop-color="#192A7D"/>
</linearGradient>
<linearGradient id="paint32_linear_2001_347" x1="35.981" y1="10.3817" x2="35.9809" y2="23.5261" gradientUnits="userSpaceOnUse">
<stop stop-color="#7B7179"/>
<stop offset="0.2651" stop-color="#766D74"/>
<stop offset="0.5398" stop-color="#6A6369"/>
<stop offset="0.8179" stop-color="#555255"/>
<stop offset="1" stop-color="#444444"/>
</linearGradient>
<linearGradient id="paint33_linear_2001_347" x1="37.9695" y1="19.9995" x2="30.6651" y2="12.6951" gradientUnits="userSpaceOnUse">
<stop stop-color="#444444" stop-opacity="0"/>
<stop offset="0.3899" stop-color="#3D3D3D" stop-opacity="0.16"/>
<stop offset="0.7931" stop-color="#292929" stop-opacity="0.637"/>
<stop offset="1" stop-color="#1A1A1A"/>
</linearGradient>
<linearGradient id="paint34_linear_2001_347" x1="35.7874" y1="20.957" x2="36.5303" y2="9.64986" gradientUnits="userSpaceOnUse">
<stop stop-color="#444444" stop-opacity="0"/>
<stop offset="0.3899" stop-color="#3D3D3D" stop-opacity="0.16"/>
<stop offset="0.7931" stop-color="#292929" stop-opacity="0.637"/>
<stop offset="1" stop-color="#1A1A1A"/>
</linearGradient>
<linearGradient id="paint35_linear_2001_347" x1="34.5804" y1="19.4114" x2="41.5428" y2="12.449" gradientUnits="userSpaceOnUse">
<stop stop-color="#444444" stop-opacity="0"/>
<stop offset="0.3899" stop-color="#3D3D3D" stop-opacity="0.16"/>
<stop offset="0.7931" stop-color="#292929" stop-opacity="0.637"/>
<stop offset="1" stop-color="#1A1A1A"/>
</linearGradient>
<linearGradient id="paint36_linear_2001_347" x1="27.6146" y1="10.6096" x2="23.1335" y2="36.0645" gradientUnits="userSpaceOnUse">
<stop stop-color="#EAF6FF"/>
<stop offset="0.2677" stop-color="#E5F3FC"/>
<stop offset="0.5449" stop-color="#D9EAF6"/>
<stop offset="0.8257" stop-color="#C4DDEB"/>
<stop offset="1" stop-color="#B4D2E2"/>
</linearGradient>
<linearGradient id="paint37_linear_2001_347" x1="22.6645" y1="31.3275" x2="20.8052" y2="33.1868" gradientUnits="userSpaceOnUse">
<stop stop-color="#8D9CA8" stop-opacity="0"/>
<stop offset="0.1493" stop-color="#8D9CA8" stop-opacity="0.025"/>
<stop offset="0.304" stop-color="#8D9CA8" stop-opacity="0.099"/>
<stop offset="0.4613" stop-color="#8D9CA8" stop-opacity="0.222"/>
<stop offset="0.6204" stop-color="#8D9CA8" stop-opacity="0.395"/>
<stop offset="0.7808" stop-color="#8D9CA8" stop-opacity="0.618"/>
<stop offset="0.9402" stop-color="#8D9CA8" stop-opacity="0.887"/>
<stop offset="1" stop-color="#8D9CA8"/>
</linearGradient>
<linearGradient id="paint38_linear_2001_347" x1="26.3273" y1="31.8276" x2="28.5282" y2="34.0285" gradientUnits="userSpaceOnUse">
<stop stop-color="#8D9CA8" stop-opacity="0"/>
<stop offset="0.1493" stop-color="#8D9CA8" stop-opacity="0.025"/>
<stop offset="0.304" stop-color="#8D9CA8" stop-opacity="0.099"/>
<stop offset="0.4613" stop-color="#8D9CA8" stop-opacity="0.222"/>
<stop offset="0.6204" stop-color="#8D9CA8" stop-opacity="0.395"/>
<stop offset="0.7808" stop-color="#8D9CA8" stop-opacity="0.618"/>
<stop offset="0.9402" stop-color="#8D9CA8" stop-opacity="0.887"/>
<stop offset="1" stop-color="#8D9CA8"/>
</linearGradient>
<linearGradient id="paint39_linear_2001_347" x1="25.9367" y1="35.8087" x2="21.6862" y2="32.0121" gradientUnits="userSpaceOnUse">
<stop stop-color="#8D9CA8" stop-opacity="0"/>
<stop offset="0.1493" stop-color="#8D9CA8" stop-opacity="0.025"/>
<stop offset="0.304" stop-color="#8D9CA8" stop-opacity="0.099"/>
<stop offset="0.4613" stop-color="#8D9CA8" stop-opacity="0.222"/>
<stop offset="0.6204" stop-color="#8D9CA8" stop-opacity="0.395"/>
<stop offset="0.7808" stop-color="#8D9CA8" stop-opacity="0.618"/>
<stop offset="0.9402" stop-color="#8D9CA8" stop-opacity="0.887"/>
<stop offset="1" stop-color="#8D9CA8"/>
</linearGradient>
<linearGradient id="paint40_linear_2001_347" x1="20.0214" y1="31.8403" x2="22.1991" y2="34.018" gradientUnits="userSpaceOnUse">
<stop stop-color="#60B7FF"/>
<stop offset="0.1892" stop-color="#5EB2FC"/>
<stop offset="0.3853" stop-color="#58A6F6"/>
<stop offset="0.5845" stop-color="#4F91EB"/>
<stop offset="0.7859" stop-color="#4274DD"/>
<stop offset="0.9873" stop-color="#324FCA"/>
<stop offset="1" stop-color="#314DC9"/>
</linearGradient>
<linearGradient id="paint41_linear_2001_347" x1="16.5056" y1="37.4865" x2="14.7307" y2="39.2614" gradientUnits="userSpaceOnUse">
<stop stop-color="#192A7D" stop-opacity="0"/>
<stop offset="0.1738" stop-color="#192A7D" stop-opacity="0.033"/>
<stop offset="0.354" stop-color="#192A7D" stop-opacity="0.133"/>
<stop offset="0.537" stop-color="#192A7D" stop-opacity="0.299"/>
<stop offset="0.7221" stop-color="#192A7D" stop-opacity="0.531"/>
<stop offset="0.907" stop-color="#192A7D" stop-opacity="0.827"/>
<stop offset="1" stop-color="#192A7D"/>
</linearGradient>
<clipPath id="clip0_2001_347">
<rect width="54" height="54" fill="white"/>
</clipPath>
</defs>
</svg>
