<svg width="54" height="54" viewBox="0 0 54 54" fill="none" xmlns="http://www.w3.org/2000/svg">
<g clip-path="url(#clip0_2001_425)">
<path d="M47.2409 7.1937C41.2924 7.1937 35.5256 5.14414 30.9113 1.39018C28.633 -0.463394 25.3665 -0.463394 23.0882 1.39018C18.474 5.14424 12.7071 7.1937 6.75875 7.1937C4.90126 7.1937 3.39551 8.69945 3.39551 10.5569V19.5709C3.39551 31.1344 8.60248 42.0833 17.5725 49.381L20.341 51.6334C24.2196 54.7889 29.7803 54.7889 33.6589 51.6334L36.4274 49.381C45.3973 42.0834 50.6044 31.134 50.6044 19.5705C50.6044 16.1098 50.6044 12.8577 50.6044 10.5562C50.6041 8.69871 49.0984 7.1937 47.2409 7.1937Z" fill="url(#paint0_linear_2001_425)"/>
<path d="M26.9997 51.0323C26.3512 51.0323 25.717 50.8069 25.214 50.3977L19.9189 46.0897C16.0513 42.9431 12.8751 38.8999 10.7337 34.3973C8.59233 29.8946 7.46045 24.8792 7.46045 19.8933V12.7401C7.46045 11.8747 8.16796 11.1388 9.03217 11.0932C14.9253 10.7816 20.6225 8.59626 25.214 4.86073C25.7171 4.45139 26.3512 4.22607 26.9997 4.22607C27.6482 4.22607 28.2823 4.45139 28.7854 4.86063C33.3771 8.59626 39.0744 10.7816 44.9675 11.0932C45.8315 11.1388 46.5389 11.8746 46.5389 12.7399V19.8929C46.5389 24.8789 45.407 29.8943 43.2656 34.397C41.1243 38.8999 37.9481 42.9431 34.0805 46.0897L28.7854 50.3977C28.2823 50.807 27.6482 51.0323 26.9997 51.0323Z" fill="url(#paint1_linear_2001_425)"/>
<path d="M26.9997 49.0577C26.4059 49.0577 25.8252 48.8513 25.3646 48.4766L20.5164 44.5323C16.9752 41.6512 14.067 37.9491 12.1064 33.8265C10.1458 29.7039 9.10938 25.1117 9.10938 20.5464V13.9969C9.10938 13.2045 9.75716 12.5308 10.5484 12.4889C15.9442 12.2035 21.1607 10.2027 25.3646 6.78236C25.8253 6.40764 26.406 6.20117 26.9997 6.20117C27.5935 6.20117 28.1741 6.40754 28.6346 6.78225C32.8388 10.2027 38.0554 12.2035 43.4512 12.4889C44.2423 12.5307 44.89 13.2043 44.89 13.9965V20.5459C44.89 25.1111 43.8536 29.7033 41.893 33.8262C39.9324 37.949 37.0242 41.6511 33.483 44.5322L28.6346 48.4765C28.1741 48.8513 27.5935 49.0577 26.9997 49.0577Z" fill="url(#paint2_linear_2001_425)"/>
<path d="M50.6044 10.5563C50.6044 8.69876 49.0986 7.19375 47.2411 7.19375C41.2926 7.19375 35.5259 5.14419 30.9115 1.39024C29.7723 0.463447 28.3862 0 27 0V54C29.3598 54 31.7196 53.2112 33.6589 51.6334L36.4274 49.3811C45.3974 42.0835 50.6044 31.1341 50.6045 19.5706C50.6044 16.1098 50.6044 12.8576 50.6044 10.5563Z" fill="url(#paint3_linear_2001_425)"/>
<path d="M44.6213 15.7139C43.5634 14.6562 41.8483 14.873 40.7905 15.9308L27.5923 29.1288C27.4637 29.2574 27.1001 29.5013 26.9997 29.5013C26.8993 29.5013 26.7526 29.4743 26.6238 29.3455L21.5648 24.2865C20.5069 23.2287 18.9002 23.2287 17.8424 24.2865C16.7845 25.3444 16.6761 26.8426 17.7339 27.9005L37.9274 48.0939C45.4587 41.2949 49.9961 31.7882 50.5469 21.66L44.6213 15.7139Z" fill="url(#paint4_linear_2001_425)"/>
<path d="M36.4271 49.381C42.8295 44.1722 47.3141 37.1027 49.3573 29.2777L37.1507 17.0712C34.6031 14.3805 30.9976 12.9185 26.9997 12.9185C19.3827 12.9184 13.2392 19.062 13.2393 26.679C13.2393 30.6769 14.7013 34.2823 17.3921 36.8299L32.0629 51.5007C32.5111 51.9489 33.2258 51.9856 33.7175 51.5855L36.4271 49.381Z" fill="url(#paint5_linear_2001_425)"/>
<path d="M26.9997 40.6561C34.7191 40.6561 40.9769 34.3983 40.9769 26.6789C40.9769 18.9595 34.7191 12.7017 26.9997 12.7017C19.2803 12.7017 13.0225 18.9595 13.0225 26.6789C13.0225 34.3983 19.2803 40.6561 26.9997 40.6561Z" fill="url(#paint6_linear_2001_425)"/>
<path d="M38.2867 18.4346L27.5923 29.1288C27.4637 29.2574 27.1001 29.5013 26.9997 29.5013C26.8993 29.5013 26.7526 29.4743 26.6238 29.3455L21.5648 24.2865C20.5069 23.2287 18.9002 23.2287 17.8424 24.2865C16.7845 25.3443 16.6761 26.8426 17.7339 27.9005L30.1359 40.3025C36.3452 38.8789 40.9769 33.3198 40.9769 26.6787C40.9769 23.5954 39.9777 20.7459 38.2867 18.4346Z" fill="url(#paint7_linear_2001_425)"/>
<path d="M26.9996 34.7021C25.4105 34.7021 23.9165 34.0832 22.7929 32.9596L17.7338 27.9006C16.676 26.8427 16.676 25.1277 17.7338 24.0698C18.7916 23.012 20.5067 23.012 21.5647 24.0698L26.6237 29.1288C26.7525 29.2576 26.8992 29.2846 26.9996 29.2846C27.1 29.2846 27.2467 29.2576 27.3755 29.1288L40.7904 15.714C41.8482 14.6562 43.5633 14.6562 44.6212 15.714C45.679 16.7718 45.679 18.4869 44.6212 19.5448L31.2063 32.9596C30.0827 34.0832 28.5887 34.7021 26.9996 34.7021Z" fill="url(#paint8_linear_2001_425)"/>
</g>
<defs>
<linearGradient id="paint0_linear_2001_425" x1="7.22273" y1="2.54928" x2="47.9309" y2="43.2574" gradientUnits="userSpaceOnUse">
<stop stop-color="#B5DBFF"/>
<stop offset="1" stop-color="#76E2F8"/>
</linearGradient>
<linearGradient id="paint1_linear_2001_425" x1="53.5624" y1="49.5369" x2="17.5442" y2="13.5186" gradientUnits="userSpaceOnUse">
<stop stop-color="#B5DBFF" stop-opacity="0"/>
<stop offset="0.2428" stop-color="#93CEF6" stop-opacity="0.243"/>
<stop offset="0.5763" stop-color="#6ABFEC" stop-opacity="0.576"/>
<stop offset="0.8403" stop-color="#51B5E5" stop-opacity="0.84"/>
<stop offset="1" stop-color="#48B2E3"/>
</linearGradient>
<linearGradient id="paint2_linear_2001_425" x1="20.0357" y1="16.4033" x2="35.8577" y2="32.2253" gradientUnits="userSpaceOnUse">
<stop stop-color="#EDF5FF"/>
<stop offset="1" stop-color="#D5E8FE"/>
</linearGradient>
<linearGradient id="paint3_linear_2001_425" x1="31.906" y1="27.9096" x2="-0.59919" y2="12.3072" gradientUnits="userSpaceOnUse">
<stop stop-color="#B5DBFF" stop-opacity="0"/>
<stop offset="0.1734" stop-color="#8FC5E9" stop-opacity="0.173"/>
<stop offset="0.4541" stop-color="#56A4C8" stop-opacity="0.454"/>
<stop offset="0.6955" stop-color="#2D8DB1" stop-opacity="0.696"/>
<stop offset="0.8853" stop-color="#147EA2" stop-opacity="0.885"/>
<stop offset="1" stop-color="#0B799D"/>
</linearGradient>
<linearGradient id="paint4_linear_2001_425" x1="44.3403" y1="34.2193" x2="33.2163" y2="25.7679" gradientUnits="userSpaceOnUse">
<stop stop-color="#B5DBFF" stop-opacity="0"/>
<stop offset="0.1734" stop-color="#8FC5E9" stop-opacity="0.173"/>
<stop offset="0.4541" stop-color="#56A4C8" stop-opacity="0.454"/>
<stop offset="0.6955" stop-color="#2D8DB1" stop-opacity="0.696"/>
<stop offset="0.8853" stop-color="#147EA2" stop-opacity="0.885"/>
<stop offset="1" stop-color="#0B799D"/>
</linearGradient>
<linearGradient id="paint5_linear_2001_425" x1="42.4676" y1="42.1468" x2="23.9277" y2="23.6069" gradientUnits="userSpaceOnUse">
<stop stop-color="#B5DBFF" stop-opacity="0"/>
<stop offset="0.1734" stop-color="#8FC5E9" stop-opacity="0.173"/>
<stop offset="0.4541" stop-color="#56A4C8" stop-opacity="0.454"/>
<stop offset="0.6955" stop-color="#2D8DB1" stop-opacity="0.696"/>
<stop offset="0.8853" stop-color="#147EA2" stop-opacity="0.885"/>
<stop offset="1" stop-color="#0B799D"/>
</linearGradient>
<linearGradient id="paint6_linear_2001_425" x1="20.4986" y1="20.1779" x2="33.9708" y2="33.65" gradientUnits="userSpaceOnUse">
<stop stop-color="#B9DD39"/>
<stop offset="1" stop-color="#90CC1C"/>
</linearGradient>
<linearGradient id="paint7_linear_2001_425" x1="39.7041" y1="34.8614" x2="34.6945" y2="29.8517" gradientUnits="userSpaceOnUse">
<stop stop-color="#66BB00" stop-opacity="0"/>
<stop offset="1" stop-color="#66BB00"/>
</linearGradient>
<linearGradient id="paint8_linear_2001_425" x1="25.7695" y1="16.3991" x2="39.723" y2="30.3526" gradientUnits="userSpaceOnUse">
<stop stop-color="#0B799D"/>
<stop offset="1" stop-color="#07485E"/>
</linearGradient>
<clipPath id="clip0_2001_425">
<rect width="54" height="54" fill="white"/>
</clipPath>
</defs>
</svg>
