<svg width="54" height="54" viewBox="0 0 54 54" fill="none" xmlns="http://www.w3.org/2000/svg">
<g clip-path="url(#clip0_2001_510)">
<path d="M47.8671 26.5393C47.2796 34.4041 43.6378 41.7446 37.683 46.9168C35.2034 49.0704 32.5034 51.0659 29.294 53.2839C27.9134 54.2384 26.0867 54.2384 24.7061 53.2839C21.5737 51.1186 18.9264 49.1664 16.4964 47.0718C10.4594 41.869 6.72687 34.4852 6.13318 26.5382C5.73135 21.1604 5.87795 15.3828 6.58775 10.7222L6.58828 10.7184C6.61718 10.5254 6.79574 10.3956 6.98948 10.4189C7.16583 10.4401 7.34544 10.4511 7.52748 10.4511C9.44153 10.4511 11.0725 9.23827 11.6947 7.53959C11.9567 6.82388 12.6168 6.33155 13.3756 6.26068C17.7682 5.85083 22.5491 4.38892 25.4181 0.764912C26.225 -0.254971 27.7754 -0.254971 28.5822 0.764912C31.4513 4.38882 36.2322 5.85083 40.6246 6.26068C41.3835 6.33145 42.0435 6.82388 42.3056 7.53959C42.9277 9.23827 44.5587 10.4511 46.4728 10.4511C46.6548 10.4511 46.8344 10.4401 47.0108 10.4189C47.2045 10.3956 47.3831 10.5254 47.412 10.7184L47.4125 10.7222C48.1223 15.3829 48.2689 21.1615 47.8671 26.5393Z" fill="url(#paint0_linear_2001_510)"/>
<path d="M39.7981 8.8223C36.2891 8.42078 31.7578 7.28773 28.3165 4.28683C27.563 3.62965 26.4377 3.62965 25.6841 4.28683C22.2429 7.28762 17.7115 8.42078 14.2026 8.8223C13.9202 8.85457 13.6771 9.0267 13.5413 9.27645C12.6925 10.8385 11.2536 12.0327 9.52317 12.5597C9.19094 12.6608 8.95184 12.9507 8.91493 13.296C8.4901 17.2688 8.43135 21.8991 8.76305 26.3416C9.03232 29.9475 9.99598 33.4142 11.6276 36.6456C13.2581 39.8748 15.4755 42.7108 18.2181 45.0745C20.3435 46.9063 22.7236 48.7071 26.1713 51.0915C26.3641 51.2249 26.584 51.3216 26.8166 51.3515C27.1664 51.3965 27.5103 51.3123 27.7952 51.1154C31.3449 48.6614 33.7851 46.8105 35.9544 44.9262C38.6491 42.5855 40.8274 39.7711 42.4285 36.561C44.0254 33.3596 44.9704 29.9217 45.2377 26.343C45.5695 21.8999 45.5107 17.2691 45.086 13.2961C45.0491 12.9508 44.81 12.6609 44.4777 12.5598C42.7473 12.0328 41.3084 10.8385 40.4596 9.27655C40.3236 9.0267 40.0805 8.85468 39.7981 8.8223Z" fill="url(#paint1_linear_2001_510)"/>
<path d="M47.4121 10.7185C47.3832 10.5255 47.2046 10.3957 47.0109 10.419C46.8345 10.4402 46.6549 10.4512 46.473 10.4512C44.5589 10.4512 42.928 9.23842 42.3058 7.53974C42.0437 6.82402 41.3837 6.3317 40.6249 6.26082C36.2323 5.85086 31.4514 4.38896 28.5823 0.76495C28.0597 0.104399 27.2258 -0.125628 26.4834 0.0695945V53.9643C27.4517 54.0893 28.4552 53.864 29.2942 53.284C32.5037 51.0659 35.2037 49.0705 37.6832 46.9168C43.638 41.7446 47.2798 34.4041 47.8673 26.5393C48.2691 21.1614 48.1225 15.3829 47.4127 10.7223L47.4121 10.7185Z" fill="url(#paint2_linear_2001_510)"/>
<path d="M47.7511 27.7385C46.8884 35.226 43.2356 42.1322 37.5041 47.0719C35.0739 49.1664 32.4266 51.119 29.2945 53.2843C27.9141 54.2387 26.087 54.2387 24.7064 53.2843C21.4971 51.0657 18.7968 49.0703 16.3176 46.9167C10.667 42.0087 7.10086 35.1474 6.24951 27.7385H47.7511Z" fill="url(#paint3_linear_2001_510)"/>
<path d="M6.24951 27.7385C7.11225 35.226 10.7651 42.1322 16.4965 47.0719C18.9267 49.1664 21.574 51.119 24.7061 53.2843C26.0866 54.2387 27.9136 54.2387 29.2942 53.2843C32.5035 51.0657 35.2038 49.0703 37.6831 46.9167C43.3337 42.0087 46.8998 35.1474 47.751 27.7385H6.24951Z" fill="url(#paint4_linear_2001_510)"/>
<path d="M18.2181 45.0746C20.3435 46.9064 22.7235 48.707 26.1712 51.0915C26.364 51.2248 26.5838 51.3215 26.8163 51.3514C27.1663 51.3965 27.5102 51.3122 27.7952 51.1153C31.3449 48.6614 33.7851 46.8104 35.9544 44.9261C38.4468 42.7611 40.4964 40.19 42.0572 37.2763L40.2926 35.5117H11.0879C11.2591 35.8927 11.4384 36.2709 11.6276 36.6456C13.2581 39.8749 15.4755 42.7108 18.2181 45.0746Z" fill="url(#paint5_linear_2001_510)"/>
<path d="M44.4775 12.5598C42.7471 12.0328 41.3082 10.8387 40.4594 9.27656C40.3237 9.02681 40.0805 8.85469 39.7981 8.82242C39.6204 8.80206 39.4394 8.77938 39.2567 8.75513L35.9819 10.7508V37.3668H42.0077C42.1514 37.1008 42.2927 36.8329 42.4283 36.5611C44.0252 33.3597 44.9702 29.9219 45.2376 26.3431C45.5694 21.9 45.5105 17.2692 45.0858 13.2962C45.0489 12.9508 44.8098 12.661 44.4775 12.5598Z" fill="url(#paint6_linear_2001_510)"/>
<path d="M36.552 17.7934L37.2554 16.772C38.1601 15.3431 38.9865 13.8675 39.7284 12.3479C40.4373 10.8962 39.7993 9.14482 38.3277 8.47973C38.1579 8.40263 37.9849 8.34473 37.8114 8.30339C36.6026 8.01356 35.3149 8.53995 34.6654 9.65096C34.5045 9.92655 34.3097 10.2369 34.0878 10.5721C32.6264 12.7795 30.8686 14.7616 28.8793 16.4811C28.7464 16.5854 28.6193 16.6888 28.5014 16.7907C26.7145 18.3344 24.4263 19.1757 22.0653 19.1757H20.7886V36.1125H23.4268C24.2707 36.1125 25.1008 36.3269 25.8399 36.7355C26.4521 37.0727 27.1012 37.3299 27.7737 37.5027C28.444 37.6743 29.1365 37.7638 29.8356 37.7638H39.6678V17.7936L36.552 17.7934Z" fill="url(#paint7_linear_2001_510)"/>
<path d="M39.6678 17.7935V37.7636H29.8356C29.1364 37.7636 28.444 37.6742 27.7737 37.5026C27.1013 37.3296 26.4522 37.0726 25.8399 36.7354C25.1008 36.3267 24.2707 36.1124 23.4268 36.1124H20.7886V19.1756H22.0653C23.8494 19.1756 25.5929 18.6949 27.1086 17.7935H39.6678Z" fill="url(#paint8_linear_2001_510)"/>
<path d="M39.7284 12.3479C40.4373 10.8962 39.7993 9.14482 38.3277 8.47973C38.1579 8.40263 37.9849 8.34473 37.8114 8.30339C36.6026 8.01356 35.3149 8.53995 34.6654 9.65096C34.5045 9.92655 34.3097 10.2369 34.0878 10.5721C32.6264 12.7795 30.8686 14.7616 28.8793 16.4811C28.7464 16.5854 28.6193 16.6888 28.5014 16.7907C26.7145 18.3344 24.4263 19.1757 22.0653 19.1757H20.7886V30.6832C21.9204 31.0892 23.1403 31.3109 24.4123 31.3109C29.4969 31.3109 33.7557 27.7752 34.8641 23.0284L36.5519 17.7933L37.2553 16.7719C38.16 15.3431 38.9864 13.8675 39.7284 12.3479Z" fill="url(#paint9_linear_2001_510)"/>
<path d="M36.552 17.7934L36.5531 17.7929L37.2555 16.772C38.1602 15.3431 38.9865 13.8675 39.7285 12.3479C40.4374 10.8962 39.7994 9.14482 38.3278 8.47973C38.158 8.40263 37.985 8.34473 37.8115 8.30339C36.6026 8.01356 35.3149 8.53995 34.6655 9.65096C34.5045 9.92655 34.3097 10.2369 34.0878 10.5721C32.2392 13.3645 29.9176 15.7983 27.2505 17.7934H36.552Z" fill="url(#paint10_linear_2001_510)"/>
<path d="M30.3162 15.0315C29.7441 15.6509 29.1395 16.2393 28.5017 16.7905C26.394 18.6114 23.5887 19.4551 20.7895 19.0936C20.789 19.0935 20.7886 19.0939 20.7886 19.0945V36.1129H23.4271C24.2709 36.1129 25.1008 36.3267 25.8403 36.7353C26.4526 37.0726 27.1016 37.3297 27.7737 37.5028C28.4444 37.6746 29.1368 37.7637 29.8356 37.7637H30.3162V15.0315Z" fill="url(#paint11_linear_2001_510)"/>
<path d="M20.7886 26.075V36.1126H23.4268C24.2707 36.1126 25.1008 36.3269 25.8399 36.7356C26.4521 37.0728 27.1012 37.3299 27.7737 37.5028C28.444 37.6744 29.1365 37.7638 29.8356 37.7638H39.6678V26.075H20.7886Z" fill="url(#paint12_linear_2001_510)"/>
<path d="M20.8124 37.4678H15.5171C14.6992 37.4678 14.0361 36.8047 14.0361 35.9868V19.3501C14.0361 18.5322 14.6992 17.8691 15.5171 17.8691H20.8124C21.6303 17.8691 22.2934 18.5322 22.2934 19.3501V35.9868C22.2934 36.8047 21.6303 37.4678 20.8124 37.4678Z" fill="url(#paint13_linear_2001_510)"/>
<path d="M20.8124 37.4678H15.5171C14.6992 37.4678 14.0361 36.8047 14.0361 35.9868V19.3501C14.0361 18.5322 14.6992 17.8691 15.5171 17.8691H20.8124C21.6303 17.8691 22.2934 18.5322 22.2934 19.3501V35.9868C22.2934 36.8047 21.6303 37.4678 20.8124 37.4678Z" fill="url(#paint14_linear_2001_510)"/>
<path d="M22.2934 35.9867V24.7124H14.0361V35.9867C14.0361 36.8046 14.6992 37.4677 15.5171 37.4677H20.8124C21.6303 37.4677 22.2934 36.8046 22.2934 35.9867Z" fill="url(#paint15_linear_2001_510)"/>
<path d="M17.9986 39.3702H11.6752C10.6985 39.3702 9.90674 38.5785 9.90674 37.6017V17.7348C9.90674 16.7581 10.6985 15.9663 11.6752 15.9663H17.9986C18.9754 15.9663 19.7671 16.7581 19.7671 17.7348V37.6017C19.7672 38.5784 18.9754 39.3702 17.9986 39.3702Z" fill="url(#paint16_linear_2001_510)"/>
<path d="M19.7672 37.6017V24.1384H9.90674V37.6017C9.90674 38.5785 10.6985 39.3702 11.6752 39.3702H17.9986C18.9754 39.3703 19.7672 38.5785 19.7672 37.6017Z" fill="url(#paint17_linear_2001_510)"/>
<path d="M31.1514 20.334C31.1514 18.9309 32.2888 17.7935 33.6919 17.7935H41.0935C42.4355 17.7935 43.56 18.9985 43.56 20.3329C43.56 22.7013 41.9246 22.8662 41.8162 22.8745H41.81H33.6919C32.2887 22.8745 31.1514 21.737 31.1514 20.334Z" fill="url(#paint18_linear_2001_510)"/>
<path d="M41.0935 17.7935H37.772V22.8745H41.8101H41.8162C41.9246 22.8662 43.56 22.7013 43.56 20.3329C43.56 18.9984 42.4355 17.7935 41.0935 17.7935Z" fill="url(#paint19_linear_2001_510)"/>
<path d="M31.1514 25.415C31.1514 24.012 32.2888 22.8745 33.6919 22.8745H41.6277C42.9697 22.8745 44.0942 24.0796 44.0942 25.414C44.0942 27.7824 42.4588 27.9472 42.3504 27.9556H42.3442H33.6919C32.2887 27.9556 31.1514 26.8181 31.1514 25.415Z" fill="url(#paint20_linear_2001_510)"/>
<path d="M41.6278 22.8745H37.772V27.9556H42.3444H42.3505C42.4589 27.9472 44.0943 27.7824 44.0943 25.414C44.0942 24.0795 42.9697 22.8745 41.6278 22.8745Z" fill="url(#paint21_linear_2001_510)"/>
<path d="M31.1514 30.4961C31.1514 29.093 32.2888 27.9556 33.6919 27.9556H41.0935C42.4355 27.9556 43.56 29.1606 43.56 30.495C43.56 32.8634 41.9246 33.0283 41.8162 33.0366H41.81H33.6919C32.2887 33.0366 31.1514 31.8991 31.1514 30.4961Z" fill="url(#paint22_linear_2001_510)"/>
<path d="M41.0935 27.9556H37.772V33.0366H41.8101H41.8162C41.9246 33.0283 43.56 32.8634 43.56 30.495C43.56 29.1605 42.4355 27.9556 41.0935 27.9556Z" fill="url(#paint23_linear_2001_510)"/>
<path d="M31.1514 35.5772C31.1514 34.1741 32.2888 33.0366 33.6919 33.0366H40.2305C41.5725 33.0366 42.697 34.2417 42.697 35.5761C42.697 37.9445 41.0616 38.1094 40.9532 38.1177H40.9471H33.6919C32.2887 38.1177 31.1514 36.9802 31.1514 35.5772Z" fill="url(#paint24_linear_2001_510)"/>
<path d="M40.2303 33.0366H36.3745V38.1177H40.9469H40.953C41.0614 38.1094 42.6968 37.9445 42.6968 35.5761C42.6968 34.2416 41.5723 33.0366 40.2303 33.0366Z" fill="url(#paint25_linear_2001_510)"/>
</g>
<defs>
<linearGradient id="paint0_linear_2001_510" x1="12.6382" y1="9.58874" x2="45.8896" y2="42.8402" gradientUnits="userSpaceOnUse">
<stop stop-color="#B3DAFE"/>
<stop offset="1" stop-color="#0182FC"/>
</linearGradient>
<linearGradient id="paint1_linear_2001_510" x1="48.7407" y1="39.3304" x2="4.13413" y2="12.6767" gradientUnits="userSpaceOnUse">
<stop stop-color="#B3DAFE"/>
<stop offset="1" stop-color="#0182FC"/>
</linearGradient>
<linearGradient id="paint2_linear_2001_510" x1="41.8499" y1="27.676" x2="49.2932" y2="28.0144" gradientUnits="userSpaceOnUse">
<stop stop-color="#314DC9" stop-opacity="0"/>
<stop offset="0.2761" stop-color="#304BC4" stop-opacity="0.276"/>
<stop offset="0.5628" stop-color="#2B45B8" stop-opacity="0.563"/>
<stop offset="0.8535" stop-color="#243BA3" stop-opacity="0.854"/>
<stop offset="1" stop-color="#1F3596"/>
</linearGradient>
<linearGradient id="paint3_linear_2001_510" x1="19.4838" y1="41.7456" x2="14.8223" y2="48.5123" gradientUnits="userSpaceOnUse">
<stop stop-color="#314DC9" stop-opacity="0"/>
<stop offset="0.2761" stop-color="#304BC4" stop-opacity="0.276"/>
<stop offset="0.5628" stop-color="#2B45B8" stop-opacity="0.563"/>
<stop offset="0.8535" stop-color="#243BA3" stop-opacity="0.854"/>
<stop offset="1" stop-color="#1F3596"/>
</linearGradient>
<linearGradient id="paint4_linear_2001_510" x1="34.5168" y1="41.7456" x2="39.1783" y2="48.5123" gradientUnits="userSpaceOnUse">
<stop stop-color="#314DC9" stop-opacity="0"/>
<stop offset="0.2761" stop-color="#304BC4" stop-opacity="0.276"/>
<stop offset="0.5628" stop-color="#2B45B8" stop-opacity="0.563"/>
<stop offset="0.8535" stop-color="#243BA3" stop-opacity="0.854"/>
<stop offset="1" stop-color="#1F3596"/>
</linearGradient>
<linearGradient id="paint5_linear_2001_510" x1="26.4422" y1="46.7726" x2="26.5925" y2="34.7931" gradientUnits="userSpaceOnUse">
<stop stop-color="#314DC9" stop-opacity="0"/>
<stop offset="0.2761" stop-color="#304BC4" stop-opacity="0.276"/>
<stop offset="0.5628" stop-color="#2B45B8" stop-opacity="0.563"/>
<stop offset="0.8535" stop-color="#243BA3" stop-opacity="0.854"/>
<stop offset="1" stop-color="#1F3596"/>
</linearGradient>
<linearGradient id="paint6_linear_2001_510" x1="41.38" y1="24.1495" x2="33.5983" y2="21.7812" gradientUnits="userSpaceOnUse">
<stop stop-color="#314DC9" stop-opacity="0"/>
<stop offset="0.2761" stop-color="#304BC4" stop-opacity="0.276"/>
<stop offset="0.5628" stop-color="#2B45B8" stop-opacity="0.563"/>
<stop offset="0.8535" stop-color="#243BA3" stop-opacity="0.854"/>
<stop offset="1" stop-color="#1F3596"/>
</linearGradient>
<linearGradient id="paint7_linear_2001_510" x1="27.2091" y1="17.7606" x2="39.741" y2="39.1619" gradientUnits="userSpaceOnUse">
<stop stop-color="#FFDFCF"/>
<stop offset="1" stop-color="#FFA78F"/>
</linearGradient>
<linearGradient id="paint8_linear_2001_510" x1="28.1057" y1="26.2826" x2="34.4365" y2="28.2818" gradientUnits="userSpaceOnUse">
<stop stop-color="#F89580" stop-opacity="0"/>
<stop offset="0.2859" stop-color="#EE8E79" stop-opacity="0.287"/>
<stop offset="0.7624" stop-color="#D57B65" stop-opacity="0.765"/>
<stop offset="0.9972" stop-color="#C5715A"/>
</linearGradient>
<linearGradient id="paint9_linear_2001_510" x1="31.1563" y1="21.0088" x2="36.8682" y2="26.5303" gradientUnits="userSpaceOnUse">
<stop stop-color="#F89580" stop-opacity="0"/>
<stop offset="0.2859" stop-color="#EE8E79" stop-opacity="0.287"/>
<stop offset="0.7624" stop-color="#D57B65" stop-opacity="0.765"/>
<stop offset="0.9972" stop-color="#C5715A"/>
</linearGradient>
<linearGradient id="paint10_linear_2001_510" x1="35.1172" y1="14.8694" x2="38.3222" y2="17.3203" gradientUnits="userSpaceOnUse">
<stop stop-color="#F89580" stop-opacity="0"/>
<stop offset="0.2859" stop-color="#EE8E79" stop-opacity="0.287"/>
<stop offset="0.7624" stop-color="#D57B65" stop-opacity="0.765"/>
<stop offset="0.9972" stop-color="#C5715A"/>
</linearGradient>
<linearGradient id="paint11_linear_2001_510" x1="25.2804" y1="26.3975" x2="21.0591" y2="26.3975" gradientUnits="userSpaceOnUse">
<stop stop-color="#F89580" stop-opacity="0"/>
<stop offset="0.2859" stop-color="#EE8E79" stop-opacity="0.287"/>
<stop offset="0.7624" stop-color="#D57B65" stop-opacity="0.765"/>
<stop offset="0.9972" stop-color="#C5715A"/>
</linearGradient>
<linearGradient id="paint12_linear_2001_510" x1="30.2281" y1="32.9293" x2="30.2281" y2="37.9758" gradientUnits="userSpaceOnUse">
<stop stop-color="#F89580" stop-opacity="0"/>
<stop offset="0.2859" stop-color="#EE8E79" stop-opacity="0.287"/>
<stop offset="0.7624" stop-color="#D57B65" stop-opacity="0.765"/>
<stop offset="0.9972" stop-color="#C5715A"/>
</linearGradient>
<linearGradient id="paint13_linear_2001_510" x1="17.8657" y1="27.6683" x2="21.9668" y2="27.6683" gradientUnits="userSpaceOnUse">
<stop stop-color="#F5FBFF"/>
<stop offset="1" stop-color="#D8ECFE"/>
</linearGradient>
<linearGradient id="paint14_linear_2001_510" x1="22.0849" y1="27.6685" x2="19.8265" y2="27.6685" gradientUnits="userSpaceOnUse">
<stop stop-color="#B3DAFE" stop-opacity="0"/>
<stop offset="0.4315" stop-color="#B1D9FE" stop-opacity="0.432"/>
<stop offset="0.6657" stop-color="#A9D6FE" stop-opacity="0.666"/>
<stop offset="0.852" stop-color="#9BD0FE" stop-opacity="0.852"/>
<stop offset="1" stop-color="#8AC9FE"/>
</linearGradient>
<linearGradient id="paint15_linear_2001_510" x1="18.1647" y1="33.1172" x2="18.1647" y2="36.871" gradientUnits="userSpaceOnUse">
<stop stop-color="#B3DAFE" stop-opacity="0"/>
<stop offset="0.4315" stop-color="#B1D9FE" stop-opacity="0.432"/>
<stop offset="0.6657" stop-color="#A9D6FE" stop-opacity="0.666"/>
<stop offset="0.852" stop-color="#9BD0FE" stop-opacity="0.852"/>
<stop offset="1" stop-color="#8AC9FE"/>
</linearGradient>
<linearGradient id="paint16_linear_2001_510" x1="12.0817" y1="27.6683" x2="18.9219" y2="27.6683" gradientUnits="userSpaceOnUse">
<stop stop-color="#FEF0AE"/>
<stop offset="1" stop-color="#FAC600"/>
</linearGradient>
<linearGradient id="paint17_linear_2001_510" x1="14.837" y1="34.1752" x2="14.837" y2="38.6579" gradientUnits="userSpaceOnUse">
<stop stop-color="#FE9738" stop-opacity="0"/>
<stop offset="1" stop-color="#FE9738"/>
</linearGradient>
<linearGradient id="paint18_linear_2001_510" x1="37.2285" y1="18.4618" x2="37.5241" y2="22.8227" gradientUnits="userSpaceOnUse">
<stop stop-color="#FFDFCF"/>
<stop offset="1" stop-color="#FFA78F"/>
</linearGradient>
<linearGradient id="paint19_linear_2001_510" x1="40.7268" y1="20.9352" x2="43.3069" y2="22.539" gradientUnits="userSpaceOnUse">
<stop stop-color="#F89580" stop-opacity="0"/>
<stop offset="0.2859" stop-color="#EE8E79" stop-opacity="0.287"/>
<stop offset="0.7624" stop-color="#D57B65" stop-opacity="0.765"/>
<stop offset="0.9972" stop-color="#C5715A"/>
</linearGradient>
<linearGradient id="paint20_linear_2001_510" x1="37.4948" y1="23.5307" x2="37.7923" y2="27.9196" gradientUnits="userSpaceOnUse">
<stop stop-color="#FFDFCF"/>
<stop offset="1" stop-color="#FFA78F"/>
</linearGradient>
<linearGradient id="paint21_linear_2001_510" x1="41.0375" y1="26.0433" x2="43.7899" y2="27.7542" gradientUnits="userSpaceOnUse">
<stop stop-color="#F89580" stop-opacity="0"/>
<stop offset="0.2859" stop-color="#EE8E79" stop-opacity="0.287"/>
<stop offset="0.7624" stop-color="#D57B65" stop-opacity="0.765"/>
<stop offset="0.9972" stop-color="#C5715A"/>
</linearGradient>
<linearGradient id="paint22_linear_2001_510" x1="37.2285" y1="28.6239" x2="37.5241" y2="32.9848" gradientUnits="userSpaceOnUse">
<stop stop-color="#FFDFCF"/>
<stop offset="1" stop-color="#FFA78F"/>
</linearGradient>
<linearGradient id="paint23_linear_2001_510" x1="40.7268" y1="31.0973" x2="43.3069" y2="32.7011" gradientUnits="userSpaceOnUse">
<stop stop-color="#F89580" stop-opacity="0"/>
<stop offset="0.2859" stop-color="#EE8E79" stop-opacity="0.287"/>
<stop offset="0.7624" stop-color="#D57B65" stop-opacity="0.765"/>
<stop offset="0.9972" stop-color="#C5715A"/>
</linearGradient>
<linearGradient id="paint24_linear_2001_510" x1="36.7984" y1="33.7247" x2="37.0909" y2="38.0403" gradientUnits="userSpaceOnUse">
<stop stop-color="#FFDFCF"/>
<stop offset="1" stop-color="#FFA78F"/>
</linearGradient>
<linearGradient id="paint25_linear_2001_510" x1="39.6401" y1="36.2054" x2="42.3925" y2="37.9163" gradientUnits="userSpaceOnUse">
<stop stop-color="#F89580" stop-opacity="0"/>
<stop offset="0.2859" stop-color="#EE8E79" stop-opacity="0.287"/>
<stop offset="0.7624" stop-color="#D57B65" stop-opacity="0.765"/>
<stop offset="0.9972" stop-color="#C5715A"/>
</linearGradient>
<clipPath id="clip0_2001_510">
<rect width="54" height="54" fill="white"/>
</clipPath>
</defs>
</svg>
